<svg width="48" height="48" viewBox="0 0 48 48" fill="none" xmlns="http://www.w3.org/2000/svg">
<g filter="url(#filter0_d)">
<circle cx="24" cy="20" r="20" fill="#FF7C44"/>
<path d="M34.2667 18.1333H30.2667H28.6667V21.0666C28.6667 22.6666 27.4667 23.8666 25.8667 23.8666H23.0667V25.3333C23.0667 26.4 23.8667 27.2 24.9334 27.2H29.8667C30 27.2 30 27.2 30.1334 27.3333L32.5334 30.6666C32.6667 30.8 32.8 30.6666 32.8 30.5333V27.6C32.8 27.3333 32.9334 27.2 33.2 27.2H34.2667C35.3334 27.2 36.1334 26.4 36.1334 25.3333V20C36.1334 18.9333 35.3334 18.1333 34.2667 18.1333Z" fill="white"/>
<path d="M15.3333 26.9333V23.0666C15.3333 22.7999 15.0667 22.5333 14.8 22.5333H13.4667C12.2667 22.5333 11.2 21.4666 11.2 20.2666V13.5999C11.2 12.3999 12.2667 11.3333 13.4667 11.3333H24.9333C26.1333 11.3333 27.2 12.3999 27.2 13.5999V20.2666C27.2 21.4666 26.1333 22.5333 24.9333 22.5333H18.9333C18.9333 22.5333 18.8 22.5333 18.5333 22.6666L15.3333 26.9333ZM13.6 12.5333C13.0667 12.5333 12.5333 13.0666 12.5333 13.5999V20.2666C12.5333 20.7999 13.0667 21.3333 13.6 21.3333H14.9333C15.8667 21.3333 16.5333 22.1333 16.5333 22.9333V23.3333L17.6 21.8666C18 21.4666 18.4 21.1999 18.9333 21.1999H25.0667C25.6 21.1999 26.1333 20.6666 26.1333 20.1333V13.4666C26.1333 12.9333 25.6 12.3999 25.0667 12.3999H13.6V12.5333Z" fill="white"/>
</g>
<defs>
<filter id="filter0_d" x="0" y="0" width="48" height="48" filterUnits="userSpaceOnUse" color-interpolation-filters="sRGB">
<feFlood flood-opacity="0" result="BackgroundImageFix"/>
<feColorMatrix in="SourceAlpha" type="matrix" values="0 0 0 0 0 0 0 0 0 0 0 0 0 0 0 0 0 0 127 0"/>
<feOffset dy="4"/>
<feGaussianBlur stdDeviation="2"/>
<feColorMatrix type="matrix" values="0 0 0 0 0 0 0 0 0 0 0 0 0 0 0 0 0 0 0.25 0"/>
<feBlend mode="normal" in2="BackgroundImageFix" result="effect1_dropShadow"/>
<feBlend mode="normal" in="SourceGraphic" in2="effect1_dropShadow" result="shape"/>
</filter>
</defs>
</svg>
