<svg width="206" height="118" viewBox="0 0 206 118" fill="none" xmlns="http://www.w3.org/2000/svg">
<path d="M62.2928 35.3989C62.2928 35.3989 42.789 14.6314 23.417 19.7518C17.4065 43.0905 42.4154 53.749 42.4154 53.749L67.3254 53.9577L62.2928 35.3989Z" fill="#5C81A2"/>
<path d="M32.7921 47.8927L53.2739 43.3327L34.9788 29.0921L22.9138 31.3776L22.793 30.7623L34.3305 28.5757L23.0017 19.7522L23.6171 19.4446L44.3736 35.6081L45.4284 22.6531L46.0108 23.1915L44.9559 36.0696L68.0419 54.0461L67.6573 54.5405L53.9222 43.8381L33.5393 48.3762L32.7921 47.8927Z" fill="white"/>
<path d="M59.1389 50.7934C59.1389 50.7934 35.8441 46.0905 27.2734 59.5839C41.3602 88.988 79.2141 72.6268 79.2141 72.6268L59.1389 50.7934Z" fill="#63C0C4"/>
<path d="M46.5602 76.3185L59.3504 63.7921L27.1992 59.8473L27.2761 59.221L46.791 61.6274L38.5609 51.1997L39.3411 51.1667L47.67 61.7263L74.1513 64.9788L74.0744 65.6051L60.1525 63.8909L47.4063 76.3624L46.5602 76.3185Z" fill="white"/>
<path d="M73.799 36.0143C73.799 36.0143 68.9752 7.87376 48.5264 3.4126C28.7039 33.465 59.2947 51.3097 59.2947 51.3097L73.799 36.0143Z" fill="#FFBEA2"/>
<path d="M41.6797 27.4329L41.6907 26.7516L61.1945 35.2674L51.0305 2.98441L51.6239 2.78662L58.8431 25.6968L66.6226 16.0053L66.7655 16.8294L59.0628 26.411L64.9195 45.0029L64.458 45.6292L61.4473 36.0585L41.6797 27.4329Z" fill="white"/>
<path d="M205.997 110.327C205.997 107.701 160.089 105.58 103.467 105.58C46.8457 105.58 0.9375 107.701 0.9375 110.327C0.9375 112.953 46.8457 115.041 103.467 115.041C160.089 115.041 205.997 112.942 205.997 110.327Z" fill="#E7F2FB"/>
<path d="M163.739 42.6074H174.387V6.02808H163.739V42.6074Z" fill="#FFBEA2"/>
<path d="M171.557 34.7287C171.56 34.2322 171.414 33.7463 171.14 33.3327C170.865 32.919 170.474 32.5962 170.016 32.4052C169.558 32.2142 169.053 32.1637 168.566 32.26C168.079 32.3563 167.632 32.5952 167.281 32.9462C166.93 33.2972 166.691 33.7446 166.594 34.2316C166.498 34.7186 166.549 35.2233 166.74 35.6815C166.931 36.1397 167.253 36.5309 167.667 36.8053C168.081 37.0798 168.567 37.2251 169.063 37.2229C169.724 37.2201 170.357 36.9563 170.824 36.4892C171.291 36.022 171.555 35.3893 171.557 34.7287Z" fill="#879DAE"/>
<path d="M169.067 37.4977C168.521 37.4977 167.988 37.336 167.534 37.0329C167.081 36.7298 166.727 36.2991 166.519 35.7951C166.31 35.2912 166.255 34.7366 166.362 34.2016C166.468 33.6666 166.731 33.1752 167.116 32.7895C167.502 32.4038 167.994 32.1411 168.529 32.0347C169.064 31.9283 169.618 31.9829 170.122 32.1916C170.626 32.4004 171.057 32.7539 171.36 33.2074C171.663 33.661 171.825 34.1942 171.825 34.7397C171.822 35.4703 171.53 36.1701 171.014 36.6867C170.497 37.2033 169.797 37.4948 169.067 37.4977ZM169.067 32.5091C168.632 32.5091 168.207 32.638 167.846 32.8795C167.484 33.121 167.203 33.4642 167.036 33.8657C166.87 34.2673 166.826 34.7092 166.911 35.1355C166.996 35.5618 167.205 35.9533 167.513 36.2607C167.82 36.568 168.212 36.7773 168.638 36.8621C169.064 36.9469 169.506 36.9034 169.908 36.7371C170.309 36.5707 170.652 36.2891 170.894 35.9277C171.135 35.5663 171.264 35.1414 171.264 34.7067C171.264 34.1239 171.033 33.5649 170.621 33.1528C170.208 32.7407 169.649 32.5091 169.067 32.5091Z" fill="white"/>
<g opacity="0.7">
<path opacity="0.7" d="M165.935 28.2678H172.176V7.70911H165.935V28.2678Z" fill="white"/>
</g>
<path d="M166.668 9.28052H171.316V8.45641H166.668V9.28052Z" fill="#FF8855"/>
<path d="M169.859 21.3894V26.0374H170.277V21.3894H169.859Z" fill="#9DAEBD"/>
<path d="M169.859 15.5657V20.2136H170.277V15.5657H169.859Z" fill="#9DAEBD"/>
<path d="M167.492 21.3894V26.0374H167.91V21.3894H167.492Z" fill="#9DAEBD"/>
<path d="M167.492 15.5547V20.2026H167.91V15.5547H167.492Z" fill="#9DAEBD"/>
<path d="M168.727 20.1917V26.0374H169.144V20.1917H168.727Z" fill="#9DAEBD"/>
<path d="M168.727 12.8626V18.7083H169.144V12.8626H168.727Z" fill="#9DAEBD"/>
<path d="M151.583 42.6074H162.23V6.02808H151.583V42.6074Z" fill="#FFBEA2"/>
<path d="M156.904 37.223C158.282 37.223 159.399 36.1062 159.399 34.7287C159.399 33.3511 158.282 32.2344 156.904 32.2344C155.527 32.2344 154.41 33.3511 154.41 34.7287C154.41 36.1062 155.527 37.223 156.904 37.223Z" fill="#879DAE"/>
<path d="M156.903 37.4977C156.357 37.4977 155.824 37.336 155.37 37.0329C154.917 36.7298 154.563 36.2991 154.354 35.7951C154.146 35.2912 154.091 34.7366 154.198 34.2016C154.304 33.6666 154.567 33.1752 154.952 32.7895C155.338 32.4038 155.829 32.1411 156.364 32.0347C156.899 31.9283 157.454 31.9829 157.958 32.1916C158.462 32.4004 158.893 32.7539 159.196 33.2074C159.499 33.661 159.661 34.1942 159.661 34.7397C159.658 35.4703 159.366 36.1701 158.85 36.6867C158.333 37.2033 157.633 37.4948 156.903 37.4977ZM156.903 32.5091C156.468 32.5091 156.043 32.638 155.682 32.8795C155.32 33.121 155.039 33.4642 154.872 33.8657C154.706 34.2673 154.662 34.7092 154.747 35.1355C154.832 35.5618 155.041 35.9533 155.349 36.2607C155.656 36.568 156.048 36.7773 156.474 36.8621C156.9 36.9469 157.342 36.9034 157.744 36.7371C158.145 36.5707 158.488 36.2891 158.73 35.9277C158.971 35.5663 159.1 35.1414 159.1 34.7067C159.1 34.1239 158.869 33.5649 158.456 33.1528C158.044 32.7407 157.485 32.5091 156.903 32.5091Z" fill="white"/>
<g opacity="0.7">
<path opacity="0.7" d="M153.786 28.2678H160.027V7.70911H153.786V28.2678Z" fill="white"/>
</g>
<path d="M154.516 9.28052H159.164V8.45641H154.516V9.28052Z" fill="#FF8855"/>
<path d="M157.707 21.3894V26.0374H158.125V21.3894H157.707Z" fill="#9DAEBD"/>
<path d="M157.695 15.5547V20.2026H158.113V15.5547H157.695Z" fill="#9DAEBD"/>
<path d="M155.34 21.3894V26.0374H155.757V21.3894H155.34Z" fill="#9DAEBD"/>
<path d="M155.332 15.5547V20.2026H155.75V15.5547H155.332Z" fill="#9DAEBD"/>
<path d="M156.562 20.1917V26.0374H156.98V20.1917H156.562Z" fill="#9DAEBD"/>
<path d="M156.562 12.8626V18.7083H156.98V12.8626H156.562Z" fill="#9DAEBD"/>
<path d="M139.431 42.6074H150.078V6.02808H139.431V42.6074Z" fill="#FFBEA2"/>
<path d="M144.748 37.223C146.126 37.223 147.242 36.1062 147.242 34.7287C147.242 33.3511 146.126 32.2344 144.748 32.2344C143.371 32.2344 142.254 33.3511 142.254 34.7287C142.254 36.1062 143.371 37.223 144.748 37.223Z" fill="#879DAE"/>
<path d="M144.703 37.4977C144.158 37.4977 143.625 37.336 143.171 37.0329C142.718 36.7298 142.364 36.2991 142.155 35.7951C141.947 35.2912 141.892 34.7366 141.998 34.2016C142.105 33.6666 142.367 33.1752 142.753 32.7895C143.139 32.4038 143.63 32.1411 144.165 32.0347C144.7 31.9283 145.255 31.9829 145.759 32.1916C146.263 32.4004 146.693 32.7539 146.997 33.2074C147.3 33.661 147.461 34.1942 147.461 34.7397C147.461 35.4712 147.171 36.1727 146.654 36.6899C146.136 37.2071 145.435 37.4977 144.703 37.4977ZM144.703 32.5091C144.269 32.5091 143.844 32.638 143.482 32.8795C143.121 33.121 142.839 33.4642 142.673 33.8657C142.507 34.2673 142.463 34.7092 142.548 35.1355C142.633 35.5618 142.842 35.9533 143.149 36.2607C143.457 36.568 143.848 36.7773 144.275 36.8621C144.701 36.9469 145.143 36.9034 145.544 36.7371C145.946 36.5707 146.289 36.2891 146.531 35.9277C146.772 35.5663 146.901 35.1414 146.901 34.7067C146.901 34.1239 146.669 33.5649 146.257 33.1528C145.845 32.7407 145.286 32.5091 144.703 32.5091Z" fill="white"/>
<g opacity="0.7">
<path opacity="0.7" d="M141.622 28.2678H147.863V7.70911H141.622V28.2678Z" fill="white"/>
</g>
<path d="M142.368 9.28052H147.016V8.45641H142.368V9.28052Z" fill="#FF8855"/>
<path d="M145.551 21.3894V26.0374H145.968V21.3894H145.551Z" fill="#9DAEBD"/>
<path d="M145.543 15.5657V20.2136H145.961V15.5657H145.543Z" fill="#9DAEBD"/>
<path d="M143.176 21.3894V26.0374H143.593V21.3894H143.176Z" fill="#9DAEBD"/>
<path d="M143.176 15.5656V20.2136H143.593V15.5656H143.176Z" fill="#9DAEBD"/>
<path d="M144.41 20.1917V26.0374H144.828V20.1917H144.41Z" fill="#9DAEBD"/>
<path d="M144.41 12.8626V18.7083H144.828V12.8626H144.41Z" fill="#9DAEBD"/>
<path d="M127.267 42.6074H137.914V6.02808H127.267V42.6074Z" fill="#FFBEA2"/>
<path d="M135.093 34.7287C135.095 34.2313 134.949 33.7446 134.673 33.3305C134.398 32.9164 134.005 32.5936 133.546 32.4033C133.086 32.213 132.581 32.1638 132.093 32.2619C131.605 32.36 131.158 32.601 130.808 32.9543C130.458 33.3075 130.221 33.757 130.127 34.2454C130.033 34.7339 130.087 35.2392 130.281 35.697C130.476 36.1548 130.802 36.5444 131.218 36.8161C131.635 37.0879 132.123 37.2295 132.62 37.223C133.277 37.2144 133.904 36.9481 134.367 36.4816C134.829 36.0151 135.09 35.3856 135.093 34.7287Z" fill="#879DAE"/>
<path d="M132.618 37.4977C132.073 37.4955 131.541 37.3319 131.089 37.0275C130.637 36.7232 130.285 36.2917 130.078 35.7875C129.871 35.2834 129.818 34.7292 129.925 34.1949C130.033 33.6606 130.297 33.1702 130.683 32.7856C131.069 32.401 131.56 32.1394 132.095 32.0339C132.63 31.9284 133.184 31.9836 133.687 32.1927C134.19 32.4017 134.62 32.7552 134.923 33.2086C135.226 33.6619 135.387 34.1947 135.387 34.7397C135.384 35.4722 135.091 36.1736 134.572 36.6906C134.053 37.2075 133.351 37.4977 132.618 37.4977ZM132.618 32.5091C132.183 32.5091 131.759 32.638 131.397 32.8795C131.036 33.1209 130.754 33.4642 130.588 33.8657C130.421 34.2673 130.378 34.7092 130.463 35.1354C130.548 35.5617 130.757 35.9533 131.064 36.2607C131.372 36.568 131.763 36.7773 132.189 36.8621C132.616 36.9469 133.058 36.9034 133.459 36.737C133.861 36.5707 134.204 36.289 134.445 35.9276C134.687 35.5662 134.816 35.1414 134.816 34.7067C134.816 34.1239 134.584 33.5649 134.172 33.1528C133.76 32.7406 133.201 32.5091 132.618 32.5091Z" fill="white"/>
<g opacity="0.7">
<path opacity="0.7" d="M129.478 28.2678H135.719V7.70911H129.478V28.2678Z" fill="white"/>
</g>
<path d="M130.204 9.28052H134.852V8.45641H130.204V9.28052Z" fill="#FF8855"/>
<path d="M133.387 21.3894V26.0374H133.804V21.3894H133.387Z" fill="#9DAEBD"/>
<path d="M133.387 15.5547V20.2026H133.804V15.5547H133.387Z" fill="#9DAEBD"/>
<path d="M131.027 21.3894V26.0374H131.445V21.3894H131.027Z" fill="#9DAEBD"/>
<path d="M131.027 15.5547V20.2026H131.445V15.5547H131.027Z" fill="#9DAEBD"/>
<path d="M132.246 20.1917V26.0374H132.664V20.1917H132.246Z" fill="#9DAEBD"/>
<path d="M132.246 12.8626V18.7083H132.664V12.8626H132.246Z" fill="#9DAEBD"/>
<path d="M115.118 42.6074H125.766V6.02808H115.118V42.6074Z" fill="#FFBEA2"/>
<path d="M120.432 37.223C121.809 37.223 122.926 36.1062 122.926 34.7287C122.926 33.3511 121.809 32.2344 120.432 32.2344C119.054 32.2344 117.938 33.3511 117.938 34.7287C117.938 36.1062 119.054 37.223 120.432 37.223Z" fill="#879DAE"/>
<path d="M120.43 37.4977C119.884 37.4977 119.351 37.336 118.898 37.0329C118.444 36.7298 118.091 36.2991 117.882 35.7951C117.673 35.2912 117.618 34.7366 117.725 34.2016C117.831 33.6666 118.094 33.1752 118.48 32.7895C118.865 32.4038 119.357 32.1411 119.892 32.0347C120.427 31.9283 120.981 31.9829 121.485 32.1916C121.989 32.4004 122.42 32.7539 122.723 33.2074C123.026 33.661 123.188 34.1942 123.188 34.7397C123.188 35.4712 122.897 36.1727 122.38 36.6899C121.863 37.2071 121.161 37.4977 120.43 37.4977ZM120.43 32.5091C119.995 32.5091 119.57 32.638 119.209 32.8795C118.848 33.121 118.566 33.4642 118.4 33.8657C118.233 34.2673 118.19 34.7092 118.274 35.1355C118.359 35.5618 118.569 35.9533 118.876 36.2607C119.183 36.568 119.575 36.7773 120.001 36.8621C120.427 36.9469 120.869 36.9034 121.271 36.7371C121.672 36.5707 122.016 36.2891 122.257 35.9277C122.499 35.5663 122.628 35.1414 122.628 34.7067C122.628 34.1239 122.396 33.5649 121.984 33.1528C121.572 32.7407 121.013 32.5091 120.43 32.5091Z" fill="white"/>
<g opacity="0.7">
<path opacity="0.7" d="M117.313 28.2678H123.555V7.70911H117.313V28.2678Z" fill="white"/>
</g>
<path d="M118.04 9.28052H122.688V8.45641H118.04V9.28052Z" fill="#FF8855"/>
<path d="M121.234 21.3894V26.0374H121.652V21.3894H121.234Z" fill="#9DAEBD"/>
<path d="M121.223 15.5547V20.2026H121.64V15.5547H121.223Z" fill="#9DAEBD"/>
<path d="M118.871 21.3894V26.0374H119.289V21.3894H118.871Z" fill="#9DAEBD"/>
<path d="M118.863 15.5657V20.2136H119.281V15.5657H118.863Z" fill="#9DAEBD"/>
<path d="M120.094 20.1917V26.0374H120.511V20.1917H120.094Z" fill="#9DAEBD"/>
<path d="M120.094 12.8626V18.7083H120.511V12.8626H120.094Z" fill="#9DAEBD"/>
<path d="M102.954 42.6074H113.602V6.02808H102.954V42.6074Z" fill="#FFBEA2"/>
<path d="M110.772 34.7287C110.774 34.2322 110.629 33.7463 110.355 33.3327C110.08 32.919 109.689 32.5962 109.231 32.4052C108.773 32.2142 108.268 32.1637 107.781 32.26C107.294 32.3563 106.847 32.5952 106.496 32.9462C106.144 33.2972 105.906 33.7446 105.809 34.2316C105.713 34.7186 105.764 35.2233 105.955 35.6815C106.146 36.1397 106.468 36.5309 106.882 36.8053C107.296 37.0798 107.782 37.2251 108.278 37.2229C108.939 37.2201 109.571 36.9563 110.039 36.4892C110.506 36.022 110.769 35.3893 110.772 34.7287Z" fill="#879DAE"/>
<path d="M108.281 37.4977C107.736 37.4977 107.203 37.336 106.749 37.0329C106.296 36.7298 105.942 36.2991 105.733 35.7951C105.525 35.2912 105.47 34.7366 105.576 34.2016C105.683 33.6666 105.946 33.1752 106.331 32.7895C106.717 32.4038 107.208 32.1411 107.743 32.0347C108.278 31.9283 108.833 31.9829 109.337 32.1916C109.841 32.4004 110.272 32.7539 110.575 33.2074C110.878 33.661 111.039 34.1942 111.039 34.7397C111.037 35.4703 110.745 36.1701 110.228 36.6867C109.712 37.2033 109.012 37.4948 108.281 37.4977ZM108.281 32.5091C107.847 32.5091 107.422 32.638 107.061 32.8795C106.699 33.121 106.417 33.4642 106.251 33.8657C106.085 34.2673 106.041 34.7092 106.126 35.1355C106.211 35.5618 106.42 35.9533 106.727 36.2607C107.035 36.568 107.426 36.7773 107.853 36.8621C108.279 36.9469 108.721 36.9034 109.122 36.7371C109.524 36.5707 109.867 36.2891 110.109 35.9277C110.35 35.5663 110.479 35.1414 110.479 34.7067C110.479 34.1239 110.248 33.5649 109.835 33.1528C109.423 32.7407 108.864 32.5091 108.281 32.5091Z" fill="white"/>
<g opacity="0.7">
<path opacity="0.7" d="M105.149 28.2678H111.391V7.70911H105.149V28.2678Z" fill="white"/>
</g>
<path d="M105.883 9.28052H110.531V8.45641H105.883V9.28052Z" fill="#FF8855"/>
<path d="M109.07 21.3894V26.0374H109.488V21.3894H109.07Z" fill="#9DAEBD"/>
<path d="M109.07 15.5657V20.2136H109.488V15.5657H109.07Z" fill="#9DAEBD"/>
<path d="M106.711 21.3894V26.0374H107.128V21.3894H106.711Z" fill="#9DAEBD"/>
<path d="M106.711 15.5657V20.2136H107.128V15.5657H106.711Z" fill="#9DAEBD"/>
<path d="M107.938 20.1917V26.0374H108.355V20.1917H107.938Z" fill="#9DAEBD"/>
<path d="M107.938 12.8626V18.7083H108.355V12.8626H107.938Z" fill="#9DAEBD"/>
<path d="M151.583 83.9553H162.23V47.376H151.583V83.9553Z" fill="#63C0C4"/>
<path d="M159.399 76.0661C159.399 75.5727 159.252 75.0905 158.978 74.6803C158.704 74.2701 158.315 73.9504 157.859 73.7616C157.403 73.5729 156.902 73.5235 156.418 73.6197C155.934 73.7159 155.49 73.9535 155.141 74.3023C154.792 74.6512 154.554 75.0956 154.458 75.5795C154.362 76.0633 154.411 76.5648 154.6 77.0206C154.789 77.4764 155.109 77.8659 155.519 78.14C155.929 78.4141 156.411 78.5604 156.904 78.5604C157.566 78.5604 158.2 78.2976 158.668 77.8298C159.136 77.362 159.399 76.7276 159.399 76.0661Z" fill="#879DAE"/>
<path d="M156.901 78.8461C156.353 78.8483 155.817 78.6877 155.36 78.3848C154.903 78.0818 154.546 77.6501 154.335 77.1444C154.124 76.6386 154.067 76.0815 154.173 75.5436C154.279 75.0058 154.541 74.5114 154.928 74.123C155.315 73.7347 155.808 73.4699 156.346 73.3621C156.883 73.2544 157.441 73.3086 157.947 73.5178C158.454 73.7271 158.887 74.082 159.192 74.5376C159.496 74.9932 159.659 75.529 159.659 76.0771C159.659 76.8096 159.369 77.5122 158.852 78.0312C158.335 78.5502 157.634 78.8432 156.901 78.8461ZM156.901 73.8465C156.466 73.8465 156.042 73.9754 155.68 74.2169C155.319 74.4583 155.037 74.8016 154.871 75.2031C154.704 75.6047 154.661 76.0466 154.746 76.4728C154.83 76.8991 155.04 77.2907 155.347 77.5981C155.654 77.9054 156.046 78.1147 156.472 78.1995C156.899 78.2843 157.341 78.2408 157.742 78.0745C158.144 77.9081 158.487 77.6264 158.728 77.265C158.97 76.9037 159.099 76.4788 159.099 76.0441C159.099 75.4613 158.867 74.9023 158.455 74.4902C158.043 74.078 157.484 73.8465 156.901 73.8465Z" fill="white"/>
<g opacity="0.7">
<path opacity="0.7" d="M153.786 69.605H160.027V49.0463H153.786V69.605Z" fill="white"/>
</g>
<path d="M154.516 50.6284H159.164V49.8043H154.516V50.6284Z" fill="#63C0C4"/>
<path d="M157.695 62.7263V67.3743H158.113V62.7263H157.695Z" fill="#9DAEBD"/>
<path d="M157.707 56.9028V61.5508H158.125V56.9028H157.707Z" fill="#9DAEBD"/>
<path d="M155.332 62.7263V67.3743H155.75V62.7263H155.332Z" fill="#9DAEBD"/>
<path d="M155.34 56.9028V61.5508H155.757V56.9028H155.34Z" fill="#9DAEBD"/>
<path d="M156.574 61.5396V67.3853H156.992V61.5396H156.574Z" fill="#9DAEBD"/>
<path d="M156.574 54.2107V60.0564H156.992V54.2107H156.574Z" fill="#9DAEBD"/>
<path d="M139.431 83.9553H150.078V47.376H139.431V83.9553Z" fill="#9DAEBD"/>
<path d="M147.242 76.0659C147.242 75.5745 147.097 75.094 146.825 74.6849C146.553 74.2757 146.166 73.956 145.713 73.766C145.259 73.576 144.76 73.5241 144.278 73.6168C143.795 73.7096 143.35 73.9428 143 74.2872C142.649 74.6317 142.408 75.072 142.307 75.5529C142.206 76.0339 142.249 76.5339 142.431 76.9904C142.613 77.4469 142.926 77.8394 143.331 78.1187C143.735 78.398 144.213 78.5516 144.704 78.5602C145.035 78.5661 145.365 78.5059 145.672 78.3831C145.98 78.2604 146.26 78.0776 146.496 77.8454C146.733 77.6132 146.92 77.3362 147.049 77.0307C147.177 76.7252 147.243 76.3972 147.242 76.0659Z" fill="#879DAE"/>
<path d="M144.706 78.8461C144.158 78.8483 143.621 78.6877 143.164 78.3848C142.708 78.0818 142.351 77.6501 142.14 77.1444C141.928 76.6386 141.872 76.0815 141.978 75.5436C142.083 75.0058 142.346 74.5114 142.733 74.123C143.12 73.7347 143.613 73.4699 144.151 73.3621C144.688 73.2544 145.245 73.3086 145.752 73.5178C146.258 73.7271 146.692 74.082 146.996 74.5376C147.301 74.9932 147.464 75.529 147.464 76.0771C147.465 76.4402 147.395 76.8 147.257 77.1359C147.119 77.4718 146.916 77.7771 146.66 78.0344C146.404 78.2917 146.099 78.4958 145.764 78.6351C145.428 78.7744 145.069 78.8461 144.706 78.8461ZM144.706 73.8465C144.271 73.8465 143.846 73.9754 143.485 74.2169C143.123 74.4583 142.842 74.8016 142.675 75.2031C142.509 75.6047 142.466 76.0466 142.55 76.4728C142.635 76.8991 142.844 77.2907 143.152 77.5981C143.459 77.9054 143.851 78.1147 144.277 78.1995C144.703 78.2843 145.145 78.2408 145.547 78.0745C145.948 77.9081 146.292 77.6264 146.533 77.265C146.774 76.9037 146.903 76.4788 146.903 76.0441C146.903 75.4613 146.672 74.9023 146.26 74.4902C145.848 74.078 145.289 73.8465 144.706 73.8465Z" fill="white"/>
<g opacity="0.7">
<path opacity="0.7" d="M141.622 69.605H147.863V49.0463H141.622V69.605Z" fill="#E7EBEF"/>
</g>
<path d="M142.368 50.6284H147.016V49.8043H142.368V50.6284Z" fill="#FF8855"/>
<path d="M145.543 62.7373V67.3853H145.961V62.7373H145.543Z" fill="#9DAEBD"/>
<path d="M145.551 56.9028V61.5508H145.968V56.9028H145.551Z" fill="#9DAEBD"/>
<path d="M143.176 62.7373V67.3853H143.593V62.7373H143.176Z" fill="#9DAEBD"/>
<path d="M143.176 56.9028V61.5508H143.593V56.9028H143.176Z" fill="#9DAEBD"/>
<path d="M144.41 61.5286V67.3743H144.828V61.5286H144.41Z" fill="#9DAEBD"/>
<path d="M144.41 54.1997V60.0454H144.828V54.1997H144.41Z" fill="#9DAEBD"/>
<path d="M127.267 83.9553H137.914V47.376H127.267V83.9553Z" fill="#9DAEBD"/>
<path d="M135.093 76.0661C135.095 75.5687 134.949 75.082 134.673 74.6679C134.398 74.2538 134.005 73.931 133.546 73.7407C133.086 73.5504 132.581 73.5012 132.093 73.5993C131.605 73.6974 131.158 73.9384 130.808 74.2917C130.458 74.6449 130.221 75.0944 130.127 75.5828C130.033 76.0713 130.087 76.5766 130.281 77.0344C130.476 77.4922 130.802 77.8818 131.218 78.1535C131.635 78.4253 132.123 78.5669 132.62 78.5604C133.277 78.5518 133.904 78.2855 134.367 77.819C134.829 77.3525 135.09 76.723 135.093 76.0661Z" fill="#879DAE"/>
<path d="M132.621 78.8461C132.073 78.8461 131.538 78.6837 131.082 78.3794C130.627 78.0752 130.272 77.6427 130.062 77.1368C129.853 76.6308 129.798 76.074 129.905 75.5369C130.012 74.9998 130.275 74.5064 130.663 74.1191C131.05 73.7319 131.543 73.4682 132.08 73.3613C132.617 73.2545 133.174 73.3093 133.68 73.5189C134.186 73.7285 134.619 74.0834 134.923 74.5387C135.227 74.9941 135.39 75.5295 135.39 76.0771C135.39 76.8115 135.098 77.5158 134.579 78.0351C134.059 78.5544 133.355 78.8461 132.621 78.8461ZM132.621 73.8465C132.186 73.8465 131.761 73.9754 131.4 74.2169C131.038 74.4584 130.757 74.8016 130.59 75.2032C130.424 75.6047 130.38 76.0466 130.465 76.4729C130.55 76.8992 130.759 77.2908 131.067 77.5981C131.374 77.9054 131.766 78.1147 132.192 78.1995C132.618 78.2843 133.06 78.2408 133.462 78.0745C133.863 77.9081 134.206 77.6265 134.448 77.2651C134.689 76.9037 134.818 76.4788 134.818 76.0441C134.818 75.4613 134.587 74.9023 134.175 74.4902C133.762 74.0781 133.203 73.8465 132.621 73.8465Z" fill="white"/>
<g opacity="0.7">
<path opacity="0.7" d="M129.478 69.605H135.719V49.0463H129.478V69.605Z" fill="#E7EBEF"/>
</g>
<path d="M130.204 50.6284H134.852V49.8043H130.204V50.6284Z" fill="#FF8855"/>
<path d="M133.387 62.7263V67.3743H133.804V62.7263H133.387Z" fill="#9DAEBD"/>
<path d="M133.387 56.9028V61.5508H133.804V56.9028H133.387Z" fill="#9DAEBD"/>
<path d="M131.012 62.7263V67.3743H131.429V62.7263H131.012Z" fill="#9DAEBD"/>
<path d="M131.027 56.9028V61.5508H131.445V56.9028H131.027Z" fill="#9DAEBD"/>
<path d="M132.258 61.5396V67.3853H132.675V61.5396H132.258Z" fill="#9DAEBD"/>
<path d="M132.258 54.2107V60.0564H132.675V54.2107H132.258Z" fill="#9DAEBD"/>
<path d="M115.118 83.9553H125.766V47.376H115.118V83.9553Z" fill="#9DAEBD"/>
<path d="M122.926 76.0661C122.926 75.5727 122.78 75.0905 122.506 74.6803C122.232 74.2701 121.842 73.9504 121.386 73.7616C120.931 73.5729 120.429 73.5235 119.945 73.6197C119.461 73.7159 119.017 73.9535 118.668 74.3023C118.319 74.6512 118.082 75.0956 117.985 75.5795C117.889 76.0633 117.939 76.5648 118.127 77.0206C118.316 77.4764 118.636 77.8659 119.046 78.14C119.456 78.4141 119.938 78.5604 120.432 78.5604C120.759 78.5604 121.084 78.4959 121.386 78.3705C121.689 78.2452 121.964 78.0614 122.196 77.8298C122.427 77.5982 122.611 77.3232 122.736 77.0206C122.862 76.718 122.926 76.3936 122.926 76.0661Z" fill="#879DAE"/>
<path d="M120.432 78.8461C119.884 78.8483 119.348 78.6877 118.891 78.3848C118.434 78.0818 118.078 77.6501 117.866 77.1444C117.655 76.6386 117.599 76.0815 117.704 75.5436C117.81 75.0058 118.073 74.5114 118.459 74.123C118.846 73.7347 119.34 73.4699 119.877 73.3621C120.415 73.2544 120.972 73.3086 121.478 73.5178C121.985 73.7271 122.418 74.082 122.723 74.5376C123.028 74.9932 123.19 75.529 123.19 76.0771C123.192 76.4402 123.122 76.8 122.984 77.1359C122.846 77.4718 122.643 77.7771 122.386 78.0344C122.13 78.2917 121.826 78.4958 121.49 78.6351C121.155 78.7744 120.795 78.8461 120.432 78.8461ZM120.432 73.8465C119.998 73.8465 119.573 73.9754 119.211 74.2169C118.85 74.4583 118.568 74.8016 118.402 75.2031C118.236 75.6047 118.192 76.0466 118.277 76.4728C118.362 76.8991 118.571 77.2907 118.878 77.5981C119.186 77.9054 119.577 78.1147 120.004 78.1995C120.43 78.2843 120.872 78.2408 121.273 78.0745C121.675 77.9081 122.018 77.6264 122.26 77.265C122.501 76.9037 122.63 76.4788 122.63 76.0441C122.63 75.4613 122.398 74.9023 121.986 74.4902C121.574 74.078 121.015 73.8465 120.432 73.8465Z" fill="white"/>
<g opacity="0.7">
<path opacity="0.7" d="M117.313 69.605H123.555V49.0463H117.313V69.605Z" fill="#E7EBEF"/>
</g>
<path d="M118.04 50.6284H122.688V49.8043H118.04V50.6284Z" fill="#FF8855"/>
<path d="M121.223 62.7263V67.3743H121.64V62.7263H121.223Z" fill="#9DAEBD"/>
<path d="M121.234 56.9028V61.5508H121.652V56.9028H121.234Z" fill="#9DAEBD"/>
<path d="M118.863 62.7373V67.3853H119.281V62.7373H118.863Z" fill="#9DAEBD"/>
<path d="M118.871 56.9028V61.5508H119.289V56.9028H118.871Z" fill="#9DAEBD"/>
<path d="M120.094 61.5396V67.3853H120.511V61.5396H120.094Z" fill="#9DAEBD"/>
<path d="M120.102 54.1998V60.0454H120.519V54.1998H120.102Z" fill="#9DAEBD"/>
<path d="M102.954 83.9553H113.602V47.376H102.954V83.9553Z" fill="#9DAEBD"/>
<path d="M110.772 76.0661C110.774 75.5696 110.629 75.0837 110.355 74.6701C110.08 74.2564 109.689 73.9336 109.231 73.7426C108.773 73.5516 108.268 73.5011 107.781 73.5974C107.294 73.6937 106.847 73.9326 106.496 74.2836C106.144 74.6346 105.906 75.082 105.809 75.569C105.713 76.056 105.764 76.5607 105.955 77.0189C106.146 77.4771 106.468 77.8683 106.882 78.1427C107.296 78.4172 107.782 78.5625 108.278 78.5604C108.939 78.5604 109.574 78.2976 110.042 77.8298C110.509 77.362 110.772 76.7276 110.772 76.0661Z" fill="#879DAE"/>
<path d="M108.28 78.8461C107.732 78.8483 107.195 78.6877 106.739 78.3848C106.282 78.0818 105.925 77.6501 105.714 77.1444C105.503 76.6386 105.446 76.0815 105.552 75.5436C105.657 75.0058 105.92 74.5114 106.307 74.123C106.694 73.7347 107.187 73.4699 107.725 73.3621C108.262 73.2544 108.819 73.3086 109.326 73.5178C109.833 73.7271 110.266 74.082 110.571 74.5376C110.875 74.9932 111.038 75.529 111.038 76.0771C111.038 76.8096 110.748 77.5122 110.231 78.0312C109.714 78.5502 109.012 78.8432 108.28 78.8461ZM108.28 73.8465C107.845 73.8465 107.42 73.9754 107.059 74.2169C106.698 74.4583 106.416 74.8016 106.25 75.2031C106.083 75.6047 106.04 76.0466 106.125 76.4728C106.209 76.8991 106.419 77.2907 106.726 77.5981C107.033 77.9054 107.425 78.1147 107.851 78.1995C108.278 78.2843 108.719 78.2408 109.121 78.0745C109.523 77.9081 109.866 77.6264 110.107 77.265C110.349 76.9037 110.478 76.4788 110.478 76.0441C110.478 75.4613 110.246 74.9023 109.834 74.4902C109.422 74.078 108.863 73.8465 108.28 73.8465Z" fill="white"/>
<g opacity="0.7">
<path opacity="0.7" d="M105.149 69.605H111.391V49.0463H105.149V69.605Z" fill="#E7EBEF"/>
</g>
<path d="M105.883 50.6284H110.531V49.8043H105.883V50.6284Z" fill="#FF8855"/>
<path d="M109.07 62.7373V67.3853H109.488V62.7373H109.07Z" fill="#9DAEBD"/>
<path d="M109.07 56.9028V61.5508H109.488V56.9028H109.07Z" fill="#9DAEBD"/>
<path d="M106.711 62.7373V67.3853H107.128V62.7373H106.711Z" fill="#9DAEBD"/>
<path d="M106.711 56.9028V61.5508H107.128V56.9028H106.711Z" fill="#9DAEBD"/>
<path d="M107.938 61.5286V67.3743H108.355V61.5286H107.938Z" fill="#9DAEBD"/>
<path d="M107.938 54.1997V60.0454H108.355V54.1997H107.938Z" fill="#9DAEBD"/>
<path d="M100.389 106.305H102.949L102.949 0.456924H100.389L100.389 106.305Z" fill="#D1DAE0"/>
<path d="M174.385 102.723H176.945V0.457016H174.385V102.723Z" fill="#D1DAE0"/>
<path d="M100.393 43.1238L174.387 43.1238V42.0909L100.393 42.0909V43.1238Z" fill="#D1DAE0"/>
<path d="M100.383 84.4719L178.98 84.4719V83.439L100.383 83.439V84.4719Z" fill="#D1DAE0"/>
<path d="M168.774 84.1222L179.25 82.2166L172.705 46.2386L162.23 48.1443L168.774 84.1222Z" fill="#63C0C4"/>
<path d="M175.054 74.945C174.966 74.4598 174.735 74.0116 174.393 73.6571C174.05 73.3026 173.609 73.0577 173.127 72.9534C172.645 72.8491 172.143 72.89 171.684 73.071C171.226 73.252 170.831 73.5649 170.55 73.9703C170.269 74.3756 170.114 74.8551 170.106 75.3483C170.097 75.8414 170.235 76.326 170.502 76.7407C170.769 77.1555 171.153 77.4819 171.605 77.6786C172.057 77.8753 172.558 77.9335 173.043 77.8459C173.693 77.7255 174.269 77.3531 174.646 76.8097C175.023 76.2663 175.169 75.596 175.054 74.945Z" fill="#879DAE"/>
<path d="M172.604 78.1647C172.082 78.163 171.572 78.0131 171.131 77.7326C170.691 77.452 170.339 77.0523 170.117 76.5798C169.895 76.1073 169.812 75.5816 169.877 75.0636C169.942 74.5456 170.152 74.0567 170.484 73.6537C170.816 73.2506 171.255 72.9501 171.751 72.7869C172.247 72.6237 172.779 72.6046 173.286 72.7318C173.792 72.859 174.252 73.1273 174.612 73.5055C174.971 73.8837 175.217 74.3563 175.318 74.8683C175.45 75.5849 175.293 76.3246 174.881 76.9258C174.47 77.527 173.837 77.9408 173.121 78.0768C172.952 78.123 172.779 78.1525 172.604 78.1647ZM172.604 73.1761C172.469 73.1652 172.333 73.1652 172.198 73.1761C171.774 73.2594 171.385 73.4656 171.078 73.769C170.771 74.0723 170.56 74.4593 170.471 74.8818C170.383 75.3042 170.421 75.7434 170.58 76.1444C170.74 76.5455 171.014 76.8907 171.368 77.137C171.722 77.3833 172.142 77.5198 172.573 77.5294C173.005 77.5391 173.429 77.4214 173.794 77.1912C174.16 76.9609 174.449 76.6283 174.626 76.2347C174.803 75.8411 174.861 75.4041 174.791 74.9781C174.698 74.4681 174.427 74.0074 174.027 73.6777C173.627 73.3479 173.123 73.1702 172.604 73.1761Z" fill="white"/>
<g opacity="0.7">
<path opacity="0.7" d="M168.371 69.6114L174.512 68.4944L170.832 48.2676L164.692 49.3846L168.371 69.6114Z" fill="white"/>
</g>
<path d="M165.693 50.7965L170.266 49.9646L170.118 49.1538L165.545 49.9857L165.693 50.7965Z" fill="#63C0C4"/>
<path d="M170.988 62.1375L171.82 66.7104L172.231 66.6357L171.399 62.0628L170.988 62.1375Z" fill="#9DAEBD"/>
<path d="M169.949 56.4002L170.781 60.9731L171.192 60.8984L170.36 56.3255L169.949 56.4002Z" fill="#9DAEBD"/>
<path d="M168.649 62.5528L169.48 67.1257L169.891 67.051L169.059 62.4781L168.649 62.5528Z" fill="#9DAEBD"/>
<path d="M167.61 56.8155L168.441 61.3884L168.852 61.3137L168.02 56.7408L167.61 56.8155Z" fill="#9DAEBD"/>
<path d="M169.665 61.1633L170.711 66.9146L171.122 66.8398L170.076 61.0886L169.665 61.1633Z" fill="#9DAEBD"/>
<path d="M168.356 53.9494L169.402 59.7007L169.813 59.626L168.767 53.8747L168.356 53.9494Z" fill="#9DAEBD"/>
<path d="M176.98 104.789C176.98 104.789 177.387 107.646 177.365 107.679C177.343 107.712 177.519 107.997 177.519 107.997L178.233 108.162L178.892 107.887C178.721 106.884 178.611 105.871 178.563 104.855C178.64 104.525 176.98 104.789 176.98 104.789Z" fill="#FFDBCB"/>
<path d="M178.893 107.887C178.637 107.956 178.369 107.969 178.108 107.925C177.846 107.882 177.597 107.783 177.377 107.635C177.377 107.635 174.586 108.547 174.641 109.327C174.641 109.327 174.509 109.558 175.74 109.558C176.97 109.558 178.772 109.558 178.827 109.558C178.882 109.558 179.069 109.668 178.893 107.887Z" fill="#113C5F"/>
<path d="M186.801 104.624C186.801 104.624 187.647 107.382 187.636 107.415C187.69 107.521 187.757 107.621 187.834 107.712H188.559L189.174 107.338C188.849 106.377 188.582 105.397 188.372 104.404C188.405 104.107 186.801 104.624 186.801 104.624Z" fill="#FFDBCB"/>
<path d="M189.178 107.349C188.936 107.46 188.674 107.518 188.408 107.518C188.143 107.518 187.88 107.46 187.639 107.349C187.639 107.349 185.024 108.69 185.2 109.448C185.2 109.448 185.112 109.701 186.299 109.514C187.485 109.327 189.309 109.063 189.353 109.03C189.397 108.997 189.628 109.118 189.178 107.349Z" fill="#113C5F"/>
<path d="M185.625 82.0765L175.252 81.7249C175.252 81.7249 174.032 89.2297 176.175 106.997H179.394C179.394 106.997 180.076 88.7133 180.658 87.6694C181.24 86.6255 183.295 99.097 186.515 106.613L189.438 105.734C189.438 105.734 186.811 92.5481 186.416 89.1528C186.02 85.7575 185.625 82.0765 185.625 82.0765Z" fill="#194263"/>
<path d="M165.165 64.4954C165.165 64.4954 164.616 64.1768 164.539 64.1548C164.462 64.1328 164.352 64.1548 164.693 64.5174C165.237 64.9692 165.869 65.3023 166.55 65.4954L167.275 64.7921C167.275 64.7921 166.868 64.1768 166.725 63.8801C166.583 63.5834 166.286 63.1439 166.165 63.2758C166.044 63.4076 166.363 63.9241 166.363 63.9241C166.184 63.8056 166.011 63.6772 165.846 63.5395C165.704 63.3856 165.077 62.7703 164.912 62.9241C164.748 63.078 165.55 63.8032 165.55 63.8032C165.55 63.8032 164.594 62.9022 164.451 63.078C164.308 63.2538 165.352 64.1768 165.352 64.1768C165.095 63.991 164.862 63.7731 164.66 63.5285C164.66 63.5285 164.462 63.7812 164.66 63.99L165.165 64.4954Z" fill="#FFDBCB"/>
<path d="M181.317 61.6055H181.393C181.405 61.5942 181.415 61.5805 181.422 61.5654C181.428 61.5503 181.431 61.534 181.431 61.5176C181.431 61.5011 181.428 61.4848 181.422 61.4697C181.415 61.4546 181.405 61.4409 181.393 61.4296C181.283 61.2794 181.124 61.1728 180.943 61.1286C180.762 61.0844 180.571 61.1054 180.405 61.1879C180.39 61.1949 180.377 61.2048 180.366 61.217C180.355 61.2291 180.347 61.2433 180.342 61.2587C180.337 61.2741 180.335 61.2903 180.336 61.3065C180.338 61.3226 180.342 61.3384 180.35 61.3527C180.368 61.384 180.397 61.4077 180.431 61.4198C180.465 61.4318 180.502 61.4314 180.536 61.4187C180.641 61.3598 180.763 61.3407 180.88 61.365C180.997 61.3892 181.101 61.4551 181.174 61.5505C181.188 61.5748 181.209 61.5935 181.235 61.6035C181.261 61.6135 181.29 61.6142 181.317 61.6055Z" fill="#113C5F"/>
<path d="M180.559 60.8585C180.559 60.8585 180.559 60.8585 180.559 60.7706C180.648 60.4578 180.8 60.1667 181.007 59.9156C181.214 59.6644 181.47 59.4587 181.76 59.3112C182.05 59.1636 182.367 59.0776 182.692 59.0583C183.016 59.0391 183.341 59.0871 183.647 59.1993C184.193 59.3549 184.669 59.6949 184.994 60.1616C185.318 60.6283 185.471 61.1929 185.427 61.7596C185.394 62.1637 185.237 62.5476 184.976 62.8584C184.687 63.267 184.375 63.6595 184.042 64.0341C183.566 64.5561 183.29 65.2293 183.262 65.935V66.6273C181.614 66.9899 180.999 66.1328 180.999 66.1328L181.295 65.034C181.303 64.9691 181.287 64.9036 181.251 64.8492C181.215 64.7948 181.16 64.7552 181.097 64.7373C178.999 64.0341 180.449 62.5287 180.559 60.8585Z" fill="#FFDBCB"/>
<path d="M184.371 60.5619L185.393 62.0452C185.32 62.3277 185.185 62.5903 184.998 62.8144C184.708 63.223 184.396 63.6155 184.064 63.9901C183.867 64.2059 183.704 64.4505 183.58 64.7153C183.207 64.7153 181.471 63.9022 181.449 63.6165C181.427 63.3308 182.042 62.2211 181.449 62.1112C180.855 62.0013 181.075 60.1223 181.075 60.1223L182.69 60.0234L184.371 60.5619Z" fill="#FFD147"/>
<path d="M181.612 62.2978C181.602 62.2106 181.564 62.1292 181.502 62.067C181.423 61.9764 181.321 61.9084 181.207 61.8698C181.093 61.8312 180.971 61.8234 180.853 61.8473C180.458 61.9681 180.7 62.9461 181.414 62.8032C181.414 62.8252 181.645 62.7593 181.612 62.2978Z" fill="#FFDBCB"/>
<path d="M185.885 60.8256C185.847 60.5623 185.792 60.3017 185.72 60.0454L185.621 59.6499C185.621 59.562 185.621 59.3752 185.512 59.3092C185.402 59.2433 185.27 59.507 185.259 59.573C185.248 59.6389 185.259 59.9026 185.259 60.0674C185.259 59.6279 184.786 59.2323 184.424 58.9686C184.022 58.7158 183.6 58.4988 183.16 58.3203C183.06 58.2709 182.952 58.241 182.841 58.2324C182.457 58.2324 182.6 58.5071 182.688 58.6939C182.576 58.6794 182.466 58.6574 182.358 58.628C181.943 58.5209 181.504 58.5478 181.105 58.7049C180.973 58.7049 180.853 58.8807 180.962 59.0236C181.003 59.0674 181.053 59.1026 181.107 59.1271C181.162 59.1516 181.221 59.165 181.281 59.1664C181.017 59.1491 180.752 59.1827 180.501 59.2653C180.358 59.3312 180.138 59.4411 180.105 59.6169C180.072 59.7927 180.259 59.9136 180.402 59.9905C180.804 60.125 181.216 60.2315 181.633 60.3092C182.072 60.4514 182.493 60.647 182.885 60.8915C183.215 61.1003 183.512 61.342 183.83 61.5508C184.149 61.7596 184.391 61.8695 184.676 62.0123C184.962 62.1552 185.204 62.342 185.38 62.1881C185.561 62.0138 185.701 61.8007 185.788 61.5647C185.876 61.3288 185.909 61.0761 185.885 60.8256Z" fill="#FFD147"/>
<path d="M184.482 67.2207C183.585 66.5628 182.516 66.1809 181.405 66.1219C180.387 65.9955 179.357 65.9955 178.339 66.1219C176.432 66.6007 174.499 66.9676 172.549 67.2207C170.944 67.2207 167.055 64.4846 167.055 64.4846L166.406 65.5834C166.406 65.5834 168.109 69.66 170.911 70.2314C172.586 70.5819 174.289 70.7842 175.999 70.8357L174.9 82.6589C178.48 83.8979 182.389 83.7806 185.888 82.3293C185.888 82.3293 185.833 77.2748 185.888 72.2532C185.91 69.9897 185.69 68.1107 184.482 67.2207Z" fill="#FF8855"/>
<path d="M151.445 31.6851H54.0576C52.589 31.6851 51.3984 32.8756 51.3984 34.3442V105.404C51.3984 106.873 52.589 108.063 54.0576 108.063H151.445C152.914 108.063 154.104 106.873 154.104 105.404V34.3442C154.104 32.8756 152.914 31.6851 151.445 31.6851Z" fill="#0F3A5D"/>
<path d="M151.784 34.3552H53.7148V107.283H151.784V34.3552Z" fill="white"/>
<path d="M164.244 105.096H41.2539V109.986H164.244V105.096Z" fill="#0F3A5D"/>
<path d="M151.784 34.3552H53.7148V105.097H151.784V34.3552Z" fill="#FFBEA2"/>
<g style="mix-blend-mode:soft-light">
<g style="mix-blend-mode:soft-light">
<path d="M128.445 46.8159L125.193 42.0141L125.039 41.7944L124.841 41.7394L108.612 37.5859L101.008 67.2758L122.061 72.6599L128.555 47.2664L128.61 47.0577L128.445 46.8159Z" fill="white"/>
</g>
</g>
<path d="M117.388 45.0905L117.366 45.2992L113.97 71.308L92.4336 68.4951L96.3893 38.1021L113.014 40.2667L113.212 40.2997L113.388 40.4975L117.201 44.8707L117.388 45.0905Z" fill="white"/>
<path d="M117.39 45.0906V45.2994L112.665 44.6841C112.639 44.6813 112.614 44.6735 112.591 44.6609C112.568 44.6483 112.548 44.6313 112.532 44.6109C112.515 44.5905 112.503 44.567 112.496 44.5418C112.489 44.5166 112.487 44.4903 112.49 44.4643L113.039 40.2668H113.237L113.424 40.4646L112.918 44.2775L117.225 44.8379L117.39 45.0906Z" fill="#E7EBEF"/>
<path d="M110.842 44.2004L101.854 43.0247C101.802 43.0247 101.751 43.0039 101.714 42.9668C101.677 42.9297 101.656 42.8794 101.656 42.8269C101.656 42.7745 101.677 42.7242 101.714 42.6871C101.751 42.65 101.802 42.6292 101.854 42.6292L110.842 43.7939C110.895 43.8044 110.941 43.8337 110.974 43.8761C111.006 43.9186 111.022 43.9714 111.018 44.0246C111.012 44.0689 110.991 44.1099 110.959 44.1416C110.928 44.1732 110.887 44.1939 110.842 44.2004Z" fill="#9DAEBD"/>
<path d="M115.19 48.7604L97.0381 46.387C97.011 46.3844 96.9847 46.3762 96.9609 46.363C96.9371 46.3497 96.9163 46.3317 96.8998 46.31C96.8833 46.2884 96.8715 46.2635 96.865 46.2371C96.8586 46.2106 96.8576 46.1831 96.8623 46.1563C96.8649 46.1292 96.8731 46.1029 96.8864 46.0791C96.8996 46.0553 96.9176 46.0345 96.9393 46.018C96.961 46.0015 96.9858 45.9896 97.0123 45.9832C97.0387 45.9767 97.0662 45.9758 97.093 45.9805L115.245 48.3539C115.272 48.3565 115.299 48.3647 115.323 48.378C115.346 48.3912 115.367 48.4092 115.384 48.4309C115.4 48.4525 115.412 48.4774 115.418 48.5038C115.425 48.5303 115.426 48.5578 115.421 48.5846C115.411 48.637 115.381 48.6837 115.339 48.716C115.296 48.7484 115.244 48.7642 115.19 48.7604Z" fill="#9DAEBD"/>
<path d="M115.038 50.123L96.8858 47.7606C96.8587 47.758 96.8324 47.7498 96.8086 47.7365C96.7848 47.7233 96.764 47.7053 96.7475 47.6836C96.731 47.6619 96.7191 47.6371 96.7127 47.6106C96.7062 47.5842 96.7053 47.5567 96.71 47.5298C96.7111 47.5032 96.7179 47.4771 96.73 47.4534C96.7421 47.4296 96.7591 47.4087 96.7799 47.392C96.8007 47.3754 96.8249 47.3633 96.8507 47.3568C96.8765 47.3502 96.9035 47.3493 96.9297 47.354L115.038 49.7165C115.065 49.7191 115.091 49.7273 115.115 49.7405C115.139 49.7538 115.16 49.7718 115.176 49.7935C115.193 49.8151 115.205 49.84 115.211 49.8664C115.218 49.8929 115.219 49.9204 115.214 49.9472C115.209 49.9922 115.189 50.0342 115.157 50.0662C115.125 50.0982 115.083 50.1183 115.038 50.123Z" fill="#9DAEBD"/>
<path d="M114.753 52.0789L96.6006 49.7054C96.5735 49.7028 96.5472 49.6946 96.5234 49.6814C96.4996 49.6681 96.4788 49.6501 96.4623 49.6284C96.4458 49.6068 96.434 49.5819 96.4275 49.5555C96.4211 49.529 96.4201 49.5015 96.4248 49.4747C96.4353 49.4224 96.4646 49.3757 96.507 49.3433C96.5495 49.3109 96.6023 49.2952 96.6555 49.2989L114.808 51.6723C114.835 51.6749 114.861 51.6831 114.885 51.6964C114.909 51.7096 114.93 51.7276 114.946 51.7493C114.963 51.771 114.975 51.7958 114.981 51.8223C114.987 51.8487 114.988 51.8762 114.984 51.9031C114.981 51.9302 114.973 51.9564 114.96 51.9802C114.946 52.004 114.928 52.0248 114.907 52.0413C114.885 52.0578 114.86 52.0697 114.834 52.0761C114.807 52.0826 114.78 52.0835 114.753 52.0789Z" fill="#9DAEBD"/>
<path d="M114.575 53.4414L96.4224 51.0789C96.3701 51.0684 96.3234 51.0391 96.2911 50.9967C96.2587 50.9542 96.2429 50.9014 96.2466 50.8482C96.2493 50.8211 96.2574 50.7948 96.2707 50.771C96.2839 50.7472 96.302 50.7264 96.3236 50.7099C96.3453 50.6934 96.3701 50.6815 96.3966 50.6751C96.423 50.6686 96.4505 50.6677 96.4774 50.6724L114.63 53.0348C114.66 53.0276 114.692 53.0275 114.723 53.0343C114.754 53.0412 114.782 53.0549 114.807 53.0745C114.832 53.094 114.852 53.1189 114.865 53.1472C114.879 53.1756 114.886 53.2066 114.886 53.2381C114.886 53.2695 114.879 53.3006 114.865 53.3289C114.852 53.3572 114.832 53.3821 114.807 53.4017C114.782 53.4212 114.754 53.4349 114.723 53.4418C114.692 53.4487 114.66 53.4485 114.63 53.4414H114.575Z" fill="#9DAEBD"/>
<path d="M114.399 54.8039L96.2471 52.4085C96.2013 52.3978 96.1604 52.3719 96.1311 52.335C96.1019 52.298 96.0859 52.2523 96.0859 52.2052C96.0859 52.1581 96.1019 52.1124 96.1311 52.0755C96.1604 52.0386 96.2013 52.0127 96.2471 52.002L114.399 54.3644C114.452 54.3749 114.498 54.4042 114.531 54.4466C114.563 54.4891 114.579 54.5419 114.575 54.5951C114.578 54.6459 114.562 54.6958 114.529 54.7347C114.496 54.7736 114.45 54.7984 114.399 54.8039Z" fill="#9DAEBD"/>
<path d="M114.226 56.1774L96.0733 53.804C96.0462 53.8014 96.0199 53.7932 95.9961 53.78C95.9723 53.7667 95.9515 53.7487 95.935 53.727C95.9185 53.7054 95.9066 53.6805 95.9002 53.6541C95.8937 53.6276 95.8928 53.6001 95.8975 53.5733C95.9001 53.5462 95.9083 53.5199 95.9215 53.4961C95.9348 53.4723 95.9528 53.4515 95.9745 53.435C95.9961 53.4185 96.021 53.4066 96.0474 53.4002C96.0739 53.3937 96.1014 53.3928 96.1282 53.3975L114.281 55.7709C114.308 55.7735 114.334 55.7817 114.358 55.7949C114.381 55.8082 114.402 55.8262 114.419 55.8479C114.435 55.8695 114.447 55.8944 114.454 55.9208C114.46 55.9473 114.461 55.9748 114.456 56.0016C114.446 56.054 114.417 56.1007 114.374 56.133C114.332 56.1654 114.279 56.1812 114.226 56.1774Z" fill="#9DAEBD"/>
<path d="M113.54 61.3528L95.3882 59.0013C95.3347 58.9932 95.2864 58.9645 95.2536 58.9215C95.2208 58.8784 95.206 58.8243 95.2124 58.7706C95.2229 58.7183 95.2522 58.6715 95.2946 58.6392C95.3371 58.6068 95.3899 58.5911 95.4431 58.5948L113.595 60.9682C113.621 60.9709 113.647 60.9788 113.67 60.9914C113.693 61.0039 113.713 61.0209 113.729 61.0414C113.746 61.0618 113.758 61.0853 113.765 61.1105C113.772 61.1356 113.774 61.162 113.771 61.188C113.767 61.2141 113.758 61.2392 113.744 61.2617C113.73 61.2842 113.712 61.3037 113.691 61.3191C113.669 61.3345 113.645 61.3454 113.619 61.3512C113.593 61.3569 113.567 61.3575 113.54 61.3528Z" fill="#9DAEBD"/>
<path d="M113.368 62.7263L95.2592 60.3528C95.2332 60.3501 95.2079 60.3422 95.1849 60.3297C95.162 60.3171 95.1417 60.3001 95.1254 60.2797C95.109 60.2592 95.0969 60.2358 95.0897 60.2106C95.0825 60.1854 95.0803 60.1591 95.0834 60.1331C95.086 60.106 95.0942 60.0797 95.1074 60.0559C95.1207 60.0321 95.1387 60.0113 95.1604 59.9948C95.182 59.9783 95.2069 59.9664 95.2333 59.96C95.2598 59.9535 95.2873 59.9526 95.3141 59.9573L113.423 62.2977C113.468 62.3085 113.509 62.3344 113.539 62.3713C113.568 62.4082 113.584 62.4539 113.584 62.501C113.584 62.5481 113.568 62.5938 113.539 62.6307C113.509 62.6676 113.468 62.6936 113.423 62.7043L113.368 62.7263Z" fill="#9DAEBD"/>
<path d="M113.193 64.0891L95.0405 61.7266C94.987 61.7185 94.9388 61.6898 94.906 61.6468C94.8732 61.6037 94.8584 61.5496 94.8647 61.4959C94.8673 61.4688 94.8755 61.4425 94.8888 61.4187C94.902 61.3949 94.92 61.3741 94.9417 61.3576C94.9634 61.3411 94.9882 61.3292 95.0147 61.3228C95.0411 61.3163 95.0686 61.3154 95.0955 61.3201L113.248 63.6825C113.3 63.6931 113.347 63.7223 113.379 63.7647C113.412 63.8072 113.427 63.86 113.424 63.9133C113.415 63.9668 113.387 64.015 113.344 64.0478C113.301 64.0806 113.247 64.0954 113.193 64.0891Z" fill="#9DAEBD"/>
<path d="M113.017 65.4622L94.8647 63.0888C94.8369 63.088 94.8096 63.0809 94.7849 63.0682C94.7602 63.0555 94.7387 63.0374 94.7218 63.0153C94.705 62.9932 94.6933 62.9676 94.6876 62.9404C94.6819 62.9132 94.6823 62.8851 94.6889 62.8581C94.6916 62.832 94.6995 62.8068 94.712 62.7838C94.7246 62.7609 94.7416 62.7406 94.762 62.7242C94.7824 62.7079 94.8059 62.6958 94.8311 62.6886C94.8563 62.6813 94.8826 62.6792 94.9086 62.6823L113.061 65.0557C113.089 65.0565 113.116 65.0636 113.141 65.0763C113.165 65.089 113.187 65.1071 113.204 65.1292C113.221 65.1513 113.232 65.1769 113.238 65.2041C113.244 65.2313 113.243 65.2594 113.237 65.2864C113.234 65.3125 113.226 65.3377 113.214 65.3607C113.201 65.3836 113.184 65.4039 113.164 65.4202C113.143 65.4366 113.12 65.4487 113.095 65.4559C113.069 65.4632 113.043 65.4653 113.017 65.4622Z" fill="#9DAEBD"/>
<path d="M104.423 43.9698L68.1839 46.9146C68.1665 46.916 68.1496 46.9208 68.1342 46.9287C68.1187 46.9366 68.1049 46.9476 68.0937 46.9608C68.0825 46.9741 68.074 46.9895 68.0687 47.0061C68.0634 47.0226 68.0615 47.0401 68.063 47.0574L71.8759 94.504C71.8771 94.5224 71.8822 94.5403 71.8909 94.5566C71.8995 94.5729 71.9114 94.5872 71.9259 94.5986C71.9404 94.61 71.9572 94.6182 71.975 94.6227C71.9929 94.6272 72.0115 94.628 72.0297 94.6248L108.202 91.713C108.22 91.7133 108.238 91.7096 108.254 91.7022C108.271 91.6948 108.285 91.6839 108.297 91.6702C108.308 91.6566 108.317 91.6405 108.321 91.6232C108.326 91.6059 108.327 91.5878 108.323 91.5702L104.51 44.0687C104.51 44.0687 104.467 43.9588 104.423 43.9698Z" fill="#658197"/>
<path d="M103.909 44.9706L69.7578 48.0442L73.8263 93.2492L107.977 90.1756L103.909 44.9706Z" fill="white"/>
<path d="M92.4272 52.3316L73.1211 54.0238V53.5403L92.4272 51.8481V52.3316C92.4382 52.3316 92.4272 52.3316 92.4272 52.3316Z" fill="#FF8855"/>
<path d="M92.7865 56.4852L73.4805 58.1664V57.6829L92.7865 55.9907V56.4742C92.7865 56.4742 92.7975 56.4852 92.7865 56.4852Z" fill="#FF8855"/>
<path d="M99.9823 53.7603L73.2812 56.1008V55.6173L99.9603 53.2769V53.7603H99.9823Z" fill="#FF8855"/>
<path d="M88.4357 69.7918L75.25 70.9456V70.4621L88.4357 69.3633V69.8577C88.4357 69.8577 88.4467 69.7918 88.4357 69.7918Z" fill="#D1DAE0"/>
<path d="M93.2812 67.2755L75.1289 68.8907V68.3963L93.2922 66.803V67.2865L93.2812 67.2755Z" fill="#D1DAE0"/>
<path d="M94.724 71.5609L75.418 73.286V72.8025L94.6801 71.0884V71.5719C94.6801 71.5719 94.735 71.5609 94.724 71.5609Z" fill="#D1DAE0"/>
<path d="M97.0613 73.4508L75.6016 75.3297V74.8462L97.0613 72.9673V73.4508Z" fill="#D1DAE0"/>
<path d="M89.8543 77.7469L76.0312 78.9556V78.4611L89.7664 77.2305V77.7249L89.8543 77.7469Z" fill="#D1DAE0"/>
<path d="M90.2175 81.8895L76.3945 83.0982V82.6147L90.2175 81.406V81.9005V81.8895Z" fill="#D1DAE0"/>
<path d="M95.3161 79.3624L76.2188 81.0326V80.5491L95.2611 78.835V79.3184L95.3161 79.3624Z" fill="#D1DAE0"/>
<path d="M93.8863 43.4206L88.4581 43.8601C88.4636 43.7833 88.4636 43.7062 88.4581 43.6294C88.4475 43.2991 88.3699 42.9744 88.2301 42.6751C88.0902 42.3757 87.891 42.1079 87.6444 41.8878C87.3979 41.6678 87.1093 41.5001 86.796 41.395C86.4827 41.2899 86.1514 41.2495 85.822 41.2764C85.4927 41.3032 85.1722 41.3966 84.8801 41.5511C84.588 41.7055 84.3302 41.9176 84.1226 42.1747C83.9149 42.4317 83.7617 42.7282 83.6721 43.0463C83.5825 43.3644 83.5584 43.6973 83.6014 44.0249C83.5907 44.0978 83.5907 44.1718 83.6014 44.2447L78.1733 44.6842C77.9267 44.7022 77.6862 44.769 77.4656 44.8807C77.2451 44.9923 77.0489 45.1467 76.8884 45.3347C76.7279 45.5228 76.6064 45.7409 76.5308 45.9762C76.4552 46.2116 76.4272 46.4597 76.4482 46.706L76.6569 49.2552C76.6597 49.3125 76.674 49.3687 76.6988 49.4204C76.7237 49.4721 76.7587 49.5182 76.8017 49.5561C76.8447 49.5941 76.895 49.6229 76.9494 49.6411C77.0038 49.6592 77.0613 49.6663 77.1184 49.6618L95.6883 48.1674C95.8039 48.1563 95.9107 48.1009 95.9865 48.0129C96.0623 47.9248 96.1011 47.8109 96.0949 47.6949L95.8861 45.1457C95.8468 44.6529 95.6148 44.1954 95.2404 43.8725C94.8661 43.5496 94.3795 43.3872 93.8863 43.4206ZM86.1946 45.3765C85.8894 45.3993 85.5843 45.3313 85.3178 45.181C85.0512 45.0307 84.8351 44.8048 84.6968 44.5318C84.5585 44.2588 84.5041 43.951 84.5405 43.6471C84.5769 43.3433 84.7025 43.057 84.9014 42.8245C85.1003 42.5919 85.3636 42.4234 85.6581 42.3404C85.9527 42.2573 86.2652 42.2633 86.5563 42.3576C86.8475 42.4519 87.1041 42.6303 87.294 42.8704C87.4838 43.1104 87.5983 43.4012 87.6231 43.7063C87.6379 43.9139 87.6111 44.1224 87.5442 44.3195C87.4773 44.5166 87.3716 44.6984 87.2334 44.854C87.0951 45.0096 86.9271 45.136 86.7393 45.2258C86.5515 45.3155 86.3476 45.3667 86.1397 45.3765H86.1946Z" fill="#658197"/>
<path d="M106.942 70.3412L107.426 69.1325C107.686 68.4949 108.133 67.9505 108.707 67.5703C109.281 67.19 109.957 66.9916 110.645 67.0008H119.623V96.9873H82.4609V72.6926H103.459C104.208 72.6908 104.939 72.4662 105.559 72.0475C106.179 71.6287 106.661 71.0347 106.942 70.3412Z" fill="#FF8855"/>
<path d="M133.716 80.0767C133.716 80.0767 131.277 82.9885 129.321 82.6699C127.365 82.3512 124.102 82.0436 124.102 82.0436L125.739 80.9448C125.739 80.9448 128.596 80.1976 129.64 79.9888C130.549 79.6237 131.356 79.043 131.991 78.2966L133.716 80.0767Z" fill="#FFDBCB"/>
<path d="M135.576 110.898C135.576 110.898 135.873 113.843 135.279 114.195C134.181 114.799 132.181 115.381 132.346 115.898C132.51 116.414 137.323 116.436 137.455 115.964C137.315 114.384 137.374 112.793 137.631 111.228L135.576 110.898Z" fill="#FFDBCB"/>
<path d="M137.413 114.887C137.468 115.251 137.468 115.621 137.413 115.986C137.281 116.458 132.479 116.436 132.304 115.92C132.128 115.403 133.248 115.107 134.248 114.667C134.534 115.041 135.04 115.656 137.413 114.887Z" fill="#01888B"/>
<path d="M144.595 110.821C144.595 110.821 145.386 113.667 144.859 114.118C143.892 114.898 142.013 115.81 142.265 116.315C142.518 116.821 147.254 115.997 147.309 115.513C146.894 113.98 146.676 112.399 146.661 110.81L144.595 110.821Z" fill="#FFDBCB"/>
<path d="M147.082 114.436C147.205 114.769 147.283 115.116 147.313 115.469C147.258 115.953 142.522 116.755 142.269 116.271C142.016 115.788 143.049 115.304 143.972 114.711C144.269 115.041 144.873 115.59 147.082 114.436Z" fill="#01888B"/>
<path d="M136.138 84.8235C135.32 85.8523 134.681 87.0112 134.248 88.2518C133.655 90.1088 135.215 112.052 135.215 112.052H137.83C137.83 112.052 139.215 92.5151 139.215 92.3393C139.215 91.6581 144.357 112.052 144.357 112.052H146.961C146.961 112.052 145.544 88.1639 142.28 84.8235L139.215 85.0103L136.138 84.8235Z" fill="#01888B"/>
<path d="M133.022 76.7472C133.049 76.859 133.049 76.9759 133.022 77.0878C133.022 77.2416 132.868 77.3625 132.824 77.5163C132.794 77.6844 132.825 77.8578 132.912 78.005C132.998 78.1521 133.135 78.2633 133.296 78.3185C133.571 78.4114 133.868 78.4114 134.143 78.3185H134.296C134.615 78.1866 134.901 77.9888 135.208 77.857L135.45 77.7471H135.505C136.138 77.5647 136.785 77.4325 137.439 77.3515C138.185 77.1311 138.958 77.0129 139.735 76.9999C140.619 77.1534 141.475 77.4386 142.274 77.846C143.126 78.1753 144.03 78.3502 144.944 78.3624C145.314 78.382 145.685 78.3412 146.043 78.2415H146.12L146.328 78.1536C146.732 77.9183 147.037 77.5457 147.188 77.1038C147.34 76.662 147.327 76.1805 147.152 75.7472C146.943 75.2742 146.579 74.8866 146.12 74.6484C145.713 74.4177 145.186 74.3408 144.878 73.9562C144.749 73.7576 144.687 73.5225 144.702 73.2859C144.603 72.8134 144.702 72.264 144.592 71.7915C144.511 71.5157 144.37 71.2609 144.18 71.0446C143.991 70.8283 143.756 70.6558 143.493 70.5389C143.26 70.4526 143.021 70.3792 142.779 70.3191L142.439 70.1873C142.285 70.111 142.147 70.0066 142.032 69.8796C141.636 69.4071 141.768 68.7808 141.691 68.2094C141.652 67.8825 141.544 67.5678 141.373 67.2864C141.202 66.9854 140.974 66.7204 140.702 66.5063C140.599 66.417 140.489 66.3361 140.373 66.2645C140.246 66.1861 140.114 66.1163 139.977 66.0557L139.713 65.9459C139.3 65.7991 138.866 65.7176 138.428 65.7041C138.021 65.6992 137.616 65.7623 137.23 65.8909C136.86 66.0159 136.525 66.2268 136.252 66.5063C135.964 66.7893 135.752 67.1409 135.637 67.5282C135.556 68.087 135.404 68.6334 135.186 69.1544C134.868 69.6708 134.23 69.9785 134.088 70.5719C133.945 71.1652 134.505 72.0992 134.296 72.8354C134.091 73.2972 133.745 73.682 133.307 73.9342C133.088 74.0616 132.902 74.2381 132.763 74.4497C132.624 74.6613 132.536 74.9024 132.505 75.1539C132.384 75.7253 132.945 76.2197 133.022 76.7472Z" fill="#194263"/>
<path d="M139.884 73.7805C141.389 73.7805 144.07 74.5057 144.916 76.1979C145.381 77.4946 145.748 78.8242 146.015 80.1756L143.741 80.5712C143.759 81.152 143.723 81.7334 143.631 82.3073C143.367 83.4061 142.301 85.9443 141.774 86.1641C141.047 86.3445 140.284 86.3102 139.576 86.0652C139.082 86.0652 137.961 85.3839 136.631 84.9664C135.302 84.5488 135.236 83.5819 135.071 82.4062C134.906 81.2304 134.687 80.2086 134.687 80.2086L134.181 80.5931L131.676 78.0879C131.676 78.0879 134.632 74.9233 136.291 74.4288C137.465 74.0981 138.668 73.881 139.884 73.7805Z" fill="#F6A505"/>
<path d="M135.915 69.9897C135.915 69.9897 135.662 69.715 135.519 69.8688C135.156 70.2534 135.673 70.605 135.959 70.649L135.915 69.9897Z" fill="#FFCDB7"/>
<path d="M137.885 65.902C138.501 65.8539 139.114 66.0312 139.609 66.4011C140.104 66.771 140.448 67.3083 140.577 67.9129C140.665 68.3035 140.665 68.7089 140.577 69.0996C140.431 69.8537 140.206 70.5903 139.906 71.2972C139.623 71.8663 139.564 72.5216 139.742 73.1322L139.928 73.7475C138.588 74.6925 137.841 74.0662 137.841 74.0662L137.621 72.6048C136.017 72.6048 135.786 69.7259 135.654 68.8688C135.654 68.8688 135.654 68.8029 135.654 68.7699C135.606 68.4343 135.627 68.0926 135.714 67.765C135.801 67.4374 135.953 67.1307 136.161 66.8631C136.369 66.5955 136.629 66.3725 136.925 66.2074C137.221 66.0423 137.548 65.9385 137.885 65.902Z" fill="#FFDBCB"/>
<path d="M138.444 68.4183C138.797 68.6876 139.131 68.9814 139.443 69.2973C139.801 69.5911 140.08 69.9686 140.257 70.3961C140.595 70.0035 140.836 69.5367 140.96 69.0336C141.038 68.8073 141.079 68.5698 141.081 68.3303C141.059 67.9935 140.969 67.6646 140.817 67.3634C140.683 66.9472 140.449 66.5701 140.136 66.2646C139.909 66.0864 139.647 65.9589 139.367 65.891C138.715 65.6936 138.019 65.6936 137.367 65.891C137.042 65.9814 136.738 66.1359 136.474 66.3454C136.21 66.5548 135.99 66.815 135.828 67.1107C135.498 67.922 135.418 68.8136 135.598 69.6709C135.656 69.3044 135.795 68.9553 136.004 68.649C136.111 68.4311 136.257 68.2339 136.433 68.0666C136.765 67.8388 137.084 67.593 137.389 67.3304C137.641 67.7773 138.005 68.1519 138.444 68.4183Z" fill="#194263"/>
<path d="M139.872 69.9127C139.901 69.8229 139.964 69.748 140.048 69.7039C140.151 69.6359 140.271 69.5996 140.394 69.5996C140.517 69.5996 140.638 69.6359 140.74 69.7039C141.092 69.9677 140.597 70.8797 139.927 70.561C139.927 70.5171 139.729 70.3742 139.872 69.9127Z" fill="#FFDBCB"/>
<path d="M145.739 80.2305C145.739 80.3623 146.552 84.7356 145.948 85.7245C145.673 86.175 143.41 86.9772 140.113 86.9552L140.322 85.8564C140.322 85.8564 143.531 84.7576 143.618 84.34C143.642 83.1049 143.509 81.8718 143.223 80.67L145.739 80.2305Z" fill="#FFDBCB"/>
<path d="M133.563 78.8572H121.828V80.7032H133.563V78.8572Z" fill="#D1DAE0"/>
<path d="M132.838 79.0987L133.058 78.5493C133.173 78.265 133.37 78.0218 133.625 77.8513C133.88 77.6808 134.18 77.5909 134.486 77.5933H138.519V91.0867H121.828V80.0986H131.267C131.598 80.1039 131.923 80.012 132.202 79.8343C132.482 79.6565 132.703 79.4008 132.838 79.0987Z" fill="#879DAE"/>
<path d="M138.113 84.373C137.926 84.5598 138.475 85.1971 138.486 85.219C138.497 85.241 137.563 85.219 137.289 85.219C137.014 85.219 136.486 85.219 136.442 85.4388C136.399 85.6586 137.717 85.7355 137.761 85.7355C137.805 85.7355 136.596 85.7355 136.519 85.9552C136.442 86.175 137.871 86.2959 137.915 86.3069C137.959 86.3178 137.036 86.3069 136.706 86.3069H136.585C136.486 86.3948 136.585 86.5156 137.025 86.6365L137.387 86.7134H137.926H137.563C137.361 86.724 137.159 86.7461 136.959 86.7793C136.86 86.7793 136.75 86.9552 137.409 87.0541C138.196 87.1557 138.993 87.1335 139.772 86.9881C139.944 86.9566 140.114 86.9087 140.277 86.8453V85.7465L140.014 85.5377C139.667 85.258 139.299 85.0045 138.915 84.7795C138.574 84.6916 138.332 84.1971 138.113 84.373Z" fill="#FFDBCB"/>
<path d="M126.269 78.6152C126.269 78.6152 125.906 79.8788 125.708 79.8568C125.51 79.8349 125.554 78.758 125.543 78.758C125.532 78.758 125.302 79.8568 125.038 79.8568C124.774 79.8568 124.873 78.758 124.873 78.758C124.873 78.758 124.73 79.7689 124.543 79.8568C124.357 79.9447 124.379 78.9009 124.302 78.9009C124.225 78.9009 124.302 79.747 124.049 79.7909C123.796 79.8349 123.697 78.6921 123.906 78.4833C123.969 78.4394 124.044 78.4158 124.12 78.4158C124.197 78.4158 124.272 78.4394 124.335 78.4833C124.335 78.4833 124.719 78.2636 124.917 78.3844C124.917 78.3844 125.521 78.2636 125.62 78.5053C125.62 78.5383 126.027 78.2416 126.269 78.6152Z" fill="#FFDBCB"/>
<path d="M138.518 85.2191L137.562 85.1752V82.9226H138.518V85.2191Z" fill="#879DAE"/>
<path d="M59.6776 83.505L57.4141 82.9226L58.8865 81.8238L60.1391 81.5601L60.7435 82.2853L59.6776 83.505Z" fill="#A87C4F"/>
<path d="M49.9679 111.799C49.9679 111.799 50.5282 115.096 50.5502 115.096C50.5722 115.096 50.3414 115.491 50.3414 115.491L49.4624 115.645L48.6493 115.272C48.6493 115.272 48.1768 112.623 48.0999 112.206C48.023 111.788 49.9679 111.799 49.9679 111.799Z" fill="#A87C4F"/>
<path d="M48.6479 115.304C48.9628 115.404 49.2954 115.435 49.6234 115.396C49.9513 115.356 50.2669 115.246 50.5488 115.074C50.5488 115.074 53.9441 116.348 53.8452 117.271C53.8452 117.271 53.9881 117.568 52.5157 117.502C51.0433 117.436 48.7467 117.37 48.6808 117.337C48.6149 117.304 48.3292 117.502 48.6479 115.304Z" fill="#4B6B86"/>
<path d="M39.8557 111.799C39.8557 111.799 38.9876 115.096 39.0096 115.096C39.0316 115.096 38.8008 115.491 38.8008 115.491L37.9108 115.645L37.0977 115.271C37.2863 114.24 37.4075 113.198 37.4603 112.151C37.3724 111.744 39.8557 111.799 39.8557 111.799Z" fill="#A87C4F"/>
<path d="M37.1 115.304C37.4172 115.4 37.7512 115.425 38.0792 115.38C38.4072 115.334 38.7216 115.219 39.0009 115.041C39.0009 115.041 42.4073 116.315 42.2974 117.238C42.2974 117.238 42.4402 117.535 40.9568 117.469C39.4734 117.403 37.1989 117.337 37.133 117.304C37.067 117.271 36.7923 117.502 37.1 115.304Z" fill="#4B6B86"/>
<path d="M49.1113 91.2516L50.8914 113.744H47.7708C47.7708 113.744 44.5403 95.9654 44.0788 95.8885C43.6173 95.8116 40.3209 113.744 40.3209 113.744H36.8047L38.5957 90.6692L49.1113 91.2516Z" fill="#212B53"/>
<path d="M42.1551 73.7144C42.1551 73.7144 45.935 73.8462 47.4733 75.011C48.4183 75.7362 48.638 84.9002 48.638 84.9002L49.2094 91.7128C49.2094 91.7128 43.0781 93.7896 38.0895 91.7128L37.5401 87.1528C37.5401 87.1528 35.5732 75.7032 37.1005 75.0659C38.6844 74.2987 40.3997 73.8401 42.1551 73.7144Z" fill="#00666B"/>
<path d="M44.7148 69.2755C44.7148 69.2755 44.8907 68.9349 45.0775 69.0557C45.539 69.3414 45.1434 69.8139 44.8687 69.9348L44.7148 69.2755Z" fill="#A87C4F"/>
<path d="M44.7132 68.0778V67.968C44.6313 67.3102 44.3045 66.7074 43.7982 66.2796C43.2918 65.8518 42.6429 65.6304 41.9806 65.6595C41.3184 65.6886 40.6914 65.966 40.2244 66.4366C39.7575 66.9071 39.4849 67.5362 39.4609 68.1987C39.4604 68.6517 39.5738 69.0975 39.7906 69.4953C40.0416 70.0118 40.3203 70.5143 40.6257 71.0007C41.0289 71.6909 41.2057 72.4902 41.1311 73.2862V73.7697C42.8123 74.4839 43.4606 73.7697 43.4606 73.7697L43.3837 72.6709C43.3775 72.5968 43.4004 72.5232 43.4476 72.4657C43.4948 72.4083 43.5625 72.3715 43.6364 72.3632C45.5813 72.0445 44.7132 68.9789 44.7132 68.0778Z" fill="#A87C4F"/>
<path d="M39.1836 68.6598L40.0516 70.3629L40.5241 70.2311L40.6011 67.9126L39.1836 68.6598Z" fill="#231F20"/>
<path d="M40.592 70.1653C40.5394 70.0872 40.462 70.0291 40.3722 70.0005C40.2533 69.9501 40.1223 69.9358 39.9953 69.9592C39.8683 69.9826 39.7511 70.0428 39.658 70.1323C39.3723 70.484 40.0975 71.2312 40.6909 70.7916C40.6909 70.7916 40.8557 70.5939 40.592 70.1653Z" fill="#A87C4F"/>
<path d="M44.1445 67.0998C44.1445 67.0998 44.5401 67.3306 44.7818 68.9128C44.7961 68.2519 44.7109 67.5926 44.5291 66.957C44.3203 66.7812 44.1445 67.0998 44.1445 67.0998Z" fill="#231F20"/>
<path d="M39.8658 65.3744C40.3932 64.7811 41.3492 64.836 41.9755 64.3525C41.7787 64.7655 41.5067 65.1381 41.1734 65.4513L43.9424 64.6492C43.6566 64.9384 43.3438 65.1996 43.0084 65.4294C43.7396 65.4917 44.4748 65.4917 45.206 65.4294C45.235 65.4874 45.2501 65.5513 45.2501 65.6162C45.2501 65.681 45.235 65.745 45.206 65.803C45.1171 66.1514 44.9595 66.4786 44.7425 66.7654C44.5255 67.0522 44.2535 67.2928 43.9424 67.4732C43.7307 67.5507 43.5083 67.5951 43.2831 67.605C42.404 67.605 41.4261 67.4292 40.7009 67.9346C40.3603 68.1654 39.9427 68.9675 39.4592 68.8467C38.9758 68.7258 38.2505 67.1875 39.8658 65.3744Z" fill="#231F20"/>
<path d="M46.1761 74.3848C48.5385 74.9232 51.0218 79.736 52.2085 80.5051C53.3952 81.2743 58.7025 81.6039 58.7025 81.6039L57.6037 83.395C57.6037 83.395 51.9228 84.0213 50.2746 83.4609C49.0317 82.9104 47.9335 82.0792 47.0661 81.0326C46.4193 80.0663 46.0028 78.9646 45.8485 77.8121C45.6942 76.6596 45.8063 75.4871 46.1761 74.3848Z" fill="#00666B"/>
<path d="M64.9708 80.3859L64.4023 79.0635L34.9754 91.7124L35.5439 93.0348L64.9708 80.3859Z" fill="#254C6C"/>
<path d="M35.5812 93.1744L34.9219 91.5921L46.3934 86.6584L47.0527 88.2407L35.5812 93.1744Z" fill="#212B53"/>
<g opacity="0.3">
<path opacity="0.3" d="M77.6811 88.0148C85.245 87.7837 91.1895 81.4646 90.9584 73.9006C90.7273 66.3367 84.4081 60.3922 76.8442 60.6233C69.2802 60.8544 63.3358 67.1735 63.5669 74.7375C63.798 82.3015 70.1171 88.2459 77.6811 88.0148Z" fill="#9DAEBD"/>
</g>
<path d="M64.0194 80.0106C65.1464 82.6294 67.0247 84.8552 69.4166 86.4066C71.8086 87.9581 74.6068 88.7655 77.4576 88.7267C80.3083 88.6879 83.0836 87.8047 85.4325 86.1888C87.7813 84.5729 89.5984 82.2968 90.6538 79.6483C91.7092 76.9998 91.9556 74.0979 91.3618 71.3094C90.7681 68.5209 89.3609 65.971 87.3181 63.9822C85.2753 61.9934 82.6887 60.6549 79.8852 60.136C77.0818 59.6172 74.1875 59.9412 71.5682 61.0671C68.0605 62.5844 65.2967 65.4297 63.882 68.98C62.4672 72.5303 62.5166 76.4966 64.0194 80.0106ZM71.9968 62.067C74.4183 61.0258 77.0942 60.726 79.6861 61.2055C82.278 61.685 84.6695 62.9222 86.5583 64.7607C88.4472 66.5993 89.7484 68.9566 90.2976 71.5346C90.8468 74.1126 90.6193 76.7956 89.6438 79.2444C88.6683 81.6931 86.9887 83.7976 84.8172 85.2918C82.6457 86.786 80.08 87.6028 77.4444 87.639C74.8087 87.6751 72.2216 86.929 70.0099 85.4949C67.7983 84.0608 66.0616 82.0031 65.0193 79.582C63.6242 76.3339 63.5754 72.6648 64.8836 69.3807C66.1919 66.0966 68.7503 63.4661 71.9968 62.067Z" fill="#254C6C"/>
<path d="M59.679 83.5049C59.679 83.5049 58.9977 82.0765 59.1735 81.9336C59.3493 81.7908 60.1624 82.8127 60.1624 82.7907C60.1624 82.7687 59.4922 81.593 59.69 81.3403C59.8877 81.0875 60.7888 82.2852 60.7888 82.2852C60.7888 82.2852 60.0855 81.1864 60.2284 81.0546C60.3712 80.9227 61.1514 81.8347 61.2173 81.7798C61.2832 81.7248 60.558 80.9667 60.7228 80.7579C60.8877 80.5491 61.9645 81.571 61.8986 81.8567C61.8788 81.941 61.8311 82.0161 61.7633 82.07C61.6955 82.1238 61.6115 82.1532 61.525 82.1534C61.525 82.1534 61.3601 82.6478 61.0745 82.6808C61.0745 82.6808 60.6349 83.2302 60.3492 83.0874C60.3163 83.1093 60.1624 83.7027 59.679 83.5049Z" fill="#A87C4F"/>
<path d="M39.8121 87.7463C39.8121 87.7463 41.2076 87.9112 41.7021 88.01C42.1965 88.1089 42.8009 87.8342 42.8009 88.1199C42.8009 88.4056 41.8998 88.6144 41.8998 88.6144C41.8998 88.6144 42.702 89.2517 42.9987 89.4055C43.2953 89.5594 43.5151 89.8231 43.3393 89.9879C43.1635 90.1527 42.2405 89.5484 42.2405 89.5484C42.2405 89.5484 43.3393 90.0648 43.0866 90.3615C42.8338 90.6582 41.713 89.944 41.713 89.944C41.713 89.944 42.8119 90.2626 42.8119 90.5263C42.8119 90.79 42.8119 90.7351 42.3723 90.6362L41.9108 90.5153C42.0597 90.5777 42.1781 90.6961 42.2405 90.845C42.2405 91.0098 42.2405 91.1856 41.6142 90.9549C40.6553 90.5029 39.83 89.8101 39.2188 88.944L39.8121 87.7463Z" fill="#A87C4F"/>
<path d="M37.2415 74.9343C34.3077 76.3298 32.0332 83.1534 32.8463 85.1533C33.7473 87.4937 38.9667 89.3287 38.9667 89.3287L40.2083 87.1311C40.2083 87.1311 36.3515 84.8236 36.3405 84.3841C36.3405 83.7468 38.8678 80.5382 38.8678 80.5382L37.2415 74.9343Z" fill="#00666B"/>
<path d="M38.9234 89.3615L40.165 87.1639L37.2422 85.2849L40.143 87.1529L38.9234 89.3505L37.8246 88.889L39.0003 89.3615H38.9234Z" fill="#0F3A5D"/>
<path d="M48.5464 82.549L48.3047 80.0657L48.5464 82.549Z" fill="#0F3A5D"/>
<path d="M116.664 90.6802H103.445V94.5919H116.664V90.6802Z" fill="#EEF1F4"/>
<path d="M108.951 91.5481H104.742V91.7788H108.951V91.5481Z" fill="#879DAE"/>
<path d="M113.83 91.5481H109.621V91.7788H113.83V91.5481Z" fill="#879DAE"/>
<path d="M108.951 92.4272H104.742V92.658H108.951V92.4272Z" fill="#879DAE"/>
<path d="M108.951 93.3064H104.742V93.5371H108.951V93.3064Z" fill="#879DAE"/>
<path d="M113.83 92.4272H109.621V92.658H113.83V92.4272Z" fill="#879DAE"/>
<path d="M129.225 88.0979H123.215V89.878H129.225V88.0979Z" fill="#EEF1F4"/>
<path d="M125.705 88.4934H123.793V88.6033H125.705V88.4934Z" fill="#879DAE"/>
<path d="M127.924 88.4934H126.012V88.6033H127.924V88.4934Z" fill="#879DAE"/>
<path d="M125.705 88.8892H123.793V88.999H125.705V88.8892Z" fill="#879DAE"/>
<path d="M125.705 89.2957H123.793V89.4055H125.705V89.2957Z" fill="#879DAE"/>
<path d="M127.924 88.8892H126.012V88.999H127.924V88.8892Z" fill="#879DAE"/>
</svg>
