<svg width="24" height="24" viewBox="0 0 24 24" fill="none" xmlns="http://www.w3.org/2000/svg">
<path fill-rule="evenodd" clip-rule="evenodd" d="M4 3.56207C4 2.67203 4.74607 1.99994 5.56213 1.99994H18.4379C19.3279 1.99994 20 2.746 20 3.56207V20.2248C20 21.1148 19.2539 21.7869 18.4379 21.7869H5.56213C4.74607 21.7869 4 21.1148 4 20.2248V3.56207ZM5.56213 2.94668C5.2421 2.94668 4.94675 3.22134 4.94675 3.56207V20.2248C4.94675 20.5655 5.2421 20.8402 5.56213 20.8402H18.4379C18.7579 20.8402 19.0533 20.5655 19.0533 20.2248V3.56207C19.0533 3.24204 18.7786 2.94668 18.4379 2.94668H5.56213Z" fill="black"/>
<path fill-rule="evenodd" clip-rule="evenodd" d="M7.59784 6.4973C7.59784 6.23586 7.80978 6.02393 8.07121 6.02393H15.9292C16.1906 6.02393 16.4026 6.23586 16.4026 6.4973C16.4026 6.75874 16.1906 6.97067 15.9292 6.97067H8.07121C7.80978 6.97067 7.59784 6.75874 7.59784 6.4973Z" fill="black"/>
<path fill-rule="evenodd" clip-rule="evenodd" d="M7.59784 11.8934C7.59784 11.6319 7.80978 11.42 8.07121 11.42H15.9292C16.1906 11.42 16.4026 11.6319 16.4026 11.8934C16.4026 12.1548 16.1906 12.3668 15.9292 12.3668H8.07121C7.80978 12.3668 7.59784 12.1548 7.59784 11.8934Z" fill="black"/>
<path fill-rule="evenodd" clip-rule="evenodd" d="M7.59784 16.9587C7.59784 16.6973 7.80978 16.4854 8.07121 16.4854H15.9292C16.1906 16.4854 16.4026 16.6973 16.4026 16.9587C16.4026 17.2202 16.1906 17.4321 15.9292 17.4321H8.07121C7.80978 17.4321 7.59784 17.2202 7.59784 16.9587Z" fill="black"/>
</svg>
