<svg width="20" height="20" viewBox="0 0 20 20" fill="none" xmlns="http://www.w3.org/2000/svg">
<path d="M14.9154 3.08333L12.9154 1.91667C12.7487 1.83333 12.4987 1.75 12.2487 1.75C12.1654 1.75 11.9987 1.75 11.9154 1.83333C11.582 1.91667 11.332 2.16667 11.1654 2.41667L10.582 3.41667C10.582 3.5 10.582 3.5 10.582 3.58333C10.582 3.66667 10.6654 3.66667 10.6654 3.75L14.4987 6C14.582 6.08333 14.7487 6 14.832 5.91667L15.4154 4.91667C15.582 4.58333 15.6654 4.25 15.582 3.91667C15.4154 3.5 15.1654 3.25 14.9154 3.08333Z" fill="#FF7C44"/>
<path d="M9.91601 4.83301H9.83268C9.83268 4.83301 9.83268 4.83301 9.74935 4.83301C9.66601 4.83301 9.66602 4.91634 9.58268 4.91634L4.58268 13.4997V13.583L4.41602 17.6663C4.41602 17.7497 4.41602 17.833 4.49935 17.9163L5.08268 18.2497C5.16602 18.2497 5.24935 18.2497 5.33268 18.2497L8.74935 16.083L8.83268 15.9997L13.8327 7.41634C13.8327 7.33301 13.8327 7.33301 13.8327 7.24967C13.8327 7.16634 13.7493 7.16634 13.7493 7.08301L9.91601 4.83301ZM5.91602 17.2497L5.08268 16.7497L5.24935 13.6663L7.16602 14.333L8.58268 15.6663L5.91602 17.2497Z" fill="#FF7C44"/>
</svg>
