<svg width="30" height="30" viewBox="0 0 30 30" fill="none" xmlns="http://www.w3.org/2000/svg">
<path d="M16.039 18.9106C16.1542 18.6803 16.039 18.45 15.9239 18.3348L13.2751 15.6861C15.2329 13.498 16.6148 10.9644 17.5361 8.31569C17.5361 8.20053 17.6513 8.08537 17.7665 8.08537H20.1849C20.7607 8.08537 20.991 7.85504 20.991 7.50956V6.35794C20.991 6.01245 20.7607 5.78212 20.4152 5.78212H13.16C13.0448 5.78212 12.9297 5.66696 12.9297 5.5518V4.05469C12.9297 3.70921 12.6993 3.47888 12.3538 3.47888H11.2022C10.8567 3.47888 10.6264 3.70921 10.6264 4.05469V5.5518C10.6264 5.66696 10.5113 5.78212 10.3961 5.78212H3.14087C2.79539 5.78212 2.56506 6.01245 2.56506 6.35794V7.50956C2.56506 7.85504 2.79539 8.08537 3.14087 8.08537H15.0026C15.2329 8.08537 15.3481 8.31569 15.3481 8.54602C14.6571 10.5038 13.5055 12.4615 12.0084 14.0738C11.8932 14.189 11.778 14.189 11.6629 14.0738C10.7416 13.0373 9.93544 11.8857 9.35963 10.7341C9.12931 10.5038 9.01414 10.3886 8.78382 10.3886H7.74736C7.28671 10.3886 7.05639 10.8493 7.17155 11.1947C7.97768 12.6919 8.89898 14.189 10.0506 15.4557C10.1658 15.5709 10.1658 15.6861 10.0506 15.6861C9.35963 16.377 5.90477 19.7167 4.75314 20.9835C4.52282 21.2139 4.52282 21.5593 4.75314 21.7897L5.55928 22.5958C5.7896 22.8261 6.13509 22.8261 6.36541 22.5958L11.5477 17.4135C11.6629 17.2983 11.778 17.2983 11.8932 17.4135L14.6571 20.1774C15.0026 20.5229 15.4632 20.4077 15.5784 19.9471L16.039 18.9106Z" fill="#0F3A5D"/>
<path d="M22.0274 12.6919H21.1061C20.6455 12.6919 20.3 12.9222 20.1848 13.2677L15.6935 25.1294C15.4632 25.8204 15.9238 26.3962 16.6148 26.3962H16.8451C17.3058 26.3962 17.6513 26.1659 17.7664 25.8204L18.8029 22.9413H24.2155L25.252 25.8204C25.3671 26.1659 25.7126 26.3962 26.1733 26.3962H26.5188C27.2097 26.3962 27.6704 25.7052 27.4401 25.1294L22.9487 13.2677C22.8336 12.9222 22.4881 12.6919 22.0274 12.6919ZM19.7242 20.7532L21.5668 15.8013L23.4094 20.7532H19.7242Z" fill="#0F3A5D"/>
</svg>
