<svg width="24" height="24" viewBox="0 0 24 24" fill="none" xmlns="http://www.w3.org/2000/svg">
<path d="M20.72 1.83C20.9736 1.83119 21.2222 1.90025 21.44 2.03C21.6631 2.15408 21.8491 2.33521 21.9792 2.55485C22.1092 2.7745 22.1785 3.02476 22.18 3.28V16.62C22.1774 17.0064 22.0227 17.3762 21.7495 17.6495C21.4762 17.9227 21.1064 18.0774 20.72 18.08H9.85L9.5 18.43L6 21.92V18.08H3.46C3.0736 18.0774 2.70376 17.9227 2.43052 17.6495C2.15729 17.3762 2.00262 17.0064 2 16.62V3.28C2.00264 2.89452 2.15763 2.52573 2.43115 2.25408C2.70466 1.98244 3.07451 1.82999 3.46 1.83H20.72ZM20.72 0.630001H3.46C2.75626 0.629996 2.08119 0.908872 1.58263 1.40556C1.08407 1.90224 0.802649 2.57626 0.800003 3.28V16.62C0.802637 17.3247 1.08373 17.9997 1.58201 18.498C2.08029 18.9963 2.75534 19.2774 3.46 19.28H4.81V22.53C4.81 23.21 5.14 23.45 5.34 23.53C5.43549 23.5682 5.53717 23.5885 5.64 23.59C5.78949 23.5805 5.93554 23.541 6.06952 23.474C6.2035 23.407 6.32268 23.3139 6.42 23.2L10.35 19.28H20.72C21.4247 19.2774 22.0997 18.9963 22.598 18.498C23.0963 17.9997 23.3774 17.3247 23.38 16.62V3.28C23.3739 2.8175 23.2482 2.36444 23.0152 1.96491C22.7821 1.56537 22.4496 1.23296 22.05 1C21.6475 0.760438 21.1884 0.632704 20.72 0.630001Z" fill="black"/>
<path d="M18.62 7.26C18.4756 6.85284 18.2914 6.46094 18.07 6.09C17.4567 5.02219 16.5725 4.13506 15.5068 3.51816C14.441 2.90126 13.2314 2.57642 12 2.57642C10.7686 2.57642 9.55896 2.90126 8.49322 3.51816C7.42747 4.13506 6.54332 5.02219 5.93 6.09C5.71257 6.46304 5.52852 6.85456 5.38 7.26C5.11439 8.03173 4.98579 8.84396 5 9.66C4.98991 10.4561 5.1185 11.248 5.38 12C5.51894 12.4077 5.69992 12.7998 5.92 13.17C6.53194 14.2425 7.4167 15.1341 8.48451 15.7543C9.55232 16.3744 10.7652 16.7011 12 16.7011C13.2348 16.7011 14.4477 16.3744 15.5155 15.7543C16.5833 15.1341 17.4681 14.2425 18.08 13.17C18.3001 12.7998 18.4811 12.4077 18.62 12C18.8815 11.248 19.0101 10.4561 19 9.66C19.0142 8.84396 18.8856 8.03173 18.62 7.26ZM15.05 7.85H15.11C15.87 7.77 16.64 7.65 17.41 7.51H17.46C17.731 8.20487 17.87 8.94417 17.87 9.69C17.8753 10.4298 17.736 11.1636 17.46 11.85H17.41C16.63 11.7 15.86 11.59 15.1 11.5H15V11.45C15.0688 10.8558 15.1021 10.2581 15.1 9.66C15.119 9.05621 15.1023 8.45182 15.05 7.85ZM10.11 8H10.17C11.3883 8.09 12.6117 8.09 13.83 8H13.89C13.9601 8.55061 13.9968 9.10495 14 9.66C13.9969 10.2247 13.9635 10.7889 13.9 11.35V11.4H13.84C13.24 11.4 12.62 11.34 12.01 11.34C11.4 11.34 10.78 11.34 10.18 11.4H10.12V11.35C10.0498 10.7892 10.0098 10.2251 10 9.66C10.0032 9.10495 10.0399 8.55061 10.11 8ZM16.79 6.43C16.1233 6.54333 15.4933 6.63333 14.9 6.7H14.85V6.6C14.6745 5.77539 14.3886 4.97821 14 4.23L13.93 4.1L14.29 4.24C14.9901 4.53293 15.6256 4.9611 16.16 5.5C16.404 5.74506 16.6281 6.00924 16.83 6.29L16.88 6.37L16.79 6.43ZM13.62 6.81C12.5411 6.88006 11.4589 6.88006 10.38 6.81H10.31V6.75C10.4286 6.21782 10.5994 5.69864 10.82 5.2C10.9921 4.75397 11.2503 4.34621 11.58 4C11.692 3.88064 11.8391 3.80008 12 3.77C12.1609 3.80008 12.308 3.88064 12.42 4C12.7361 4.33017 12.9871 4.71691 13.16 5.14C13.3806 5.63864 13.5514 6.15782 13.67 6.69V6.75L13.62 6.81ZM10.07 4.1L10 4.23C9.6149 4.97872 9.33237 5.77588 9.16 6.6V6.65H9.1C8.48 6.57667 7.85 6.48667 7.21 6.38H7.12V6.3C7.32193 6.01924 7.54598 5.75506 7.79 5.51C8.3382 4.962 8.99119 4.53007 9.71 4.24L10.07 4.1ZM7.2 12.92C7.83 12.81 8.47 12.72 9.09 12.65H9.15C9.3101 13.498 9.59663 14.3171 10 15.08L10.07 15.22L9.71 15.08C9.01182 14.7835 8.37701 14.3557 7.84 13.82C7.58909 13.5704 7.36457 13.2956 7.17 13L7.11 12.93L7.2 12.92ZM10.38 12.54C11.4592 12.48 12.5408 12.48 13.62 12.54H13.69V12.6C13.5681 13.139 13.394 13.6648 13.17 14.17C13.0007 14.592 12.7491 14.9761 12.43 15.3C12.3209 15.423 12.1724 15.5043 12.01 15.53C11.8476 15.5043 11.6991 15.423 11.59 15.3C11.2709 14.9761 11.0193 14.592 10.85 14.17C10.6275 13.6677 10.4533 13.1453 10.33 12.61V12.54H10.38ZM13.93 15.22L14 15.08C14.3953 14.3322 14.6783 13.5302 14.84 12.7H14.9C15.5267 12.7733 16.1567 12.8633 16.79 12.97H16.88L16.82 13.04C16.6249 13.3321 16.4004 13.6036 16.15 13.85C15.613 14.3857 14.9782 14.8135 14.28 15.11L13.93 15.22ZM9 11.45V11.5H8.9C8.14 11.59 7.37 11.7 6.59 11.85C6.31396 11.1636 6.17469 10.4298 6.18 9.69C6.17999 8.94417 6.31903 8.20487 6.59 7.51C7.36 7.65 8.13 7.77 8.89 7.85H9C8.93097 8.45083 8.89758 9.05522 8.9 9.66C8.89785 10.2581 8.93125 10.8558 9 11.45Z" fill="black"/>
</svg>
