<svg width="24" height="24" viewBox="0 0 24 24" fill="none" xmlns="http://www.w3.org/2000/svg">
<path d="M21.8795 9.93976C22 9.93976 22 9.81928 22 9.81928V5.24096C22 5.12048 21.8795 5 21.6386 5H2.36145C2.12048 5 2 5.12048 2 5.24096V9.69879C2 9.81928 2.12048 9.81928 2.12048 9.81928C3.20482 10.0602 4.04819 11.0241 4.04819 12.1084C4.04819 13.1928 3.20482 14.1566 2.12048 14.3976C2 14.3976 2 14.5181 2 14.5181V18.9759C2 19.3374 2.12048 19.4578 2.36145 19.4578H21.6386C21.759 19.4578 22 19.3373 22 19.2169V14.759C22 14.6386 21.8795 14.6386 21.8795 14.6386C20.7952 14.3976 19.9518 13.4337 19.9518 12.3494C19.9518 11.2651 20.6747 10.1807 21.8795 9.93976ZM14.1687 15.241L12.1205 13.9157C12 13.7952 11.759 13.7952 11.6386 13.9157L9.59036 15.241L10.1928 12.9518C10.1928 12.8313 10.1928 12.5904 10.0723 12.5904L8.38554 11.0241L10.7952 10.9036C10.9157 10.9036 11.0361 10.7831 11.1566 10.6627L12 8.37349L12.8434 10.5422C12.8434 10.6627 13.0843 10.7831 13.2048 10.7831L15.6145 10.9036L13.8072 12.4699C13.6867 12.5904 13.6867 12.7108 13.6867 12.8313L14.1687 15.241Z" fill="black"/>
</svg>
