<svg width="24" height="24" viewBox="0 0 24 24" fill="none" xmlns="http://www.w3.org/2000/svg">
<g opacity="0.5">
<path fill-rule="evenodd" clip-rule="evenodd" d="M4.24824 2C3.00595 2 2 3.00595 2 4.24824V15.8642C2 17.1064 3.00595 18.1124 4.24824 18.1124H6.16861V20.9227C6.16861 21.3265 6.40438 21.737 6.81932 21.9121C6.89136 21.9467 6.96638 21.9735 7.0518 21.9877C7.12664 22.0002 7.19746 22.0001 7.2373 22L7.2459 22C7.43573 22 7.79763 21.9449 8.02472 21.6493L11.5617 18.1124H19.7517C20.994 18.1124 22 17.1064 22 15.8642V4.25872C22.0533 3.00041 21.0324 2 19.7986 2H4.24824ZM15.5829 9.02583C15.9108 9.02583 16.1918 8.7448 16.1918 8.41693V6.63707C16.1918 6.30921 15.9108 6.02817 15.5829 6.02817H14.412C14.0841 6.02817 13.8031 6.30921 13.8031 6.63707V8.41693C13.8031 8.7448 14.0841 9.02583 14.412 9.02583H15.5829ZM10.2434 8.41693C10.2434 8.7448 9.96239 9.02583 9.63452 9.02583H8.46356C8.13569 9.02583 7.85466 8.7448 7.85466 8.41693V6.63707C7.85466 6.30921 8.13569 6.02817 8.46356 6.02817H9.63452C9.96239 6.02817 10.2434 6.30921 10.2434 6.63707V8.41693ZM6.59001 11.0396C6.59001 10.781 6.38031 10.5713 6.12163 10.5713C5.86295 10.5713 5.65325 10.781 5.65325 11.0396V12.2106C5.65325 12.8908 6.19082 13.4284 6.87104 13.4284H17.1755C17.8557 13.4284 18.3933 12.8908 18.3933 12.2106V11.0396C18.3933 10.781 18.1836 10.5713 17.9249 10.5713C17.6662 10.5713 17.4565 10.781 17.4565 11.0396V12.2106C17.4565 12.3735 17.3383 12.4916 17.1755 12.4916H6.87104C6.70818 12.4916 6.59001 12.3735 6.59001 12.2106V11.0396Z" fill="white"/>
</g>
</svg>
