<svg width="14" height="14" viewBox="0 0 14 14" fill="none" xmlns="http://www.w3.org/2000/svg">
<path fill-rule="evenodd" clip-rule="evenodd" d="M7.32115 2.17165C7.49923 2.24015 7.69248 2.41612 7.69248 2.68791V11.2839C7.69248 11.5284 7.54983 11.7318 7.34356 11.8178C7.13641 11.9041 6.8937 11.8608 6.71822 11.6897L4.00133 9.19692L3.99634 9.19193C3.95516 9.15074 3.8754 9.12003 3.80836 9.12003H1.82036C1.49914 9.12003 1.24023 8.86113 1.24023 8.53991V5.45991C1.24023 5.13869 1.49914 4.87978 1.82036 4.87978H3.80836C3.89519 4.87978 3.9499 4.85433 3.99634 4.80789L4.00008 4.80415L6.69893 2.27397L6.7063 2.26784C6.89731 2.10866 7.13951 2.10179 7.32115 2.17165Z" fill="#949494"/>
<path fill-rule="evenodd" clip-rule="evenodd" d="M8.38846 5.17539C8.51462 5.04529 8.72235 5.04209 8.85245 5.16825C9.90938 6.19316 9.90938 7.83446 8.85245 8.85937C8.72235 8.98552 8.51462 8.98233 8.38846 8.85223C8.26231 8.72213 8.2655 8.5144 8.3956 8.38825C9.18666 7.62116 9.18666 6.40646 8.3956 5.63937C8.2655 5.51321 8.26231 5.30548 8.38846 5.17539Z" fill="#949494"/>
<path fill-rule="evenodd" clip-rule="evenodd" d="M9.48052 4.08433C9.60627 3.95384 9.81399 3.94999 9.94448 4.07574C11.6184 5.68879 11.6184 8.28324 9.94448 9.89629C9.81399 10.022 9.60627 10.0182 9.48052 9.8877C9.35478 9.75721 9.35862 9.54948 9.48911 9.42374C10.8952 8.06879 10.8952 5.90324 9.48911 4.54829C9.35862 4.42254 9.35478 4.21482 9.48052 4.08433Z" fill="#949494"/>
<path fill-rule="evenodd" clip-rule="evenodd" d="M10.5994 3.02068C10.7249 2.89002 10.9326 2.88589 11.0633 3.01146C13.3537 5.21258 13.3537 8.78752 11.0633 10.9886C10.9326 11.1142 10.7249 11.1101 10.5994 10.9794C10.4738 10.8488 10.4779 10.641 10.6086 10.5155C12.6302 8.57258 12.6302 5.42752 10.6086 3.48463C10.4779 3.35906 10.4738 3.15134 10.5994 3.02068Z" fill="#949494"/>
</svg>
