<svg width="24" height="24" viewBox="0 0 24 24" fill="none" xmlns="http://www.w3.org/2000/svg">
<path fill-rule="evenodd" clip-rule="evenodd" d="M12.5499 3.72308C12.8552 3.8405 13.1865 4.14217 13.1865 4.60809V19.3441C13.1865 19.7632 12.9419 20.112 12.5883 20.2593C12.2332 20.4073 11.8171 20.3331 11.5163 20.0398L6.85879 15.7664L6.85024 15.7578C6.77964 15.6872 6.64292 15.6346 6.52799 15.6346H3.11999C2.56933 15.6346 2.12549 15.1907 2.12549 14.6401V9.36009C2.12549 8.80943 2.56933 8.36559 3.11999 8.36559H6.52799C6.67685 8.36559 6.77063 8.32195 6.85024 8.24234L6.85665 8.23593L11.4833 3.89848L11.4959 3.88796C11.8233 3.61509 12.2385 3.60332 12.5499 3.72308Z" fill="black"/>
<path fill-rule="evenodd" clip-rule="evenodd" d="M14.3801 8.87252C14.5964 8.64949 14.9525 8.64402 15.1755 8.86028C16.9874 10.6173 16.9874 13.4309 15.1755 15.1879C14.9525 15.4042 14.5964 15.3987 14.3801 15.1757C14.1639 14.9527 14.1693 14.5965 14.3924 14.3803C15.7485 13.0653 15.7485 10.9829 14.3924 9.66792C14.1693 9.45165 14.1639 9.09554 14.3801 8.87252Z" fill="black"/>
<path fill-rule="evenodd" clip-rule="evenodd" d="M16.2509 7.00193C16.4665 6.77823 16.8226 6.77163 17.0463 6.9872C19.9158 9.75243 19.9158 14.2001 17.0463 16.9653C16.8226 17.1809 16.4665 17.1743 16.2509 16.9506C16.0353 16.7269 16.0419 16.3708 16.2656 16.1552C18.6761 13.8324 18.6761 10.1201 16.2656 7.79729C16.0419 7.58172 16.0353 7.22563 16.2509 7.00193Z" fill="black"/>
<path fill-rule="evenodd" clip-rule="evenodd" d="M18.1704 5.17838C18.3857 4.95439 18.7418 4.94731 18.9658 5.16258C22.8921 8.93591 22.8921 15.0644 18.9658 18.8377C18.7418 19.053 18.3857 19.0459 18.1704 18.8219C17.9552 18.5979 17.9622 18.2418 18.1862 18.0266C21.6519 14.6959 21.6519 9.30438 18.1862 5.97372C17.9622 5.75845 17.9552 5.40237 18.1704 5.17838Z" fill="black"/>
</svg>
