<svg width="20" height="20" viewBox="0 0 20 20" fill="none" xmlns="http://www.w3.org/2000/svg">
<path d="M14.5608 16.6938H3.50812V5.43854H9.95549V3.59644H3.50812C2.49496 3.59644 1.66602 4.42538 1.66602 5.43854V16.4912C1.66602 17.5043 2.49496 18.3333 3.50812 18.3333H14.5608C15.5739 18.3333 16.4029 17.5043 16.4029 16.4912V10.0438H14.5608V16.6938Z" fill="white"/>
<path d="M16.4021 0.833252H14.56V3.59641H11.7969C11.8061 3.60562 11.7969 5.43852 11.7969 5.43852H14.56V8.19246C14.5692 8.20167 16.4021 8.19246 16.4021 8.19246V5.43852H19.1653V3.59641H16.4021V0.833252Z" fill="white"/>
<path d="M12.718 7.28052H5.34961V9.12262H12.718V7.28052Z" fill="white"/>
<path d="M5.34961 10.0437V11.8858H12.718V10.0437H9.95487H5.34961Z" fill="white"/>
<path d="M12.718 12.8069H5.34961V14.649H12.718V12.8069Z" fill="white"/>
</svg>
