<svg width="24" height="24" viewBox="0 0 24 24" fill="none" xmlns="http://www.w3.org/2000/svg">
<path d="M11.2284 2.39444C11.5055 2.13859 11.8573 2 12.2305 2C12.6036 2 12.9554 2.13859 13.2325 2.39444L21.9956 10.4752C22.4433 10.891 22.5926 11.5306 22.3687 12.1063C22.1448 12.6713 21.6118 13.0444 20.9935 13.0444H20.3219V19.3875C20.3219 20.2084 19.6609 20.8693 18.84 20.8693H15.1088C14.288 20.8693 13.627 20.2084 13.627 19.3875V17.5858V15.7842H10.8446V19.3875C10.8446 20.2084 10.1836 20.8693 9.36274 20.8693H5.63152C4.81065 20.8693 4.14969 20.2084 4.14969 19.3875V13.0444H3.47808C2.87042 13.0444 2.32673 12.6819 2.10285 12.1063C1.87898 11.5306 2.02823 10.891 2.47598 10.4752L11.2284 2.39444Z" fill="white"/>
</svg>
