<svg width="24" height="24" viewBox="0 0 24 24" fill="none" xmlns="http://www.w3.org/2000/svg">
<path d="M22.41 16.88H10.85V21.9H22.41V16.88Z" fill="#EFCD19"/>
<path d="M15.3 2.1C14.9508 2.0996 14.6095 2.2043 14.3206 2.40048C14.0317 2.59666 13.8085 2.87525 13.68 3.2C13.517 2.83079 13.232 2.52884 12.8728 2.34474C12.5136 2.16064 12.1021 2.10558 11.7072 2.18879C11.3122 2.27199 10.9579 2.48841 10.7035 2.80177C10.4492 3.11513 10.3102 3.50639 10.31 3.91V8.91C10.1059 8.95566 9.89416 8.95566 9.69001 8.91C8.72201 8.69724 7.79157 8.3399 6.93001 7.85C6.15001 7.41 2.47001 7.23 1.93001 8.05C1.79586 8.24164 1.70126 8.4581 1.65174 8.68673C1.60221 8.91536 1.59877 9.15157 1.6416 9.38154C1.68443 9.61152 1.77267 9.83065 1.90118 10.0261C2.02968 10.2216 2.19587 10.3895 2.39001 10.52L6.09001 11.52L9.02001 13.52C9.54001 13.88 11.73 15.76 11.73 15.76H21.5L22.41 12.64V5.75C22.3996 5.28223 22.2064 4.83714 21.8718 4.51006C21.5372 4.18297 21.0879 3.99988 20.62 4C20.4091 3.99674 20.1992 4.03059 20 4.1C19.9255 3.7913 19.7698 3.50815 19.549 3.27991C19.3282 3.05167 19.0504 2.88666 18.7443 2.80198C18.4383 2.71731 18.1151 2.71605 17.8084 2.79834C17.5017 2.88064 17.2226 3.04348 17 3.27C16.8772 2.91998 16.6464 2.61804 16.3408 2.40774C16.0353 2.19745 15.6708 2.08968 15.3 2.1Z" fill="#EFCD19"/>
</svg>
