<svg width="16" height="16" viewBox="0 0 16 16" fill="none" xmlns="http://www.w3.org/2000/svg">
<path d="M7.48524 1.59597C7.67003 1.4254 7.90456 1.33301 8.15331 1.33301C8.40206 1.33301 8.63659 1.4254 8.82137 1.59597L14.6634 6.98314C14.9619 7.26032 15.0614 7.68674 14.9121 8.07053C14.7629 8.4472 14.4075 8.69595 13.9953 8.69595H13.5476V12.9247C13.5476 13.4719 13.1069 13.9125 12.5597 13.9125H10.0722C9.52498 13.9125 9.08434 13.4719 9.08434 12.9247V11.7236V10.5225H7.22939V12.9247C7.22939 13.4719 6.78875 13.9125 6.2415 13.9125H3.75402C3.20678 13.9125 2.76614 13.4719 2.76614 12.9247V8.69595H2.31839C1.91329 8.69595 1.55083 8.45431 1.40158 8.07053C1.25233 7.68674 1.35183 7.26032 1.65033 6.98314L7.48524 1.59597Z" fill="#999999"/>
</svg>
