<svg width="24" height="24" viewBox="0 0 24 24" fill="none" xmlns="http://www.w3.org/2000/svg">
<path d="M10.0998 16.6997C9.89978 16.6997 9.69978 16.5997 9.49978 16.4997L6.39978 13.3997C5.99978 12.9997 5.99978 12.4997 6.29978 12.1997C6.59978 11.8997 7.09978 11.8997 7.49978 12.1997L9.99978 14.6997L16.3998 8.29971C16.6998 7.99971 17.1998 7.99971 17.5998 8.29971C17.8998 8.59971 17.8998 9.09971 17.5998 9.49971L10.5998 16.4997C10.4998 16.5997 10.2998 16.6997 10.0998 16.6997Z" fill="white"/>
<path d="M12.0004 21.5999C6.70039 21.5999 2.40039 17.2999 2.40039 11.9999C2.40039 6.6999 6.70039 2.3999 12.0004 2.3999C17.3004 2.3999 21.6004 6.6999 21.6004 11.9999C21.6004 17.2999 17.3004 21.5999 12.0004 21.5999ZM12.0004 3.49991C7.70039 3.49991 3.50037 7.7999 3.50037 11.9999C3.50037 16.1999 7.80039 20.4999 12.0004 20.4999C16.3004 20.4999 20.5004 16.1999 20.5004 11.9999C20.5004 7.7999 16.3004 3.49991 12.0004 3.49991Z" fill="white"/>
</svg>
