<svg width="24" height="24" viewBox="0 0 24 24" fill="none" xmlns="http://www.w3.org/2000/svg">
<path d="M21.3197 9.08984H19.4897V12.0898C19.4897 12.6348 19.3823 13.1745 19.1738 13.678C18.9652 14.1815 18.6595 14.639 18.2742 15.0243C17.8888 15.4097 17.4313 15.7154 16.9278 15.9239C16.4243 16.1325 15.8847 16.2398 15.3397 16.2398H9.99969L9.92969 16.3198V17.9998C9.9428 18.5383 10.1673 19.05 10.5547 19.4242C10.942 19.7985 11.4611 20.0053 11.9997 19.9998H16.6497L19.6497 22.9998C19.7248 23.0896 19.8179 23.1626 19.923 23.2143C20.028 23.266 20.1427 23.2951 20.2597 23.2998C20.3359 23.312 20.4135 23.312 20.4897 23.2998C20.6306 23.2285 20.7458 23.1151 20.8193 22.9753C20.8927 22.8355 20.9209 22.6763 20.8997 22.5198V19.9998H21.3197C21.8558 20.0001 22.3709 19.7913 22.7555 19.4178C23.1402 19.0444 23.3641 18.5357 23.3797 17.9998V11.1998C23.3864 10.9251 23.338 10.6519 23.2375 10.3962C23.1369 10.1404 22.9863 9.90739 22.7943 9.71077C22.6023 9.51416 22.373 9.35793 22.1197 9.25129C21.8665 9.14466 21.5945 9.08976 21.3197 9.08984Z" fill="white"/>
<path d="M4.63914 18.9999C4.54337 19.0185 4.44491 19.0185 4.34914 18.9999C4.17012 18.9063 4.02367 18.7606 3.92906 18.5821C3.83445 18.4036 3.79613 18.2006 3.81914 17.9999V14.7199H3.26914C2.92114 14.7199 2.57654 14.6514 2.25503 14.5182C1.93352 14.385 1.64138 14.1898 1.39531 13.9438C0.898336 13.4468 0.619141 12.7727 0.619141 12.0699V3.29992C0.619141 2.5971 0.898336 1.92306 1.39531 1.42609C1.64138 1.18001 1.93352 0.984815 2.25503 0.85164C2.57654 0.718466 2.92114 0.649921 3.26914 0.649921H15.3391C15.688 0.648605 16.0337 0.716178 16.3563 0.848763C16.679 0.981349 16.9723 1.17634 17.2194 1.42254C17.4666 1.66875 17.6627 1.96133 17.7965 2.2835C17.9303 2.60566 17.9991 2.95108 17.9991 3.29992V12.0699C17.9991 12.7727 17.7199 13.4468 17.223 13.9438C16.726 14.4407 16.052 14.7199 15.3491 14.7199H9.34914L5.42914 18.6499C5.3272 18.7577 5.20487 18.8441 5.06925 18.9042C4.93364 18.9643 4.78744 18.9968 4.63914 18.9999ZM3.26914 1.64992C2.83153 1.64992 2.41185 1.82376 2.10241 2.1332C1.79298 2.44263 1.61914 2.86231 1.61914 3.29992V12.0699C1.61914 12.2866 1.66182 12.5012 1.74474 12.7013C1.82766 12.9015 1.9492 13.0834 2.10241 13.2366C2.25563 13.3899 2.43753 13.5114 2.63771 13.5943C2.8379 13.6772 3.05246 13.7199 3.26914 13.7199H4.81914V17.8499L8.93914 13.7199H15.3391C15.5567 13.7212 15.7723 13.6795 15.9736 13.5972C16.175 13.5149 16.3581 13.3935 16.5123 13.2402C16.6666 13.0868 16.789 12.9045 16.8726 12.7037C16.9561 12.5028 16.9991 12.2874 16.9991 12.0699V3.29992C16.9988 3.00962 16.9219 2.72453 16.7762 2.47346C16.6305 2.22238 16.4211 2.01419 16.1691 1.86992C15.921 1.72315 15.6374 1.64707 15.3491 1.64992H3.26914Z" fill="white"/>
</svg>
