<svg width="36" height="36" viewBox="0 0 36 36" fill="none" xmlns="http://www.w3.org/2000/svg">
<path fill-rule="evenodd" clip-rule="evenodd" d="M6 5.3432C6 4.00813 7.1191 3 8.34319 3H27.6568C28.9919 3 30 4.1191 30 5.3432V30.3373C30 31.6723 28.8809 32.6805 27.6568 32.6805H8.34319C7.1191 32.6805 6 31.6723 6 30.3373V5.3432ZM8.34319 4.42012C7.86315 4.42012 7.42012 4.83211 7.42012 5.3432V30.3373C7.42012 30.8484 7.86315 31.2604 8.34319 31.2604H27.6568C28.1368 31.2604 28.5799 30.8484 28.5799 30.3373V5.3432C28.5799 4.86315 28.1679 4.42012 27.6568 4.42012H8.34319Z" fill="#FF7C44"/>
<path fill-rule="evenodd" clip-rule="evenodd" d="M11.3965 9.74595C11.3965 9.35379 11.7144 9.03589 12.1065 9.03589H23.8935C24.2857 9.03589 24.6036 9.35379 24.6036 9.74595C24.6036 10.1381 24.2857 10.456 23.8935 10.456H12.1065C11.7144 10.456 11.3965 10.1381 11.3965 9.74595Z" fill="#FF7C44"/>
<path fill-rule="evenodd" clip-rule="evenodd" d="M11.3965 17.8402C11.3965 17.448 11.7144 17.1301 12.1065 17.1301H23.8935C24.2857 17.1301 24.6036 17.448 24.6036 17.8402C24.6036 18.2323 24.2857 18.5502 23.8935 18.5502H12.1065C11.7144 18.5502 11.3965 18.2323 11.3965 17.8402Z" fill="#FF7C44"/>
<path fill-rule="evenodd" clip-rule="evenodd" d="M11.3965 25.4381C11.3965 25.0459 11.7144 24.728 12.1065 24.728H23.8935C24.2857 24.728 24.6036 25.0459 24.6036 25.4381C24.6036 25.8302 24.2857 26.1481 23.8935 26.1481H12.1065C11.7144 26.1481 11.3965 25.8302 11.3965 25.4381Z" fill="#FF7C44"/>
</svg>
