<svg width="30" height="30" viewBox="0 0 30 30" fill="none" xmlns="http://www.w3.org/2000/svg">
<path d="M25.4999 6.87165L24.5008 6.82935L24.4999 6.85049V6.87165H25.4999ZM14.5398 21.418V20.418H14.1255L13.8326 20.7109L14.5398 21.418ZM10.8259 25.1318L10.1188 24.4247L10.0727 24.4708L10.0329 24.5226L10.8259 25.1318ZM10.0082 25.4999L10.0082 24.4999L10.0067 24.4999L10.0082 25.4999ZM9.99916 25.5L9.99768 24.5L9.99701 24.5L9.99916 25.5ZM9.80438 25.4871L9.96879 24.5007L9.96876 24.5007L9.80438 25.4871ZM9.56027 25.4076L9.99329 24.5062L9.97138 24.4957L9.94899 24.4863L9.56027 25.4076ZM8.87704 21.418H9.87704V20.418H8.87704V21.418ZM6.86065 3.5C5.00397 3.5 3.5 5.00397 3.5 6.86065H5.5C5.5 6.10854 6.10854 5.5 6.86065 5.5V3.5ZM23.1885 3.5H6.86065V5.5H23.1885V3.5ZM26.499 6.91396C26.5803 4.99481 25.0229 3.5 23.1885 3.5V5.5C23.9452 5.5 24.5315 6.10605 24.5008 6.82935L26.499 6.91396ZM26.4999 19.0573V6.87165H24.4999V19.0573H26.4999ZM23.1393 22.418C24.996 22.418 26.4999 20.914 26.4999 19.0573H24.4999C24.4999 19.8095 23.8914 20.418 23.1393 20.418V22.418ZM14.5398 22.418H23.1393V20.418H14.5398V22.418ZM11.5331 25.8389L15.2469 22.1251L13.8326 20.7109L10.1188 24.4247L11.5331 25.8389ZM10.0082 26.4999C10.3255 26.4999 11.0986 26.4183 11.619 25.741L10.0329 24.5226C10.0378 24.5162 10.0433 24.5102 10.0491 24.5048C10.0548 24.4995 10.0599 24.4956 10.0639 24.4929C10.0716 24.4877 10.0738 24.4878 10.0673 24.4901C10.0606 24.4924 10.0498 24.4954 10.0359 24.4975C10.0293 24.4985 10.0232 24.4991 10.0179 24.4995C10.0126 24.4999 10.0092 24.4999 10.0082 24.4999V26.4999ZM10.0006 26.5L10.0097 26.4999L10.0067 24.4999L9.99768 24.5L10.0006 26.5ZM9.63998 26.4735C9.80966 26.5018 9.95906 26.5 10.0013 26.5L9.99701 24.5C9.97666 24.5 9.96936 24.4999 9.96267 24.4996C9.95985 24.4995 9.95883 24.4993 9.95939 24.4994C9.95988 24.4994 9.96313 24.4998 9.96879 24.5007L9.63998 26.4735ZM9.12726 26.309C9.26834 26.3768 9.43791 26.4398 9.64 26.4735L9.96876 24.5007C9.97841 24.5023 9.98707 24.5046 9.99337 24.5067C9.99923 24.5087 9.99982 24.5094 9.99329 24.5062L9.12726 26.309ZM7.87704 24.3688C7.87704 25.1603 8.33456 25.9759 9.17156 26.329L9.94899 24.4863C9.93055 24.4785 9.91426 24.4656 9.90012 24.4433C9.88397 24.4178 9.87704 24.3892 9.87704 24.3688H7.87704ZM7.87704 21.418V24.3688H9.87704V21.418H7.87704ZM6.86065 22.418H8.87704V20.418H6.86065V22.418ZM3.5 19.0573C3.5 20.914 5.00397 22.418 6.86065 22.418V20.418C6.10854 20.418 5.5 19.8095 5.5 19.0573H3.5ZM3.5 6.86065V19.0573H5.5V6.86065H3.5Z" fill="#FF7C44"/>
</svg>
