<svg id="Layer_1" data-name="Layer 1" xmlns="http://www.w3.org/2000/svg" width="24" height="24" viewBox="0 0 24 24"><defs><style>.cls-1{fill:#949494;}</style></defs><title>Icon - Microphone</title><path class="cls-1" d="M12,14.5a3,3,0,0,0,3-3v-6a3,3,0,1,0-6,0v6A3,3,0,0,0,12,14.5Z"/><path class="cls-1" d="M17.91,11.5a1,1,0,0,0-1,.85,5,5,0,0,1-9.86,0,1,1,0,0,0-1-.85h0a1,1,0,0,0-1,1.14,7,7,0,0,0,5.6,5.73.36.36,0,0,1,.3.36V20.5a1,1,0,0,0,1,1h0a1,1,0,0,0,1-1V18.73a.36.36,0,0,1,.3-.36,7,7,0,0,0,5.6-5.73,1,1,0,0,0-1-1.14Z"/></svg>