<svg width="20" height="20" viewBox="0 0 20 20" fill="none" xmlns="http://www.w3.org/2000/svg">
<path d="M10.2414 15.8751C10.1597 15.8689 10.0788 15.855 9.99974 15.8334L10.1331 15.7168C10.4331 15.4418 10.6997 15.2001 10.9664 14.9751C11.1959 14.788 11.3536 14.5273 11.4128 14.2372C11.472 13.9472 11.4291 13.6455 11.2914 13.3834C11.2105 13.1003 11.0418 12.8502 10.8097 12.669C10.5776 12.4878 10.294 12.3849 9.99974 12.3751H9.7164C9.60653 11.9952 9.36515 11.6668 9.03541 11.4485C8.70566 11.2302 8.30904 11.1362 7.91641 11.1834H7.85807C7.75415 10.826 7.53358 10.5137 7.23153 10.2962C6.92947 10.0787 6.56331 9.96863 6.19141 9.98343H6.15807C6.09953 9.84079 6.03275 9.70166 5.95807 9.56676C5.84122 9.33859 5.66497 9.14617 5.44791 9.00977C5.23085 8.87338 4.98102 8.79806 4.72474 8.79176C4.52674 8.79409 4.33119 8.83582 4.14948 8.91451C3.96778 8.9932 3.80356 9.10728 3.66641 9.2501L2.64141 10.2668C2.45807 10.1001 2.25807 9.93343 2.04974 9.76676L0.691406 8.68343L0.766406 8.5001C1.36641 7.18343 1.94418 5.86676 2.49974 4.5501C2.64974 4.2251 2.76641 4.2251 2.79974 4.2251C2.89439 4.23523 2.98554 4.26656 3.06641 4.31676C3.66926 4.68978 4.36586 4.88344 5.07474 4.8751C5.6142 4.87209 6.15036 4.79069 6.66641 4.63343C7.02266 4.53874 7.38447 4.46638 7.74974 4.41676L8.69974 4.29176H8.94974C9.03842 4.28323 9.12772 4.28323 9.21641 4.29176C9.30789 4.28348 9.39993 4.28348 9.49141 4.29176C9.10807 4.64176 8.77474 4.96676 8.44141 5.28343L7.72474 5.96676L6.89141 6.8001C6.66043 7.00666 6.51083 7.28894 6.46958 7.59605C6.42833 7.90316 6.49813 8.2149 6.66641 8.4751C6.86484 8.79421 7.14087 9.05786 7.46874 9.24147C7.79661 9.42508 8.16564 9.52265 8.54141 9.5251C8.93885 9.52544 9.32951 9.42203 9.67474 9.2251C10.1192 8.97835 10.5453 8.69985 10.9497 8.39176C11.2247 8.19176 11.4831 7.9751 11.7831 7.7501L11.9914 7.5751C13.3631 8.57603 14.6355 9.70621 15.7914 10.9501C15.9915 11.1212 16.1312 11.3521 16.1897 11.6088C16.2482 11.8655 16.2225 12.1342 16.1164 12.3751C16.0605 12.5071 15.962 12.6165 15.8366 12.686C15.7113 12.7554 15.5663 12.781 15.4247 12.7584H15.0164H14.8831L14.6997 12.9001C14.3164 13.8834 14.3164 13.8834 12.9581 13.8918H12.7497V14.1001C12.6331 14.7001 12.3497 14.9334 11.8247 14.9334H11.6247C11.5001 14.9509 11.3817 14.9989 11.2799 15.073C11.1782 15.1471 11.0963 15.2451 11.0414 15.3584C10.7497 15.7168 10.5247 15.8751 10.2414 15.8751Z" fill="black"/>
<path d="M16.9081 10.4001C16.8331 10.4001 16.6414 10.2251 16.5581 10.1501C15.5192 9.22784 14.4914 8.31673 13.4747 7.41673L13.0414 7.04173C12.9338 6.94257 12.8133 6.85847 12.6831 6.79173L12.5914 6.74173C12.3735 6.56541 12.111 6.45291 11.8331 6.41673C11.5747 6.41673 11.3831 6.57507 11.0664 6.84173C10.8831 6.99173 10.7414 7.11673 10.6081 7.24173C10.1118 7.76716 9.49767 8.16705 8.81641 8.4084C8.71565 8.4345 8.61214 8.44849 8.50807 8.45007C8.27286 8.46376 8.04178 8.38379 7.86534 8.22765C7.68889 8.0715 7.58142 7.85187 7.56641 7.61673C7.6146 7.54919 7.66751 7.48514 7.72474 7.42506L8.94141 6.2334C9.59141 5.61673 10.2331 5.00006 10.8331 4.35007C10.9862 4.19811 11.1923 4.11148 11.4081 4.1084C11.5802 4.11578 11.7509 4.14376 11.9164 4.19173C12.2497 4.26673 12.5747 4.3584 12.9081 4.45007C13.3997 4.59173 13.8997 4.72507 14.3997 4.8334C14.5972 4.87346 14.7983 4.893 14.9997 4.89173C15.6796 4.87554 16.3388 4.65483 16.8914 4.2584C16.9679 4.19953 17.0616 4.16733 17.1581 4.16673C17.1997 4.16673 17.2581 4.25007 17.3247 4.37507C17.7831 5.29173 18.2581 6.20006 18.7247 7.1084L19.1747 7.94173C19.3747 8.31673 19.3747 8.31673 18.9914 8.61673C18.6081 8.91673 18.1581 9.32506 17.7581 9.69173L17.2414 10.1584C17.0664 10.3251 16.9581 10.4001 16.9081 10.4001Z" fill="black"/>
<path d="M3.23347 12.3419C3.16662 12.343 3.10025 12.3303 3.03857 12.3045C2.97689 12.2787 2.92124 12.2403 2.87514 12.1919C2.82497 12.1449 2.78501 12.0881 2.75777 12.0251C2.73053 11.962 2.71658 11.8939 2.7168 11.8252C2.71645 11.7572 2.72952 11.6899 2.75526 11.6269C2.781 11.564 2.81891 11.5068 2.8668 11.4586L4.1668 10.1002C4.21407 10.0504 4.27092 10.0108 4.33394 9.98354C4.39695 9.95633 4.46483 9.94216 4.53347 9.94189C4.67025 9.9438 4.80124 9.99739 4.90014 10.0919C4.997 10.19 5.0535 10.3208 5.05847 10.4586C5.05656 10.5953 5.00298 10.7263 4.90847 10.8252L3.57514 12.1836C3.48429 12.2761 3.36282 12.3324 3.23347 12.3419Z" fill="black"/>
<path d="M4.94156 13.4832C4.87743 13.4825 4.8141 13.4689 4.75538 13.4431C4.69666 13.4174 4.64377 13.38 4.59989 13.3332C4.54392 13.2854 4.49811 13.2268 4.46518 13.161C4.43226 13.0951 4.41289 13.0233 4.40823 12.9499C4.40761 12.8851 4.41981 12.8208 4.44412 12.7607C4.46843 12.7007 4.50438 12.646 4.54989 12.5999L5.92489 11.1999C5.96941 11.1517 6.02359 11.1134 6.0839 11.0875C6.1442 11.0617 6.20929 11.0489 6.27489 11.0499C6.40306 11.0499 6.52596 11.1009 6.61656 11.1915C6.72817 11.2893 6.79698 11.4269 6.80823 11.5749C6.80884 11.6397 6.79664 11.7039 6.77233 11.764C6.74802 11.8241 6.71207 11.8787 6.66656 11.9249L5.29156 13.3332C5.19924 13.4274 5.07344 13.4813 4.94156 13.4832Z" fill="black"/>
<path d="M6.66715 14.7666C6.57441 14.7583 6.48547 14.7258 6.40918 14.6724C6.33289 14.619 6.2719 14.5466 6.23229 14.4623C6.19269 14.378 6.17583 14.2848 6.18341 14.192C6.19099 14.0992 6.22273 14.01 6.27549 13.9333L7.60882 12.4999C7.70213 12.4072 7.82731 12.3536 7.95882 12.3499C8.02851 12.3458 8.09824 12.3572 8.16305 12.3831C8.22787 12.409 8.28617 12.4489 8.33382 12.4999C8.3862 12.544 8.42931 12.598 8.46064 12.6589C8.49198 12.7197 8.5109 12.7862 8.51633 12.8544C8.52176 12.9226 8.51358 12.9913 8.49226 13.0563C8.47094 13.1213 8.43691 13.1815 8.39215 13.2333L6.98382 14.6166C6.90074 14.7045 6.78775 14.758 6.66715 14.7666Z" fill="black"/>
<path d="M8.38309 15.8914C8.31956 15.8919 8.25659 15.8796 8.1979 15.8552C8.13922 15.8309 8.08601 15.795 8.04142 15.7498C7.98606 15.7057 7.9405 15.6506 7.90767 15.5879C7.87483 15.5252 7.85544 15.4564 7.85074 15.3858C7.84603 15.3152 7.85611 15.2444 7.88034 15.1779C7.90456 15.1115 7.9424 15.0508 7.99143 14.9998L9.36642 13.5998C9.41094 13.5516 9.46512 13.5133 9.52543 13.4874C9.58574 13.4616 9.65082 13.4488 9.71642 13.4498C9.84459 13.4498 9.96749 13.5008 10.0581 13.5914C10.1109 13.6354 10.1542 13.6896 10.1854 13.7508C10.2167 13.812 10.2352 13.8789 10.2399 13.9474C10.2445 14.0159 10.2353 14.0847 10.2126 14.1496C10.19 14.2144 10.1544 14.274 10.1081 14.3248L8.73309 15.7248C8.68878 15.7744 8.635 15.8148 8.5749 15.8434C8.5148 15.872 8.44959 15.8883 8.38309 15.8914Z" fill="black"/>
</svg>
