<svg width="24" height="24" viewBox="0 0 24 24" fill="none" xmlns="http://www.w3.org/2000/svg">
<g opacity="0.5">
<path d="M12.8312 15.1286C12.9233 14.9443 12.8312 14.7601 12.739 14.6679L10.6201 12.549C12.1863 10.7985 13.2918 8.77163 14.0289 6.65265C14.0289 6.56052 14.121 6.46839 14.2131 6.46839H16.1478C16.6085 6.46839 16.7928 6.28413 16.7928 6.00774V5.08645C16.7928 4.81006 16.6085 4.6258 16.3321 4.6258H10.5279C10.4358 4.6258 10.3437 4.53367 10.3437 4.44154V3.24385C10.3437 2.96746 10.1594 2.7832 9.88303 2.7832H8.96173C8.68534 2.7832 8.50108 2.96746 8.50108 3.24385V4.44154C8.50108 4.53367 8.40895 4.6258 8.31682 4.6258H2.51265C2.23626 4.6258 2.052 4.81006 2.052 5.08645V6.00774C2.052 6.28413 2.23626 6.46839 2.51265 6.46839H12.002C12.1863 6.46839 12.2784 6.65265 12.2784 6.83691C11.7256 8.40312 10.8043 9.96932 9.60664 11.2591C9.51451 11.3513 9.42238 11.3513 9.33025 11.2591C8.59321 10.43 7.9483 9.50867 7.48766 8.58738C7.3034 8.40312 7.21127 8.31099 7.02701 8.31099H6.19784C5.82932 8.31099 5.64506 8.6795 5.73719 8.95589C6.3821 10.1536 7.11914 11.3513 8.04043 12.3647C8.13256 12.4568 8.13256 12.549 8.04043 12.549C7.48766 13.1017 4.72376 15.7735 3.80247 16.7869C3.61821 16.9712 3.61821 17.2476 3.80247 17.4318L4.44737 18.0767C4.63163 18.261 4.90802 18.261 5.09228 18.0767L9.23812 13.9309C9.33025 13.8388 9.42238 13.8388 9.51451 13.9309L11.7256 16.142C12.002 16.4184 12.3705 16.3263 12.4627 15.9578L12.8312 15.1286Z" fill="white"/>
<path d="M17.6219 10.1536H16.8849C16.5163 10.1536 16.24 10.3378 16.1478 10.6142L12.5548 20.1036C12.3705 20.6564 12.739 21.117 13.2918 21.117H13.4761C13.8446 21.117 14.121 20.9327 14.2131 20.6564L15.0423 18.3531H19.3724L20.2015 20.6564C20.2937 20.9327 20.5701 21.117 20.9386 21.117H21.215C21.7677 21.117 22.1363 20.5642 21.952 20.1036L18.3589 10.6142C18.2668 10.3378 17.9904 10.1536 17.6219 10.1536ZM15.7793 16.6026L17.2534 12.6411L18.7275 16.6026H15.7793Z" fill="white"/>
</g>
</svg>
