<svg width="36" height="36" viewBox="0 0 36 36" fill="none" xmlns="http://www.w3.org/2000/svg">
<path fill-rule="evenodd" clip-rule="evenodd" d="M16.9019 4.50001C15.9016 4.50001 15.2271 5.21591 15.0441 6.03931L15.0414 6.05155L14.7267 7.78222C14.3947 7.86708 14.0832 7.99702 13.8355 8.12083C13.722 8.17762 13.5907 8.23608 13.4422 8.30209L13.4351 8.30523L13.4351 8.30525L13.4351 8.30527C13.323 8.35507 13.2006 8.40947 13.0833 8.46561L11.6932 7.48733C11.3433 7.16622 10.9146 7.08374 10.5718 7.08374C10.0361 7.08374 9.62199 7.31381 9.27531 7.66049L7.67614 9.25967C6.92785 9.92067 7.01089 10.9376 7.44029 11.6247L7.44964 11.6396L8.46505 13.0826C8.34834 13.3167 8.22356 13.5727 8.09883 13.8845C8.0776 13.9376 8.05376 13.9942 8.02856 14.0541C7.94831 14.2447 7.8543 14.4679 7.78712 14.7132L6.06084 14.9747L6.0393 14.9795C5.19481 15.1672 4.5 15.9213 4.5 16.8373V19.0981C4.5 20.0984 5.2159 20.7729 6.0393 20.9559L6.05154 20.9586L7.80354 21.2772C7.85764 21.4797 7.92932 21.7105 8.04354 21.945C8.15433 22.222 8.2808 22.5371 8.46058 22.8592L7.46242 24.2777L7.46097 24.2797C6.97176 24.9666 6.967 25.9666 7.66048 26.6601L9.31185 28.3115C9.65353 28.7363 10.1706 28.9163 10.6364 28.9163C10.9792 28.9163 11.4079 28.8338 11.7578 28.5127L13.1479 27.5344C13.2652 27.5906 13.3876 27.645 13.4996 27.6947L13.5068 27.6979C13.6553 27.7639 13.7865 27.8224 13.9001 27.8792L13.9193 27.8888C14.1317 27.9951 14.3977 28.1281 14.7234 28.2159L14.9747 29.8746L14.9795 29.8961C15.1672 30.7406 15.9213 31.4354 16.8373 31.4354H19.1627C20.1629 31.4354 20.8375 30.7195 21.0205 29.8961L21.0232 29.8839L21.3379 28.1532C21.6567 28.0719 21.9614 27.9499 22.221 27.8461L22.2696 27.8266L22.9821 27.4704L24.3714 28.4481C24.7212 28.7692 25.15 28.8517 25.4928 28.8517C26.0285 28.8517 26.4426 28.6216 26.7893 28.2749L28.3885 26.6758C29.1367 26.0148 29.0537 24.9978 28.6243 24.3108L28.615 24.2958L27.5993 22.8525C27.7779 22.4866 27.9035 22.1743 28.0207 21.8812C28.1162 21.6875 28.1822 21.5202 28.2364 21.3479L29.9392 21.0899L29.9607 21.0851C30.8052 20.8974 31.5 20.1433 31.5 19.2273V16.9019C31.5 15.9017 30.7841 15.2271 29.9607 15.0441L29.9485 15.0414L28.2178 14.7267C28.1365 14.4079 28.0145 14.1032 27.9107 13.8436L27.8912 13.795L27.535 13.0825L28.5376 11.6577L28.5391 11.6556C29.0282 10.9687 29.0329 9.96876 28.3395 9.27532L26.7527 7.68855C26.4111 7.26368 25.894 7.08374 25.4282 7.08374C24.9757 7.08374 24.5854 7.29996 24.3594 7.4506L24.3526 7.45511L22.9119 8.46893C22.7802 8.41522 22.6576 8.3608 22.5255 8.30209L22.5216 8.30036L22.5216 8.30035C22.3784 8.23673 22.2237 8.16797 22.0509 8.09884C21.9979 8.07763 21.9413 8.0538 21.8815 8.02862L21.8813 8.02857L21.8813 8.02856C21.6907 7.94831 21.4675 7.8543 21.2223 7.78713L20.9607 6.06085L20.9559 6.03931C20.7682 5.19481 20.0141 4.50001 19.0981 4.50001H16.9019ZM18.0001 12.6387C15.0597 12.6387 12.7035 14.9949 12.7035 17.9353C12.7035 20.8758 15.0597 23.232 18.0001 23.232C20.9406 23.232 23.2968 20.8758 23.2968 17.9353C23.2968 14.9949 20.9406 12.6387 18.0001 12.6387Z" fill="#FF7C44"/>
</svg>
