<svg width="20" height="20" viewBox="0 0 20 20" fill="none" xmlns="http://www.w3.org/2000/svg">
<path d="M15.066 11.6833H11.166V15.5833H15.066V11.6833Z" fill="#FF7C44"/>
<path d="M3.89128 18.2751C3.44925 18.2751 3.02533 18.0995 2.71276 17.7869C2.4002 17.4744 2.22461 17.0505 2.22461 16.6084V5.15843C2.22461 4.7164 2.4002 4.29248 2.71276 3.97992C3.02533 3.66736 3.44925 3.49176 3.89128 3.49176H4.81628V1.7251H6.48294V3.46676H13.5829V1.7251H15.2496V3.46676H16.1746C16.6166 3.46676 17.0406 3.64236 17.3531 3.95492C17.6657 4.26748 17.8413 4.6914 17.8413 5.13343V16.5918C17.8413 17.0338 17.6657 17.4577 17.3531 17.7703C17.0406 18.0828 16.6166 18.2584 16.1746 18.2584L3.89128 18.2751ZM3.05794 16.5418C3.05794 16.7782 3.15189 17.005 3.31911 17.1723C3.48633 17.3395 3.71312 17.4334 3.94961 17.4334H16.0663C16.3028 17.4334 16.5296 17.3395 16.6968 17.1723C16.864 17.005 16.9579 16.7782 16.9579 16.5418V5.9501H3.04128L3.05794 16.5418Z" fill="#FF7C44"/>
<circle cx="15.4173" cy="15.4166" r="4.08333" fill="#FA0C0C" stroke="white"/>
</svg>
