<svg width="30" height="30" viewBox="0 0 30 30" fill="none" xmlns="http://www.w3.org/2000/svg">
<path d="M22.6 17.525H16.75V23.375H22.6V17.525Z" fill="#FF7C44"/>
<path d="M5.83789 27.4125C5.17485 27.4125 4.53896 27.1491 4.07012 26.6803C3.60128 26.2114 3.33789 25.5755 3.33789 24.9125V7.73749C3.33789 7.07445 3.60128 6.43857 4.07012 5.96973C4.53896 5.50089 5.17485 5.23749 5.83789 5.23749H7.22539V2.58749H9.72539V5.19999H20.3754V2.58749H22.8754V5.19999H24.2629C24.9259 5.19999 25.5618 5.46339 26.0307 5.93223C26.4995 6.40107 26.7629 7.03695 26.7629 7.69999V24.8875C26.7629 25.5505 26.4995 26.1864 26.0307 26.6553C25.5618 27.1241 24.9259 27.3875 24.2629 27.3875L5.83789 27.4125ZM4.58789 24.8125C4.58789 25.1672 4.72881 25.5074 4.97964 25.7582C5.23047 26.0091 5.57066 26.15 5.92539 26.15H24.1004C24.4551 26.15 24.7953 26.0091 25.0461 25.7582C25.297 25.5074 25.4379 25.1672 25.4379 24.8125V8.92499H4.56289L4.58789 24.8125Z" fill="#FF7C44"/>
</svg>
