<svg width="15" height="15" viewBox="0 0 15 15" fill="none" xmlns="http://www.w3.org/2000/svg">
<path fill-rule="evenodd" clip-rule="evenodd" d="M7.84339 2.32702C8.03419 2.4004 8.24125 2.58895 8.24125 2.88015V12.0901C8.24125 12.3521 8.08841 12.5701 7.8674 12.6622C7.64546 12.7546 7.38541 12.7083 7.1974 12.525L4.28644 9.85408L4.2811 9.84874C4.23697 9.80461 4.15152 9.77171 4.07969 9.77171H1.94969C1.60553 9.77171 1.32812 9.49431 1.32812 9.15014V5.85015C1.32812 5.50598 1.60553 5.22858 1.94969 5.22858H4.07969C4.17272 5.22858 4.23134 5.20131 4.2811 5.15155L4.2851 5.14754L7.17673 2.43664L7.18462 2.43007C7.38928 2.25952 7.64878 2.25216 7.84339 2.32702Z" fill="white"/>
<path fill-rule="evenodd" clip-rule="evenodd" d="M8.98785 5.5453C9.12301 5.40591 9.34558 5.40249 9.48497 5.53765C10.6174 6.63577 10.6174 8.39431 9.48497 9.49242C9.34558 9.62759 9.12301 9.62417 8.98785 9.48478C8.85268 9.34539 8.85611 9.12282 8.9955 8.98765C9.84306 8.16577 9.84306 6.86431 8.9955 6.04243C8.85611 5.90726 8.85268 5.68469 8.98785 5.5453Z" fill="white"/>
<path fill-rule="evenodd" clip-rule="evenodd" d="M10.157 4.37617C10.2917 4.23636 10.5143 4.23224 10.6541 4.36697C12.4476 6.09524 12.4476 8.875 10.6541 10.6033C10.5143 10.738 10.2917 10.7339 10.157 10.5941C10.0223 10.4543 10.0264 10.2317 10.1662 10.097C11.6727 8.64524 11.6727 6.325 10.1662 4.87327C10.0264 4.73854 10.0223 4.51598 10.157 4.37617Z" fill="white"/>
<path fill-rule="evenodd" clip-rule="evenodd" d="M11.3559 3.23638C11.4904 3.09638 11.713 3.09196 11.853 3.2265C14.3069 5.58483 14.3069 9.41513 11.853 11.7735C11.713 11.908 11.4904 11.9036 11.3559 11.7636C11.2214 11.6236 11.2258 11.401 11.3658 11.2665C13.5318 9.18483 13.5318 5.81513 11.3658 3.73346C11.2258 3.59892 11.2214 3.37637 11.3559 3.23638Z" fill="white"/>
</svg>
