<svg width="25" height="25" viewBox="0 0 25 25" fill="none" xmlns="http://www.w3.org/2000/svg">
<path d="M3.125 18.75C3.125 19.375 3.54167 19.7917 4.16667 19.7917H9.375V17.7083H4.16667C3.54167 17.7083 3.125 18.125 3.125 18.75ZM3.125 6.25C3.125 6.875 3.54167 7.29167 4.16667 7.29167H13.5417V5.20833H4.16667C3.54167 5.20833 3.125 5.625 3.125 6.25ZM13.5417 21.875V19.7917H20.8333C21.4583 19.7917 21.875 19.375 21.875 18.75C21.875 18.125 21.4583 17.7083 20.8333 17.7083H13.5417V15.625H11.4583V21.875H13.5417ZM7.29167 9.375V11.4583H4.16667C3.54167 11.4583 3.125 11.875 3.125 12.5C3.125 13.125 3.54167 13.5417 4.16667 13.5417H7.29167V15.625H9.375V9.375H7.29167ZM21.875 12.5C21.875 11.875 21.4583 11.4583 20.8333 11.4583H11.4583V13.5417H20.8333C21.4583 13.5417 21.875 13.125 21.875 12.5ZM15.625 9.375H17.7083V7.29167H20.8333C21.4583 7.29167 21.875 6.875 21.875 6.25C21.875 5.625 21.4583 5.20833 20.8333 5.20833H17.7083V3.125H15.625V9.375Z" fill="#0F3A5D"/>
</svg>
