<svg width="30" height="30" viewBox="0 0 30 30" fill="none" xmlns="http://www.w3.org/2000/svg">
<path fill-rule="evenodd" clip-rule="evenodd" d="M6.675 29.4125C6.79435 29.4603 6.92146 29.4857 7.05 29.4875C7.23686 29.4756 7.41942 29.4263 7.5869 29.3426C7.75437 29.2588 7.90334 29.1423 8.025 29L12.9375 24.1H25.9C26.7808 24.0967 27.6246 23.7453 28.2475 23.1225C28.8703 22.4997 29.2217 21.6558 29.225 20.775V4.11251C29.2195 3.53225 29.0634 2.96336 28.772 2.46157C28.4806 1.95977 28.0638 1.54229 27.5625 1.25001C27.0594 0.950552 26.4855 0.790884 25.9 0.787506H4.325C3.44532 0.7875 2.60148 1.1361 1.97828 1.75695C1.35508 2.37781 1.00331 3.22033 1 4.10001V20.775C1.00329 21.6558 1.35466 22.4997 1.97751 23.1225C2.60035 23.7453 3.44417 24.0967 4.325 24.1H6.0125V28.1625C6.0125 29.0125 6.425 29.3125 6.675 29.4125ZM10 20.1875C11.5025 21.1164 13.2335 21.6097 15 21.6125C16.7665 21.6097 18.4975 21.1164 20 20.1875C21.3388 19.3693 22.4619 18.2419 23.275 16.9C23.5702 16.3934 23.8212 15.8623 24.025 15.3125C24.3894 14.272 24.5753 13.1774 24.575 12.075C24.5772 10.9673 24.3868 9.86758 24.0125 8.82501C23.8136 8.27317 23.5625 7.74159 23.2625 7.23751C22.4234 5.80068 21.2225 4.60875 19.7794 3.78039C18.3363 2.95203 16.7014 2.51615 15.0375 2.51615C13.3736 2.51615 11.7387 2.95203 10.2956 3.78039C8.85255 4.60875 7.65165 5.80068 6.8125 7.23751C6.51253 7.74159 6.26139 8.27317 6.0625 8.82501C5.68817 9.86758 5.49784 10.9673 5.5 12.075C5.49969 13.1774 5.68565 14.272 6.05 15.3125C6.25385 15.8623 6.50478 16.3934 6.8 16.9C7.59191 18.2333 8.68855 19.3599 10 20.1875ZM12.75 15.8125H15C15.7375 15.8125 16.4875 15.8375 17.2625 15.95H17.575L17.5 16.25C17.3204 16.9998 17.0735 17.732 16.7625 18.4375C16.5108 19.0426 16.146 19.5942 15.6875 20.0625C15.5035 20.2612 15.2559 20.3894 14.9875 20.425C14.7191 20.3894 14.4715 20.2612 14.2875 20.0625C13.829 19.5942 13.4642 19.0426 13.2125 18.4375C12.91 17.7311 12.6716 16.999 12.5 16.25L12.4375 15.8125H12.75ZM17.6125 19.4875C18.1415 18.467 18.5245 17.3772 18.75 16.25L18.8 16.05H19.0375C19.9 16.1375 20.775 16.2625 21.65 16.4125L22.05 16.4875L21.825 16.825C21.5396 17.2292 21.2219 17.6096 20.875 17.9625C20.1205 18.7211 19.2244 19.3241 18.2375 19.7375L17.275 20.1L17.6125 19.4875ZM8.35 16.4125C9.225 16.2625 10.1 16.1375 10.9625 16.05L11.25 16.0125V16.25C11.4756 17.3772 11.8585 18.467 12.3875 19.4875L12.725 20.1L11.7625 19.7375C10.7757 19.3241 9.87954 18.7211 9.125 17.9625C8.77814 17.6096 8.46043 17.2292 8.175 16.825L7.95 16.4875L8.35 16.4125ZM19.2625 9.32501C20.3 9.21251 21.375 9.05001 22.425 8.85001L22.6375 8.75001L22.7125 8.97501C23.1074 9.95177 23.307 10.9965 23.3 12.05C23.3052 13.0941 23.11 14.1295 22.725 15.1L22.65 15.3H22.4375C21.375 15.1 20.3 14.9375 19.2625 14.825H19V14.575C19.0919 13.7448 19.1379 12.9102 19.1375 12.075C19.1373 11.2398 19.0914 10.4052 19 9.57501V9.32501H19.2625ZM6.7 12.075C6.69304 11.0215 6.89264 9.97678 7.2875 9.00001L7.3625 8.75001L7.575 8.87501C8.625 9.07501 9.7 9.23751 10.7375 9.35001H11V9.60001C10.9086 10.4302 10.8627 11.2648 10.8625 12.1C10.8622 12.9352 10.9081 13.7698 11 14.6V14.85H10.7375C9.7 14.9625 8.625 15.125 7.5625 15.325H7.35L7.275 15.125C6.89003 14.1545 6.69484 13.1191 6.7 12.075ZM17.5 14.65C16.7 14.575 15.85 14.575 15 14.575C14.15 14.575 13.3 14.6 12.5 14.65H12.2625V14.4C12.0791 12.8303 12.0791 11.2447 12.2625 9.67501V9.42501H12.5C13.3 9.50001 14.175 9.50001 15 9.50001C15.4125 9.50001 15.8313 9.48126 16.25 9.46251C16.6688 9.44376 17.0875 9.42501 17.5 9.42501H17.7375V9.67501C17.8284 10.4634 17.8743 11.2564 17.875 12.05C17.8735 12.8353 17.8276 13.6199 17.7375 14.4V14.65H17.5ZM14.3 4.12501C14.4793 3.91815 14.7285 3.78464 15 3.75001C15.155 3.75442 15.3073 3.79118 15.4472 3.85791C15.5871 3.92464 15.7115 4.01987 15.8125 4.13751C16.2739 4.60344 16.6392 5.15559 16.8875 5.76251C17.192 6.45953 17.4305 7.18352 17.6 7.92501V8.22501H17.3C16.5375 8.28751 15.7875 8.28751 15.05 8.28751C14.6843 8.28751 14.3156 8.27214 13.9438 8.25665C13.5657 8.24089 13.1844 8.22501 12.8 8.22501H12.5V7.92501C12.6728 7.17884 12.9155 6.45061 13.225 5.75001C13.4733 5.14309 13.8386 4.59094 14.3 4.12501ZM18.75 7.88751C18.5199 6.7616 18.1372 5.67237 17.6125 4.65001L17.275 4.10001L18.2375 4.47501C19.2244 4.88838 20.1205 5.49144 20.875 6.25001C21.1994 6.5927 21.4961 6.96052 21.7625 7.35001L22 7.67501L21.6 7.75001C20.6833 7.90001 19.8083 8.02501 18.975 8.12501H18.75V7.88751ZM9.125 6.25001C9.87504 5.47348 10.7715 4.85322 11.7625 4.42501L12.725 4.05001L12.3875 4.66251C11.8638 5.68094 11.4811 6.76589 11.25 7.88751V8.12501L10.975 8.15001C10.1083 8.05001 9.23334 7.92501 8.35 7.77501L7.95 7.70001L8.1875 7.37501C8.46875 6.97503 8.7823 6.59877 9.125 6.25001Z" fill="white"/>
</svg>
