<svg width="24" height="24" viewBox="0 0 24 24" fill="none" xmlns="http://www.w3.org/2000/svg">
<path fill-rule="evenodd" clip-rule="evenodd" d="M1 12C1 5.90302 5.90302 1 12 1C18.097 1 23 5.90302 23 12C23 18.0993 18.0412 23 12 23C5.90302 23 1 18.097 1 12ZM11.6262 8.04822C11.2523 8.04822 10.9319 7.9414 10.6648 7.67436C10.3978 7.40732 10.291 7.08687 10.291 6.71302C10.291 6.33916 10.4512 6.01871 10.6648 5.75167C10.9319 5.48463 11.2523 5.37782 11.6262 5.37782C12.0001 5.37782 12.3205 5.48463 12.5875 5.75167C12.8546 6.01871 12.9614 6.33916 12.9614 6.71302C12.9614 7.08687 12.8012 7.40732 12.5875 7.67436C12.3205 7.9414 12.0001 8.04822 11.6262 8.04822ZM9.48989 16.4868V17.6084H14.4568V16.4868L14.0296 16.4334C13.4955 16.3266 13.3887 16.2198 13.3353 16.1664C13.3353 16.1334 13.3149 16.1004 13.2867 16.0548C13.2693 16.0266 13.2488 15.9936 13.2284 15.9528C13.2284 15.9185 13.223 15.8734 13.2155 15.8119C13.1997 15.6817 13.175 15.4783 13.175 15.1516V14.4573V9.06314L9.65011 9.11654L9.5967 10.2381L10.024 10.2915C10.2376 10.2915 10.3978 10.2915 10.4512 10.3449C10.558 10.3983 10.6115 10.4517 10.6649 10.5586C10.7183 10.612 10.7717 10.7188 10.7717 10.9324C10.8251 11.0926 10.8251 11.4131 10.8251 12.1608V12.1608V14.4039C10.8251 14.7168 10.8068 14.9747 10.7916 15.1883C10.7808 15.3394 10.7717 15.4683 10.7717 15.5789C10.7493 15.6684 10.7363 15.7485 10.7248 15.8192C10.7089 15.9174 10.6959 15.9975 10.6649 16.0596C10.645 16.0795 10.6325 16.1068 10.6192 16.1359C10.5967 16.1851 10.5717 16.2397 10.5046 16.2732C10.4512 16.3266 10.291 16.38 9.91715 16.4334L9.48989 16.4868Z" fill="black"/>
</svg>
