<svg width="36" height="36" viewBox="0 0 36 36" fill="none" xmlns="http://www.w3.org/2000/svg">
<path d="M15.1497 25.05C14.8497 25.05 14.5497 24.9 14.2497 24.75L9.59967 20.1C8.99967 19.5 8.99967 18.75 9.44967 18.3C9.89967 17.85 10.6497 17.85 11.2497 18.3L14.9997 22.05L24.5997 12.45C25.0497 12 25.7997 12 26.3997 12.45C26.8497 12.9 26.8497 13.65 26.3997 14.25L15.8997 24.75C15.7497 24.9 15.4497 25.05 15.1497 25.05Z" fill="#FF7C44"/>
<path d="M17.9996 32.4C10.0496 32.4 3.59961 25.95 3.59961 18C3.59961 10.05 10.0496 3.59998 17.9996 3.59998C25.9496 3.59998 32.3996 10.05 32.3996 18C32.3996 25.95 25.9496 32.4 17.9996 32.4ZM17.9996 5.24998C11.5496 5.24998 5.24957 11.7 5.24957 18C5.24957 24.3 11.6996 30.75 17.9996 30.75C24.4496 30.75 30.7496 24.3 30.7496 18C30.7496 11.7 24.4496 5.24998 17.9996 5.24998Z" fill="#FF7C44"/>
</svg>
