<svg width="25" height="25" viewBox="0 0 25 25" fill="none" xmlns="http://www.w3.org/2000/svg">
<path d="M13.5466 13.8604C13.679 13.8604 13.7505 13.9023 13.7876 13.9394C13.8247 13.9765 13.8666 14.048 13.8666 14.1804C13.8666 14.3128 13.8247 14.3842 13.7876 14.4214C13.7505 14.4585 13.679 14.5004 13.5466 14.5004C13.4142 14.5004 13.3427 14.4585 13.3056 14.4214C13.2685 14.3842 13.2266 14.3128 13.2266 14.1804C13.2266 14.048 13.2685 13.9765 13.3056 13.9394C13.3427 13.9023 13.4142 13.8604 13.5466 13.8604Z" fill="#FF7C44" stroke="#FF7C44"/>
<path d="M21.667 4.58366C21.3545 4.27116 20.9378 4.16699 20.5212 4.16699H5.93783C5.52116 4.16699 5.10449 4.37533 4.79199 4.58366C4.37533 5.00033 4.16699 5.41699 4.16699 5.93783V22.917H5.62533L8.75032 18.1253H20.6253C21.5628 18.1253 22.292 17.3962 22.292 16.4587V5.93783C22.292 5.41699 22.0837 5.00033 21.667 4.58366ZM20.8337 16.5628H8.12533L5.83366 20.3128C5.83366 20.3128 5.72949 20.417 5.62533 20.5212V5.62533H20.8337V16.5628Z" fill="#FF7C44"/>
<path d="M14.3389 11.4587H12.7043C12.6022 11.4587 12.5 11.3856 12.5 11.3125V7.43819C12.5 7.36509 12.6022 7.29199 12.7043 7.29199H14.3389C14.4411 7.29199 14.5433 7.36509 14.5433 7.43819V11.2394C14.6454 11.3856 14.5433 11.4587 14.3389 11.4587Z" fill="#FF7C44"/>
</svg>
