<svg width="20" height="20" viewBox="0 0 20 20" fill="none" xmlns="http://www.w3.org/2000/svg">
<path d="M18.2333 7.44996C18.3337 7.44996 18.3337 7.34956 18.3337 7.34956V3.5343C18.3337 3.4339 18.2333 3.3335 18.0325 3.3335H1.9682C1.76739 3.3335 1.66699 3.4339 1.66699 3.5343V7.24916C1.66699 7.34956 1.76739 7.34956 1.76739 7.44996C2.67101 7.65077 3.37382 8.45398 3.37382 9.35759C3.37382 10.2612 2.67101 11.0644 1.76739 11.2652C1.66699 11.2652 1.66699 11.3656 1.66699 11.3656V15.0805C1.66699 15.2813 1.76739 15.3817 1.9682 15.3817H18.0325C18.1329 15.3817 18.3337 15.2813 18.3337 15.1809V11.466C18.3337 11.3656 18.2333 11.3656 18.2333 11.3656C17.3296 11.1648 16.6268 10.3616 16.6268 9.45799C16.6268 8.55438 17.2292 7.65077 18.2333 7.44996ZM16.0244 10.6628C16.3256 11.1648 16.7272 11.5664 17.3296 11.8676L17.43 11.968V14.3777C17.43 14.4781 17.3296 14.5785 17.2292 14.5785H2.77141C2.67101 14.5785 2.57061 14.4781 2.57061 14.3777V11.8676L2.77141 11.7672C4.17703 11.0644 4.77944 9.45799 3.97623 8.05237C3.67502 7.55036 3.27342 7.14876 2.67101 6.84755H2.57061V4.33751C2.57061 4.23711 2.67101 4.13671 2.77141 4.13671H17.3296C17.43 4.13671 17.5304 4.23711 17.5304 4.33751V6.84755L17.3296 6.94795C15.8236 7.65077 15.2212 9.25719 16.0244 10.6628Z" fill="#FF7C44"/>
<path d="M8.59471 9.96028C8.59471 9.85988 8.59471 9.65908 8.49431 9.65908L6.98828 8.35386L8.99631 8.25345C9.09672 8.25345 9.19712 8.15305 9.29752 8.05265L10.0003 6.14502L10.7031 7.95225C10.7031 8.05265 10.9039 8.15305 11.0043 8.15305L13.0124 8.25345L11.5064 9.55867C11.406 9.65908 11.406 9.75948 11.406 9.96028L11.908 11.8679L10.2011 10.7635C10.1007 10.6631 9.89993 10.6631 9.79953 10.7635L8.0927 11.8679L8.59471 9.96028Z" fill="#FF7C44"/>
</svg>
