<svg width="20" height="20" viewBox="0 0 20 20" fill="none" xmlns="http://www.w3.org/2000/svg">
<path d="M9.68884 6.70678C9.37729 6.70678 9.11025 6.61777 8.88772 6.39523C8.66519 6.1727 8.57617 5.90566 8.57617 5.59411C8.57617 5.28257 8.70969 5.01553 8.88772 4.79299C9.11025 4.57046 9.37729 4.48145 9.68884 4.48145C10.0004 4.48145 10.2674 4.57046 10.49 4.79299C10.7125 5.01553 10.8015 5.28257 10.8015 5.59411C10.8015 5.90566 10.668 6.1727 10.49 6.39523C10.2674 6.61777 10.0004 6.70678 9.68884 6.70678Z" fill="#FF7C44"/>
<path d="M7.9082 14.7181V13.7389L8.26426 13.6944C8.5758 13.6499 8.70932 13.6054 8.75383 13.5609C8.84284 13.5164 8.84284 13.4274 8.88735 13.3829C8.93186 13.2938 8.93186 13.1603 8.97636 12.9823C8.97636 12.7598 9.02087 12.4482 9.02087 12.0032V10.1339C9.02087 9.51078 9.02087 9.24374 8.97636 9.11022C8.97636 8.9322 8.93186 8.84318 8.88735 8.79868C8.84284 8.70966 8.79834 8.66516 8.70932 8.62065C8.66482 8.57614 8.5313 8.57614 8.35327 8.57614L7.99722 8.53164L8.04172 7.597L10.9792 7.55249V12.0477V12.6262C10.9792 13.0268 11.0237 13.2048 11.0237 13.2939C11.0682 13.3829 11.1127 13.4274 11.1127 13.4719C11.1572 13.5164 11.2462 13.6054 11.6913 13.6944L12.0473 13.7389V14.6736H7.9082V14.7181Z" fill="#FF7C44"/>
<path fill-rule="evenodd" clip-rule="evenodd" d="M10.0007 1.98701C5.55704 1.98701 1.98775 5.55631 1.98775 9.99992C1.98775 14.4435 5.55704 18.0128 10.0007 18.0128C14.4017 18.0128 18.0136 14.4416 18.0136 9.99992C18.0136 5.55631 14.4443 1.98701 10.0007 1.98701ZM0.833984 9.99992C0.833984 4.9191 4.91984 0.833252 10.0007 0.833252C15.0815 0.833252 19.1673 4.9191 19.1673 9.99992C19.1673 15.0827 15.035 19.1666 10.0007 19.1666C4.91984 19.1666 0.833984 15.0807 0.833984 9.99992Z" fill="#FF7C44"/>
<circle cx="15.4173" cy="15.4166" r="4.08333" fill="#FA0C0C" stroke="white"/>
</svg>
