<svg width="24" height="24" viewBox="0 0 24 24" fill="none" xmlns="http://www.w3.org/2000/svg">
<path d="M18.9995 6.72023H16.6295L16.1395 5.72023C15.9487 5.31451 15.6458 4.97183 15.2667 4.73263C14.8875 4.49343 14.4478 4.36768 13.9995 4.37023H9.99946C9.5533 4.36589 9.11511 4.48866 8.73615 4.72418C8.35719 4.95971 8.05311 5.29825 7.85946 5.70023L7.36946 6.70023H4.99946C4.68582 6.69488 4.37427 6.75238 4.0832 6.86933C3.79213 6.98629 3.52741 7.16034 3.30467 7.38122C3.08193 7.6021 2.90566 7.86534 2.78626 8.15542C2.66686 8.4455 2.60675 8.75655 2.60946 9.07023V17.2802C2.61076 17.5918 2.67376 17.9001 2.79482 18.1873C2.91588 18.4744 3.09261 18.7347 3.31481 18.9532C3.53701 19.1717 3.80028 19.344 4.08943 19.4602C4.37857 19.5764 4.68787 19.6342 4.99946 19.6302H18.9995C19.6219 19.6276 20.2181 19.3792 20.6583 18.939C21.0984 18.4989 21.3468 17.9027 21.3495 17.2802V9.07023C21.3495 8.44697 21.1019 7.84924 20.6612 7.40853C20.2205 6.96782 19.6227 6.72023 18.9995 6.72023ZM11.9995 17.8702C11.0699 17.8702 10.1612 17.5946 9.38828 17.0781C8.61537 16.5617 8.01296 15.8277 7.65723 14.9688C7.3015 14.11 7.20842 13.165 7.38977 12.2533C7.57112 11.3416 8.01875 10.5041 8.67606 9.84683C9.33337 9.18952 10.1708 8.74189 11.0825 8.56054C11.9942 8.37919 12.9393 8.47226 13.7981 8.82799C14.6569 9.18373 15.3909 9.78614 15.9074 10.559C16.4238 11.332 16.6995 12.2407 16.6995 13.1702C16.6995 14.4167 16.2043 15.6122 15.3229 16.4936C14.4414 17.3751 13.246 17.8702 11.9995 17.8702Z" fill="#FF7C44"/>
<path d="M11.9992 16.2201C13.6837 16.2201 15.0492 14.8546 15.0492 13.1701C15.0492 11.4856 13.6837 10.1201 11.9992 10.1201C10.3148 10.1201 8.94922 11.4856 8.94922 13.1701C8.94922 14.8546 10.3148 16.2201 11.9992 16.2201Z" fill="#FF7C44"/>
</svg>
