<svg width="24" height="24" viewBox="0 0 24 24" fill="none" xmlns="http://www.w3.org/2000/svg">
<path d="M7.12001 10.85H2.10001V22.41H7.12001V10.85Z" fill="#A1DA67"/>
<path d="M21.9 15.3C21.9004 14.9508 21.7957 14.6095 21.5995 14.3206C21.4033 14.0317 21.1247 13.8085 20.8 13.68C21.1692 13.517 21.4712 13.232 21.6553 12.8728C21.8394 12.5136 21.8944 12.1021 21.8112 11.7072C21.728 11.3122 21.5116 10.9579 21.1982 10.7035C20.8849 10.4492 20.4936 10.3102 20.09 10.31H15.09C15.0443 10.1059 15.0443 9.89414 15.09 9.69C15.309 8.72088 15.6731 7.7904 16.17 6.93C16.61 6.15 16.79 2.47 15.97 1.93C15.7784 1.79584 15.5619 1.70124 15.3333 1.65172C15.1046 1.6022 14.8684 1.59875 14.6384 1.64158C14.4085 1.68441 14.1893 1.77266 13.9939 1.90116C13.7984 2.02967 13.6305 2.19585 13.5 2.39L12.5 6.09L10.47 9C10.11 9.52 8.23 11.71 8.23 11.71V21.5L11.35 22.41H18.25C18.7178 22.3995 19.1628 22.2063 19.4899 21.8718C19.817 21.5372 20.0001 21.0879 20 20.62C20.0033 20.4091 19.9694 20.1992 19.9 20C20.2087 19.9255 20.4918 19.7698 20.7201 19.549C20.9483 19.3282 21.1133 19.0504 21.198 18.7443C21.2827 18.4382 21.2839 18.1151 21.2017 17.8084C21.1194 17.5017 20.9565 17.2226 20.73 17C21.08 16.8772 21.382 16.6464 21.5923 16.3408C21.8025 16.0353 21.9103 15.6708 21.9 15.3Z" fill="#A1DA67"/>
</svg>
