<svg width="20" height="20" viewBox="0 0 20 20" fill="none" xmlns="http://www.w3.org/2000/svg">
<path fill-rule="evenodd" clip-rule="evenodd" d="M4.20039 2.74039C4.41004 2.56625 4.64728 2.52441 4.8109 2.52441C4.99832 2.52441 5.16599 2.57574 5.30025 2.64288C5.70407 2.84478 5.88229 3.24205 5.88229 3.59065V4.20503H7.32152C8.34641 4.20503 9.28116 4.54465 10.046 5.14183C10.7959 4.5652 11.7461 4.20503 12.7655 4.20503H14.1635V3.63189C14.1635 3.30885 14.3158 2.94448 14.6615 2.73096C14.7663 2.65996 14.8665 2.62409 14.9324 2.60529C15.0357 2.57577 15.1343 2.56566 15.2194 2.56566C15.3045 2.56566 15.4032 2.57577 15.5065 2.60529C15.5851 2.62777 15.7146 2.67507 15.8419 2.77901L18.8465 5.05274C19.0454 5.1867 19.1733 5.38796 19.2199 5.60534C19.2633 5.80758 19.2259 5.97479 19.2097 6.03943C19.2017 6.07148 19.1925 6.10152 19.1847 6.12517C19.1586 6.25378 19.1117 6.35182 19.0902 6.39473C19.049 6.47715 18.9808 6.59006 18.8782 6.69268L18.8378 6.73307L15.7629 9.06002C15.5533 9.23417 15.316 9.27601 15.1524 9.27601C14.965 9.27601 14.7973 9.22468 14.663 9.15755C14.2592 8.95564 14.081 8.55838 14.081 8.20977V7.63663H12.683C12.1511 7.63663 11.7387 8.04904 11.7387 8.58096V16.3345C11.7387 16.5841 11.652 16.8574 11.4391 17.0703C11.2262 17.2832 10.953 17.3698 10.7034 17.3698H9.25991C9.01028 17.3698 8.73705 17.2832 8.52415 17.0703C8.31125 16.8574 8.22461 16.5841 8.22461 16.3345V8.49847C8.22461 7.96655 7.8122 7.55414 7.28028 7.55414H5.88229V8.12729C5.88229 8.45032 5.72996 8.8147 5.38432 9.02821C5.27946 9.09921 5.17924 9.13509 5.11342 9.15389C5.01012 9.1834 4.91146 9.19352 4.82637 9.19352C4.74128 9.19352 4.64261 9.1834 4.53931 9.15389C4.46063 9.13141 4.3312 9.0841 4.20384 8.98016L1.12548 6.65059L1.08509 6.61019C0.982463 6.50757 0.91428 6.39465 0.873071 6.31223C0.844379 6.25485 0.759766 6.08014 0.759766 5.85897C0.759766 5.6378 0.844378 5.46309 0.873071 5.40571C0.91428 5.32329 0.982462 5.21037 1.08508 5.10775L1.12548 5.06735L4.20039 2.74039ZM4.7653 3.3644C4.75168 3.36865 4.74092 3.3745 4.73163 3.38246L4.722 3.39071L1.67413 5.69721C1.66503 5.70634 1.65489 5.71862 1.64455 5.73378C1.63421 5.74894 1.62537 5.76451 1.61843 5.77838C1.61231 5.79062 1.60554 5.80533 1.60021 5.82217C1.59465 5.83975 1.5931 5.85222 1.5931 5.85897C1.5931 5.86572 1.59465 5.87819 1.60021 5.89576C1.60554 5.91261 1.61231 5.92732 1.61843 5.93956C1.62537 5.95343 1.63421 5.969 1.64455 5.98415C1.65489 5.99932 1.66503 6.0116 1.67413 6.02073L4.72208 8.32729L4.73009 8.334C4.73971 8.34208 4.75323 8.34833 4.76825 8.35262C4.78584 8.35765 4.80606 8.36019 4.82637 8.36019C4.84668 8.36019 4.8669 8.35765 4.88449 8.35262C4.89676 8.34911 4.90867 8.34411 4.91814 8.33746L4.93052 8.32876L4.94351 8.32098C5.01132 8.28035 5.04896 8.20507 5.04896 8.12729V6.72081H7.28028C8.27244 6.72081 9.05794 7.50631 9.05794 8.49847V16.3345C9.05794 16.396 9.07862 16.4462 9.11341 16.481C9.14819 16.5158 9.19837 16.5365 9.25991 16.5365H10.7034C10.7649 16.5365 10.8151 16.5158 10.8499 16.481C10.8847 16.4462 10.9053 16.396 10.9053 16.3345V8.58096C10.9053 7.5888 11.6909 6.8033 12.683 6.8033H14.9143V8.20977C14.9143 8.29284 14.9564 8.37254 15.0357 8.41219C15.0766 8.43263 15.1172 8.44267 15.1524 8.44267C15.167 8.44267 15.1833 8.44061 15.198 8.43602C15.2116 8.43177 15.2224 8.42592 15.2317 8.41796L15.2413 8.40971L18.2892 6.10321C18.2983 6.09408 18.3084 6.0818 18.3187 6.06664C18.3291 6.05148 18.3379 6.03592 18.3449 6.02204C18.3496 6.01252 18.3547 6.0017 18.3594 5.98911C18.3641 5.97612 18.3674 5.96407 18.369 5.95384L18.3751 5.9162L18.3878 5.88028C18.3891 5.87671 18.3905 5.87269 18.3919 5.86839C18.393 5.8651 18.3941 5.86165 18.3953 5.8581C18.3979 5.84966 18.3999 5.84255 18.4013 5.8373C18.4036 5.82781 18.4056 5.81843 18.4064 5.80779C18.4073 5.79694 18.4067 5.78761 18.4051 5.77995C18.4017 5.76425 18.3933 5.75186 18.3799 5.74319L18.3667 5.7347L15.3237 3.43189L15.3157 3.42518C15.3061 3.4171 15.2925 3.41085 15.2775 3.40656C15.2599 3.40153 15.2397 3.39899 15.2194 3.39899C15.1991 3.39899 15.1789 3.40153 15.1613 3.40656C15.149 3.41006 15.1371 3.41507 15.1276 3.42172L15.1153 3.43042L15.1023 3.4382C15.0345 3.47883 14.9968 3.55411 14.9968 3.63189V5.03837H12.7655C11.8365 5.03837 10.9689 5.4101 10.3239 5.99454L10.0425 6.24942L9.76263 5.99298C9.09902 5.38498 8.25861 5.03837 7.32152 5.03837H5.04896V3.59065C5.04896 3.50758 5.00687 3.42788 4.92758 3.38823C4.8867 3.36779 4.84611 3.35775 4.8109 3.35775C4.7963 3.35775 4.78001 3.35981 4.7653 3.3644Z" fill="#FF7C44"/>
</svg>
