<svg width="24" height="24" viewBox="0 0 24 24" fill="none" xmlns="http://www.w3.org/2000/svg">
<path fill-rule="evenodd" clip-rule="evenodd" d="M5.89332 4.68038H19.9214C20.0815 4.68038 20.2415 4.78706 20.2415 5.00042V22.4956C20.2415 22.6022 20.1348 22.7089 20.0281 22.7089H5.89332C4.71987 22.7089 3.75977 21.7488 3.75977 20.5754V3.13355C3.75977 1.9601 4.71987 1 5.89332 1H17.7879C17.9479 1 18.1079 1.16002 18.1079 1.32003C18.1079 1.48005 17.9479 1.64007 17.7879 1.64007H5.89332C5.09324 1.64007 4.39983 2.28013 4.39983 3.13355V3.18689C4.39983 3.98698 5.0399 4.68038 5.89332 4.68038ZM13.4141 14.3351H11.1739C10.9606 14.3351 10.8539 14.5484 10.8539 14.8151C10.8539 15.0818 10.9606 15.2418 11.1739 15.2418H13.4141C13.6275 15.2418 13.7875 15.0818 13.7875 14.8151C13.7875 14.5484 13.5742 14.3351 13.4141 14.3351ZM5.68009 16.4149V16.3082L7.3336 10.921C7.38694 10.6543 7.70697 10.5476 8.02701 10.5476C8.34704 10.5476 8.66707 10.6543 8.72041 10.921L10.3739 16.3082V16.4149C10.3739 16.6816 9.94721 16.8949 9.68051 16.8949C9.46716 16.8949 9.36048 16.8416 9.30714 16.6816L8.98711 15.5615H7.01357L6.69353 16.6816C6.6402 16.8416 6.48018 16.8949 6.32016 16.8949C6.10681 16.8416 5.68009 16.6816 5.68009 16.4149ZM8.82709 14.6014L8.08035 11.9878L7.3336 14.6014H8.82709ZM17.8946 15.8815H15.441L18.0546 11.3477C18.1079 11.1876 18.1613 11.0276 18.1613 10.921C18.1613 10.7076 18.0546 10.6009 17.8412 10.6009H14.5876C14.3742 10.6009 14.2675 10.8676 14.2675 11.081C14.2675 11.3477 14.3742 11.561 14.5876 11.561H16.7211L14.1609 16.1482C14.1075 16.2548 14.0542 16.4149 14.0542 16.5215C14.0542 16.7349 14.1609 16.8416 14.3742 16.8416H17.8946C18.1613 16.8416 18.268 16.5749 18.268 16.3615C18.268 16.1482 18.1079 15.8815 17.8946 15.8815Z" fill="white"/>
</svg>
