<svg width="24" height="24" viewBox="0 0 24 24" fill="none" xmlns="http://www.w3.org/2000/svg">
<path d="M23.2408 12.23H20.9309C20.8874 12.2299 20.8457 12.2464 20.814 12.2762C20.7824 12.3059 20.7634 12.3467 20.7608 12.39V13.04H20.3808H19.8408H19.7809H19.7208C19.6412 12.9874 19.5644 12.9307 19.4908 12.87C19.3209 12.7051 19.1105 12.5879 18.8808 12.53H18.4008C18.3537 12.9827 18.225 13.4231 18.0209 13.83C18.1094 14.5501 17.9842 15.2804 17.6608 15.93C17.327 16.5657 16.8131 17.0888 16.1834 17.4339C15.5538 17.779 14.8363 17.9307 14.1208 17.87H11.6009C11.5472 17.9948 11.5195 18.1292 11.5195 18.265C11.5195 18.4008 11.5472 18.5352 11.6009 18.66C11.6633 18.8067 11.7702 18.93 11.9066 19.0126C12.043 19.0951 12.2019 19.1327 12.3608 19.12H15.9309L15.8408 19.59C15.7208 20.3 15.5908 21.16 15.5908 21.27C15.6835 22.0174 15.9177 22.7402 16.2809 23.4C16.3803 23.491 16.4971 23.5609 16.6243 23.6056C16.7515 23.6502 16.8863 23.6688 17.0209 23.66C17.0972 23.6698 17.1745 23.6698 17.2508 23.66C17.8508 23.53 17.8509 23.18 17.8509 23.17C17.8509 23.16 17.8509 21.9 17.8509 21.52V21.43V21.35C18.4316 20.1189 19.2046 18.9881 20.1408 18L20.7608 17.62V18.36C20.7608 18.4157 20.783 18.4691 20.8224 18.5085C20.8617 18.5479 20.9152 18.57 20.9708 18.57H23.2009C23.2284 18.57 23.2557 18.5645 23.2812 18.554C23.3067 18.5434 23.3298 18.528 23.3493 18.5085C23.3688 18.489 23.3843 18.4658 23.3949 18.4403C23.4054 18.4149 23.4108 18.3876 23.4108 18.36V12.39C23.4083 12.3467 23.3893 12.3059 23.3577 12.2762C23.326 12.2464 23.2843 12.2299 23.2408 12.23Z" fill="white"/>
<path d="M17.1401 9.43005C17.3733 9.15925 17.5297 8.83091 17.593 8.47918C17.6563 8.12744 17.6242 7.76517 17.5001 7.43005C17.3863 7.12522 17.1789 6.86426 16.9076 6.68461C16.6363 6.50496 16.3151 6.41584 15.9901 6.43005H11.8401C11.9801 5.61005 12.2001 4.21005 12.1901 4.05005C12.0432 2.98279 11.708 1.9501 11.2001 1.00005C10.9695 0.737518 10.6716 0.5429 10.3385 0.437169C10.0055 0.331439 9.64989 0.318603 9.31008 0.400047C8.31008 0.610047 8.07008 1.25005 8.08008 1.59005C8.08008 1.59005 8.08008 3.29005 8.13008 3.81005C7.65008 4.81005 5.98008 7.59005 5.23008 8.08005C5.22745 7.86165 5.13884 7.6531 4.98347 7.4996C4.8281 7.3461 4.61849 7.26003 4.40008 7.26005H1.40008C1.1826 7.26005 0.97403 7.34644 0.820251 7.50022C0.666471 7.654 0.580078 7.86257 0.580078 8.08005V16.08C0.595212 16.2737 0.682971 16.4545 0.825767 16.5861C0.968563 16.7178 1.15584 16.7906 1.35008 16.79H4.45008C4.55251 16.7887 4.65369 16.7673 4.74782 16.7269C4.84196 16.6865 4.92721 16.6279 4.99871 16.5545C5.07021 16.4812 5.12657 16.3945 5.16455 16.2993C5.20253 16.2042 5.2214 16.1025 5.22008 16V15.64C5.40981 15.6258 5.60034 15.6258 5.79008 15.64C5.88101 15.6973 5.96788 15.7608 6.05008 15.83C6.36178 16.1376 6.76578 16.3343 7.20008 16.39H14.0901C14.4568 16.4478 14.8322 16.4086 15.1792 16.2765C15.5261 16.1444 15.8325 15.924 16.068 15.637C16.3034 15.3499 16.4598 15.0064 16.5216 14.6403C16.5833 14.2743 16.5483 13.8984 16.4201 13.55C16.6516 13.2783 16.8062 12.9495 16.8677 12.5978C16.9293 12.2461 16.8956 11.8843 16.7701 11.55C17.0274 11.2687 17.199 10.9197 17.2645 10.5441C17.3301 10.1684 17.2869 9.78193 17.1401 9.43005ZM5.30008 9.42005C5.67708 9.17064 6.03476 8.89319 6.37008 8.59005L6.53008 8.46005C7.62357 7.07598 8.52195 5.54839 9.20008 3.92005C9.20008 3.52005 9.20008 1.97005 9.20008 1.63005C9.35719 1.50245 9.54933 1.42553 9.75109 1.40947C9.95286 1.3934 10.1547 1.43893 10.3301 1.54005C10.7512 2.34397 11.0351 3.21259 11.1701 4.11005C11.1701 4.11005 10.8101 6.58005 10.6201 7.34005L10.5701 7.53005H15.9201C16.0655 7.51523 16.2114 7.55226 16.3322 7.63459C16.453 7.71693 16.5408 7.83928 16.5801 7.98005C16.6194 8.20043 16.5835 8.42763 16.4784 8.62525C16.3732 8.82287 16.2048 8.9795 16.0001 9.07005H14.4601C14.4185 9.06871 14.3771 9.07573 14.3384 9.09071C14.2996 9.10569 14.2642 9.12831 14.2344 9.15723C14.2045 9.18615 14.1808 9.22078 14.1646 9.25906C14.1484 9.29734 14.1401 9.33848 14.1401 9.38005V9.50005C14.1401 9.54161 14.1484 9.58276 14.1646 9.62103C14.1808 9.65931 14.2045 9.69394 14.2344 9.72286C14.2642 9.75178 14.2996 9.77441 14.3384 9.78938C14.3771 9.80436 14.4185 9.81139 14.4601 9.81005H15.9201C16.0058 9.86641 16.0756 9.94381 16.1229 10.0348C16.1701 10.1259 16.1933 10.2275 16.1901 10.33C16.1769 10.4962 16.1225 10.6564 16.0316 10.7961C15.9408 10.9358 15.8165 11.0506 15.6701 11.13H14.1001C14.0594 11.13 14.0191 11.1381 13.9814 11.1536C13.9438 11.1692 13.9097 11.1921 13.8809 11.2208C13.8521 11.2496 13.8293 11.2838 13.8137 11.3214C13.7981 11.359 13.7901 11.3993 13.7901 11.44V11.57C13.7901 11.6523 13.8227 11.7311 13.8809 11.7892C13.939 11.8474 14.0179 11.88 14.1001 11.88H15.6001C15.6774 11.935 15.7392 12.0089 15.7795 12.0948C15.8198 12.1807 15.8372 12.2755 15.8301 12.37C15.8201 12.5333 15.7701 12.6916 15.6847 12.8311C15.5993 12.9705 15.4809 13.0869 15.3401 13.17H13.7501C13.6679 13.17 13.589 13.2027 13.5309 13.2608C13.4727 13.319 13.4401 13.3978 13.4401 13.48V13.6C13.4401 13.6408 13.4481 13.6811 13.4637 13.7187C13.4793 13.7563 13.5021 13.7905 13.5309 13.8193C13.5597 13.848 13.5938 13.8709 13.6314 13.8864C13.6691 13.902 13.7094 13.91 13.7501 13.91H15.2201C15.3055 14.0005 15.3632 14.1137 15.3863 14.236C15.4093 14.3583 15.3967 14.4847 15.3501 14.6C15.2657 14.8232 15.1105 15.0126 14.9082 15.139C14.7059 15.2654 14.4676 15.322 14.2301 15.3H7.23008C7.01008 15.3 6.76008 15.07 6.54008 14.86C6.32008 14.65 6.10008 14.45 5.86008 14.45H5.23008V9.45005L5.30008 9.42005Z" fill="white"/>
</svg>
