<svg width="30" height="30" viewBox="0 0 30 30" fill="none" xmlns="http://www.w3.org/2000/svg">
<path fill-rule="evenodd" clip-rule="evenodd" d="M5.3103 2.5C3.75744 2.5 2.5 3.75744 2.5 5.3103V19.8302C2.5 21.383 3.75744 22.6405 5.3103 22.6405H7.71077V26.1534C7.71077 26.6581 8.00547 27.1712 8.52414 27.3901C8.61419 27.4333 8.70798 27.4669 8.81475 27.4847C8.9083 27.5003 8.99682 27.5001 9.04662 27.5L9.05737 27.5C9.29466 27.5 9.74704 27.4312 10.0309 27.0617L14.4521 22.6405H24.6897C26.2425 22.6405 27.5 21.383 27.5 19.8302V5.3234C27.5666 3.75051 26.2905 2.5 24.7482 2.5H5.3103ZM19.4786 11.2823C19.8885 11.2823 20.2398 10.931 20.2398 10.5212V8.29634C20.2398 7.8865 19.8885 7.53522 19.4786 7.53522H18.0149C17.6051 7.53522 17.2538 7.8865 17.2538 8.29634V10.5212C17.2538 10.931 17.6051 11.2823 18.0149 11.2823H19.4786ZM12.8043 10.5212C12.8043 10.931 12.453 11.2823 12.0432 11.2823H10.5795C10.1696 11.2823 9.81833 10.931 9.81833 10.5212V8.29634C9.81833 7.8865 10.1696 7.53522 10.5795 7.53522H12.0432C12.453 7.53522 12.8043 7.8865 12.8043 8.29634V10.5212ZM8.23752 13.7996C8.23752 13.4762 7.97539 13.2141 7.65204 13.2141C7.32869 13.2141 7.06656 13.4762 7.06656 13.7996V15.2633C7.06656 16.1135 7.73853 16.7855 8.58881 16.7855H21.4694C22.3196 16.7855 22.9916 16.1135 22.9916 15.2633V13.7996C22.9916 13.4762 22.7295 13.2141 22.4061 13.2141C22.0828 13.2141 21.8206 13.4762 21.8206 13.7996V15.2633C21.8206 15.4668 21.6729 15.6145 21.4694 15.6145H8.58881C8.38523 15.6145 8.23752 15.4668 8.23752 15.2633V13.7996Z" fill="white"/>
</svg>
