<svg width="25" height="25" viewBox="0 0 25 25" fill="none" xmlns="http://www.w3.org/2000/svg">
<path d="M21.25 9.22892V16.8331C21.25 17.3539 20.8333 17.7706 20.3125 17.7706H15C14.5833 17.7706 14.1667 17.8748 13.75 18.1873L11.6667 21.5206C11.5625 21.6248 11.4583 21.6248 11.3542 21.5206L10.3125 18.1873C10 17.9789 9.58333 17.7706 9.0625 17.7706H4.79167C4.27083 17.7706 3.85417 17.3539 3.85417 16.8331V7.04142C3.85417 6.52059 4.27083 6.10392 4.79167 6.10392H12.5H13.5417C13.75 5.79142 13.9583 5.37476 14.1667 5.06226H12.5H4.79167C3.64583 5.06226 2.8125 5.99976 2.8125 7.04142V16.8331C2.8125 17.9789 3.75 18.8123 4.79167 18.8123H9.0625C9.27083 18.8123 9.47917 18.9164 9.6875 19.0206L10.7292 22.3539C10.9375 22.5623 11.25 22.5623 11.4583 22.5623C11.6667 22.5623 11.9792 22.4581 12.1875 22.3539L14.2708 19.0206C14.4792 18.9164 14.6875 18.8123 14.8958 18.8123H20.2083C21.3542 18.8123 22.1875 17.8748 22.1875 16.8331V7.56226L21.25 9.22892Z" fill="#FF7C44" stroke="#FF7C44" stroke-width="0.2"/>
<path d="M20.8872 4.51651L21.2416 3.92586C21.3598 3.6896 21.3598 3.33521 21.0054 3.09895L19.5878 2.1539C19.3515 2.03577 18.9971 2.03577 18.7609 2.39016L18.4065 2.98082L20.8872 4.51651Z" fill="#FF7C44"/>
<path d="M17.8159 3.92578L13.445 11.0136L12.5 14.5575L12.9725 14.9119L15.8077 12.5493L20.1785 5.46148L17.8159 3.92578ZM13.445 13.8487L13.2088 13.7306L13.9176 11.2499L15.3351 12.1949L13.445 13.8487Z" fill="#FF7C44"/>
</svg>
