<svg width="30" height="30" viewBox="0 0 30 30" fill="none" xmlns="http://www.w3.org/2000/svg">
<path d="M19.375 13.75C20.4105 13.75 21.25 12.9105 21.25 11.875C21.25 10.8395 20.4105 10 19.375 10C18.3395 10 17.5 10.8395 17.5 11.875C17.5 12.9105 18.3395 13.75 19.375 13.75Z" fill="#A1DA67"/>
<path d="M10.625 13.75C11.6605 13.75 12.5 12.9105 12.5 11.875C12.5 10.8395 11.6605 10 10.625 10C9.58947 10 8.75 10.8395 8.75 11.875C8.75 12.9105 9.58947 13.75 10.625 13.75Z" fill="#A1DA67"/>
<path d="M14.9875 2.5C8.0875 2.5 2.5 8.1 2.5 15C2.5 21.9 8.0875 27.5 14.9875 27.5C21.9 27.5 27.5 21.9 27.5 15C27.5 8.1 21.9 2.5 14.9875 2.5ZM15 25C9.475 25 5 20.525 5 15C5 9.475 9.475 5 15 5C20.525 5 25 9.475 25 15C25 20.525 20.525 25 15 25ZM8.75 17.5C9.725 20.425 12.15 22.5 15 22.5C17.85 22.5 20.275 20.425 21.25 17.5H8.75Z" fill="#A1DA67"/>
</svg>
