<svg width="30" height="30" viewBox="0 0 30 30" fill="none" xmlns="http://www.w3.org/2000/svg">
<path d="M26.9253 13.0893V9.21002C26.9253 8.06059 26.0632 7.19852 24.9138 7.19852H19.1667L18.4483 4.75599C18.3046 4.0376 17.5862 3.75024 17.0115 3.75024C16.8678 3.75024 16.7241 3.75024 16.4368 3.89392L6.95403 7.19852H4.5115C3.36207 7.19852 2.5 8.06059 2.5 9.21002V23.2905C2.5 24.4399 3.36207 25.302 4.5115 25.302H24.9138C26.0632 25.302 26.9253 24.4399 26.9253 23.2905V19.5549H22.3276C20.6035 19.5549 19.023 18.1181 19.023 16.2503C19.023 14.5261 20.4598 12.9457 22.3276 12.9457H26.9253V13.0893ZM10.2586 7.19852L16.8678 4.75599C16.8678 4.75599 17.0115 4.75599 17.1552 4.89967C17.2989 4.89967 17.2989 5.04335 17.2989 5.04335L18.0173 7.19852H10.2586Z" fill="#FF7C44"/>
<path d="M22.327 18.5485H27.4995H22.327C21.1776 18.5485 20.1719 17.5427 20.1719 16.3933C20.1719 17.5427 21.1776 18.5485 22.327 18.5485Z" fill="#FF7C44"/>
<path d="M27.4995 18.5491H22.327C21.1776 18.5491 20.1719 17.5434 20.1719 16.3939C20.1719 15.2445 21.1776 14.2388 22.327 14.2388H27.4995V18.5491Z" fill="#FF7C44"/>
</svg>
