<svg width="30" height="30" viewBox="0 0 30 30" fill="none" xmlns="http://www.w3.org/2000/svg">
<path d="M14.9992 2.2002C12.4676 2.2002 9.99287 2.9509 7.88793 4.35738C5.78298 5.76387 4.14237 7.76295 3.17357 10.1018C2.20476 12.4407 1.95128 15.0144 2.44517 17.4974C2.93906 19.9803 4.15815 22.2611 5.94826 24.0512C7.73837 25.8413 10.0191 27.0604 12.5021 27.5542C14.985 28.0481 17.5587 27.7947 19.8976 26.8259C22.2365 25.8571 24.2356 24.2164 25.642 22.1115C27.0485 20.0065 27.7992 17.5318 27.7992 15.0002C27.7959 11.6064 26.4463 8.35263 24.0465 5.95288C21.6468 3.55314 18.393 2.2035 14.9992 2.2002ZM14.9992 26.2502C12.7742 26.2502 10.5991 25.5904 8.74906 24.3542C6.89901 23.1181 5.45707 21.3611 4.60558 19.3054C3.75409 17.2497 3.53131 14.9877 3.96539 12.8054C4.39947 10.6231 5.47093 8.61859 7.04427 7.04524C8.61761 5.4719 10.6222 4.40044 12.8045 3.96636C14.9867 3.53228 17.2487 3.75506 19.3044 4.60655C21.3601 5.45804 23.1171 6.89998 24.3533 8.75003C25.5894 10.6001 26.2492 12.7752 26.2492 15.0002C26.2492 17.9839 25.064 20.8454 22.9542 22.9551C20.8444 25.0649 17.9829 26.2502 14.9992 26.2502Z" fill="white"/>
<path d="M22.0883 15.0001C22.0853 15.2116 22.0286 15.4189 21.9237 15.6025C21.8188 15.7862 21.669 15.9402 21.4883 16.0501L11.7508 21.8126C11.5615 21.925 11.3459 21.9853 11.1258 21.9876C10.9068 21.9891 10.6913 21.9331 10.5008 21.8251C10.3113 21.7187 10.1529 21.5647 10.0411 21.3784C9.92932 21.1921 9.86803 20.9799 9.86328 20.7626V9.23763C9.86766 9.01912 9.92926 8.80559 10.0419 8.61831C10.1546 8.43104 10.3144 8.27658 10.5054 8.17034C10.6963 8.0641 10.9119 8.00978 11.1304 8.01282C11.3489 8.01585 11.5628 8.07612 11.7508 8.18763L21.4883 13.9501C21.669 14.0601 21.8188 14.2141 21.9237 14.3977C22.0286 14.5814 22.0853 14.7886 22.0883 15.0001Z" fill="white"/>
</svg>
