<svg width="24" height="24" viewBox="0 0 24 24" fill="none" xmlns="http://www.w3.org/2000/svg">
<g opacity="0.5">
<path fill-rule="evenodd" clip-rule="evenodd" d="M5.89271 4.68038H19.9208C20.0809 4.68038 20.2409 4.78706 20.2409 5.00042V22.4956C20.2409 22.6022 20.1342 22.7089 20.0275 22.7089H5.89271C4.71925 22.7089 3.75916 21.7488 3.75916 20.5754V3.13355C3.75916 1.9601 4.71925 1 5.89271 1H17.7873C17.9473 1 18.1073 1.16002 18.1073 1.32003C18.1073 1.48005 17.9473 1.64007 17.7873 1.64007H5.89271C5.09263 1.64007 4.39922 2.28013 4.39922 3.13355V3.18689C4.39922 3.98698 5.03929 4.68038 5.89271 4.68038ZM13.4135 14.3351H11.1733C10.9599 14.3351 10.8533 14.5484 10.8533 14.8151C10.8533 15.0818 10.9599 15.2418 11.1733 15.2418H13.4135C13.6269 15.2418 13.7869 15.0818 13.7869 14.8151C13.7869 14.5484 13.5736 14.3351 13.4135 14.3351ZM5.67948 16.4149V16.3082L7.33299 10.921C7.38633 10.6543 7.70636 10.5476 8.0264 10.5476C8.34643 10.5476 8.66646 10.6543 8.7198 10.921L10.3733 16.3082V16.4149C10.3733 16.6816 9.9466 16.8949 9.6799 16.8949C9.46655 16.8949 9.35987 16.8416 9.30653 16.6816L8.9865 15.5615H7.01296L6.69292 16.6816C6.63958 16.8416 6.47957 16.8949 6.31955 16.8949C6.1062 16.8416 5.67948 16.6816 5.67948 16.4149ZM8.82648 14.6014L8.07974 11.9878L7.33299 14.6014H8.82648ZM17.894 15.8815H15.4404L18.054 11.3477C18.1073 11.1876 18.1607 11.0276 18.1607 10.921C18.1607 10.7076 18.054 10.6009 17.8406 10.6009H14.587C14.3736 10.6009 14.2669 10.8676 14.2669 11.081C14.2669 11.3477 14.3736 11.561 14.587 11.561H16.7205L14.1603 16.1482C14.1069 16.2548 14.0536 16.4149 14.0536 16.5215C14.0536 16.7349 14.1603 16.8416 14.3736 16.8416H17.894C18.1607 16.8416 18.2673 16.5749 18.2673 16.3615C18.2673 16.1482 18.1073 15.8815 17.894 15.8815Z" fill="white"/>
</g>
</svg>
