<svg width="36" height="36" viewBox="0 0 36 36" fill="none" xmlns="http://www.w3.org/2000/svg">
<path fill-rule="evenodd" clip-rule="evenodd" d="M19.6276 6.00007L19.6484 6.00012C20.2894 6.00012 21.0544 6.41027 21.2921 7.20159L22.3018 10.0526H28.8524C30.1699 10.0526 31.1453 11.028 31.1453 12.3456V16.7844H31.8747C32.5054 16.7844 33 17.279 33 17.9097V23.2672C33 23.8979 32.5053 24.3925 31.8747 24.3925H31.1453V28.6242C31.1453 29.9418 30.1012 30.9859 28.7837 30.9859H5.36164C4.04409 30.9859 3 29.9418 3 28.6242V12.4143C3 11.0967 4.04409 10.0526 5.36164 10.0526H8.20127L18.9877 6.11795C19.2504 5.99861 19.5029 5.99959 19.6276 6.00007ZM29.8563 24.3925H25.8303C23.7664 24.3925 22.0262 22.7393 22.0262 20.5884C22.0262 18.5245 23.6794 16.7844 25.8303 16.7844H29.8563V12.3456C29.8563 11.7399 29.458 11.3416 28.8524 11.3416H21.3909L21.3907 11.341H8.43065L8.42903 11.3416H5.36164C4.75597 11.3416 4.28897 11.8086 4.28897 12.4143V28.6242C4.28897 29.2299 4.75597 29.6969 5.36164 29.6969H28.7837C29.3893 29.6969 29.8563 29.2299 29.8563 28.6242V24.3925ZM20.0645 7.59645L20.9342 10.052H11.9642L19.4916 7.30616L19.5171 7.29342L19.5223 7.2927C19.5308 7.29163 19.5441 7.29052 19.5655 7.28985C19.5881 7.28914 19.6124 7.28909 19.6484 7.28909C19.7186 7.28909 19.8163 7.31508 19.9035 7.37457C19.9864 7.43108 20.0374 7.50174 20.059 7.57721L20.0645 7.59645ZM23.3152 20.5884C23.3152 19.218 24.4095 18.0733 25.8303 18.0733H31.711V23.1035H25.8303C24.4599 23.1035 23.3152 22.0092 23.3152 20.5884Z" fill="#FF7C44"/>
</svg>
