<svg width="24" height="24" viewBox="0 0 24 24" fill="none" xmlns="http://www.w3.org/2000/svg">
<path fill-rule="evenodd" clip-rule="evenodd" d="M5.77311 3.52933C5.90668 3.52933 6.03163 3.56615 6.13672 3.61869C6.42659 3.76363 6.55877 4.04981 6.55877 4.30881V5.54607H8.78585C10.0402 5.54607 11.168 6.01214 12.053 6.82294C12.9117 6.04495 14.0702 5.54607 15.3186 5.54607H17.4962V4.3583C17.4962 4.11549 17.6124 3.84877 17.8658 3.69696C17.9371 3.64682 18.0077 3.62099 18.0562 3.60714C18.1287 3.58641 18.2001 3.57882 18.2633 3.57882C18.3266 3.57882 18.3979 3.58641 18.4704 3.60714C18.5278 3.62353 18.6162 3.65673 18.7002 3.72716L22.3268 6.47163C22.4594 6.55713 22.5444 6.68809 22.575 6.83121C22.6033 6.96304 22.5793 7.07546 22.5666 7.12608C22.5572 7.16375 22.5446 7.20089 22.5366 7.22345C22.5202 7.32637 22.4813 7.4096 22.4611 7.45009C22.4272 7.51792 22.374 7.60398 22.3003 7.67769L22.2762 7.7018L18.6034 10.4812C18.4654 10.5995 18.303 10.6312 18.1829 10.6312C18.0493 10.6312 17.9244 10.5944 17.8193 10.5419C17.5294 10.3969 17.3972 10.1108 17.3972 9.85176V8.66398H15.2196C14.3052 8.66398 13.5864 9.38273 13.5864 10.2972V19.6014C13.5864 19.7881 13.5221 19.9822 13.3734 20.1308C13.2248 20.2794 13.0308 20.3438 12.8441 20.3438H11.1119C10.9252 20.3438 10.7312 20.2794 10.5826 20.1308C10.4339 19.9822 10.3696 19.7881 10.3696 19.6014V10.1982C10.3696 9.28375 9.65081 8.565 8.73636 8.565H6.55877V9.75278C6.55877 9.99559 6.44259 10.2623 6.18921 10.4141C6.11784 10.4643 6.04723 10.4901 5.99877 10.5039C5.92624 10.5247 5.8549 10.5323 5.79167 10.5323C5.72843 10.5323 5.6571 10.5247 5.58456 10.5039C5.52719 10.4875 5.43878 10.4543 5.35481 10.3839L1.67979 7.60282L1.65568 7.57871C1.58197 7.505 1.52884 7.41894 1.49492 7.3511C1.46883 7.29891 1.41174 7.17566 1.41174 7.03079C1.41174 6.88592 1.46883 6.76268 1.49492 6.71048C1.52884 6.64265 1.58197 6.55658 1.65568 6.48288L1.67979 6.45877L5.35257 3.67937C5.49062 3.56102 5.65301 3.52933 5.77311 3.52933Z" fill="black"/>
</svg>
