<svg width="36" height="36" viewBox="0 0 36 36" fill="none" xmlns="http://www.w3.org/2000/svg">
<path d="M12.6893 9.765L12.2543 9.99C11.982 10.1196 11.6869 10.1942 11.3858 10.2096C11.0846 10.2251 10.7834 10.181 10.4993 10.08L9.77932 9.825H9.64432L5.14432 8.325C5.0177 8.3077 4.88879 8.3284 4.77396 8.38449C4.65912 8.44057 4.56353 8.5295 4.49932 8.64L0.689324 19.5C0.655902 19.5782 0.638672 19.6624 0.638672 19.7475C0.638672 19.8326 0.655902 19.9168 0.689324 19.995C0.767525 20.1489 0.901724 20.267 1.06432 20.325L5.56432 21.825H5.77432C5.90768 21.8272 6.03843 21.7879 6.14856 21.7127C6.2587 21.6375 6.34282 21.53 6.38932 21.405L9.85432 11.205L10.0943 11.295C10.5374 11.4508 11.0072 11.5164 11.476 11.4881C11.9448 11.4597 12.4032 11.338 12.8243 11.13L13.2593 10.92C13.8038 10.6607 14.4277 10.623 14.9993 10.815L23.1593 13.635C23.081 14.0093 22.8805 14.347 22.5893 14.595C22.3557 14.709 22.0992 14.7682 21.8393 14.7682C21.5794 14.7682 21.3229 14.709 21.0893 14.595L17.3843 13.35C17.3043 13.3135 17.2173 13.2946 17.1293 13.2946C17.0413 13.2946 16.9544 13.3135 16.8743 13.35C16.7832 13.3937 16.7026 13.4566 16.6379 13.5342C16.5732 13.6119 16.5259 13.7025 16.4993 13.8C16.1597 14.917 15.4305 15.8751 14.4443 16.5C13.8569 16.7753 13.2183 16.9242 12.5698 16.9371C11.9212 16.95 11.2772 16.8267 10.6793 16.575C10.6005 16.5484 10.5173 16.5376 10.4343 16.5432C10.3513 16.5488 10.2703 16.5706 10.1957 16.6075C10.1212 16.6445 10.0547 16.6957 9.99999 16.7583C9.94527 16.8209 9.90342 16.8937 9.87682 16.9725C9.85023 17.0513 9.83942 17.1346 9.845 17.2175C9.85059 17.3005 9.87246 17.3816 9.90937 17.4561C9.94628 17.5306 9.99751 17.5971 10.0601 17.6518C10.1227 17.7066 10.1955 17.7484 10.2743 17.775C11.038 18.0594 11.8445 18.2116 12.6593 18.225C13.4707 18.2457 14.2746 18.0653 14.9993 17.7C16.1514 17.0102 17.0387 15.9538 17.5193 14.7L20.5193 15.735C20.9468 15.9268 21.4145 16.012 21.8822 15.9833C22.3498 15.9546 22.8035 15.8127 23.2043 15.57C23.5594 15.2681 23.8489 14.8968 24.0553 14.4789C24.2617 14.0611 24.3804 13.6054 24.4043 13.14C24.3927 13.0197 24.349 12.9047 24.2777 12.8071C24.2065 12.7095 24.1103 12.6328 23.9993 12.585L15.3293 9.585C14.4462 9.2941 13.4852 9.35316 12.6443 9.75L12.6893 9.765ZM5.33932 20.415L2.11432 19.32L5.41432 9.66L8.65432 10.77L5.33932 20.415Z" fill="#FF7C44"/>
<path d="M29.6991 21.15L28.1991 22.545C26.8194 23.8168 25.2634 24.8828 23.5791 25.71L15.4941 29.655C15.4086 29.7054 15.3136 29.7376 15.215 29.7494C15.1164 29.7613 15.0165 29.7527 14.9214 29.7241C14.8263 29.6956 14.7382 29.6476 14.6625 29.5833C14.5869 29.519 14.5253 29.4398 14.4817 29.3506C14.4382 29.2614 14.4135 29.1641 14.4093 29.0649C14.4052 28.9657 14.4215 28.8668 14.4575 28.7742C14.4934 28.6816 14.548 28.5975 14.618 28.5271C14.688 28.4567 14.7718 28.4015 14.8641 28.365H14.9691L19.3941 26.205C19.4697 26.1683 19.5371 26.1169 19.5925 26.0538C19.6479 25.9907 19.6901 25.9172 19.7166 25.8375C19.7432 25.7579 19.7535 25.6737 19.7471 25.59C19.7407 25.5063 19.7176 25.4247 19.6791 25.35C19.6047 25.1976 19.4732 25.0807 19.3132 25.0246C19.1532 24.9684 18.9775 24.9776 18.8241 25.05L14.3841 27.15L12.1641 28.245C12.0787 28.2884 11.9854 28.3143 11.8897 28.3212C11.7941 28.3281 11.698 28.3158 11.6072 28.2851C11.5164 28.2543 11.4326 28.2058 11.3609 28.1422C11.2891 28.0787 11.2307 28.0014 11.1891 27.915C11.1221 27.7413 11.1221 27.5488 11.1891 27.375C11.2509 27.2146 11.3679 27.0816 11.5191 27L13.1991 26.175L17.9991 23.79C18.1515 23.7155 18.2684 23.5841 18.3246 23.4241C18.3807 23.264 18.3716 23.0883 18.2991 22.935C18.2638 22.8582 18.2134 22.7892 18.1509 22.7323C18.0884 22.6754 18.0151 22.6316 17.9353 22.6036C17.8555 22.5756 17.7709 22.564 17.6865 22.5694C17.6021 22.5748 17.5197 22.5971 17.4441 22.635L12.6291 24.99L12.4491 25.08L10.1541 26.205C10.069 26.2422 9.97706 26.2614 9.88414 26.2614C9.79122 26.2614 9.6993 26.2422 9.61414 26.205C9.52292 26.1732 9.43887 26.1237 9.3668 26.0593C9.29474 25.995 9.23606 25.9171 9.19414 25.83C9.15358 25.7444 9.13033 25.6515 9.12572 25.5569C9.12111 25.4622 9.13524 25.3676 9.1673 25.2784C9.19935 25.1892 9.24869 25.1072 9.3125 25.0371C9.37631 24.967 9.45333 24.9103 9.53914 24.87L10.3191 24.48L11.9991 23.73L12.4641 23.52L16.1841 21.69C16.3179 21.6055 16.4159 21.4748 16.4596 21.3228C16.5033 21.1707 16.4896 21.0079 16.4211 20.8653C16.3526 20.7227 16.234 20.6103 16.088 20.5494C15.942 20.4885 15.7787 20.4834 15.6291 20.535L11.5341 22.5L9.76414 23.355C9.59298 23.438 9.39595 23.4498 9.21609 23.388C9.03622 23.3261 8.88812 23.1957 8.80414 23.025C8.76305 22.9409 8.7417 22.8486 8.7417 22.755C8.7417 22.6614 8.76305 22.5691 8.80414 22.485C8.83117 22.3954 8.87738 22.3128 8.93954 22.2429C9.00171 22.1729 9.07835 22.1174 9.16414 22.08L12.2391 20.58C12.3336 20.4813 12.3943 20.3552 12.4125 20.2199C12.4307 20.0845 12.4055 19.9468 12.3404 19.8267C12.2754 19.7066 12.1739 19.6102 12.0505 19.5515C11.9272 19.4928 11.7884 19.4748 11.6541 19.5L8.56414 21C8.32835 21.1124 8.11776 21.2713 7.94503 21.4672C7.77231 21.6631 7.64104 21.892 7.55914 22.14C7.39408 22.6328 7.42633 23.1705 7.64914 23.64C7.79474 23.9291 8.00523 24.1807 8.26414 24.375C8.03629 24.6704 7.89583 25.0238 7.85871 25.395C7.82159 25.7662 7.88929 26.1403 8.05414 26.475C8.1686 26.7094 8.32824 26.9188 8.52387 27.0912C8.71951 27.2637 8.94729 27.3958 9.19414 27.48C9.4019 27.5502 9.61983 27.5857 9.83914 27.585C9.82697 27.9032 9.89943 28.219 10.0491 28.5C10.2118 28.8356 10.4652 29.1189 10.7807 29.3178C11.0963 29.5166 11.4612 29.6231 11.8341 29.625C12.1411 29.6215 12.4434 29.5498 12.7191 29.415L13.1691 29.19C13.197 29.4337 13.2628 29.6716 13.3641 29.895C13.4777 30.1319 13.6373 30.3437 13.8336 30.5183C14.0299 30.6928 14.259 30.8266 14.5075 30.9117C14.756 30.9969 15.0189 31.0318 15.281 31.0143C15.5431 30.9968 15.7991 30.9274 16.0341 30.81L24.1191 26.865C25.9151 25.9863 27.5727 24.8492 29.0391 23.49L30.8391 21.84L34.9791 19.815C35.1315 19.7405 35.2484 19.6091 35.3046 19.4491C35.3607 19.289 35.3516 19.1133 35.2791 18.96L30.2241 8.64001C30.1459 8.4861 30.0117 8.36801 29.8491 8.31001C29.7734 8.27697 29.6917 8.25992 29.6091 8.25992C29.5265 8.25992 29.4448 8.27697 29.3691 8.31001L25.1541 10.395C25.0768 10.4318 25.0076 10.4837 24.9505 10.5476C24.8934 10.6115 24.8496 10.6861 24.8217 10.7671C24.7937 10.8481 24.7822 10.9338 24.7878 11.0193C24.7934 11.1048 24.8159 11.1883 24.8541 11.265L29.6991 21.15ZM29.3541 9.78001L33.8541 18.945L30.8541 20.445L26.3541 11.28L29.3541 9.78001Z" fill="#FF7C44"/>
</svg>
