<svg width="128" height="128" viewBox="0 0 128 128" fill="none" xmlns="http://www.w3.org/2000/svg">
<path d="M53.8681 89.0664C52.8014 89.0664 51.7348 88.5331 50.6681 87.9997L34.1348 71.4664C32.0014 69.3331 32.0014 66.6664 33.6014 65.0664C35.2014 63.4664 37.8681 63.4664 40.0014 65.0664L53.3348 78.3997L87.4681 44.2664C89.0681 42.6664 91.7348 42.6664 93.8681 44.2664C95.4681 45.8664 95.4681 48.5331 93.8681 50.6664L56.5348 87.9997C56.0014 88.5331 54.9348 89.0664 53.8681 89.0664Z" fill="#FF7C44"/>
<path d="M64.0008 115.2C35.7341 115.2 12.8008 92.2665 12.8008 63.9998C12.8008 35.7331 35.7341 12.7998 64.0008 12.7998C92.2674 12.7998 115.201 35.7331 115.201 63.9998C115.201 92.2665 92.2674 115.2 64.0008 115.2ZM64.0008 18.6665C41.0674 18.6665 18.6673 41.5998 18.6673 63.9998C18.6673 86.3998 41.6008 109.333 64.0008 109.333C86.9341 109.333 109.334 86.3998 109.334 63.9998C109.334 41.5998 86.9341 18.6665 64.0008 18.6665Z" fill="#FF7C44"/>
</svg>
