<svg width="25" height="25" viewBox="0 0 25 25" fill="none" xmlns="http://www.w3.org/2000/svg">
<path d="M11.3387 18.0756C11.5661 18.1892 11.9072 17.9619 11.9072 17.7345C12.0209 17.2797 12.0209 16.5976 11.7935 16.2565C11.6798 16.1428 11.5661 16.0291 11.3387 15.9154C10.7703 15.8017 10.4292 16.3702 9.86074 17.0523C9.74705 17.2797 9.51966 17.5071 9.40597 17.6208C9.40597 17.5071 9.40597 17.3934 9.40597 17.3934C9.40597 16.9386 9.51966 16.2565 8.83752 16.1428C8.61014 16.1428 8.15538 16.0291 6.33634 18.5303C6.22265 18.7577 6.22265 18.9851 6.45003 19.2125C6.7911 19.3261 7.01848 19.3261 7.24586 19.0988C7.70062 18.5303 8.15538 17.8482 8.49645 17.5071C8.49645 18.0756 8.49645 18.644 9.0649 18.8714C9.63336 19.0988 10.0881 18.4166 10.6566 17.6208C10.7703 17.5071 10.8839 17.2797 10.9976 17.0523C10.9976 17.166 10.9976 17.2797 10.9976 17.5071C10.9976 17.7345 11.1113 17.9619 11.3387 18.0756Z" fill="#0F3A5D"/>
<path d="M18.0464 7.38867L16.9095 8.1845C15.0905 9.88986 14.522 12.1637 14.8631 14.0964C14.522 14.6649 14.181 15.347 13.8399 16.1428C13.7262 16.3702 13.8399 16.5976 14.0673 16.7113C14.2947 16.825 14.522 16.7113 14.6357 16.4839C14.9768 15.8018 15.2042 15.2333 15.5452 14.7785C16.3411 13.3006 17.1369 12.1637 18.3875 10.9131C18.5012 10.6857 18.8423 10.6857 18.956 10.9131C19.0696 11.0268 19.1833 11.3678 18.956 11.4815C17.819 12.6184 17.0232 13.7553 16.3411 15.1196C19.1833 14.6649 22.594 11.2541 23.9583 6.47915C21.4571 6.13808 19.5244 6.70653 18.0464 7.38867Z" fill="#0F3A5D"/>
<path d="M17.7053 18.0755V19.3261C17.7053 20.3493 16.7958 21.2588 15.7726 21.2588H7.13214C6.10893 21.2588 5.1994 20.3493 5.1994 19.2124V5.79693C5.1994 4.66003 6.10893 3.8642 7.13214 3.8642H15.7726C16.5684 3.8642 17.3643 4.43265 17.5917 5.11479L18.6149 4.66003C18.1601 3.52313 17.0232 2.72729 15.7726 2.72729H7.13214C5.42678 2.72729 4.0625 4.09158 4.0625 5.79693V19.0987C4.0625 20.8041 5.42678 22.1683 7.13214 22.1683H15.7726C17.478 22.1683 18.7286 20.8041 18.7286 19.2124V18.0755V17.7344C18.5012 17.7344 17.7053 17.9618 17.7053 18.0755Z" fill="#0F3A5D"/>
</svg>
