<svg width="20" height="20" viewBox="0 0 20 20" fill="none" xmlns="http://www.w3.org/2000/svg">
<path d="M9.68786 6.70678C9.37632 6.70678 9.10928 6.61777 8.88674 6.39523C8.66421 6.1727 8.5752 5.90566 8.5752 5.59411C8.5752 5.28257 8.70872 5.01553 8.88674 4.79299C9.10928 4.57046 9.37632 4.48145 9.68786 4.48145C9.99941 4.48145 10.2665 4.57046 10.489 4.79299C10.7115 5.01553 10.8005 5.28257 10.8005 5.59411C10.8005 5.90566 10.667 6.1727 10.489 6.39523C10.2665 6.61777 9.99941 6.70678 9.68786 6.70678Z" fill="#FF7C44"/>
<path d="M7.9082 14.7183V13.7392L8.26426 13.6947C8.5758 13.6501 8.70932 13.6056 8.75383 13.5611C8.84284 13.5166 8.84284 13.4276 8.88735 13.3831C8.93186 13.2941 8.93186 13.1606 8.97636 12.9825C8.97636 12.76 9.02087 12.4485 9.02087 12.0034V10.1341C9.02087 9.51103 9.02087 9.24399 8.97636 9.11047C8.97636 8.93244 8.93186 8.84343 8.88735 8.79892C8.84284 8.70991 8.79834 8.6654 8.70932 8.62089C8.66482 8.57639 8.5313 8.57639 8.35327 8.57639L7.99722 8.53188L8.04172 7.59724L10.9792 7.55273V12.0479V12.6265C10.9792 13.0271 11.0237 13.2051 11.0237 13.2941C11.0682 13.3831 11.1127 13.4276 11.1127 13.4721C11.1572 13.5166 11.2462 13.6056 11.6913 13.6947L12.0473 13.7392V14.6738H7.9082V14.7183Z" fill="#FF7C44"/>
<path fill-rule="evenodd" clip-rule="evenodd" d="M9.99967 1.98726C5.55606 1.98726 1.98677 5.55655 1.98677 10.0002C1.98677 14.4438 5.55606 18.0131 9.99967 18.0131C14.4007 18.0131 18.0126 14.4418 18.0126 10.0002C18.0126 5.55655 14.4433 1.98726 9.99967 1.98726ZM0.833008 10.0002C0.833008 4.91935 4.91886 0.833496 9.99967 0.833496C15.0805 0.833496 19.1663 4.91935 19.1663 10.0002C19.1663 15.0829 15.034 19.1668 9.99967 19.1668C4.91886 19.1668 0.833008 15.081 0.833008 10.0002Z" fill="#FF7C44"/>
</svg>
