<svg width="30" height="30" viewBox="0 0 30 30" fill="none" xmlns="http://www.w3.org/2000/svg">
<path fill-rule="evenodd" clip-rule="evenodd" d="M6.95266 2.49994C5.93258 2.49994 5 3.34005 5 4.4526V25.281C5 26.3936 5.93258 27.2337 6.95266 27.2337H23.0473C24.0674 27.2337 25 26.3936 25 25.281V4.4526C25 3.43252 24.1599 2.49994 23.0473 2.49994H6.95266ZM10.089 7.52992C9.7622 7.52992 9.49728 7.79484 9.49728 8.12164C9.49728 8.44843 9.7622 8.71336 10.089 8.71336H19.9115C20.2383 8.71336 20.5032 8.44843 20.5032 8.12164C20.5032 7.79484 20.2383 7.52992 19.9115 7.52992H10.089ZM9.49728 14.8667C9.49728 14.54 9.7622 14.275 10.089 14.275H19.9115C20.2383 14.275 20.5032 14.54 20.5032 14.8667C20.5032 15.1935 20.2383 15.4585 19.9115 15.4585H10.089C9.7622 15.4585 9.49728 15.1935 9.49728 14.8667ZM10.089 20.6067C9.7622 20.6067 9.49728 20.8716 9.49728 21.1984C9.49728 21.5252 9.7622 21.7901 10.089 21.7901H19.9115C20.2383 21.7901 20.5032 21.5252 20.5032 21.1984C20.5032 20.8716 20.2383 20.6067 19.9115 20.6067H10.089Z" fill="white"/>
</svg>
