<svg width="24" height="24" viewBox="0 0 24 24" fill="none" xmlns="http://www.w3.org/2000/svg">
<path d="M17.4737 20.0325H4.21053V6.5262H11.9474V4.31567H4.21053C2.99474 4.31567 2 5.31041 2 6.5262V19.7894C2 21.0051 2.99474 21.9999 4.21053 21.9999H17.4737C18.6895 21.9999 19.6842 21.0051 19.6842 19.7894V12.0525H17.4737V20.0325Z" fill="#0B91CE"/>
<path d="M19.6845 1H17.474V4.31579H14.1582C14.1693 4.32684 14.1582 6.52632 14.1582 6.52632H17.474V9.83105C17.485 9.84211 19.6845 9.83105 19.6845 9.83105V6.52632H23.0003V4.31579H19.6845V1Z" fill="#0B91CE"/>
<path d="M15.264 8.73682H6.42188V10.9473H15.264V8.73682Z" fill="#0B91CE"/>
<path d="M6.42188 12.0527V14.2633H15.264V12.0527H11.9482H6.42188Z" fill="#0B91CE"/>
<path d="M15.264 15.3684H6.42188V17.5789H15.264V15.3684Z" fill="#0B91CE"/>
</svg>
