<svg width="24" height="24" viewBox="0 0 24 24" fill="none" xmlns="http://www.w3.org/2000/svg">
<path d="M17.8997 3.7001L15.4997 2.3001C15.2997 2.2001 14.9997 2.1001 14.6997 2.1001C14.5997 2.1001 14.3997 2.1001 14.2997 2.2001C13.8997 2.3001 13.5997 2.6001 13.3997 2.9001L12.6997 4.1001C12.6997 4.2001 12.6997 4.2001 12.6997 4.3001C12.6997 4.4001 12.7997 4.4001 12.7997 4.5001L17.3997 7.2001C17.4997 7.3001 17.6997 7.2001 17.7997 7.1001L18.4997 5.9001C18.6997 5.5001 18.7997 5.1001 18.6997 4.7001C18.4997 4.2001 18.1997 3.9001 17.8997 3.7001Z" fill="white"/>
<path d="M11.8998 5.7998H11.7998C11.7998 5.7998 11.7998 5.7998 11.6998 5.7998C11.5998 5.7998 11.5998 5.8998 11.4998 5.8998L5.4998 16.1998V16.2998L5.2998 21.1998C5.2998 21.2998 5.2998 21.3998 5.3998 21.4998L6.0998 21.8998C6.1998 21.8998 6.2998 21.8998 6.3998 21.8998L10.4998 19.2998L10.5998 19.1998L16.5998 8.8998C16.5998 8.7998 16.5998 8.7998 16.5998 8.6998C16.5998 8.5998 16.4998 8.5998 16.4998 8.4998L11.8998 5.7998ZM7.0998 20.6998L6.0998 20.0998L6.2998 16.3998L8.5998 17.1998L10.2998 18.7998L7.0998 20.6998Z" fill="white"/>
</svg>
