<svg width="128" height="128" viewBox="0 0 128 128" fill="none" xmlns="http://www.w3.org/2000/svg">
<path d="M53.8662 89.0667C52.7995 89.0667 51.7328 88.5333 50.6661 88L34.1328 71.4666C31.9995 69.3333 31.9995 66.6666 33.5995 65.0666C35.1995 63.4666 37.8662 63.4666 39.9995 65.0666L53.3328 78.4L87.4661 44.2667C89.0661 42.6667 91.7328 42.6667 93.8661 44.2667C95.4662 45.8667 95.4662 48.5333 93.8661 50.6666L56.5328 88C55.9995 88.5333 54.9328 89.0667 53.8662 89.0667Z" fill="#0B91CE"/>
<path d="M63.9998 115.2C35.7331 115.2 12.7998 92.2666 12.7998 64C12.7998 35.7333 35.7331 12.8 63.9998 12.8C92.2665 12.8 115.2 35.7333 115.2 64C115.2 92.2666 92.2665 115.2 63.9998 115.2ZM63.9998 18.6667C41.0665 18.6667 18.6663 41.6 18.6663 64C18.6663 86.4 41.5998 109.333 63.9998 109.333C86.9331 109.333 109.333 86.4 109.333 64C109.333 41.6 86.9331 18.6667 63.9998 18.6667Z" fill="#0B91CE"/>
</svg>
