<svg width="36" height="36" viewBox="0 0 36 36" fill="none" xmlns="http://www.w3.org/2000/svg">
<path fill-rule="evenodd" clip-rule="evenodd" d="M16.3076 6.30886L15.848 8.83658L15.1705 9.00597L15.1554 9.00899C14.9063 9.05882 14.6392 9.16333 14.4133 9.27631C14.2709 9.34751 14.1143 9.41709 13.974 9.47947L13.9669 9.48261C13.8184 9.54862 13.6871 9.60708 13.5736 9.66387L12.9701 9.96559L10.865 8.4842L10.8256 8.44478C10.7956 8.41486 10.7306 8.3756 10.5718 8.3756C10.4615 8.3756 10.3589 8.4039 10.1888 8.57397L8.55643 10.2063L8.53759 10.2225C8.45627 10.2922 8.41357 10.3813 8.40678 10.4967C8.39967 10.6176 8.43408 10.7716 8.52771 10.9268L9.96559 12.9701L9.66386 13.5736C9.53437 13.8325 9.41636 14.0691 9.2983 14.3643C9.25817 14.4646 9.22255 14.5499 9.19093 14.6255C9.10233 14.8376 9.04523 14.9742 9.00899 15.1554L9.00597 15.1705L8.83327 15.8613L6.30154 16.2449C5.99348 16.3219 5.79187 16.5954 5.79187 16.8373V19.0981C5.79187 19.3866 5.97632 19.6146 6.30886 19.6924L8.80285 20.1458L8.99623 20.726L9.00224 20.75C9.06874 21.016 9.11885 21.2072 9.21171 21.393L9.22373 21.417L9.23371 21.4419C9.36499 21.7702 9.47674 22.0463 9.64001 22.3184L9.65277 22.3397L9.96559 22.9653L8.51367 25.0286C8.35839 25.246 8.36383 25.5365 8.57397 25.7466L10.2859 27.4585L10.3134 27.4952C10.3601 27.5576 10.471 27.6244 10.6364 27.6244C10.7952 27.6244 10.8602 27.5851 10.8901 27.5552L10.9296 27.5158L13.0347 26.0344L13.6382 26.3361C13.7517 26.3929 13.8829 26.4514 14.0315 26.5174L14.0386 26.5206C14.179 26.5829 14.3355 26.6525 14.4779 26.7237C14.7196 26.8446 14.8961 26.93 15.0983 26.9785H15.8425L16.2449 29.6339C16.3219 29.9419 16.5954 30.1435 16.8373 30.1435H19.1627C19.4512 30.1435 19.6792 29.9591 19.757 29.6266L20.2165 27.0988L20.8941 26.9294L20.9092 26.9264C21.1572 26.8768 21.417 26.7761 21.74 26.6471L23.0945 25.9698L25.1996 27.4512L25.239 27.4906C25.269 27.5206 25.334 27.5598 25.4928 27.5598C25.603 27.5598 25.7057 27.5315 25.8758 27.3614L27.5082 25.7291L27.527 25.7129C27.6083 25.6432 27.651 25.5541 27.6578 25.4388C27.6649 25.3179 27.6305 25.1638 27.5369 25.0086L26.099 22.9653L26.4007 22.3619C26.5812 22.0008 26.7017 21.7003 26.8309 21.3773L26.8409 21.3524L26.8529 21.3284C26.9447 21.1446 26.9944 21.0079 27.0431 20.8249V20.2221L29.6985 19.8197C30.0065 19.7427 30.2081 19.4692 30.2081 19.2273V16.9019C30.2081 16.6134 30.0237 16.3854 29.6911 16.3076L27.1634 15.848L26.994 15.1705L26.991 15.1554C26.9414 14.9074 26.8407 14.6476 26.7117 14.3246L26.0344 12.9701L27.4837 10.9106L27.4863 10.9069C27.6416 10.6895 27.6362 10.3989 27.426 10.1888L25.7787 8.54151L25.7512 8.50479C25.7044 8.44245 25.5936 8.3756 25.4282 8.3756C25.4043 8.3756 25.3583 8.38228 25.2886 8.41014C25.2223 8.43669 25.1516 8.47559 25.0822 8.52137L23.0299 9.96559L22.45 9.67564C22.2873 9.60995 22.1408 9.54482 22.0047 9.48434L22.0008 9.48261C21.8544 9.41752 21.7197 9.35772 21.5711 9.2983C21.4708 9.25818 21.3855 9.22255 21.3099 9.19093C21.0979 9.10233 20.9612 9.04523 20.78 9.00899L20.7649 9.00597L20.0742 8.83328L19.6906 6.30154C19.6135 5.99349 19.34 5.79187 19.0981 5.79187H16.9019C16.6134 5.79187 16.3854 5.97632 16.3076 6.30886ZM15.0441 6.0393C15.2271 5.2159 15.9016 4.5 16.9019 4.5H19.0981C20.0141 4.5 20.7682 5.19481 20.9559 6.0393L20.9607 6.06085L21.2223 7.78712C21.4675 7.8543 21.6908 7.94831 21.8813 8.02856C21.9412 8.05376 21.9978 8.0776 22.0509 8.09883C22.2237 8.16797 22.3785 8.23673 22.5216 8.30035L22.5255 8.30208C22.6576 8.3608 22.7802 8.41521 22.9119 8.46892L24.3526 7.45511L24.3594 7.45059C24.5854 7.29996 24.9757 7.08373 25.4282 7.08373C25.894 7.08373 26.4111 7.26367 26.7527 7.68854L28.3395 9.27532C29.033 9.96875 29.0282 10.9687 28.5391 11.6556C28.5386 11.6563 28.5381 11.657 28.5376 11.6577L27.535 13.0825L27.8912 13.795L27.9107 13.8436C28.0145 14.1032 28.1365 14.4079 28.2178 14.7267L29.9485 15.0414L29.9607 15.0441C30.7841 15.2271 31.5 15.9017 31.5 16.9019V19.2273C31.5 20.1433 30.8052 20.8974 29.9607 21.0851L29.9392 21.0899L28.2364 21.3479C28.1822 21.5202 28.1162 21.6875 28.0207 21.8812C27.9035 22.1743 27.7779 22.4866 27.5993 22.8525L28.615 24.2958L28.6243 24.3108C29.0537 24.9978 29.1367 26.0147 28.3885 26.6758L26.7893 28.2749C26.4426 28.6216 26.0285 28.8517 25.4928 28.8517C25.15 28.8517 24.7212 28.7692 24.3714 28.4481L22.9821 27.4704L22.2696 27.8266L22.221 27.8461C21.9614 27.9499 21.6567 28.0719 21.3379 28.1532L21.0232 29.8839L21.0205 29.8961C20.8375 30.7195 20.1629 31.4354 19.1627 31.4354H16.8373C15.9213 31.4354 15.1672 30.7406 14.9795 29.8961L14.9747 29.8746L14.7234 28.2159C14.3977 28.1281 14.1317 27.9951 13.9193 27.8888L13.9001 27.8792C13.7865 27.8224 13.6553 27.7639 13.5068 27.6979L13.4996 27.6947C13.3876 27.6449 13.2652 27.5905 13.1479 27.5344L11.7578 28.5127C11.4079 28.8338 10.9792 28.9163 10.6364 28.9163C10.1706 28.9163 9.65353 28.7363 9.31185 28.3115L7.66048 26.6601C6.967 25.9666 6.97176 24.9666 7.46097 24.2797C7.46145 24.279 7.46194 24.2784 7.46242 24.2777L8.46058 22.8592C8.2808 22.5371 8.15433 22.222 8.04354 21.945C7.92932 21.7105 7.85764 21.4796 7.80354 21.2772L6.05154 20.9586L6.0393 20.9559C5.2159 20.7729 4.5 20.0984 4.5 19.0981V16.8373C4.5 15.9213 5.19481 15.1672 6.0393 14.9795L6.06084 14.9747L7.78712 14.7132C7.8543 14.4679 7.94831 14.2446 8.02856 14.0541C8.05376 13.9942 8.0776 13.9376 8.09883 13.8845C8.22356 13.5727 8.34834 13.3167 8.46505 13.0826L7.44964 11.6396L7.44029 11.6246C7.01089 10.9376 6.92785 9.92066 7.67614 9.25966L9.27531 7.66048C9.62199 7.31381 10.0361 7.08373 10.5718 7.08373C10.9146 7.08373 11.3433 7.16621 11.6932 7.48733L13.0833 8.46561C13.2006 8.40945 13.3231 8.35504 13.4351 8.30523L13.4422 8.30208C13.5907 8.23607 13.722 8.17761 13.8355 8.12083C14.0832 7.99701 14.3947 7.86707 14.7267 7.78221L15.0414 6.05154L15.0441 6.0393Z" fill="#FF7C44"/>
<path fill-rule="evenodd" clip-rule="evenodd" d="M12.7031 17.9356C12.7031 14.9951 15.0593 12.6389 17.9998 12.6389C20.9402 12.6389 23.2964 14.9951 23.2964 17.9356C23.2964 20.876 20.9402 23.2322 17.9998 23.2322C15.0593 23.2322 12.7031 20.876 12.7031 17.9356ZM17.9998 13.9308C15.7728 13.9308 13.995 15.7086 13.995 17.9356C13.995 20.1626 15.7728 21.9404 17.9998 21.9404C20.2268 21.9404 22.0046 20.1626 22.0046 17.9356C22.0046 15.7086 20.2268 13.9308 17.9998 13.9308Z" fill="#FF7C44"/>
</svg>
