<svg width="36" height="36" viewBox="0 0 36 36" fill="none" xmlns="http://www.w3.org/2000/svg">
<path d="M34.1107 17.49H30.0007L28.6957 7.50005C28.6431 7.06918 28.4928 6.65601 28.2563 6.29207C28.0197 5.92812 27.7031 5.62302 27.3307 5.40005C26.946 5.16977 26.5145 5.02867 26.068 4.98714C25.6215 4.94561 25.1714 5.00469 24.7507 5.16005C20.4047 6.82482 15.5968 6.82482 11.2507 5.16005C10.8301 5.00469 10.38 4.94561 9.93348 4.98714C9.48699 5.02867 9.0555 5.16977 8.67073 5.40005C8.29831 5.62302 7.98174 5.92812 7.74518 6.29207C7.50861 6.65601 7.35831 7.06918 7.30573 7.50005L6.07573 17.4601H1.89073C1.77464 17.4269 1.65245 17.4211 1.53376 17.4432C1.41507 17.4653 1.30313 17.5146 1.20676 17.5873C1.11038 17.6601 1.03219 17.7541 0.978348 17.8622C0.924508 17.9702 0.896484 18.0893 0.896484 18.2101C0.896484 18.3308 0.924508 18.4499 0.978348 18.5579C1.03219 18.666 1.11038 18.76 1.20676 18.8327C1.30313 18.9055 1.41507 18.9548 1.53376 18.9769C1.65245 18.999 1.77464 18.9932 1.89073 18.9601H34.1107C34.2268 18.9932 34.349 18.999 34.4677 18.9769C34.5864 18.9548 34.6983 18.9055 34.7947 18.8327C34.8911 18.76 34.9693 18.666 35.0231 18.5579C35.077 18.4499 35.105 18.3308 35.105 18.2101C35.105 18.0893 35.077 17.9702 35.0231 17.8622C34.9693 17.7541 34.8911 17.6601 34.7947 17.5873C34.6983 17.5146 34.5864 17.4653 34.4677 17.4432C34.349 17.4211 34.2268 17.4269 34.1107 17.4601V17.49ZM8.85073 7.72505C8.87218 7.52657 8.94048 7.33602 9.05001 7.16911C9.15955 7.0022 9.30717 6.86371 9.48073 6.76505C9.66318 6.65296 9.86876 6.5839 10.0819 6.56311C10.295 6.54232 10.5101 6.57034 10.7107 6.64505C15.404 8.44533 20.5974 8.44533 25.2907 6.64505C25.4914 6.57034 25.7065 6.54232 25.9196 6.56311C26.1327 6.5839 26.3383 6.65296 26.5207 6.76505C26.6927 6.86555 26.8391 7.00453 26.9484 7.17109C27.0577 7.33764 27.127 7.52725 27.1507 7.72505L27.8557 13.5H8.14573L8.85073 7.72505ZM7.65073 17.49L7.95073 15H28.0507L28.3507 17.475L7.65073 17.49Z" fill="#FF7C44"/>
<path d="M25.1254 21.33C24.0726 21.3325 23.0492 21.6779 22.2102 22.3139C21.3712 22.95 20.7622 23.842 20.4754 24.855C19.7229 24.4205 18.8693 24.1918 18.0004 24.1918C17.1315 24.1918 16.2779 24.4205 15.5254 24.855C15.1965 23.6957 14.4461 22.7012 13.4215 22.0669C12.397 21.4325 11.1723 21.204 9.98795 21.4263C8.80358 21.6485 7.74508 22.3055 7.02026 23.2682C6.29544 24.2309 5.95665 25.4297 6.07041 26.6294C6.18417 27.829 6.74226 28.9428 7.63512 29.7521C8.52797 30.5614 9.69109 31.0077 10.8961 31.0034C12.1012 30.9991 13.261 30.5445 14.1481 29.7288C15.0351 28.9132 15.5852 27.7954 15.6904 26.595L16.0804 26.34C16.6484 25.9595 17.3167 25.7563 18.0004 25.7563C18.6841 25.7563 19.3524 25.9595 19.9204 26.34L20.3104 26.595C20.3948 27.5277 20.7485 28.4158 21.3285 29.1511C21.9084 29.8865 22.6897 30.4373 23.5771 30.7366C24.4646 31.036 25.4199 31.0708 26.3268 30.837C27.2336 30.6031 28.053 30.1107 28.685 29.4196C29.3171 28.7285 29.7346 27.8685 29.8867 26.9444C30.0388 26.0203 29.9189 25.0719 29.5417 24.2146C29.1645 23.3574 28.5462 22.6283 27.7621 22.1162C26.978 21.604 26.062 21.3309 25.1254 21.33ZM10.8754 29.445C10.2251 29.4479 9.58848 29.2578 9.04629 28.8986C8.50411 28.5395 8.08072 28.0275 7.82979 27.4275C7.57885 26.8275 7.51166 26.1665 7.63671 25.5283C7.76176 24.8901 8.07344 24.3034 8.53225 23.8425C8.99107 23.3815 9.57637 23.0672 10.214 22.9392C10.8516 22.8112 11.5129 22.8754 12.114 23.1236C12.7152 23.3718 13.2291 23.7928 13.5907 24.3334C13.9524 24.8739 14.1454 25.5096 14.1454 26.16C14.1454 27.0286 13.8014 27.8619 13.1886 28.4775C12.5757 29.0931 11.744 29.441 10.8754 29.445ZM25.1254 29.445C24.2594 29.441 23.4299 29.0952 22.8175 28.4828C22.2051 27.8704 21.8594 27.041 21.8554 26.175C21.8584 25.5289 22.0527 24.8981 22.4138 24.3623C22.7749 23.8266 23.2866 23.4098 23.8844 23.1646C24.4822 22.9194 25.1392 22.8568 25.7725 22.9846C26.4058 23.1125 26.9871 23.4251 27.4429 23.883C27.8987 24.3409 28.2087 24.9236 28.3336 25.5575C28.4586 26.1914 28.393 26.8481 28.145 27.4448C27.8971 28.0414 27.478 28.5512 26.9406 28.9099C26.4031 29.2685 25.7715 29.4599 25.1254 29.46V29.445Z" fill="#FF7C44"/>
</svg>
