<svg width="36" height="36" viewBox="0 0 36 36" fill="none" xmlns="http://www.w3.org/2000/svg">
<path d="M17.9995 32.67C16.8163 32.6668 15.6378 32.5207 14.4895 32.235C12.0648 31.6331 9.85137 30.378 8.09005 28.6061C6.32873 26.8342 5.08689 24.6133 4.49954 22.185C3.805 19.3647 4.01005 16.3978 5.08598 13.6999C6.16191 11.002 8.05482 8.70828 10.4995 7.13997C10.6774 7.02201 10.8862 6.95937 11.0995 6.95997C11.4019 6.95997 11.6919 7.08007 11.9056 7.29386C12.1194 7.50766 12.2395 7.79762 12.2395 8.09997C12.2493 8.29528 12.2072 8.4897 12.1177 8.66355C12.0281 8.8374 11.8942 8.9845 11.7295 9.08997C9.64765 10.4521 8.05979 12.4485 7.20114 14.7835C6.34248 17.1186 6.25867 19.6681 6.96213 22.0544C7.6656 24.4408 9.11891 26.5372 11.1069 28.0331C13.0948 29.529 15.5117 30.3449 17.9995 30.36C19.0556 30.3729 20.109 30.252 21.1345 30C23.0315 29.4981 24.7651 28.5108 26.1644 27.1352C27.5637 25.7595 28.5804 24.0431 29.1145 22.155C29.8359 19.7609 29.7609 17.1973 28.9008 14.8495C28.0406 12.5017 26.4418 10.4964 24.3445 9.13497C24.1875 9.03244 24.0586 8.89228 23.9695 8.72724C23.8804 8.5622 23.834 8.37751 23.8345 8.18997C23.8306 8.03704 23.857 7.88484 23.9123 7.74221C23.9676 7.59959 24.0507 7.46937 24.1568 7.35912C24.2628 7.24888 24.3898 7.1608 24.5301 7.1C24.6705 7.0392 24.8216 7.0069 24.9745 7.00497C25.1948 7.00481 25.4096 7.07294 25.5895 7.19997C28.0857 8.83931 29.987 11.2395 31.0116 14.0446C32.0362 16.8497 32.1294 19.9103 31.2774 22.7725C30.4255 25.6348 28.6738 28.1462 26.282 29.9345C23.8903 31.7227 20.9859 32.6925 17.9995 32.7V32.67Z" fill="#FF7C44"/>
<path d="M17.9991 16.7401C17.6357 16.7401 17.287 16.5968 17.0286 16.3412C16.7702 16.0856 16.6231 15.7385 16.6191 15.3751V4.71006C16.6191 4.34009 16.7661 3.98526 17.0277 3.72365C17.2893 3.46204 17.6442 3.31506 18.0141 3.31506C18.3841 3.31506 18.7389 3.46204 19.0006 3.72365C19.2622 3.98526 19.4091 4.34009 19.4091 4.71006V15.3751C19.4052 15.7385 19.2581 16.0856 18.9997 16.3412C18.7413 16.5968 18.3926 16.7401 18.0291 16.7401H17.9991Z" fill="#FF7C44"/>
</svg>
