<svg width="24" height="24" viewBox="0 0 24 24" fill="none" xmlns="http://www.w3.org/2000/svg">
<path d="M21.9 1.59H16.88V13.15H21.9V1.59Z" fill="#9E1F63"/>
<path d="M2.10001 8.7C2.09962 9.04923 2.20432 9.3905 2.4005 9.67942C2.59668 9.96834 2.87526 10.1915 3.20001 10.32C2.83081 10.483 2.52885 10.768 2.34476 11.1272C2.16066 11.4864 2.1056 11.8979 2.1888 12.2928C2.27201 12.6878 2.48842 13.0421 2.80178 13.2965C3.11514 13.5508 3.50641 13.6898 3.91001 13.69H8.91001C8.95568 13.8941 8.95568 14.1059 8.91001 14.31C8.69098 15.2791 8.32688 16.2096 7.83001 17.07C7.39001 17.85 7.21001 21.53 8.03001 22.07C8.22165 22.2041 8.43812 22.2988 8.66675 22.3483C8.89537 22.3978 9.13158 22.4012 9.36156 22.3584C9.59154 22.3156 9.81067 22.2273 10.0061 22.0988C10.2016 21.9703 10.3695 21.8041 10.5 21.61L11.5 17.91L13.5 14.98C13.86 14.46 15.74 12.27 15.74 12.27V2.5L12.62 1.59H5.75001C5.28224 1.60045 4.83716 1.79365 4.51007 2.12821C4.18298 2.46277 3.9999 2.91211 4.00001 3.38C3.99676 3.59093 4.03061 3.80079 4.10001 4C3.79131 4.07449 3.50816 4.2302 3.27993 4.451C3.05169 4.6718 2.88668 4.94963 2.802 5.2557C2.71732 5.56176 2.71606 5.8849 2.79836 6.19161C2.88065 6.49832 3.0435 6.77743 3.27001 7C2.92 7.12279 2.61805 7.35362 2.40776 7.65918C2.19746 7.96474 2.0897 8.32921 2.10001 8.7Z" fill="#9E1F63"/>
</svg>
