<svg width="36" height="36" viewBox="0 0 36 36" fill="none" xmlns="http://www.w3.org/2000/svg">
<path d="M30.156 14.387C29.7037 14.1065 29.1647 13.9789 28.6263 14.0246L29.743 12.3C30.1015 11.7666 30.2269 11.1221 30.0927 10.5027C29.9586 9.88325 29.5753 9.33759 29.024 8.98113C28.5747 8.69411 28.0332 8.56586 27.4942 8.61881L27.7696 8.19852C28.1216 7.65426 28.2355 7.0013 28.0869 6.37869C27.9383 5.75609 27.539 5.21303 26.9741 4.86518C26.6976 4.69838 26.3888 4.58554 26.0657 4.53328C25.7426 4.48102 25.4117 4.49038 25.0925 4.56083C24.4511 4.71761 23.9012 5.10835 23.5627 5.64779L23.0273 6.47388C22.83 6.0153 22.4881 5.62558 22.0483 5.35793C21.7707 5.19359 21.4613 5.08331 21.1383 5.03354C20.8152 4.98377 20.4849 4.99551 20.1667 5.06807C19.53 5.22557 18.982 5.60975 18.6369 6.14054L18.3156 6.58982C17.4743 7.90867 14.9808 11.7348 13.5581 13.9377V12.7927C13.5651 12.4749 13.506 12.1589 13.3841 11.8627C13.2622 11.5665 13.0799 11.2959 12.8477 11.0665C12.3786 10.6031 11.7345 10.3352 11.0569 10.3217C10.7214 10.3151 10.3878 10.3711 10.0752 10.4865C9.76254 10.602 9.47697 10.7747 9.23477 10.9947C8.74563 11.4391 8.46285 12.0494 8.44865 12.6913L7.4849 22.445C7.4849 22.445 7.4849 22.9087 7.39312 23.4595C7.20468 24.625 7.27765 25.8152 7.60728 26.9522C8.22928 28.689 9.50323 30.1486 11.1869 31.0537L11.9365 31.503C13.1438 32.1222 14.4952 32.446 15.868 32.445C17.6122 32.3837 19.3125 31.91 20.8141 31.0671C22.3157 30.2242 23.5708 29.0388 24.4653 27.6189L30.8597 17.6913C31.2113 17.1599 31.3343 16.521 31.2034 15.9062C31.0724 15.2914 30.6976 14.7477 30.156 14.387ZM21.9106 8.16954L15.9292 17.4304C15.8756 17.5559 15.8756 17.6963 15.9292 17.8218C15.9564 17.9159 16.0116 18.0006 16.0884 18.0657C16.1651 18.1308 16.26 18.1736 16.3617 18.1889C16.4634 18.2042 16.5677 18.1914 16.6619 18.1519C16.7561 18.1125 16.8364 18.0482 16.893 17.9667L24.4347 6.16953C24.6456 5.8585 24.9739 5.63557 25.3526 5.54634C25.5338 5.50141 25.7231 5.49369 25.9078 5.52368C26.0925 5.55367 26.2683 5.62069 26.4234 5.72025C26.7512 5.92756 26.9819 6.24674 27.0674 6.61124C27.1529 6.97575 27.0866 7.35745 26.8823 7.67678L19.2335 19.4594C19.1971 19.5146 19.1725 19.576 19.1613 19.6401C19.15 19.7043 19.1523 19.7699 19.1679 19.8332C19.1836 19.8965 19.2123 19.9563 19.2524 20.0091C19.2926 20.0618 19.3433 20.1065 19.4018 20.1406C19.5217 20.211 19.666 20.2338 19.8035 20.2039C19.941 20.1741 20.0605 20.094 20.1361 19.9812L26.3928 10.2855C26.4914 10.1266 26.624 9.9891 26.782 9.88176C26.9401 9.77442 27.1202 9.69966 27.3107 9.6623C27.4913 9.61884 27.6793 9.61056 27.8633 9.63796C28.0474 9.66537 28.2237 9.72788 28.3815 9.82172C28.7093 10.029 28.94 10.3482 29.0255 10.7127C29.111 11.0772 29.0447 11.4589 28.8404 11.7782L22.5837 21.4739C22.531 21.5946 22.531 21.7301 22.5837 21.8508C22.6181 21.9833 22.706 22.0977 22.8285 22.1696C22.9569 22.2139 23.0977 22.2139 23.2262 22.1696C23.2934 22.1532 23.3564 22.1242 23.4115 22.0844C23.4667 22.0446 23.5129 21.9947 23.5474 21.9377L27.6166 15.6333C27.8275 15.3223 28.1558 15.0994 28.5345 15.0101C28.7161 14.9688 28.9047 14.9629 29.0888 14.9928C29.2729 15.0227 29.4486 15.0878 29.6053 15.1841C29.9331 15.3914 30.1638 15.7105 30.2493 16.0751C30.3348 16.4396 30.2685 16.8213 30.0642 17.1406L23.6545 27.1841C21.467 30.5899 16.7094 32.8363 12.5331 30.7204L11.8141 30.2856C10.3733 29.4795 9.28711 28.2087 8.75461 26.7058C8.43318 25.6816 8.35482 24.6027 8.52514 23.5464C8.52514 23.0102 9.56538 12.8942 9.56538 12.7927C9.58666 12.6074 9.64788 12.4281 9.74524 12.2661C9.8426 12.1041 9.97403 11.9627 10.1314 11.8507C10.3801 11.6534 10.6943 11.5456 11.0187 11.5464H11.1869C11.5284 11.6016 11.8399 11.7651 12.0706 12.0099C12.3012 12.2548 12.4373 12.5665 12.4566 12.8942L12.5331 15.5899C12.5374 15.6959 12.5788 15.7977 12.6508 15.879C12.7228 15.9604 12.8213 16.0167 12.9309 16.0391C13.0395 16.0675 13.155 16.0616 13.2598 16.0224C13.3647 15.9832 13.4532 15.9128 13.5122 15.8217C14.4606 14.3725 19.4324 6.69127 19.463 6.66228C19.5589 6.50565 19.6872 6.36896 19.8402 6.26035C19.9932 6.15174 20.1677 6.07346 20.3533 6.03017C20.5389 5.98688 20.7319 5.97948 20.9206 6.0084C21.1093 6.03733 21.2899 6.10198 21.4517 6.19851C21.7836 6.40607 22.0172 6.72795 22.1028 7.0959C22.1885 7.46384 22.1196 7.84894 21.9106 8.16954Z" fill="#FF7C44"/>
<path d="M34.225 23.0971C34.1784 22.9568 34.0748 22.8398 33.9371 22.7719C33.7994 22.7039 33.6388 22.6906 33.4907 22.7348C33.3426 22.779 33.2192 22.8771 33.1474 23.0076C33.0757 23.1381 33.0616 23.2902 33.1083 23.4305C33.5012 24.6077 33.3857 25.8845 32.787 26.9812C32.2684 28.0599 31.3557 28.9247 30.217 29.416C30.0711 29.4623 29.9505 29.5615 29.8817 29.6919C29.8129 29.8223 29.8014 29.9733 29.8499 30.1116C29.8714 30.1814 29.9085 30.246 29.9586 30.301C30.0088 30.356 30.0708 30.4002 30.1405 30.4305C30.2257 30.452 30.3154 30.452 30.4006 30.4305H30.5842C32.0018 29.8343 33.1508 28.7818 33.8273 27.4595C34.5567 26.1105 34.6995 24.5446 34.225 23.0971Z" fill="#FF7C44"/>
<path d="M31.3194 26.2566C31.7644 25.4266 31.8521 24.4654 31.5641 23.5754C31.515 23.4367 31.411 23.3215 31.2741 23.2539C31.1372 23.1864 30.9779 23.1717 30.8298 23.2131C30.6839 23.2594 30.5633 23.3586 30.4945 23.489C30.4257 23.6194 30.4142 23.7704 30.4627 23.9087C30.6535 24.517 30.5877 25.1716 30.2791 25.7348C30.0123 26.2932 29.5466 26.7447 28.9635 27.0102C28.89 27.0314 28.8219 27.0666 28.7632 27.1135C28.7046 27.1605 28.6566 27.2183 28.6223 27.2833C28.5879 27.3484 28.5679 27.4194 28.5635 27.4921C28.559 27.5647 28.5702 27.6374 28.5964 27.7059C28.6206 27.7726 28.6588 27.8339 28.7088 27.8862C28.7587 27.9386 28.8194 27.9807 28.887 28.0102C28.9654 28.0557 29.0552 28.0807 29.1471 28.0827H29.3307C30.2023 27.7183 30.9077 27.0706 31.3194 26.2566Z" fill="#FF7C44"/>
<path d="M7.39353 5.98113C7.38074 5.91012 7.35297 5.84228 7.31189 5.78166C7.27082 5.72104 7.21727 5.66889 7.15444 5.62831C7.09162 5.58773 7.02081 5.55956 6.94625 5.54547C6.87168 5.53139 6.79488 5.53169 6.72043 5.54634C5.25182 5.97207 3.99275 6.88211 3.17138 8.11157C2.26808 9.38792 1.92768 10.9484 2.22292 12.4594C2.24773 12.5848 2.31772 12.6982 2.42096 12.7801C2.5242 12.8621 2.65426 12.9075 2.78894 12.9087H2.89602C3.04904 12.8781 3.18502 12.7956 3.27846 12.6768C3.36087 12.5569 3.39356 12.4124 3.37025 12.271C3.1427 11.0615 3.4167 9.81551 4.13513 8.79273C4.76682 7.77408 5.76684 7.00689 6.9499 6.6333C7.09972 6.60205 7.23042 6.51595 7.31352 6.39379C7.39662 6.27163 7.42538 6.12329 7.39353 5.98113Z" fill="#FF7C44"/>
<path d="M6.41454 10.2275C6.74055 9.71021 7.25031 9.31975 7.85252 9.12607C7.9325 9.1165 8.0095 9.09128 8.07865 9.05201C8.14779 9.01274 8.20755 8.96027 8.25414 8.89794C8.30073 8.83561 8.33312 8.76478 8.34926 8.68995C8.36541 8.61513 8.36494 8.53794 8.34791 8.46329C8.33087 8.38864 8.29763 8.31816 8.2503 8.25634C8.20297 8.19451 8.14258 8.14269 8.07298 8.10416C8.00337 8.06563 7.92607 8.04124 7.84598 8.03253C7.76589 8.02383 7.68476 8.031 7.60775 8.0536C6.71012 8.30641 5.94224 8.86363 5.45078 9.61882C5.17756 9.99606 4.98557 10.4207 4.88582 10.8683C4.78607 11.316 4.78051 11.7778 4.86947 12.2275C4.88252 12.3004 4.91092 12.37 4.95297 12.4323C4.99502 12.4945 5.04986 12.5481 5.11424 12.5898C5.20873 12.6523 5.32031 12.6876 5.43549 12.6913H5.54257C5.61704 12.6779 5.68791 12.6505 5.75098 12.6106C5.81404 12.5708 5.86802 12.5194 5.90971 12.4594C5.96997 12.4063 6.01649 12.3408 6.04568 12.2679C6.07486 12.195 6.08592 12.1167 6.07799 12.0391C5.94541 11.4166 6.06559 10.7697 6.41454 10.2275Z" fill="#FF7C44"/>
</svg>
