<svg width="24" height="24" viewBox="0 0 24 24" fill="none" xmlns="http://www.w3.org/2000/svg">
<path d="M9.80005 16.3C9.60005 12.6 12.6 9.4 16.2 9.2C17.3 9.2 18.3 9.4 19.2 9.8V4.6C19.2 3.2 18 2 16.6 2H6.30005C4.90005 2 3.80005 3.2 3.80005 4.6V19.4C3.80005 20.8 5.00005 22 6.40005 22H13.5C11.4 20.9 9.90005 18.8 9.80005 16.3Z" fill="#5C81A2"/>
<path d="M6.5 5.90002H16.8" stroke="white" stroke-width="1.5" stroke-miterlimit="10" stroke-linecap="round"/>
<path d="M6.5 10H16.8" stroke="white" stroke-width="1.5" stroke-miterlimit="10" stroke-linecap="round"/>
<path d="M6.5 14H16.8" stroke="white" stroke-width="1.5" stroke-miterlimit="10" stroke-linecap="round"/>
<path d="M20.9999 11.7C20.8999 11.7 20.8999 11.7 20.8999 11.8L16.6999 16L16.5999 16.1C16.4999 16.1 16.4999 16.1 16.4999 16L15.1999 14.7L15.0999 14.6C15.0999 14.6 14.9999 14.6 14.9999 14.7L13.9999 15.5C13.8999 15.6 13.8999 15.7 13.9999 15.8L15.3999 17.2L16.2999 18.1L16.3999 18.2C16.4999 18.2 16.4999 18.2 16.4999 18.1L20.0999 14.5L20.7999 13.8L21.7999 12.8C21.8999 12.7 21.8999 12.6 21.7999 12.5L20.9999 11.7C20.9999 11.7 21.0999 11.7 20.9999 11.7Z" fill="#5C81A2"/>
<path d="M21.2 15.4L20.6 16C20.6 18.2 18.8 20 16.6 20C14.4 20 12.6 18.2 12.6 16C12.6 13.8 14.4 12 16.6 12C17.3 12 17.9 12.2 18.4 12.4L19.1 11.7C18.4 11.3 17.5 11 16.6 11C15.3 11 14 11.5 13.1 12.4C12.2 13.3 11.7 14.6 11.7 15.9C11.7 17.2 12.2 18.5 13.1 19.4C14 20.3 15.3 20.8 16.6 20.8C17.9 20.8 19.2 20.3 20.1 19.4C21 18.5 21.5 17.2 21.5 15.9C21.5 15.6 21.5 15.4 21.4 15.1L21.2 15.4Z" fill="#5C81A2"/>
</svg>
