<svg width="230" height="150" viewBox="0 0 230 150" fill="none" xmlns="http://www.w3.org/2000/svg">
<path d="M70.5399 110.89C70.5399 110.89 81.5098 85 66.9999 70.45C34.6099 84.8 48.7998 116.62 48.7998 116.62L70.5399 110.89Z" fill="#FF7C44"/>
<path d="M67.0008 70.45L66.6608 70.61L61.7708 103.35L48.3308 87.63C48.2308 87.84 48.1408 88.05 48.0508 88.26L61.5908 104.16L60.1808 113.61L60.8308 113.44L63.6508 94.6L74.4808 89.5V88.83L63.7908 93.83L67.2508 70.69L67.0008 70.45Z" fill="white"/>
<path d="M51.7304 82C47.8704 77.72 43.0004 74.16 37.0004 72.8C21.1504 90.45 38.1504 111.11 38.1504 111.11L59.7904 122.61L61.0004 117.06C62.3543 110.9 62.2195 104.506 60.6073 98.4084C58.9951 92.3109 55.952 86.6858 51.7304 82Z" fill="#5C81A2"/>
<path d="M54.7003 85.64L48.0803 96.16L37.4403 72.92L37.0003 72.8C36.9303 72.87 36.8803 72.94 36.8203 73.01L42.5003 85.46L31.5003 82.13C31.5003 82.23 31.4303 82.34 31.4003 82.44L31.3203 82.72L42.8903 86.21L52.3403 107L32.7503 101.77L33.0503 102.49L52.6703 107.72L59.4103 122.45L59.7803 122.65L59.9103 122.05L48.3803 96.83L55.0903 86.18L54.7003 85.64Z" fill="white"/>
<path d="M48.2607 138.73C48.5588 137.969 49.129 137.345 49.8607 136.98C53.2204 135.14 56.6827 133.494 60.2307 132.05C60.3674 131.991 60.5077 131.941 60.6507 131.9L56.0907 115.08C56.0907 115.08 37.8907 100.38 24.2607 108.21C23.6507 126.6 36.7907 135.64 48.1007 140C48.0709 139.57 48.1252 139.139 48.2607 138.73Z" fill="#FFBEA2"/>
<path d="M59.0998 132.53L59.7698 132.24L41.1098 119.41L38.6498 106.53L37.9998 106.4L40.3798 118.91L24.5698 108L24.2598 108.17C24.2598 108.29 24.2598 108.41 24.2598 108.54L50.3698 126.48L33.8698 131.48L34.4098 131.97L50.9998 127L59.0998 132.53Z" fill="white"/>
<path d="M195.59 82.4C195.59 82.4 205.72 58.5 192.27 45.05C162.35 58.3 175.47 87.69 175.47 87.69L195.59 82.4Z" fill="#E7F2FB"/>
<path d="M192.27 45.05L191.96 45.19L187.44 75.44L175.07 60.92C174.98 61.11 174.9 61.31 174.82 61.5L187.33 76.19L186 84.92L186.6 84.76L189.2 67.36L199.2 62.64V62.03L189.32 66.68L192.52 45.31L192.27 45.05Z" fill="white"/>
<path d="M180.16 87.78C180.546 87.675 180.953 87.675 181.34 87.78C182.16 87.6 182.98 87.42 183.81 87.28C184.358 87.1914 184.92 87.2654 185.427 87.4929C185.933 87.7204 186.362 88.0914 186.66 88.56L186.77 88.06C188.022 82.3686 187.899 76.4608 186.412 70.8263C184.925 65.1917 182.117 59.9927 178.22 55.66C174.667 51.4913 169.908 48.5283 164.6 47.18C162.267 49.6489 160.513 52.6061 159.465 55.8371C158.417 59.068 158.101 62.4918 158.54 65.86C159.058 70.1482 160.607 74.2469 163.056 77.805C165.505 81.3632 168.779 84.2746 172.6 86.29L177 88.64C178.07 88.35 179.11 88 180.16 87.78Z" fill="#5C81A2"/>
<path d="M182.779 87.51L183.359 87.4L175.119 69.4L181.319 59.57L180.959 59.07L174.839 68.78L164.999 47.33L164.579 47.22L164.409 47.42L169.669 58.91L159.459 55.84L159.369 56.13L159.289 56.38L169.999 59.6L178.769 78.77L160.769 73.94C160.859 74.16 160.949 74.38 161.049 74.6L179.049 79.44L182.779 87.51Z" fill="white"/>
<path d="M183.81 76.08L115.53 111.34L102.77 93.27L30.8301 127.58L32.5801 136.16L100.19 103.17L113.07 121.4L187.4 83.02L183.81 76.08Z" fill="#F5A210"/>
<path d="M172.881 74.16L185.781 92.57L199.291 69.39L172.881 74.16Z" fill="#0F3A5D"/>
<path d="M127.251 125.3L113.071 121.4L105.471 110.64L114.381 107.07L127.251 125.3Z" fill="#0F3A5D"/>
<path d="M116.95 97.17L102.77 93.27L30.5898 127.63L32.4498 136.12L46.4998 140.3L44.7798 131.53L116.95 97.17Z" fill="#C9673E"/>
<path d="M46.5498 140.57L32.4698 136.25L30.5898 127.63L44.7798 131.53L46.5498 140.57Z" fill="#ED751A"/>
<path d="M213.481 73.29L199.291 69.39L172.881 74.16L187.071 78.06L213.481 73.29Z" fill="#C9673E"/>
<path d="M197.999 79.98L129.709 115.24L116.949 97.17L44.7793 131.53L46.5493 140.55L114.379 107.07L127.249 125.3L201.579 86.92L197.999 79.98Z" fill="#FF7C44"/>
<path d="M187.07 78.06L199.47 95.78L213.48 73.29L187.07 78.06Z" fill="#FF7C44"/>
<path d="M129.71 115.24L190.96 83.62L176.53 79.96L123.41 107.27L129.71 115.24Z" fill="#C9673E"/>
<path d="M74.0002 110.29L73.7902 111.64V111.51C73.5922 111.625 73.3651 111.681 73.1363 111.67C72.9075 111.66 72.6866 111.583 72.5002 111.45L72.4102 111.67L72.5302 110.17L74.0002 110.29Z" fill="#F7B58E"/>
<path d="M74.0598 111.47C74.0598 111.47 74.3198 112.95 77.4398 113.08C78.0798 113.08 77.9298 113.33 78.1098 113.55L74.7698 114.41L73.0798 113.27L72.7698 113.72L71.5898 113C71.5898 113 71.6798 111.54 72.3998 111.35C72.9998 111.44 74.0598 111.47 74.0598 111.47Z" fill="#212B53"/>
<path d="M81.0008 81.32L72.3008 110.86C72.8889 110.926 73.4826 110.926 74.0708 110.86C76.9208 110.49 90.5408 79.86 90.5408 79.86L81.0008 81.32Z" fill="#212B53"/>
<path d="M91.7791 63.72L91.3091 66.35L88.5391 65.68L90.2191 61.88L91.7791 63.72Z" fill="#F39F85"/>
<path d="M93.16 63.77C93.4383 63.7612 93.7085 63.6746 93.94 63.52C94.78 62.06 93.39 58.42 93.39 58.42L91.82 57.9L90 59.26L90.09 61.77C90.104 62.1071 90.203 62.4351 90.3779 62.7236C90.5527 63.0121 90.7977 63.2516 91.09 63.42C91.7347 63.7247 92.451 63.8458 93.16 63.77Z" fill="#F7B58E"/>
<path d="M90.4096 60.65C90.4796 60.23 90.3496 59.26 90.7796 59.3C91.2096 59.34 92.1696 59.3 92.5296 59.3C93.3796 59.23 94.8796 58.77 94.7796 57.47C94.7166 57.1724 94.5776 56.8962 94.376 56.6684C94.1745 56.4406 93.9173 56.2688 93.6296 56.17C93.2195 56.0444 92.7773 56.0765 92.3896 56.26C91.4796 56.66 90.2796 57.49 89.7796 57.43C88.9196 57.33 88.1296 57.89 88.1996 58.6C88.358 59.518 88.698 60.3951 89.1996 61.18C89.457 61.5619 89.7744 61.8995 90.1396 62.18L90.4096 60.65Z" fill="#212B53"/>
<path d="M89.5508 60.82C89.6636 60.7273 89.8049 60.6767 89.9508 60.6767C90.0967 60.6767 90.2381 60.7273 90.3508 60.82C90.4108 60.848 90.4637 60.8892 90.5055 60.9405C90.5474 60.9919 90.5771 61.052 90.5925 61.1164C90.6079 61.1808 90.6085 61.2478 90.5944 61.3125C90.5802 61.3772 90.5517 61.4379 90.5108 61.49C90.3973 61.5809 90.2563 61.6304 90.1108 61.6304C89.9654 61.6304 89.8243 61.5809 89.7108 61.49C89.4408 61.3 89.3708 61 89.5508 60.82Z" fill="#F7B58E"/>
<path d="M89.5296 64C88.7196 63.67 80.9396 65.67 80.8496 81.06L89.1096 80.21L91.7796 79.9C91.7796 79.9 95.4396 66.4 89.5296 64Z" fill="#01888B"/>
<path d="M101.519 96.83C102.703 97.3897 104 97.6702 105.309 97.65C105.859 97.65 106.389 97.37 106.579 98.24L103.679 98.87L101.179 98.98L101.269 99.4L99.9692 99.69C99.9692 99.69 99.1392 97.69 99.8392 97.2L101.519 96.83Z" fill="#212B53"/>
<path d="M100.931 95.35L101.521 96.83C101.324 97.0419 101.07 97.1923 100.79 97.2633C100.51 97.3343 100.215 97.3227 99.9409 97.23H99.8409L99.6309 95.67L100.931 95.35Z" fill="#F7B58E"/>
<path d="M80.8398 81.15C80.8398 81.15 82.1198 87.25 87.3998 87.76C90.7698 88.09 98.7498 84.96 98.7498 84.96C98.7498 84.96 97.2298 89.24 99.5798 96.11C101.46 96.42 101.64 95.61 101.64 95.61C101.64 95.61 105.44 81.1 102.64 79.13C99.8398 77.16 89.9998 79.5 89.9998 79.5L80.8398 81.15Z" fill="#053C5E"/>
<path d="M113.941 67.83C114.821 67.57 116.501 66.45 116.461 67.49C116.571 69.93 113.681 69.87 113.041 69.82L111.041 69.4C111.041 69.4 110.581 68.5 110.551 68.46L110.851 68.4C111.898 68.3213 112.934 68.1302 113.941 67.83Z" fill="#F7B58E"/>
<path d="M89.7708 67.06C93.1108 67.47 96.6908 69.55 110.771 68.37L111.771 69.96C102.441 73.51 94.4308 72.48 89.3208 72.24C87.7308 72.17 87.3208 70.4 87.4308 69.06C87.4366 68.7693 87.5038 68.4831 87.6281 68.2202C87.7524 67.9574 87.9309 67.7238 88.152 67.5349C88.373 67.346 88.6315 67.206 88.9105 67.1241C89.1896 67.0423 89.4827 67.0204 89.7708 67.06Z" fill="#00666B"/>
<path d="M118.839 67.87C118.283 68.047 117.685 68.047 117.129 67.87C116.179 67.7 114.279 66.72 114.439 67.81C115.219 68.57 116.049 69.57 116.049 69.57C116.742 69.937 117.544 70.0435 118.309 69.87L120.309 69.21C120.309 69.21 120.689 68.21 120.719 68.15H120.389C119.861 68.1392 119.338 68.0447 118.839 67.87Z" fill="#785744"/>
<path d="M118.42 68.22C118.38 68.2553 118.336 68.2856 118.29 68.31C118.4 68.4 118.51 68.49 118.61 68.59L120.07 69.06C120.07 68.75 120.16 68.31 120.17 68.28L117.17 66.6C117.17 66.6 116.83 66.88 117.33 67.43C117.637 67.7629 118.007 68.0315 118.42 68.22Z" fill="#785744"/>
<path d="M119.75 69.87C119.75 69.87 128.4 69.56 131.75 68.96C135.1 68.36 141.34 64.96 141.34 64.96L136.44 59.24C136.44 59.24 132.21 64.09 129.15 65.48C126.09 66.87 119.32 67.55 119.32 67.55L119.75 69.87Z" fill="#63C0C4"/>
<path d="M156.069 93.8C155.675 95.0876 154.991 96.2678 154.069 97.25C153.709 97.68 153.069 97.88 153.649 98.62L156.119 96.84L157.999 95L158.259 95.35L159.359 94.55C159.359 94.55 158.359 92.55 157.549 92.75L156.069 93.8Z" fill="#212B53"/>
<path d="M154.85 93.38L155.98 93.92C156.075 93.9717 156.181 93.9987 156.29 93.9987C156.398 93.9987 156.504 93.9717 156.6 93.92C157.04 93.64 157.48 93.37 157.38 92.92L155.59 91.4L154.85 93.38Z" fill="#785744"/>
<path d="M147.45 83.47C146.761 83.0737 146.245 82.4355 146.001 81.6796C145.757 80.9236 145.803 80.1039 146.13 79.38C147.234 76.8959 148.004 74.2764 148.42 71.59L142.7 72.32C142.238 72.3454 141.777 72.276 141.343 72.1161C140.91 71.9561 140.514 71.709 140.18 71.39C139.787 71.0409 139.491 70.5967 139.32 70.1C138.47 74.36 137.26 81.92 138.86 84.1C141.12 87.22 155.03 93.66 155.03 93.66L155.88 91.29C155.88 91.29 151.79 86 147.45 83.47Z" fill="#212B53"/>
<path d="M139.34 57.9C138.516 58.264 137.668 58.5681 136.8 58.81C133.9 61.81 138.4 75.22 138.4 75.22L148.47 71.77C148.47 71.77 144.93 59.45 139.34 57.9Z" fill="#63C0C4"/>
<path d="M138.439 75C137.969 73.55 135.129 64.43 136.169 60.34L135.999 60.1C134.779 64.37 137.939 74.16 138.269 75.19L138.439 75Z" fill="url(#paint0_linear)"/>
<path d="M139 58.11L138.13 56.28L136 57L136.33 59.32C137.117 58.7205 138.03 58.3068 139 58.11Z" fill="#785744"/>
<path d="M138.569 52.26L138.639 55.42C138.567 55.4273 138.497 55.4512 138.436 55.4899C138.375 55.5286 138.323 55.5811 138.285 55.6431C138.247 55.7051 138.224 55.775 138.218 55.8473C138.212 55.9197 138.223 55.9925 138.249 56.06C138.235 56.1394 138.235 56.2207 138.249 56.3C137.875 56.625 137.437 56.8691 136.964 57.0171C136.491 57.1651 135.992 57.2138 135.499 57.16C133.499 56.92 134.399 52.99 134.399 52.99L138.569 52.26Z" fill="#785744"/>
<path d="M139.741 54.55C139.807 54.214 139.959 53.9006 140.181 53.64C141.241 52.64 140.181 51.95 139.801 51.74C139.421 51.53 139.421 50.8 138.871 50.43C138.051 49.88 137.341 50.57 136.871 50.51C136.401 50.45 136.011 49.81 135.311 50.22C134.611 50.63 134.731 51.22 134.511 51.45C134.291 51.68 133.821 51.07 133.161 51.88C132.161 53.12 134.321 53.46 134.321 53.46C135.224 53.6784 136.175 53.5648 137.001 53.14C137.099 53.0876 137.212 53.069 137.323 53.087C137.433 53.1051 137.534 53.1588 137.611 53.24C138.011 53.72 138.211 56.34 138.211 56.34L138.691 55.88C138.985 55.7991 139.245 55.6265 139.434 55.3872C139.623 55.148 139.73 54.8546 139.741 54.55Z" fill="black"/>
<path d="M138.571 54.89C138.552 54.9507 138.52 55.0069 138.479 55.0555C138.438 55.104 138.387 55.1439 138.331 55.1727C138.274 55.2016 138.212 55.2189 138.148 55.2235C138.085 55.2282 138.021 55.2202 137.961 55.2C137.899 55.1819 137.842 55.1515 137.793 55.1106C137.743 55.0696 137.703 55.019 137.674 54.9619C137.645 54.9048 137.628 54.8423 137.624 54.7783C137.62 54.7144 137.629 54.6503 137.651 54.59C137.692 54.4689 137.779 54.3688 137.893 54.3109C138.007 54.2529 138.139 54.2419 138.261 54.28C138.382 54.3211 138.482 54.4079 138.54 54.5219C138.598 54.6359 138.609 54.7679 138.571 54.89Z" fill="#785744"/>
<path d="M132.71 106.07C131.846 107.09 130.762 107.9 129.54 108.44C129.03 108.7 128.41 108.64 128.6 109.53L131.6 108.89L133.98 107.89L134.07 108.32L135.41 108.03C135.41 108.03 135.31 105.77 134.47 105.66L132.71 106.07Z" fill="#212B53"/>
<path d="M132.529 104.47L132.709 106.07C132.984 106.185 133.286 106.218 133.579 106.164C133.872 106.111 134.143 105.974 134.359 105.77L134.439 105.7L134.659 104.01L132.529 104.47Z" fill="#785744"/>
<path d="M138.4 75.22C138.4 75.22 132.4 83.94 132.14 85.83C131.88 87.72 132.53 104.59 132.53 104.59L134.66 104.14C134.66 104.14 137.45 96.28 137.59 90.56C137.612 89.566 137.893 88.595 138.405 87.7428C138.917 86.8905 139.642 86.1865 140.51 85.7C151.51 79.53 148.51 71.77 148.51 71.77L138.4 75.22Z" fill="#053C5E"/>
<path d="M136.131 58.51L136.181 59.72L139.341 57.9L138.691 57.15L136.131 58.51Z" fill="#63C0C4"/>
<path d="M155 71.35C155.512 71.6908 155.934 72.1506 156.23 72.69C156.76 73.5 157.34 75.56 158.03 74.69C158.03 73.59 158.2 72.3 158.2 72.3C157.998 71.5415 157.524 70.8833 156.87 70.45L155.01 69.45C155.01 69.45 154.01 69.86 154.01 69.87L154.22 70.12C154.551 70.4804 154.815 70.8969 155 71.35Z" fill="#785744"/>
<path d="M141.221 58.71C144.381 59.4923 147.35 60.9055 149.95 62.8645C152.55 64.8236 154.727 67.2881 156.351 70.11C155.807 70.4861 155.307 70.9221 154.861 71.41C154.861 71.41 150.861 66.51 140.781 62.79C140.429 62.6617 140.12 62.4397 139.885 62.148C139.651 61.8563 139.501 61.5061 139.452 61.1352C139.402 60.7644 139.455 60.3871 139.605 60.0442C139.754 59.7013 139.995 59.4059 140.301 59.19C140.831 58.82 140.641 58.57 141.221 58.71Z" fill="#63C0C4"/>
<path d="M154.999 71.3C155.123 71.1726 155.256 71.0555 155.399 70.95C155.394 70.8834 155.394 70.8166 155.399 70.75C155.399 70.67 155.399 70.59 155.319 70.5C155.239 70.41 155.059 70.08 154.919 69.88C154.366 69.2921 153.76 68.7565 153.109 68.28C151.469 67.17 149.699 66.28 148.039 65.2C146.379 64.12 144.529 62.8 142.699 61.7L142.619 61.79C142.176 62.2837 141.594 62.6322 140.949 62.79L141.189 62.9C150.189 66.21 154.189 70.54 154.909 71.45C154.947 71.4054 154.978 71.3547 154.999 71.3Z" fill="#63C0C4"/>
<path d="M154.93 71.34C154.029 70.3028 153.023 69.3612 151.93 68.53C148.667 66.0717 145.049 64.1259 141.2 62.76H141.07L140.77 62.84C140.886 62.9046 141.006 62.9614 141.13 63.01C144.957 64.3659 148.555 66.2982 151.8 68.74C152.891 69.5741 153.896 70.5155 154.8 71.55C154.84 71.44 154.89 71.39 154.93 71.34Z" fill="white"/>
<path d="M154.93 71.34C154.029 70.3028 153.023 69.3612 151.93 68.53C148.667 66.0717 145.049 64.1259 141.2 62.76H141.07L140.77 62.84C140.886 62.9046 141.006 62.9614 141.13 63.01C144.957 64.3659 148.555 66.2982 151.8 68.74C152.891 69.5741 153.896 70.5155 154.8 71.55C154.84 71.44 154.89 71.39 154.93 71.34Z" fill="url(#paint1_linear)"/>
<path d="M80.5995 41.6L71.4595 36.56L66.7895 35.63L63.2695 36.14L80.5995 41.6Z" fill="#AFC8DE"/>
<path d="M80.5995 41.6L63.4795 37.2L63.2695 36.14" fill="#0F3A5D"/>
<path d="M62.9902 40.14L63.0202 40.18L63.7302 42.83L80.5602 41.61L62.9902 40.14Z" fill="#0F3A5D"/>
<path d="M59.7305 38.58L62.1705 36.6L80.4905 41.58L64.7205 41.11L59.7305 38.58Z" fill="#AFC8DE"/>
<path d="M21.2197 72.5C21.7861 72.2994 22.3374 72.0588 22.8697 71.78C22.9294 71.7495 22.9987 71.744 23.0625 71.7646C23.1262 71.7852 23.1792 71.8303 23.2097 71.89C23.2402 71.9497 23.2457 72.019 23.2251 72.0828C23.2045 72.1465 23.1594 72.1995 23.0997 72.23C22.5453 72.5114 21.9743 72.7585 21.3897 72.97L20.7497 73.17C20.7157 73.1875 20.678 73.1967 20.6397 73.1967C20.6014 73.1967 20.5637 73.1875 20.5297 73.17C20.4886 73.1355 20.4575 73.0906 20.4397 73.04C20.4305 73.0085 20.4276 72.9755 20.4312 72.9428C20.4347 72.9102 20.4447 72.8786 20.4605 72.8498C20.4763 72.821 20.4976 72.7956 20.5232 72.7751C20.5488 72.7545 20.5782 72.7392 20.6097 72.73L21.2197 72.5Z" fill="#5C81A2"/>
<path d="M54.7206 36.73C55.5006 36.83 56.3106 36.96 57.1906 37.12C57.2555 37.1322 57.3129 37.1695 57.3504 37.2238C57.3878 37.2781 57.4023 37.3451 57.3906 37.41C57.3859 37.4428 57.3745 37.4742 57.357 37.5023C57.3396 37.5304 57.3166 37.5546 57.2893 37.5734C57.2621 37.5922 57.2313 37.6051 57.1988 37.6114C57.1663 37.6177 57.1329 37.6172 57.1006 37.61C56.2306 37.45 55.4306 37.32 54.6606 37.22C54.6211 37.2287 54.5802 37.2287 54.5406 37.22C54.5062 37.1934 54.4796 37.158 54.4638 37.1175C54.4479 37.077 54.4434 37.0329 54.4506 36.99C54.4473 36.9542 54.4521 36.918 54.4647 36.8843C54.4772 36.8506 54.4972 36.8201 54.5231 36.7951C54.5491 36.7702 54.5803 36.7513 54.6145 36.7401C54.6486 36.7288 54.6849 36.7254 54.7206 36.73Z" fill="#5C81A2"/>
<path d="M50.5807 36.92C50.5394 36.8891 50.5086 36.846 50.4927 36.7969C50.4767 36.7478 50.4764 36.6949 50.4918 36.6455C50.5071 36.5962 50.5374 36.5528 50.5784 36.5214C50.6194 36.49 50.6691 36.472 50.7207 36.47C51.5207 36.47 52.3607 36.47 53.2307 36.57C53.297 36.57 53.3606 36.5963 53.4075 36.6432C53.4544 36.6901 53.4807 36.7537 53.4807 36.82C53.4807 36.8863 53.4544 36.9499 53.4075 36.9968C53.3606 37.0437 53.297 37.07 53.2307 37.07C52.3807 37 51.5507 36.96 50.7707 36.97C50.7373 36.9749 50.7033 36.973 50.6706 36.9644C50.638 36.9559 50.6074 36.9407 50.5807 36.92Z" fill="#5C81A2"/>
<path d="M25.9997 69.5C26.0221 69.4761 26.0492 69.457 26.0793 69.444C26.1094 69.431 26.1419 69.4243 26.1747 69.4243C26.2075 69.4243 26.2399 69.431 26.27 69.444C26.3001 69.457 26.3272 69.4761 26.3497 69.5C26.3739 69.5233 26.3931 69.5513 26.4063 69.5822C26.4194 69.6131 26.4262 69.6464 26.4262 69.68C26.4262 69.7136 26.4194 69.7469 26.4063 69.7778C26.3931 69.8087 26.3739 69.8367 26.3497 69.86C25.7317 70.4485 25.0624 70.9806 24.3497 71.45C24.3068 71.4788 24.2563 71.4942 24.2047 71.4942C24.153 71.4942 24.1026 71.4788 24.0597 71.45C24.0349 71.4354 24.0143 71.4148 23.9997 71.39C23.9812 71.3633 23.9684 71.3332 23.9619 71.3014C23.9554 71.2696 23.9554 71.2368 23.962 71.205C23.9685 71.1733 23.9814 71.1431 23.9999 71.1165C24.0185 71.0898 24.0422 71.0672 24.0697 71.05C24.76 70.5947 25.4061 70.0758 25.9997 69.5Z" fill="#5C81A2"/>
<path d="M27.0504 68.77C27.0265 68.7475 27.0074 68.7204 26.9944 68.6903C26.9813 68.6602 26.9746 68.6278 26.9746 68.595C26.9746 68.5622 26.9813 68.5297 26.9944 68.4996C27.0074 68.4695 27.0265 68.4424 27.0504 68.42C27.1904 68.25 27.3304 68.08 27.4604 67.9C27.8276 67.4235 28.1618 66.9223 28.4604 66.4C28.4751 66.3714 28.4954 66.346 28.5201 66.3254C28.5448 66.3048 28.5734 66.2894 28.6042 66.2801C28.635 66.2708 28.6673 66.2677 28.6993 66.2711C28.7313 66.2746 28.7623 66.2844 28.7904 66.3C28.8193 66.3157 28.8449 66.337 28.8656 66.3626C28.8863 66.3882 28.9017 66.4176 28.911 66.4492C28.9203 66.4808 28.9233 66.5139 28.9197 66.5467C28.9162 66.5794 28.9062 66.6111 28.8904 66.64C28.5973 67.1816 28.263 67.6998 27.8904 68.19L27.4704 68.74C27.4241 68.7829 27.3634 68.8067 27.3004 68.8067C27.2373 68.8067 27.1766 68.7829 27.1304 68.74L27.0504 68.77Z" fill="#5C81A2"/>
<path d="M29.1407 65.41H29.0907C29.0463 65.3755 29.0138 65.3281 28.9977 65.2744C28.9816 65.2206 28.9826 65.1631 29.0007 65.11C29.3135 64.354 29.5676 63.575 29.7607 62.78C29.7772 62.7167 29.8178 62.6624 29.8739 62.6288C29.93 62.5951 29.997 62.5848 30.0607 62.6C30.0927 62.6069 30.123 62.6204 30.1496 62.6395C30.1762 62.6586 30.1987 62.6829 30.2156 62.711C30.2324 62.7392 30.2434 62.7704 30.2477 62.8029C30.252 62.8354 30.2496 62.8685 30.2407 62.9C30.0424 63.7188 29.7816 64.5211 29.4607 65.3C29.4327 65.3569 29.3833 65.4004 29.3233 65.421C29.2634 65.4416 29.1977 65.4376 29.1407 65.41Z" fill="#5C81A2"/>
<path d="M35.7309 44.19L35.1309 44.96C34.8409 45.35 34.5609 45.76 34.3009 46.18C34.2836 46.2075 34.261 46.2312 34.2344 46.2497C34.2077 46.2683 34.1776 46.2812 34.1458 46.2877C34.1141 46.2943 34.0813 46.2943 34.0495 46.2878C34.0177 46.2813 33.9875 46.2685 33.9609 46.25C33.9117 46.2122 33.8784 46.1575 33.8673 46.0966C33.8562 46.0356 33.8682 45.9727 33.9009 45.92C34.1609 45.5 34.4509 45.08 34.7509 44.67C35.0509 44.26 35.1609 44.14 35.3709 43.88C35.3925 43.8547 35.4193 43.8344 35.4495 43.8204C35.4797 43.8065 35.5126 43.7993 35.5459 43.7993C35.5791 43.7993 35.612 43.8065 35.6422 43.8204C35.6724 43.8344 35.6993 43.8547 35.7209 43.88C35.7589 43.9221 35.7808 43.9764 35.7827 44.0332C35.7845 44.0899 35.7661 44.1455 35.7309 44.19Z" fill="#5C81A2"/>
<path d="M33.5704 47.45C33.1857 48.1761 32.8516 48.9279 32.5704 49.7C32.5457 49.7607 32.4991 49.8099 32.4398 49.8377C32.3804 49.8655 32.3128 49.8699 32.2504 49.85H32.1904C32.1464 49.8199 32.1137 49.7761 32.0975 49.7254C32.0812 49.6747 32.0822 49.6201 32.1004 49.57C32.3777 48.777 32.7119 48.0049 33.1004 47.26C33.1151 47.2314 33.1354 47.2061 33.1601 47.1855C33.1848 47.1649 33.2134 47.1494 33.2442 47.1401C33.275 47.1308 33.3073 47.1277 33.3393 47.1312C33.3713 47.1346 33.4023 47.1444 33.4304 47.16C33.4841 47.1841 33.5277 47.2264 33.5533 47.2795C33.5789 47.3325 33.5849 47.3929 33.5704 47.45Z" fill="#5C81A2"/>
<path d="M38.5101 41.41C37.877 41.9299 37.2759 42.4876 36.7101 43.08C36.6635 43.1182 36.6052 43.1391 36.5451 43.1391C36.4849 43.1391 36.4266 43.1182 36.3801 43.08C36.3343 43.0333 36.3086 42.9704 36.3086 42.905C36.3086 42.8396 36.3343 42.7767 36.3801 42.73C36.9513 42.1207 37.5556 41.5431 38.1901 41C38.2385 40.9535 38.303 40.9276 38.3701 40.9276C38.4371 40.9276 38.5016 40.9535 38.5501 41C38.5811 41.0261 38.6053 41.0594 38.6206 41.0969C38.6359 41.1345 38.6418 41.1752 38.6379 41.2155C38.6339 41.2559 38.6202 41.2947 38.598 41.3285C38.5757 41.3624 38.5455 41.3904 38.5101 41.41Z" fill="#5C81A2"/>
<path d="M43.1008 38.58C43.0636 38.6041 43.0201 38.6169 42.9758 38.6169C42.9314 38.6169 42.888 38.6041 42.8508 38.58C42.8146 38.5601 42.7863 38.5283 42.7708 38.49C42.7434 38.4303 42.7406 38.3622 42.7631 38.3004C42.7856 38.2386 42.8314 38.1882 42.8908 38.16C43.661 37.8186 44.4527 37.528 45.2608 37.29C45.2923 37.2794 45.3256 37.2754 45.3587 37.2783C45.3918 37.2812 45.424 37.2909 45.4531 37.3069C45.4823 37.3229 45.5078 37.3448 45.528 37.3711C45.5483 37.3975 45.5628 37.4277 45.5708 37.46C45.5894 37.5237 45.5819 37.5921 45.55 37.6502C45.5181 37.7084 45.4644 37.7514 45.4008 37.77C44.6177 37.991 43.8495 38.2615 43.1008 38.58Z" fill="#5C81A2"/>
<path d="M30.839 57.66C30.7999 57.6717 30.7582 57.6717 30.719 57.66C30.6836 57.6362 30.6555 57.6031 30.6378 57.5642C30.6201 57.5254 30.6136 57.4824 30.619 57.44V57.12C30.699 56.4 30.779 55.68 30.879 54.96C30.8959 54.9023 30.933 54.8525 30.9836 54.8199C31.0342 54.7873 31.0948 54.774 31.1544 54.7825C31.214 54.7911 31.2685 54.8208 31.3079 54.8662C31.3473 54.9117 31.369 54.9698 31.369 55.03C31.279 55.74 31.199 56.46 31.109 57.18V57.49C31.0909 57.5454 31.054 57.5927 31.0047 57.6237C30.9554 57.6547 30.8968 57.6676 30.839 57.66Z" fill="#5C81A2"/>
<path d="M39.6803 40.52C39.6374 40.5488 39.5869 40.5642 39.5353 40.5642C39.4836 40.5642 39.4332 40.5488 39.3903 40.52V40.46C39.3711 40.4331 39.3574 40.4027 39.3501 40.3706C39.3427 40.3384 39.3418 40.305 39.3473 40.2725C39.3529 40.24 39.3649 40.2089 39.3826 40.181C39.4002 40.1531 39.4232 40.129 39.4503 40.11C40.1345 39.6245 40.8493 39.1835 41.5903 38.79C41.6184 38.7744 41.6494 38.7646 41.6814 38.7612C41.7133 38.7577 41.7457 38.7608 41.7765 38.7701C41.8073 38.7794 41.8358 38.7949 41.8606 38.8155C41.8853 38.8361 41.9056 38.8614 41.9203 38.89C41.9361 38.9189 41.9461 38.9506 41.9496 38.9833C41.9532 39.0161 41.9502 39.0492 41.9409 39.0808C41.9316 39.1124 41.9162 39.1418 41.8955 39.1674C41.8748 39.193 41.8492 39.2143 41.8203 39.23C41.0815 39.6164 40.3669 40.0471 39.6803 40.52Z" fill="#5C81A2"/>
<path d="M30.7299 58.65C30.7946 58.6599 30.8528 58.6947 30.892 58.7471C30.9313 58.7994 30.9485 58.8651 30.9399 58.93C30.8199 59.93 30.6999 60.68 30.5599 61.4C30.5552 61.4327 30.5437 61.4641 30.5263 61.4922C30.5089 61.5204 30.4858 61.5446 30.4586 61.5633C30.4313 61.5821 30.4005 61.5951 30.3681 61.6014C30.3356 61.6077 30.3022 61.6072 30.2699 61.6H30.1699C30.1342 61.5695 30.1065 61.5308 30.0891 61.4873C30.0717 61.4437 30.0651 61.3966 30.0699 61.35C30.2099 60.64 30.3299 59.86 30.4499 58.91C30.4482 58.8736 30.4544 58.8373 30.4681 58.8037C30.4819 58.77 30.5028 58.7397 30.5295 58.7149C30.5561 58.6902 30.5879 58.6715 30.6225 58.6603C30.6571 58.6491 30.6938 58.6456 30.7299 58.65Z" fill="#5C81A2"/>
<path d="M19.1904 73.05C19.2539 73.038 19.3196 73.0511 19.3737 73.0865C19.4277 73.122 19.466 73.177 19.4804 73.24C19.4923 73.3061 19.4781 73.3743 19.4408 73.4303C19.4036 73.4862 19.346 73.5255 19.2804 73.54C18.458 73.6991 17.6263 73.806 16.7904 73.86C16.7348 73.8758 16.676 73.8758 16.6204 73.86C16.5919 73.8388 16.5682 73.8118 16.551 73.7808C16.5338 73.7497 16.5233 73.7154 16.5204 73.68C16.5177 73.6471 16.5214 73.6141 16.5315 73.5827C16.5416 73.5513 16.5578 73.5222 16.5792 73.4971C16.6006 73.472 16.6267 73.4514 16.6561 73.4365C16.6855 73.4215 16.7175 73.4125 16.7504 73.41C17.5706 73.3421 18.3856 73.2218 19.1904 73.05Z" fill="#5C81A2"/>
<path d="M31.9998 50.8C32.0309 50.8081 32.0601 50.8223 32.0856 50.8419C32.1112 50.8615 32.1325 50.886 32.1483 50.914C32.1642 50.942 32.1743 50.9729 32.178 51.0048C32.1816 51.0368 32.1789 51.0691 32.1698 51.1C31.9798 51.83 31.8098 52.62 31.6598 53.51C31.6551 53.5427 31.6436 53.5742 31.6262 53.6023C31.6088 53.6304 31.5857 53.6546 31.5585 53.6734C31.5313 53.6922 31.5004 53.7051 31.468 53.7114C31.4355 53.7177 31.4021 53.7172 31.3698 53.71C31.3371 53.7195 31.3025 53.7195 31.2698 53.71C31.2318 53.6838 31.2022 53.6473 31.1845 53.6047C31.1667 53.5622 31.1616 53.5154 31.1698 53.47C31.3198 52.56 31.4898 51.76 31.6898 51.01C31.6943 50.9749 31.7063 50.9412 31.7249 50.911C31.7434 50.8809 31.7682 50.855 31.7975 50.8352C31.8268 50.8153 31.86 50.8019 31.8949 50.7959C31.9297 50.7898 31.9655 50.7912 31.9998 50.8Z" fill="#5C81A2"/>
<path d="M48.3397 36.62L49.2197 36.53C49.2844 36.5272 49.3476 36.5496 49.3961 36.5925C49.4446 36.6354 49.4746 36.6954 49.4797 36.76C49.4824 36.7928 49.4787 36.8259 49.4686 36.8573C49.4585 36.8887 49.4423 36.9177 49.4209 36.9428C49.3995 36.9679 49.3734 36.9886 49.344 37.0035C49.3146 37.0185 49.2826 37.0275 49.2497 37.03L48.3997 37.11C47.8797 37.18 47.3997 37.26 46.8297 37.37C46.7975 37.3774 46.7642 37.3783 46.7317 37.3727C46.6991 37.3671 46.668 37.3552 46.6401 37.3375C46.6122 37.3198 46.5881 37.2968 46.5692 37.2698C46.5502 37.2428 46.5368 37.2122 46.5297 37.18C46.5177 37.1165 46.5309 37.0508 46.5663 36.9967C46.6017 36.9426 46.6567 36.9044 46.7197 36.89C47.2545 36.7709 47.7952 36.6807 48.3397 36.62Z" fill="#5C81A2"/>
<path d="M197.5 20.87L200.04 23.57L196.42 23.79L183.77 23.51L197.5 20.87Z" fill="#C9673E"/>
<path d="M200.04 23.57L194.18 24.89L195.38 23.76L200.04 23.57Z" fill="#9C4B2A"/>
<path d="M197.5 20.87L197.61 17.49L183.77 23.51L197.5 20.87Z" fill="#FFB99C"/>
<path d="M183.77 23.51L196.42 23.79L195.99 28.75L183.77 23.51Z" fill="#FFB99C"/>
<path d="M199.691 27.14L199.761 27.05C199.791 26.9824 199.794 26.9054 199.767 26.8361C199.741 26.7667 199.688 26.7106 199.621 26.68C199.179 26.4695 198.717 26.3053 198.241 26.19C198.204 26.177 198.165 26.1718 198.127 26.1746C198.088 26.1775 198.05 26.1883 198.016 26.2065C197.982 26.2247 197.951 26.2499 197.927 26.2804C197.903 26.3108 197.886 26.346 197.876 26.3836C197.866 26.4212 197.865 26.4604 197.871 26.4987C197.877 26.5371 197.891 26.5737 197.912 26.6063C197.933 26.6388 197.961 26.6667 197.994 26.688C198.026 26.7093 198.063 26.7236 198.101 26.73C198.541 26.8428 198.97 26.9968 199.381 27.19C199.432 27.2123 199.488 27.2195 199.543 27.2106C199.598 27.2017 199.649 27.1772 199.691 27.14Z" fill="#FFBEA2"/>
<path d="M204.091 58C204.064 57.9739 204.043 57.9428 204.028 57.9085C204.014 57.8741 204.007 57.8373 204.007 57.8C204.007 57.7628 204.014 57.7259 204.028 57.6915C204.043 57.6572 204.064 57.6261 204.091 57.6C204.712 56.924 205.213 56.1459 205.571 55.3C205.601 55.2324 205.657 55.1791 205.726 55.1512C205.795 55.1233 205.872 55.1229 205.941 55.15C205.975 55.1642 206.006 55.1851 206.032 55.2115C206.059 55.2378 206.079 55.2691 206.093 55.3036C206.107 55.338 206.114 55.3749 206.114 55.412C206.113 55.4492 206.105 55.4859 206.091 55.52C205.709 56.4298 205.171 57.2657 204.501 57.99C204.448 58.0457 204.375 58.078 204.298 58.0799C204.221 58.0818 204.146 58.0531 204.091 58ZM206.291 54.07C206.219 54.0511 206.157 54.0052 206.118 53.942C206.079 53.8787 206.065 53.8028 206.081 53.73C206.3 52.8307 206.391 51.9048 206.351 50.98C206.348 50.9424 206.353 50.9047 206.365 50.869C206.377 50.8334 206.397 50.8006 206.422 50.7725C206.447 50.7445 206.478 50.7219 206.512 50.706C206.546 50.6901 206.583 50.6813 206.621 50.68C206.694 50.6798 206.765 50.7076 206.819 50.7578C206.873 50.8079 206.906 50.8766 206.911 50.95C206.953 51.9283 206.859 52.9077 206.631 53.86C206.618 53.9133 206.59 53.9618 206.551 54C206.51 54.0195 206.466 54.0296 206.421 54.0296C206.376 54.0296 206.331 54.0195 206.291 54V54.07ZM206.471 49.55C206.435 49.5573 206.397 49.5574 206.361 49.5503C206.325 49.5431 206.291 49.5289 206.26 49.5085C206.229 49.4881 206.203 49.4618 206.183 49.4312C206.162 49.4005 206.148 49.3661 206.141 49.33V49.21C205.938 48.3456 205.646 47.5045 205.271 46.7C205.254 46.6674 205.244 46.6316 205.241 46.595C205.239 46.5584 205.244 46.5217 205.256 46.487C205.268 46.4524 205.287 46.4206 205.312 46.3936C205.337 46.3666 205.367 46.345 205.401 46.33C205.434 46.313 205.47 46.3029 205.508 46.3003C205.545 46.2977 205.583 46.3026 205.618 46.3147C205.654 46.3268 205.686 46.3459 205.714 46.3709C205.742 46.3958 205.765 46.4261 205.781 46.46C206.172 47.3 206.477 48.1779 206.691 49.08V49.21C206.7 49.2581 206.698 49.3079 206.684 49.355C206.67 49.4021 206.645 49.445 206.611 49.48C206.566 49.4974 206.518 49.5042 206.471 49.5V49.55ZM204.841 45.32C204.809 45.3397 204.773 45.3527 204.736 45.3583C204.699 45.364 204.661 45.362 204.624 45.3527C204.588 45.3434 204.554 45.3268 204.524 45.304C204.494 45.2812 204.469 45.2527 204.451 45.22C203.963 44.4208 203.422 43.6557 202.831 42.93C202.807 42.9011 202.789 42.8679 202.779 42.8321C202.768 42.7964 202.764 42.7589 202.768 42.7217C202.772 42.6846 202.783 42.6485 202.8 42.6156C202.818 42.5827 202.842 42.5536 202.871 42.53C202.9 42.5064 202.933 42.4887 202.969 42.4779C203.004 42.4671 203.042 42.4634 203.079 42.4672C203.116 42.4709 203.152 42.4819 203.185 42.4995C203.218 42.5172 203.247 42.5411 203.271 42.57C203.876 43.3191 204.43 44.1075 204.931 44.93C204.966 44.9846 204.98 45.05 204.971 45.1143C204.962 45.1786 204.93 45.2374 204.881 45.28C204.881 45.28 204.851 45.26 204.841 45.27V45.32ZM202.121 41.67C202.067 41.7214 201.995 41.75 201.921 41.75C201.846 41.75 201.775 41.7214 201.721 41.67L201.561 41.49C201.31 41.6903 201.046 41.874 200.771 42.04C200.707 42.078 200.63 42.0898 200.558 42.0731C200.485 42.0563 200.422 42.0122 200.381 41.95C200.361 41.918 200.348 41.8824 200.342 41.8452C200.337 41.8081 200.339 41.7702 200.348 41.7338C200.357 41.6974 200.374 41.6633 200.397 41.6334C200.419 41.6036 200.448 41.5786 200.481 41.56C200.721 41.4067 200.951 41.2467 201.171 41.08C200.741 40.62 200.261 40.15 199.741 39.65C199.711 39.6252 199.688 39.5946 199.671 39.5601C199.654 39.5257 199.644 39.4881 199.642 39.4497C199.64 39.4114 199.646 39.373 199.66 39.3371C199.674 39.3012 199.695 39.2685 199.721 39.241C199.748 39.2135 199.78 39.1918 199.816 39.1773C199.851 39.1628 199.89 39.1557 199.928 39.1566C199.966 39.1574 200.004 39.1661 200.039 39.1822C200.074 39.1983 200.105 39.2214 200.131 39.25C200.671 39.76 201.131 40.25 201.611 40.72C201.952 40.4288 202.269 40.1112 202.561 39.77C202.615 39.7187 202.686 39.69 202.761 39.69C202.835 39.69 202.907 39.7187 202.961 39.77C203.012 39.8239 203.041 39.8955 203.041 39.97C203.041 40.0445 203.012 40.1161 202.961 40.17C202.656 40.5305 202.321 40.865 201.961 41.17L202.101 41.33C202.127 41.3552 202.148 41.3855 202.162 41.419C202.177 41.4525 202.184 41.4886 202.184 41.525C202.184 41.5614 202.177 41.5975 202.162 41.631C202.148 41.6645 202.127 41.6948 202.101 41.72L202.121 41.67ZM203.601 38.77C203.535 38.7321 203.486 38.6709 203.464 38.5986C203.442 38.5262 203.448 38.4482 203.481 38.38C203.75 37.8836 203.958 37.3564 204.101 36.81C204.181 36.4806 204.241 36.1466 204.281 35.81C204.291 35.7366 204.328 35.6699 204.386 35.6234C204.444 35.5769 204.517 35.5542 204.591 35.56C204.628 35.5637 204.663 35.5748 204.696 35.5924C204.728 35.61 204.757 35.634 204.78 35.6628C204.804 35.6916 204.821 35.7248 204.831 35.7604C204.842 35.7959 204.845 35.8332 204.841 35.87C204.8 36.2443 204.733 36.6152 204.641 36.98C204.487 37.5703 204.266 38.1408 203.981 38.68C203.966 38.7077 203.946 38.7317 203.921 38.75C203.87 38.7771 203.813 38.7887 203.756 38.7834C203.699 38.7781 203.645 38.756 203.601 38.72V38.77ZM199.201 42.77C198.284 43.1287 197.314 43.3315 196.331 43.37C196.294 43.3713 196.257 43.3654 196.223 43.3526C196.188 43.3397 196.157 43.3202 196.13 43.2951C196.103 43.27 196.081 43.2399 196.066 43.2064C196.05 43.1729 196.042 43.1368 196.041 43.1C196.038 43.0629 196.043 43.0256 196.055 42.9905C196.068 42.9554 196.087 42.9233 196.112 42.896C196.138 42.8688 196.168 42.8471 196.203 42.8323C196.237 42.8175 196.273 42.8099 196.311 42.81C197.228 42.7703 198.134 42.5811 198.991 42.25C199.025 42.2355 199.063 42.2282 199.1 42.2284C199.138 42.2286 199.175 42.2365 199.21 42.2514C199.244 42.2663 199.275 42.2881 199.301 42.3153C199.327 42.3426 199.347 42.3748 199.361 42.41C199.379 42.463 199.382 42.5202 199.37 42.575C199.358 42.6298 199.33 42.6801 199.291 42.72L199.201 42.77ZM204.591 34.36C204.554 34.3642 204.517 34.361 204.481 34.3506C204.445 34.3403 204.412 34.323 204.383 34.2997C204.355 34.2765 204.331 34.2477 204.313 34.2152C204.295 34.1826 204.284 34.1469 204.281 34.11C204.176 33.1918 203.923 32.2967 203.531 31.46C203.5 31.3924 203.498 31.3154 203.524 31.2461C203.55 31.1767 203.603 31.1206 203.671 31.09C203.74 31.0592 203.818 31.0565 203.889 31.0827C203.96 31.1088 204.018 31.1617 204.051 31.23C204.461 32.1189 204.728 33.0674 204.841 34.04C204.845 34.0842 204.839 34.1289 204.824 34.1705C204.808 34.2121 204.783 34.2496 204.751 34.28C204.704 34.3151 204.649 34.3359 204.591 34.34V34.36ZM194.591 43.23C194.337 43.1842 194.087 43.1241 193.841 43.05C193.135 42.8392 192.474 42.5002 191.891 42.05C191.833 42.0046 191.795 41.9382 191.786 41.8653C191.776 41.7923 191.796 41.7185 191.841 41.66C191.896 41.6108 191.967 41.5836 192.041 41.5836C192.114 41.5836 192.186 41.6108 192.241 41.66C192.768 42.0751 193.368 42.3872 194.011 42.58C194.233 42.6519 194.46 42.7087 194.691 42.75C194.728 42.756 194.763 42.7694 194.795 42.7894C194.827 42.8094 194.854 42.8355 194.876 42.8663C194.897 42.8971 194.912 42.9319 194.92 42.9686C194.928 43.0053 194.928 43.0432 194.921 43.08C194.911 43.1396 194.878 43.1931 194.831 43.23C194.789 43.2499 194.744 43.2585 194.698 43.255C194.652 43.2514 194.608 43.2359 194.571 43.21L194.591 43.23ZM198.511 38.46C197.827 37.8352 197.064 37.3039 196.241 36.88C196.207 36.864 196.177 36.8414 196.152 36.8135C196.127 36.7855 196.107 36.7529 196.095 36.7175C196.083 36.682 196.078 36.6445 196.081 36.6072C196.084 36.5698 196.094 36.5334 196.111 36.5C196.126 36.4665 196.147 36.4364 196.174 36.4115C196.201 36.3867 196.233 36.3676 196.268 36.3554C196.302 36.3432 196.339 36.3382 196.376 36.3408C196.412 36.3433 196.448 36.3532 196.481 36.37C197.35 36.8153 198.157 37.3735 198.881 38.03C198.907 38.0561 198.928 38.0872 198.943 38.1215C198.957 38.1559 198.965 38.1928 198.965 38.23C198.965 38.2673 198.957 38.3041 198.943 38.3385C198.928 38.3728 198.907 38.4039 198.881 38.43C198.829 38.4799 198.76 38.5085 198.688 38.5104C198.615 38.5122 198.545 38.4871 198.491 38.44L198.511 38.46ZM203.121 30.1C203.09 30.121 203.056 30.1359 203.02 30.1438C202.985 30.1516 202.947 30.1524 202.911 30.1459C202.875 30.1394 202.84 30.1258 202.809 30.1059C202.778 30.086 202.752 30.0602 202.731 30.03C202.487 29.6786 202.22 29.3445 201.931 29.03C201.587 28.6682 201.216 28.3338 200.821 28.03C200.788 28.0098 200.759 27.9829 200.737 27.9511C200.715 27.9193 200.7 27.8833 200.692 27.8453C200.685 27.8073 200.685 27.7681 200.693 27.7303C200.702 27.6925 200.718 27.6568 200.741 27.6256C200.764 27.5943 200.793 27.5682 200.827 27.5488C200.86 27.5294 200.897 27.5171 200.936 27.5129C200.974 27.5086 201.013 27.5123 201.05 27.5239C201.087 27.5354 201.121 27.5546 201.151 27.58C201.58 27.8991 201.978 28.2573 202.341 28.65C202.647 28.9629 202.931 29.2971 203.191 29.65C203.234 29.702 203.257 29.7675 203.257 29.835C203.257 29.9026 203.234 29.968 203.191 30.02L203.121 30.1ZM191.121 40.79C191.057 40.8266 190.981 40.8366 190.91 40.8179C190.839 40.7991 190.778 40.7532 190.741 40.69C190.331 40.0275 190.184 39.2352 190.331 38.47C190.383 38.2003 190.478 37.9405 190.611 37.7C190.628 37.667 190.651 37.6377 190.679 37.6138C190.707 37.5898 190.74 37.5718 190.776 37.5606C190.811 37.5494 190.848 37.5454 190.885 37.5487C190.922 37.5521 190.958 37.5627 190.991 37.58C191.024 37.5967 191.053 37.6201 191.077 37.6487C191.101 37.6772 191.118 37.7104 191.128 37.746C191.139 37.7817 191.142 37.8191 191.137 37.8559C191.132 37.8927 191.12 37.9282 191.101 37.96C191.001 38.1562 190.927 38.3646 190.881 38.58C190.762 39.2111 190.884 39.8636 191.221 40.41C191.255 40.4631 191.269 40.5269 191.26 40.5894C191.251 40.652 191.219 40.7091 191.171 40.75C191.156 40.7661 191.136 40.7767 191.114 40.7804C191.092 40.784 191.07 40.7803 191.051 40.77L191.121 40.79ZM194.751 36.38C193.867 36.2575 192.967 36.4298 192.191 36.87C192.159 36.889 192.124 36.9017 192.088 36.9072C192.051 36.9128 192.014 36.9111 191.978 36.9022C191.943 36.8934 191.909 36.8776 191.879 36.8558C191.85 36.834 191.825 36.8065 191.806 36.775C191.787 36.7435 191.774 36.7085 191.768 36.6721C191.763 36.6357 191.765 36.5986 191.773 36.5628C191.782 36.5271 191.798 36.4934 191.82 36.4638C191.842 36.4341 191.869 36.409 191.901 36.39C192.785 35.8744 193.818 35.6735 194.831 35.82C194.905 35.8346 194.971 35.8767 195.015 35.9379C195.06 35.9991 195.08 36.0749 195.071 36.15C195.061 36.2125 195.029 36.2694 194.981 36.31C194.944 36.3517 194.894 36.3795 194.84 36.3886C194.785 36.3977 194.729 36.3876 194.681 36.36L194.751 36.38Z" fill="#FFBEA2"/>
<path d="M203.14 59.05C203.189 59.0074 203.221 58.9486 203.23 58.8843C203.24 58.8201 203.225 58.7546 203.19 58.7C203.149 58.6378 203.086 58.5937 203.013 58.5769C202.941 58.5602 202.864 58.572 202.8 58.61C202.42 58.8503 202.014 59.0481 201.59 59.2C201.555 59.2099 201.522 59.2273 201.494 59.2508C201.465 59.2744 201.443 59.3037 201.427 59.3368C201.41 59.3699 201.402 59.406 201.401 59.4427C201.399 59.4795 201.406 59.516 201.42 59.55C201.432 59.5858 201.45 59.619 201.474 59.6476C201.499 59.6762 201.528 59.6995 201.562 59.7163C201.596 59.7331 201.632 59.743 201.67 59.7453C201.707 59.7477 201.745 59.7425 201.78 59.73C202.241 59.5615 202.683 59.3471 203.1 59.09C203.1 59.09 203.13 59.07 203.14 59.05Z" fill="#FFBEA2"/>
<defs>
<linearGradient id="paint0_linear" x1="136.31" y1="67.8194" x2="153.06" y2="64.2315" gradientUnits="userSpaceOnUse">
<stop stop-color="#DFEFEA"/>
<stop offset="1" stop-color="#BFE3EE"/>
</linearGradient>
<linearGradient id="paint1_linear" x1="213.665" y1="784.484" x2="396.121" y2="761.176" gradientUnits="userSpaceOnUse">
<stop stop-color="#DFEFEA"/>
<stop offset="1" stop-color="#BFE3EE"/>
</linearGradient>
</defs>
</svg>
