<svg width="230" height="150" viewBox="0 0 230 150" fill="none" xmlns="http://www.w3.org/2000/svg">
<path d="M188.1 42C187.211 41.3882 186.177 41.0193 185.1 40.93C184.954 39.6311 184.617 38.3608 184.1 37.16C185.21 36.41 186.31 35.51 186.3 34.85C186.3 33.5 183.8 30.85 183.25 30.66C182.202 30.8573 181.221 31.3185 180.4 32C179.408 31.1797 178.304 30.5062 177.12 30C177.38 28.69 177.51 27.27 177.04 26.8C176.04 25.86 172.42 25.73 171.92 26C171.302 26.8865 170.933 27.9224 170.85 29C169.531 29.0913 168.233 29.3812 167 29.86C166.27 28.79 165.4 27.77 164.77 27.78C163.42 27.78 160.77 30.28 160.58 30.83C160.746 31.8017 161.159 32.7144 161.78 33.48C160.859 34.5154 160.106 35.6899 159.55 36.96C158.35 36.75 157.16 36.68 156.74 37.11C155.8 38.11 155.67 41.73 155.94 42.23C156.674 42.7726 157.535 43.117 158.44 43.23C158.531 44.6685 158.851 46.0832 159.39 47.42C158.46 48.09 157.66 48.83 157.67 49.42C157.67 50.77 160.17 53.42 160.72 53.61C161.586 53.485 162.405 53.1408 163.1 52.61C164.207 53.5618 165.464 54.3223 166.82 54.86C166.63 55.99 166.59 57.08 167 57.48C168 58.42 171.62 58.55 172.11 58.28C172.66 57.5465 173.005 56.6804 173.11 55.77C174.523 55.6319 175.904 55.2672 177.2 54.69C177.9 55.69 178.69 56.56 179.28 56.55C180.63 56.55 183.28 54.05 183.47 53.55C183.301 52.5716 182.884 51.6527 182.26 50.88C183.102 49.8223 183.776 48.6419 184.26 47.38C185.52 47.62 186.83 47.72 187.26 47.27C188.24 46.11 188.37 42.45 188.1 42ZM170.88 48.2C169.708 48.0175 168.615 47.4913 167.741 46.6879C166.868 45.8845 166.252 44.8399 165.972 43.6864C165.692 42.533 165.76 41.3224 166.169 40.2078C166.577 39.0933 167.307 38.1248 168.265 37.425C169.224 36.7252 170.369 36.3255 171.555 36.2764C172.741 36.2274 173.915 36.5312 174.928 37.1494C175.941 37.7676 176.748 38.6725 177.247 39.7495C177.746 40.8265 177.914 42.0273 177.73 43.2C177.484 44.771 176.625 46.1801 175.34 47.1176C174.056 48.0551 172.452 48.4444 170.88 48.2Z" fill="#FF7C44"/>
<path d="M170.559 50.58C168.892 50.3204 167.339 49.5721 166.097 48.4299C164.855 47.2876 163.98 45.8027 163.582 44.1629C163.184 42.5232 163.282 40.8023 163.862 39.2179C164.442 37.6335 165.48 36.2568 166.843 35.2619C168.205 34.2671 169.833 33.6988 171.519 33.6289C173.204 33.559 174.873 33.9907 176.314 34.8694C177.754 35.748 178.902 37.0341 179.611 38.5651C180.321 40.096 180.56 41.8029 180.299 43.47C179.945 45.7017 178.721 47.7023 176.896 49.0346C175.071 50.3668 172.793 50.9225 170.559 50.58ZM173.179 33.85C171.536 33.5908 169.852 33.825 168.341 34.5231C166.831 35.2212 165.561 36.3518 164.693 37.7717C163.825 39.1916 163.398 40.837 163.466 42.4997C163.534 44.1624 164.093 45.7677 165.074 47.1123C166.054 48.4569 167.412 49.4804 168.974 50.0533C170.536 50.6261 172.234 50.7226 173.851 50.3306C175.468 49.9385 176.933 49.0754 178.059 47.8506C179.186 46.6258 179.924 45.0943 180.179 43.45C180.516 41.2498 179.969 39.0057 178.658 37.2072C177.347 35.4088 175.377 34.2019 173.179 33.85Z" fill="white"/>
<path d="M184.211 41.59L184.051 41.54C184.105 42.4284 184.065 43.3201 183.931 44.2C183.523 46.836 182.264 49.2662 180.346 51.1198C178.428 52.9734 175.956 54.1485 173.308 54.4658C170.659 54.7831 167.98 54.2252 165.678 52.8772C163.377 51.5292 161.579 49.4651 160.561 47H160.391C161.489 49.7266 163.522 51.9731 166.125 53.337C168.729 54.7009 171.733 55.093 174.6 54.4432C177.467 53.7933 180.008 52.1439 181.769 49.7905C183.53 47.4371 184.396 44.5335 184.211 41.6V41.59Z" fill="white"/>
<path d="M166.001 31.61C168.369 30.2995 171.107 29.8173 173.781 30.24C173.834 30.2344 173.888 30.2344 173.941 30.24C173.936 30.1834 173.936 30.1266 173.941 30.07H173.831C171.13 29.646 168.365 30.1314 165.971 31.45C165.986 31.5023 165.996 31.5559 166.001 31.61Z" fill="white"/>
<path d="M159.059 63.22C157.449 70.22 173.909 71.09 180.689 71.22C182.569 71.2388 184.446 71.0612 186.289 70.69C192.019 69.53 204.569 66.47 202.809 62.32C200.539 56.96 193.719 60.7 193.719 60.7C193.719 60.7 194.569 56.7 182.959 53.98C171.349 51.26 171.399 60.21 171.399 60.21C171.399 60.21 161.079 54.45 159.059 63.22Z" fill="#E7F2FB"/>
<path d="M165.999 42H92.809C92.809 42 88.809 37 92.809 33.6C93.7295 32.8608 94.8235 32.3691 95.9873 32.1713C97.1511 31.9735 98.3461 32.0764 99.459 32.47C99.7504 32.5482 100.055 32.5654 100.353 32.5205C100.651 32.4755 100.937 32.3695 101.192 32.2089C101.448 32.0484 101.667 31.8368 101.837 31.5875C102.007 31.3381 102.123 31.0564 102.179 30.76C102.619 28.69 103.989 25.99 107.929 24.4C111.869 22.81 114.259 25.22 115.679 27.69C115.785 27.8745 115.943 28.0243 116.132 28.1211C116.322 28.2179 116.536 28.2576 116.747 28.2354C116.959 28.2131 117.16 28.1299 117.325 27.9958C117.491 27.8618 117.613 27.6826 117.679 27.48C118.909 23.6 123.189 18.48 137.249 18.48C155.149 18.48 153.159 27.99 151.559 31.94C151.495 32.0911 151.473 32.2566 151.496 32.419C151.518 32.5815 151.584 32.7349 151.687 32.863C151.789 32.9911 151.924 33.0891 152.078 33.1466C152.231 33.2042 152.398 33.2192 152.559 33.19C155.319 32.6 160.449 31.83 162.739 33.64C165.999 36.17 165.999 42 165.999 42Z" fill="#E7F2FB"/>
<path d="M49.6797 65C52.2426 65.2972 54.6343 66.4368 56.4797 68.24L56.5797 68.36L56.6597 68.21L56.5797 68.13C54.7224 66.3085 52.3132 65.1549 49.7297 64.85C49.7086 64.8984 49.6918 64.9486 49.6797 65Z" fill="white"/>
<path d="M157.549 55L157.869 55.22L156.649 89.79L173.399 76.18C173.459 76.41 173.509 76.65 173.559 76.88L156.619 90.62L156.269 100.62L155.639 100.32L156.339 80.43L146.189 73.13C146.239 72.9 146.289 72.67 146.349 72.45L156.349 79.66L157.209 55.24L157.539 55H157.549Z" fill="white"/>
<path d="M155.07 91.22C155.07 91.22 168 65 188.59 64.18C201.5 85.32 180.11 103.3 180.11 103.3L155.69 111L155.07 91.22Z" fill="#FFBEA2"/>
<path d="M168.11 74L172.91 86.07L188.26 64.2H188.75L188.9 64.44L180.67 76.14L192.67 74.83C192.67 74.94 192.67 75.06 192.67 75.17V75.47L180.12 76.85L166.47 96.32L187.58 94.69C187.43 94.92 187.29 95.15 187.14 95.37L166 97L156.26 110.85L155.85 110.98V110.34L172.49 86.68L167.64 74.46L168.11 74Z" fill="white"/>
<path d="M160.2 102.88C160.2 102.88 181.69 91.27 194.2 101.88C189.17 135 146.67 131 146.67 131L160.2 102.88Z" fill="#5C81A2"/>
<path d="M194.19 101.9L194.13 102.28L163.89 115.73L179.89 124.02L179.25 124.41L163.15 116.06L151.34 121.32L151.77 120.42L174.77 110.19L179.77 97.43H180.47L175.63 109.83L193.95 101.68L194.23 101.91L194.19 101.9Z" fill="white"/>
<path d="M169.711 43.46H59.6309V133.95H169.711V43.46Z" fill="white"/>
<path d="M168.261 39.25H61.0909C60.4444 39.5833 59.9557 40.1583 59.7309 40.85H59.6309V135.9H169.711V40.85H169.621C169.396 40.1583 168.907 39.5833 168.261 39.25ZM163.001 126.54H66.2209V61.26H163.001V126.54Z" fill="#0F3A5D"/>
<path d="M84.7091 68.4H75.0391V71.45H84.7091V68.4Z" fill="#01888B"/>
<path d="M106.891 68.4H97.2207V71.45H106.891V68.4Z" fill="#9C4B2A"/>
<path d="M130.4 68.4H120.73V71.45H130.4V68.4Z" fill="#9C4B2A"/>
<path d="M153.68 68.4H144.01V71.45H153.68V68.4Z" fill="#9C4B2A"/>
<path d="M85.0194 87.02H75.3594V93.51H85.0194V87.02Z" fill="#FF7C44"/>
<path d="M107.199 87.02H97.5293V93.51H107.199V87.02Z" fill="#FF7C44"/>
<path d="M130.699 87.02H121.039V93.51H130.699V87.02Z" fill="#FF7C44"/>
<path d="M153.99 87.02H144.32V93.51H153.99V87.02Z" fill="#FF7C44"/>
<path d="M84.9903 102.73H75.3203V109.23H84.9903V102.73Z" fill="#FF7C44"/>
<path d="M107.16 102.73H97.4902V109.23H107.16V102.73Z" fill="#FF7C44"/>
<path d="M130.67 102.73H121V109.23H130.67V102.73Z" fill="#FF7C44"/>
<path d="M153.949 102.73H144.279V109.23H153.949V102.73Z" fill="#FF7C44"/>
<path d="M80.7498 18.03L72.0998 13.26L67.6798 12.37L64.3398 12.86L80.7498 18.03Z" fill="#AFC8DE"/>
<path d="M80.7498 18.03L64.5499 13.87L64.3398 12.86" fill="#0F3A5D"/>
<path d="M64.0801 16.65L64.1101 16.68L64.7801 19.2L80.7101 18.03L64.0801 16.65Z" fill="#0F3A5D"/>
<path d="M60.9902 15.17L63.3002 13.3L80.6502 18.01L65.7202 17.56L60.9902 15.17Z" fill="#AFC8DE"/>
<path d="M24.5305 47.28C25.0666 47.0962 25.5881 46.8722 26.0905 46.61C26.1179 46.5946 26.1481 46.5849 26.1793 46.5816C26.2106 46.5783 26.2422 46.5814 26.2721 46.5908C26.3021 46.6002 26.3299 46.6156 26.3537 46.6361C26.3775 46.6566 26.3968 46.6817 26.4105 46.71C26.4258 46.7366 26.4353 46.7661 26.4385 46.7966C26.4417 46.8271 26.4385 46.8579 26.4291 46.8871C26.4197 46.9163 26.4043 46.9432 26.3839 46.9661C26.3634 46.989 26.3384 47.0073 26.3105 47.02C25.7883 47.2954 25.2469 47.5327 24.6905 47.73L24.0905 47.92C24.058 47.9367 24.022 47.9454 23.9855 47.9454C23.949 47.9454 23.913 47.9367 23.8805 47.92C23.8398 47.8913 23.8113 47.8486 23.8005 47.8C23.7814 47.7403 23.7864 47.6755 23.8144 47.6194C23.8424 47.5634 23.8913 47.5205 23.9505 47.5L24.5305 47.28Z" fill="#5C81A2"/>
<path d="M56.2497 13.42C56.9897 13.51 57.7497 13.63 58.5897 13.79C58.6507 13.8006 58.705 13.835 58.7406 13.8857C58.7763 13.9363 58.7903 13.999 58.7797 14.06C58.7691 14.121 58.7347 14.1753 58.6841 14.2109C58.6334 14.2466 58.5707 14.2606 58.5097 14.25C57.6797 14.1 56.9197 13.98 56.1897 13.89L56.0797 13.84C56.0476 13.8137 56.0226 13.7798 56.0069 13.7414C55.9912 13.703 55.9853 13.6613 55.9897 13.62C55.9934 13.5897 56.0031 13.5604 56.0182 13.5339C56.0333 13.5074 56.0536 13.4841 56.0778 13.4655C56.102 13.4469 56.1297 13.4333 56.1592 13.4255C56.1887 13.4177 56.2195 13.4158 56.2497 13.42Z" fill="#5C81A2"/>
<path d="M52.3305 13.6C52.2996 13.5789 52.2744 13.5505 52.2569 13.5174C52.2395 13.4843 52.2304 13.4474 52.2305 13.41C52.2305 13.3463 52.2558 13.2853 52.3008 13.2403C52.3458 13.1953 52.4068 13.17 52.4705 13.17C53.2205 13.17 54.0205 13.17 54.8405 13.27C54.8712 13.2711 54.9014 13.2787 54.929 13.2921C54.9567 13.3056 54.9812 13.3248 55.001 13.3484C55.0208 13.3719 55.0354 13.3994 55.0439 13.4289C55.0525 13.4585 55.0547 13.4895 55.0505 13.52C55.0454 13.5819 55.0165 13.6394 54.9698 13.6804C54.9232 13.7214 54.8625 13.7428 54.8005 13.74C53.9905 13.67 53.2105 13.64 52.4705 13.64C52.4456 13.6434 52.4204 13.6417 52.3962 13.6348C52.3721 13.6279 52.3497 13.616 52.3305 13.6Z" fill="#5C81A2"/>
<path d="M29.0796 44.44C29.1011 44.4179 29.1267 44.4004 29.1551 44.3884C29.1834 44.3764 29.2139 44.3702 29.2446 44.3702C29.2754 44.3702 29.3059 44.3764 29.3342 44.3884C29.3625 44.4004 29.3882 44.4179 29.4096 44.44C29.4518 44.4846 29.4753 44.5436 29.4753 44.605C29.4753 44.6664 29.4518 44.7254 29.4096 44.77C28.8382 45.3304 28.2155 45.836 27.5496 46.28C27.511 46.31 27.4635 46.3263 27.4146 46.3263C27.3657 46.3263 27.3182 46.31 27.2796 46.28L27.2196 46.23C27.1855 46.1768 27.1738 46.1124 27.1869 46.0506C27.2 45.9889 27.2369 45.9347 27.2896 45.9C27.9281 45.4669 28.527 44.9783 29.0796 44.44Z" fill="#5C81A2"/>
<path d="M30.0491 43.76C30.0267 43.7377 30.009 43.7112 29.9969 43.682C29.9848 43.6529 29.9785 43.6216 29.9785 43.59C29.9785 43.5584 29.9848 43.5271 29.9969 43.498C30.009 43.4688 30.0267 43.4423 30.0491 43.42C30.1791 43.26 30.3091 43.1 30.4291 42.93C30.7659 42.479 31.0701 42.0044 31.3391 41.51C31.3499 41.476 31.3681 41.4449 31.3924 41.4189C31.4168 41.3928 31.4466 41.3726 31.4797 41.3595C31.5129 41.3464 31.5485 41.3409 31.5841 41.3433C31.6196 41.3457 31.6542 41.356 31.6852 41.3734C31.7163 41.3908 31.7431 41.415 31.7637 41.4441C31.7843 41.4731 31.7981 41.5064 31.8043 41.5415C31.8104 41.5766 31.8086 41.6127 31.7991 41.647C31.7895 41.6813 31.7725 41.7131 31.7491 41.74C31.4714 42.2519 31.1572 42.7431 30.8091 43.21L30.4091 43.72C30.3662 43.7615 30.3088 43.7848 30.2491 43.7848C30.1894 43.7848 30.132 43.7615 30.0891 43.72L30.0491 43.76Z" fill="#5C81A2"/>
<path d="M32.0001 40.57H31.9501C31.9092 40.5375 31.8794 40.4931 31.8651 40.4429C31.8507 40.3926 31.8525 40.3392 31.8701 40.29C32.1637 39.5753 32.4043 38.84 32.5901 38.09C32.5958 38.0596 32.6078 38.0308 32.6254 38.0054C32.643 37.98 32.6657 37.9585 32.6921 37.9425C32.7185 37.9265 32.748 37.9162 32.7787 37.9123C32.8094 37.9084 32.8405 37.911 32.8701 37.92C32.9304 37.9343 32.9829 37.9715 33.0165 38.0237C33.0501 38.0759 33.0621 38.1391 33.0501 38.2C32.8591 38.9737 32.6118 39.7324 32.3101 40.47C32.2804 40.5226 32.2321 40.5621 32.1746 40.5806C32.1172 40.5992 32.0548 40.5954 32.0001 40.57Z" fill="#5C81A2"/>
<path d="M38.2708 20.48L37.7008 21.21C37.4308 21.58 37.1608 21.97 36.9208 22.36C36.886 22.4124 36.8326 22.4498 36.7715 22.4646C36.7103 22.4795 36.6458 22.4707 36.5908 22.44C36.5424 22.404 36.5094 22.351 36.4983 22.2917C36.4871 22.2324 36.4988 22.1711 36.5308 22.12C36.7808 21.72 37.0508 21.32 37.3308 20.94C37.6108 20.56 37.7208 20.43 37.9208 20.19C37.9415 20.1666 37.9668 20.1478 37.9953 20.135C38.0237 20.1222 38.0546 20.1155 38.0858 20.1155C38.117 20.1155 38.1479 20.1222 38.1763 20.135C38.2048 20.1478 38.2302 20.1666 38.2508 20.19C38.287 20.2286 38.3088 20.2786 38.3124 20.3314C38.3161 20.3843 38.3014 20.4367 38.2708 20.48Z" fill="#5C81A2"/>
<path d="M36.2207 23.57C35.8636 24.2551 35.5529 24.9633 35.2907 25.69C35.2702 25.7492 35.2273 25.7981 35.1712 25.8261C35.1152 25.8541 35.0504 25.8591 34.9907 25.84C34.9713 25.8469 34.9501 25.8469 34.9307 25.84C34.8901 25.8119 34.8602 25.771 34.8457 25.7238C34.8312 25.6767 34.8329 25.626 34.8507 25.58C35.1152 24.8285 35.4326 24.0966 35.8007 23.39C35.8304 23.3349 35.8805 23.2935 35.9403 23.2749C36.0001 23.2562 36.0648 23.2616 36.1207 23.29C36.1678 23.3173 36.2037 23.3604 36.222 23.4117C36.2403 23.4629 36.2398 23.519 36.2207 23.57Z" fill="#5C81A2"/>
<path d="M40.9001 17.85C40.3003 18.3399 39.7325 18.8676 39.2001 19.43C39.1577 19.4686 39.1024 19.4901 39.0451 19.4901C38.9877 19.4901 38.9324 19.4686 38.8901 19.43C38.868 19.4086 38.8505 19.3829 38.8385 19.3546C38.8265 19.3262 38.8203 19.2958 38.8203 19.265C38.8203 19.2342 38.8265 19.2038 38.8385 19.1754C38.8505 19.1471 38.868 19.1214 38.8901 19.1C39.4358 18.5243 40.0169 17.9833 40.6301 17.48C40.6524 17.4576 40.6789 17.4399 40.708 17.4278C40.7372 17.4156 40.7685 17.4094 40.8001 17.4094C40.8317 17.4094 40.8629 17.4156 40.8921 17.4278C40.9213 17.4399 40.9478 17.4576 40.9701 17.48C40.9938 17.5074 41.0111 17.5397 41.0205 17.5747C41.03 17.6097 41.0314 17.6463 41.0247 17.6819C41.0179 17.7175 41.0032 17.7512 40.9816 17.7803C40.9601 17.8094 40.9322 17.8332 40.9001 17.85Z" fill="#5C81A2"/>
<path d="M45.2399 15.17C45.205 15.1902 45.1653 15.2008 45.1249 15.2008C45.0846 15.2008 45.0449 15.1902 45.0099 15.17C44.9779 15.1413 44.9509 15.1075 44.9299 15.07C44.9168 15.0419 44.9094 15.0114 44.9083 14.9803C44.9073 14.9493 44.9125 14.9183 44.9237 14.8894C44.9349 14.8604 44.9519 14.834 44.9736 14.8118C44.9953 14.7895 45.0213 14.7719 45.0499 14.76C45.7785 14.4396 46.5267 14.1657 47.2899 13.94C47.3194 13.9293 47.3509 13.925 47.3821 13.9275C47.4134 13.9299 47.4438 13.939 47.4713 13.9542C47.4987 13.9693 47.5226 13.9902 47.5414 14.0153C47.5601 14.0405 47.5733 14.0694 47.5799 14.1C47.5891 14.1295 47.5921 14.1606 47.589 14.1914C47.5858 14.2221 47.5765 14.2519 47.5616 14.279C47.5466 14.3061 47.5264 14.3299 47.5021 14.3489C47.4777 14.368 47.4498 14.382 47.4199 14.39C46.6791 14.6086 45.9513 14.8691 45.2399 15.17Z" fill="#5C81A2"/>
<path d="M33.6402 33.24L33.5302 33.19C33.4966 33.165 33.4705 33.1313 33.4546 33.0925C33.4388 33.0538 33.4338 33.0114 33.4402 32.97V32.68C33.5202 32 33.5902 31.31 33.6802 30.63C33.6901 30.568 33.7239 30.5123 33.7744 30.4749C33.8249 30.4375 33.888 30.4214 33.9502 30.43C33.9806 30.4337 34.0098 30.4434 34.0364 30.4585C34.0629 30.4736 34.0861 30.4939 34.1047 30.5181C34.1234 30.5423 34.137 30.5699 34.1448 30.5995C34.1526 30.629 34.1545 30.6598 34.1503 30.69C34.0636 31.3567 33.9836 32.0233 33.9102 32.69V32.99C33.912 33.025 33.906 33.06 33.8928 33.0925C33.8795 33.125 33.8593 33.1542 33.8336 33.178C33.8079 33.2019 33.7772 33.2198 33.7438 33.2305C33.7104 33.2412 33.675 33.2444 33.6402 33.24Z" fill="#5C81A2"/>
<path d="M42.0002 17C41.9609 17.0285 41.9137 17.0438 41.8652 17.0438C41.8167 17.0438 41.7694 17.0285 41.7302 17H41.6802C41.6475 16.9473 41.6355 16.8844 41.6466 16.8234C41.6577 16.7625 41.691 16.7078 41.7402 16.67C42.3795 16.2111 43.0475 15.7936 43.7402 15.42C43.796 15.3916 43.8607 15.3862 43.9205 15.4049C43.9803 15.4235 44.0304 15.4649 44.0602 15.52C44.0754 15.5466 44.085 15.5761 44.0882 15.6066C44.0914 15.6371 44.0882 15.6679 44.0788 15.6971C44.0694 15.7263 44.0539 15.7532 44.0335 15.7761C44.0131 15.799 43.9881 15.8173 43.9602 15.83C43.2855 16.183 42.6311 16.5736 42.0002 17Z" fill="#5C81A2"/>
<path d="M33.5303 34.17C33.5923 34.1775 33.6488 34.2089 33.688 34.2574C33.7272 34.306 33.746 34.3679 33.7403 34.43C33.6203 35.35 33.5103 36.1 33.3803 36.78C33.366 36.8404 33.3288 36.8929 33.2766 36.9264C33.2244 36.96 33.1612 36.972 33.1003 36.96C33.0708 36.9676 33.0398 36.9676 33.0103 36.96C32.975 36.9342 32.9478 36.8988 32.9318 36.8581C32.9159 36.8174 32.9119 36.7729 32.9203 36.73C33.0403 36.06 33.1503 35.32 33.2703 34.42C33.2688 34.3859 33.2745 34.3519 33.2872 34.3202C33.2998 34.2884 33.3191 34.2598 33.3437 34.2361C33.3683 34.2125 33.3977 34.1943 33.4299 34.1829C33.4621 34.1715 33.4963 34.1671 33.5303 34.17Z" fill="#5C81A2"/>
<path d="M22.6103 47.8C22.6711 47.7911 22.733 47.8059 22.7832 47.8412C22.8334 47.8765 22.8682 47.9298 22.8803 47.99C22.8923 48.0509 22.8803 48.1141 22.8468 48.1663C22.8132 48.2185 22.7607 48.2557 22.7003 48.27C21.917 48.4168 21.1256 48.517 20.3303 48.57C20.2822 48.5895 20.2284 48.5895 20.1803 48.57C20.1518 48.5488 20.1282 48.5218 20.1109 48.4908C20.0937 48.4597 20.0833 48.4254 20.0803 48.39C20.0775 48.328 20.0989 48.2673 20.1399 48.2206C20.1809 48.174 20.2384 48.1451 20.3003 48.14C21.0765 48.0739 21.848 47.9604 22.6103 47.8Z" fill="#5C81A2"/>
<path d="M34.7098 26.74C34.7397 26.748 34.7676 26.762 34.7919 26.7811C34.8163 26.8001 34.8365 26.8239 34.8514 26.851C34.8664 26.8781 34.8757 26.9079 34.8789 26.9386C34.882 26.9694 34.8789 27.0005 34.8698 27.03C34.6898 27.72 34.5298 28.46 34.3898 29.3C34.3799 29.362 34.3461 29.4177 34.2956 29.4551C34.2452 29.4925 34.182 29.5086 34.1198 29.5C34.0815 29.4959 34.046 29.4782 34.0198 29.45C33.9844 29.4262 33.9562 29.393 33.9386 29.3542C33.9209 29.3153 33.9144 29.2723 33.9198 29.23C34.0698 28.37 34.2298 27.61 34.4198 26.9C34.4278 26.8701 34.4418 26.8422 34.4609 26.8179C34.48 26.7935 34.5037 26.7733 34.5308 26.7584C34.5579 26.7434 34.5877 26.7341 34.6184 26.731C34.6492 26.7278 34.6803 26.7309 34.7098 26.74Z" fill="#5C81A2"/>
<path d="M50.2094 13.31L51.0394 13.23C51.0743 13.2228 51.1104 13.2234 51.145 13.2318C51.1796 13.2403 51.2119 13.2564 51.2396 13.2789C51.2672 13.3014 51.2895 13.3297 51.3048 13.3619C51.3201 13.3941 51.3281 13.4293 51.3281 13.465C51.3281 13.5007 51.3201 13.5359 51.3048 13.5681C51.2895 13.6003 51.2672 13.6286 51.2396 13.6511C51.2119 13.6736 51.1796 13.6897 51.145 13.6982C51.1104 13.7066 51.0743 13.7072 51.0394 13.7L50.2394 13.78C49.7394 13.84 49.2394 13.92 48.7394 14.03C48.681 14.0498 48.6177 14.0498 48.5594 14.03C48.5136 13.9956 48.4817 13.9459 48.4694 13.89C48.462 13.8598 48.4609 13.8283 48.4661 13.7977C48.4712 13.767 48.4826 13.7376 48.4994 13.7115C48.5162 13.6853 48.5382 13.6628 48.564 13.6454C48.5898 13.6279 48.6188 13.6159 48.6494 13.61C49.1794 13.46 49.6994 13.37 50.2094 13.31Z" fill="#5C81A2"/>
<path d="M208.379 78.78L209.589 82.07L206.359 80.92L195.439 76L208.379 78.78Z" fill="#C9673E"/>
<path d="M209.59 82.07L204 81.05L205.46 80.51L209.59 82.07Z" fill="#9C4B2A"/>
<path d="M208.379 78.78L209.719 75.86L195.439 76L208.379 78.78Z" fill="#FFB99C"/>
<path d="M195.439 76L206.359 80.92L204.159 85.08L195.439 76Z" fill="#FFB99C"/>
<path d="M207.999 85.05H208.089C208.137 84.9983 208.164 84.9304 208.164 84.86C208.164 84.7896 208.137 84.7217 208.089 84.67C207.788 84.3247 207.453 84.0098 207.089 83.73C207.032 83.6974 206.965 83.6868 206.9 83.7003C206.836 83.7138 206.778 83.7505 206.739 83.8034C206.7 83.8563 206.681 83.9217 206.687 83.9874C206.692 84.0531 206.722 84.1145 206.769 84.16C207.114 84.4178 207.432 84.7092 207.719 85.03C207.759 85.0598 207.807 85.0775 207.856 85.081C207.906 85.0846 207.956 85.0738 207.999 85.05Z" fill="#FFBEA2"/>
<path d="M200.431 113.53C200.416 113.498 200.408 113.463 200.407 113.428C200.406 113.393 200.412 113.358 200.425 113.325C200.439 113.292 200.458 113.262 200.483 113.238C200.508 113.213 200.538 113.193 200.571 113.18C201.36 112.819 202.083 112.329 202.711 111.73C202.762 111.682 202.83 111.656 202.901 111.656C202.971 111.656 203.039 111.682 203.091 111.73C203.141 111.781 203.169 111.849 203.169 111.92C203.169 111.991 203.141 112.059 203.091 112.11C202.421 112.76 201.642 113.288 200.791 113.67C200.724 113.697 200.65 113.698 200.583 113.672C200.516 113.646 200.461 113.595 200.431 113.53ZM203.801 110.92C203.773 110.899 203.749 110.873 203.731 110.843C203.714 110.813 203.702 110.78 203.697 110.746C203.693 110.711 203.695 110.676 203.704 110.642C203.713 110.609 203.729 110.577 203.751 110.55C204.266 109.843 204.683 109.069 204.991 108.25C205.017 108.184 205.069 108.13 205.134 108.1C205.199 108.071 205.273 108.067 205.341 108.09C205.404 108.117 205.456 108.167 205.483 108.23C205.511 108.293 205.514 108.365 205.491 108.43C205.168 109.297 204.728 110.114 204.181 110.86C204.15 110.905 204.104 110.937 204.051 110.95C204.009 110.965 203.965 110.97 203.922 110.965C203.879 110.959 203.837 110.944 203.801 110.92ZM205.631 107.05C205.596 107.043 205.563 107.029 205.533 107.009C205.504 106.989 205.479 106.963 205.459 106.934C205.44 106.904 205.426 106.871 205.42 106.836C205.413 106.801 205.413 106.765 205.421 106.73V106.62C205.56 105.791 205.614 104.95 205.581 104.11C205.581 104.038 205.609 103.97 205.66 103.919C205.71 103.868 205.779 103.84 205.851 103.84C205.922 103.84 205.991 103.868 206.042 103.919C206.092 103.97 206.121 104.038 206.121 104.11C206.151 104.987 206.094 105.864 205.951 106.73V106.85C205.944 106.896 205.924 106.939 205.894 106.974C205.864 107.009 205.825 107.036 205.781 107.05C205.732 107.068 205.679 107.068 205.631 107.05ZM205.761 102.75C205.692 102.759 205.623 102.741 205.567 102.7C205.511 102.659 205.473 102.598 205.461 102.53C205.329 101.652 205.142 100.784 204.901 99.93C204.883 99.8947 204.873 99.8559 204.872 99.8165C204.871 99.777 204.879 99.7378 204.895 99.7016C204.91 99.6654 204.934 99.6331 204.964 99.607C204.993 99.5809 205.028 99.5616 205.066 99.5505C205.104 99.5393 205.144 99.5366 205.183 99.5426C205.222 99.5485 205.259 99.5629 205.292 99.5848C205.325 99.6067 205.352 99.6355 205.373 99.6692C205.393 99.7029 205.406 99.7408 205.411 99.78C205.662 100.656 205.856 101.548 205.991 102.45C205.999 102.51 205.987 102.572 205.956 102.625C205.925 102.677 205.878 102.718 205.821 102.74L205.761 102.75ZM204.761 98.57C204.693 98.5922 204.619 98.5868 204.556 98.555C204.492 98.5231 204.443 98.4674 204.421 98.4L204.341 98.19C204.047 98.2687 203.75 98.3321 203.451 98.38C203.416 98.3856 203.38 98.3841 203.346 98.3754C203.311 98.3668 203.279 98.3512 203.251 98.3296C203.223 98.3081 203.2 98.2811 203.182 98.2502C203.165 98.2193 203.154 98.1852 203.151 98.15C203.143 98.1157 203.144 98.0802 203.151 98.0459C203.158 98.0116 203.173 97.9792 203.194 97.9509C203.214 97.9226 203.241 97.899 203.271 97.8816C203.302 97.8642 203.336 97.8535 203.371 97.85C203.634 97.8121 203.894 97.7587 204.151 97.69C203.941 97.13 203.701 96.55 203.431 95.92C203.416 95.8872 203.408 95.8518 203.407 95.8158C203.406 95.7799 203.412 95.7441 203.425 95.7105C203.438 95.677 203.457 95.6464 203.483 95.6205C203.508 95.5947 203.538 95.5741 203.571 95.56C203.636 95.5356 203.708 95.5364 203.773 95.5623C203.837 95.5882 203.89 95.6373 203.921 95.7C204.201 96.36 204.451 96.96 204.671 97.54C205.075 97.4095 205.47 97.249 205.851 97.06C205.881 97.0429 205.914 97.0322 205.948 97.0285C205.982 97.0248 206.017 97.0282 206.05 97.0385C206.083 97.0489 206.113 97.0659 206.139 97.0885C206.165 97.1111 206.186 97.1389 206.201 97.17C206.233 97.2325 206.239 97.3051 206.219 97.3723C206.198 97.4396 206.152 97.4961 206.091 97.53C205.691 97.7306 205.276 97.9011 204.851 98.04C204.878 98.1016 204.902 98.1651 204.921 98.23C204.943 98.2964 204.939 98.3689 204.909 98.4324C204.88 98.4959 204.826 98.5452 204.761 98.57ZM207.111 96.57C207.064 96.5199 207.037 96.4538 207.037 96.385C207.037 96.3162 207.064 96.2501 207.111 96.2C207.526 95.8634 207.901 95.481 208.231 95.06C208.431 94.7939 208.612 94.5131 208.771 94.22C208.808 94.1594 208.867 94.1153 208.936 94.0968C209.005 94.0782 209.078 94.0865 209.141 94.12C209.171 94.1367 209.198 94.1593 209.22 94.1866C209.242 94.2139 209.258 94.2452 209.267 94.2788C209.276 94.3124 209.279 94.3475 209.274 94.3821C209.27 94.4166 209.258 94.4499 209.241 94.48C209.071 94.7969 208.874 95.0981 208.651 95.38C208.303 95.8377 207.9 96.2508 207.451 96.61H207.371C207.327 96.6283 207.279 96.6352 207.232 96.6299C207.185 96.6247 207.139 96.6075 207.101 96.58L207.111 96.57ZM201.791 98.47C200.86 98.4451 199.94 98.2626 199.071 97.93C199.005 97.9052 198.952 97.8559 198.922 97.7924C198.892 97.7289 198.888 97.6563 198.911 97.59C198.937 97.5236 198.989 97.4701 199.054 97.4403C199.119 97.4106 199.193 97.4069 199.261 97.43C200.072 97.742 200.931 97.9145 201.801 97.94C201.836 97.9385 201.871 97.9445 201.904 97.9576C201.937 97.9708 201.967 97.9908 201.992 98.0164C202.016 98.0419 202.035 98.0724 202.047 98.1057C202.059 98.1391 202.063 98.1747 202.061 98.21C202.061 98.2628 202.045 98.3145 202.015 98.3576C201.984 98.4008 201.941 98.4331 201.891 98.45L201.791 98.47ZM209.591 93.12C209.557 93.1111 209.525 93.0951 209.498 93.0732C209.471 93.0513 209.448 93.0239 209.432 92.9928C209.416 92.9617 209.407 92.9276 209.405 92.8926C209.403 92.8577 209.408 92.8227 209.421 92.79C209.664 91.9525 209.772 91.0815 209.741 90.21C209.741 90.1384 209.769 90.0697 209.82 90.0191C209.87 89.9684 209.939 89.94 210.011 89.94C210.082 89.94 210.151 89.9684 210.202 90.0191C210.252 90.0697 210.281 90.1384 210.281 90.21C210.312 91.1395 210.194 92.0681 209.931 92.96C209.918 93.001 209.896 93.0386 209.867 93.0698C209.837 93.101 209.801 93.125 209.761 93.14C209.701 93.1592 209.637 93.1556 209.581 93.13L209.591 93.12ZM197.591 97.12C197.389 96.988 197.195 96.8444 197.011 96.69C196.473 96.239 196.022 95.6933 195.681 95.08C195.654 95.0185 195.652 94.9496 195.674 94.8864C195.696 94.8233 195.74 94.7704 195.798 94.7381C195.857 94.7058 195.925 94.6962 195.99 94.7114C196.055 94.7265 196.112 94.7652 196.151 94.82C196.457 95.3768 196.864 95.8718 197.351 96.28C197.521 96.42 197.701 96.55 197.891 96.68C197.948 96.7204 197.988 96.7817 198.001 96.8508C198.014 96.9199 197.999 96.9914 197.961 97.05C197.92 97.1076 197.859 97.1471 197.79 97.1601C197.721 97.1732 197.649 97.1588 197.591 97.12ZM202.771 94.4C202.405 93.6062 201.938 92.8633 201.381 92.19C201.331 92.1394 201.302 92.0712 201.302 92C201.302 91.9288 201.331 91.8606 201.381 91.81C201.432 91.7622 201.5 91.7357 201.571 91.7357C201.641 91.7357 201.709 91.7622 201.761 91.81C202.356 92.5151 202.85 93.2992 203.231 94.14C203.262 94.2037 203.267 94.2772 203.245 94.3446C203.222 94.412 203.174 94.4678 203.111 94.5C203.054 94.5359 202.987 94.5505 202.921 94.5414C202.855 94.5322 202.795 94.4998 202.751 94.45L202.771 94.4ZM209.881 88.82C209.811 88.8321 209.739 88.8172 209.679 88.7782C209.62 88.7392 209.577 88.6791 209.561 88.61C209.48 88.2222 209.369 87.841 209.231 87.47C209.069 87.0262 208.869 86.5979 208.631 86.19C208.606 86.1598 208.588 86.1247 208.578 86.0869C208.568 86.0492 208.567 86.0097 208.573 85.9713C208.58 85.9329 208.595 85.8964 208.618 85.8644C208.64 85.8324 208.669 85.8056 208.703 85.7858C208.736 85.7661 208.774 85.7538 208.813 85.75C208.851 85.7461 208.891 85.7507 208.928 85.7635C208.964 85.7762 208.998 85.7968 209.026 85.8239C209.054 85.8509 209.076 85.8837 209.091 85.92C209.346 86.3559 209.56 86.8145 209.731 87.29C209.881 87.6838 210.001 88.0882 210.091 88.5C210.1 88.5632 210.089 88.6278 210.058 88.6839C210.028 88.74 209.979 88.7843 209.921 88.81L209.881 88.82ZM195.431 93.69C195.396 93.6956 195.36 93.6941 195.326 93.6854C195.291 93.6768 195.259 93.6612 195.231 93.6396C195.203 93.6181 195.18 93.5911 195.162 93.5602C195.145 93.5293 195.134 93.4952 195.131 93.46C195.025 92.7292 195.192 91.9851 195.601 91.37C195.747 91.1569 195.922 90.9651 196.121 90.8C196.148 90.7777 196.18 90.761 196.214 90.7509C196.248 90.7409 196.284 90.7376 196.319 90.7413C196.354 90.745 196.388 90.7556 196.42 90.7726C196.451 90.7895 196.478 90.8124 196.501 90.84C196.523 90.8676 196.54 90.8993 196.55 90.9333C196.56 90.9673 196.563 91.003 196.559 91.0383C196.556 91.0736 196.545 91.1078 196.528 91.139C196.511 91.1701 196.488 91.1977 196.461 91.22C196.295 91.3484 196.153 91.5039 196.041 91.68C195.695 92.1784 195.559 92.7922 195.661 93.39C195.667 93.4502 195.655 93.5111 195.624 93.5633C195.593 93.6156 195.547 93.6566 195.491 93.68L195.431 93.69ZM200.221 91.19C199.494 90.7529 198.643 90.5699 197.801 90.67C197.763 90.6804 197.724 90.6827 197.686 90.6767C197.648 90.6708 197.611 90.6566 197.579 90.6353C197.547 90.614 197.52 90.586 197.499 90.5533C197.478 90.5205 197.465 90.4837 197.46 90.4453C197.455 90.407 197.458 90.368 197.47 90.331C197.481 90.294 197.5 90.2599 197.526 90.231C197.551 90.202 197.583 90.1789 197.618 90.1632C197.654 90.1475 197.692 90.1396 197.731 90.14C198.694 90.0222 199.669 90.2299 200.501 90.73C200.56 90.7689 200.601 90.8294 200.616 90.8986C200.631 90.9678 200.618 91.0402 200.581 91.1C200.55 91.1493 200.504 91.1877 200.451 91.21C200.415 91.2358 200.373 91.252 200.329 91.2573C200.286 91.2625 200.241 91.2566 200.201 91.24L200.221 91.19Z" fill="#FFBEA2"/>
<path d="M199.2 114.15C199.257 114.125 199.304 114.082 199.334 114.028C199.365 113.974 199.377 113.912 199.37 113.85C199.355 113.781 199.316 113.72 199.258 113.679C199.201 113.639 199.13 113.621 199.06 113.63C198.64 113.698 198.215 113.722 197.79 113.7C197.755 113.697 197.72 113.702 197.687 113.713C197.653 113.724 197.623 113.742 197.597 113.765C197.571 113.789 197.549 113.817 197.534 113.849C197.52 113.881 197.511 113.915 197.51 113.95C197.507 114.02 197.532 114.088 197.578 114.141C197.625 114.193 197.69 114.225 197.76 114.23C198.224 114.262 198.691 114.238 199.15 114.16L199.2 114.15Z" fill="#FFBEA2"/>
<path d="M142.001 44.31C142.607 44.2764 143.176 44.0041 143.583 43.5525C143.989 43.101 144.201 42.5069 144.171 41.9V37.82C144.171 35.92 143.171 34.38 142.001 34.38C140.831 34.38 139.841 35.92 139.841 37.82V41.9C139.811 42.5053 140.021 43.0979 140.425 43.5492C140.83 44.0004 141.396 44.2739 142.001 44.31Z" fill="#5C81A2"/>
<path d="M123.211 44.31C123.818 44.2764 124.386 44.0041 124.793 43.5525C125.199 43.101 125.411 42.5069 125.381 41.9V37.65C125.381 35.75 124.381 34.21 123.211 34.21C122.041 34.21 121.001 35.75 121.001 37.65V41.9C120.971 42.5069 121.182 43.101 121.589 43.5525C121.995 44.0041 122.564 44.2764 123.171 44.31H123.211Z" fill="#5C81A2"/>
<path d="M159.791 44.31C160.095 44.2985 160.393 44.2268 160.669 44.0991C160.945 43.9714 161.193 43.7903 161.399 43.5661C161.604 43.342 161.763 43.0794 161.867 42.7934C161.97 42.5074 162.016 42.2037 162.001 41.9V37.82C162.001 35.92 161.001 34.38 159.841 34.38C158.681 34.38 157.671 35.92 157.671 37.82V41.9C157.641 42.5069 157.852 43.101 158.259 43.5525C158.665 44.0041 159.234 44.2764 159.841 44.31H159.791Z" fill="#5C81A2"/>
<path d="M86.5693 44.31C87.1742 44.2739 87.7404 44.0004 88.1449 43.5492C88.5493 43.0979 88.7594 42.5053 88.7293 41.9V37.65C88.7293 35.75 87.7293 34.21 86.5693 34.21C85.4093 34.21 84.3993 35.75 84.3993 37.65V41.9C84.3693 42.5069 84.5807 43.101 84.9873 43.5525C85.3938 44.0041 85.9626 44.2764 86.5693 44.31Z" fill="#63C0C4"/>
<path d="M68.9995 44.31C69.6062 44.2764 70.175 44.0041 70.5816 43.5525C70.9881 43.101 71.1995 42.5069 71.1695 41.9V37.9C71.1695 36 70.1695 34.47 68.9995 34.47C67.8295 34.47 66.8195 36 66.8195 37.86V41.86C66.7993 42.1646 66.8398 42.4701 66.9388 42.7589C67.0378 43.0476 67.1933 43.3137 67.3962 43.5418C67.5991 43.7698 67.8454 43.9552 68.1206 44.0871C68.3959 44.219 68.6947 44.2948 68.9995 44.31Z" fill="#63C0C4"/>
<path d="M105.72 44.31C106.326 44.2764 106.895 44.0041 107.302 43.5525C107.708 43.101 107.92 42.5069 107.89 41.9V37.65C107.89 35.75 106.89 34.21 105.72 34.21C104.55 34.21 103.55 35.75 103.55 37.65V41.9C103.52 42.5069 103.731 43.101 104.138 43.5525C104.544 44.0041 105.113 44.2764 105.72 44.31Z" fill="#5C81A2"/>
<path d="M72.6997 77.4196C85.7517 74.7831 94.1951 62.0651 91.5586 49.0132C88.9222 35.9612 76.2042 27.5178 63.1522 30.1543C50.1002 32.7908 41.6568 45.5087 44.2933 58.5607C46.9298 71.6127 59.6478 80.0561 72.6997 77.4196Z" fill="white"/>
<path d="M67.9196 78.11C63.1096 78.11 58.4076 76.6837 54.4082 74.0113C50.4087 71.339 47.2916 67.5408 45.4509 63.0969C43.6101 58.653 43.1285 53.763 44.0669 49.0454C45.0053 44.3278 47.3216 39.9944 50.7228 36.5932C54.124 33.1919 58.4574 30.8757 63.175 29.9373C67.8926 28.9989 72.7826 29.4805 77.2265 31.3212C81.6704 33.162 85.4686 36.2791 88.141 40.2785C90.8133 44.2779 92.2396 48.98 92.2396 53.79C92.2317 60.2376 89.6669 66.4189 85.1077 70.9781C80.5485 75.5372 74.3672 78.1021 67.9196 78.11ZM67.9196 29.9C63.1946 29.9 58.5757 31.3011 54.647 33.9262C50.7184 36.5513 47.6563 40.2824 45.8481 44.6477C44.04 49.013 43.5669 53.8165 44.4887 58.4507C45.4105 63.0849 47.6858 67.3417 51.0268 70.6828C54.3679 74.0238 58.6247 76.2992 63.2589 77.221C67.8931 78.1428 72.6966 77.6697 77.0619 75.8615C81.4273 74.0533 85.1584 70.9913 87.7834 67.0626C90.4085 63.1339 91.8096 58.515 91.8096 53.79C91.8043 47.4556 89.2856 41.3822 84.8065 36.9031C80.3275 32.424 74.254 29.9053 67.9196 29.9Z" fill="white"/>
<path d="M82.6207 59.52C82.5707 59.71 82.4507 59.84 82.3607 59.81L67.3607 55.33C67.2707 55.33 67.2407 55.13 67.3007 54.94C67.3007 54.75 67.4707 54.62 67.5607 54.65L82.5607 59.13C82.6507 59.13 82.6807 59.33 82.6207 59.52Z" fill="#E5332A"/>
<path d="M82.3806 60H82.3006L67.3006 55.53C67.2189 55.5034 67.1507 55.446 67.1106 55.37C67.0491 55.209 67.0491 55.031 67.1106 54.87C67.2006 54.6 67.3706 54.42 67.5606 54.42H67.6406L82.6906 58.9C82.9106 58.96 82.9906 59.24 82.9006 59.56C82.8106 59.88 82.5706 60 82.3806 60Z" fill="#FF7C44"/>
<path d="M66.3006 53.08C66.6306 52.98 67.0806 53.45 67.3006 54.14C67.5206 54.83 67.4306 55.48 67.1006 55.58L54.5806 59.58C54.2506 59.69 53.8006 59.22 53.5806 58.58C53.3506 57.89 53.4406 57.24 53.7806 57.13L66.3006 53.08Z" fill="#0F3A5D"/>
<path d="M54.5005 59.85C54.0705 59.85 53.6205 59.35 53.3805 58.63C53.1405 57.91 53.2605 57.07 53.7205 56.92L66.2305 52.92C66.6805 52.78 67.2305 53.3 67.5105 54.11C67.6196 54.4314 67.6605 54.7719 67.6305 55.11C67.6258 55.2552 67.5801 55.3961 67.4987 55.5164C67.4173 55.6367 67.3035 55.7316 67.1705 55.79L54.6605 59.79C54.6115 59.82 54.5572 59.8404 54.5005 59.85ZM66.4005 53.28L53.8505 57.28C53.6905 57.28 53.5805 57.83 53.7905 58.46C54.0005 59.09 54.3705 59.46 54.5305 59.38L67.0405 55.38C67.1205 55.38 67.1805 55.23 67.2105 55.05C67.2357 54.762 67.1982 54.4721 67.1005 54.2C66.9105 53.6 66.5705 53.28 66.4005 53.28Z" fill="#0F3A5D"/>
<path d="M67.9191 54.8C67.9191 55.26 67.3291 55.64 66.5991 55.64C65.8791 55.64 65.2891 55.26 65.2891 54.8V37.55C65.2891 37.09 65.8791 36.71 66.5991 36.71C67.3291 36.71 67.9191 37.09 67.9191 37.55V54.8Z" fill="#0F3A5D"/>
<path d="M66.6001 55.85C65.7501 55.85 65.0801 55.39 65.0801 54.8V37.55C65.0801 36.96 65.7501 36.55 66.6001 36.55C67.4501 36.55 68.1301 37.01 68.1301 37.55V54.8C68.1301 55.39 67.4601 55.85 66.6001 55.85ZM66.6001 36.93C66.0201 36.93 65.5001 37.22 65.5001 37.55V54.8C65.5001 55.13 66.0201 55.43 66.6001 55.43C67.1801 55.43 67.7101 55.14 67.7101 54.8V37.55C67.7101 37.21 67.2001 36.93 66.6001 36.93Z" fill="#0F3A5D"/>
<path d="M66.4496 24.66C60.8441 24.658 55.3638 26.3185 50.702 29.4313C46.0402 32.5441 42.4063 36.9695 40.2597 42.1478C38.1132 47.3261 37.5506 53.0246 38.6429 58.5227C39.7353 64.0208 42.4337 69.0714 46.3967 73.0359C50.3597 77.0003 55.4094 79.7004 60.9071 80.7947C66.4048 81.889 72.1035 81.3284 77.2826 79.1837C82.4616 77.039 86.8883 73.4066 90.0028 68.7459C93.1173 64.0852 94.7796 58.6055 94.7796 53C94.7809 49.2788 94.0491 45.5938 92.626 42.1555C91.2029 38.7172 89.1163 35.5929 86.4855 32.9612C83.8547 30.3295 80.7312 28.2418 77.2934 26.8174C73.8555 25.3931 70.1708 24.66 66.4496 24.66ZM66.5696 75C62.2522 75 58.0317 73.7203 54.4412 71.3227C50.8507 68.9251 48.0514 65.5171 46.3969 61.5293C44.7424 57.5415 44.307 53.1528 45.1457 48.9176C45.9843 44.6824 48.0594 40.7908 51.1088 37.7345C54.1582 34.6781 58.045 32.5941 62.2783 31.7458C66.5115 30.8974 70.9012 31.3228 74.8928 32.9682C78.8844 34.6135 82.2988 37.405 84.7046 40.99C87.1105 44.575 88.3997 48.7926 88.4096 53.11C88.4162 55.9823 87.8561 58.8276 86.7615 61.4832C85.6669 64.1387 84.0592 66.5522 82.0305 68.5855C80.0019 70.6189 77.592 72.2321 74.939 73.3328C72.286 74.4334 69.4419 75 66.5696 75Z" fill="#FF7C44"/>
<path d="M91.3509 103.77L101.231 136.86H100.091L90.2109 103.77H91.3509Z" fill="#01888B"/>
<path d="M80.9991 103.77L90.8791 136.86H89.7391L79.8691 103.77H80.9991Z" fill="#01888B"/>
<path d="M91.2999 103.77V104.68H80.5799L80.4199 103.77H91.2999Z" fill="#01888B"/>
<path d="M93.1405 110.27V111.26H82.4105L82.2305 110.26L93.1405 110.27Z" fill="#01888B"/>
<path d="M95.0305 117.1L95.4706 118.1L84.7405 118.09L84.5605 117.09L95.0305 117.1Z" fill="#01888B"/>
<path d="M97.0403 123.94L97.4703 124.94L86.7503 124.93L86.5703 123.93L97.0403 123.94Z" fill="#01888B"/>
<path d="M98.9192 130.62L99.3592 131.62H88.6392L88.4492 130.62H98.9192Z" fill="#01888B"/>
<path d="M45.27 103.77L35.39 136.86H34.25L44.13 103.77H45.27Z" fill="#63C0C4"/>
<path d="M55.6096 103.77L45.7396 136.86H44.5996L54.4696 103.77H55.6096Z" fill="#63C0C4"/>
<path d="M55.0599 103.77L54.8999 104.68H44.1699V103.77H55.0599Z" fill="#63C0C4"/>
<path d="M42.3398 110.27V111.26H53.0598L53.2498 110.26L42.3398 110.27Z" fill="#63C0C4"/>
<path d="M40.4498 117.1L40.0098 118.1L50.7298 118.09L50.9198 117.09L40.4498 117.1Z" fill="#63C0C4"/>
<path d="M38.44 123.94L38 124.94L48.72 124.93L48.91 123.93L38.44 123.94Z" fill="#63C0C4"/>
<path d="M36.5491 130.62L36.1191 131.62H46.8391L47.0191 130.62H36.5491Z" fill="#63C0C4"/>
<path d="M41.0201 104.69H93.3301V103.04H41.0201V104.69Z" fill="#01888B"/>
<path d="M65.93 95.59L66.75 97.75C66.8104 97.8957 66.8206 98.0573 66.7789 98.2094C66.7373 98.3615 66.6462 98.4954 66.52 98.59C66.3818 98.6672 66.2381 98.7341 66.09 98.79C65.6639 97.8139 65.2999 96.8119 65 95.79C65.1091 95.6558 65.2608 95.5629 65.4298 95.5265C65.5989 95.4901 65.7754 95.5125 65.93 95.59Z" fill="#01888B"/>
<path d="M66.0896 98.79L64.9996 95.84L64.8496 95.92L65.9496 98.84L66.0896 98.79Z" fill="#212B53"/>
<path d="M66.2609 96.44L66.3309 96.64L65.9509 96.71L65.8809 96.52L66.2609 96.44Z" fill="white"/>
<path d="M66.4091 96.86L66.4791 97.06L66.1091 97.13L66.0391 96.94L66.4091 96.86Z" fill="white"/>
<path d="M66.8396 95.08L65.9296 95.59C65.9065 95.6957 65.913 95.8057 65.9482 95.908C65.9835 96.0103 66.0462 96.101 66.1296 96.17L67.1296 95.91L66.8396 95.08Z" fill="#F7B58E"/>
<path d="M74.0698 81.44C73.4477 82.2049 73.0558 83.1309 72.9398 84.11C72.957 85.5619 73.0639 87.0113 73.2598 88.45C73.2775 89.0556 73.1442 89.6561 72.8718 90.1973C72.5995 90.7385 72.1967 91.2033 71.6998 91.55L66.8398 95.08L67.1599 95.94C67.1599 95.94 73.8098 94.94 75.5598 91.94C77.3098 88.94 77.7198 82.21 77.7198 82.21L74.0698 81.44Z" fill="#212B53"/>
<path d="M70.1994 77.77L67.6994 83.35C67.1766 83.4041 66.6734 83.5787 66.2294 83.86C66.1246 84.0017 66.0553 84.1665 66.0275 84.3405C65.9996 84.5145 66.014 84.6927 66.0694 84.86C66.0807 84.919 66.1075 84.974 66.1469 85.0193C66.1864 85.0647 66.2372 85.0987 66.2941 85.118C66.351 85.1373 66.412 85.1412 66.4709 85.1293C66.5298 85.1173 66.5845 85.09 66.6294 85.05C66.8789 84.8117 67.1751 84.6278 67.4994 84.51C67.6675 84.4948 67.829 84.4373 67.9689 84.3429C68.1088 84.2485 68.2225 84.1202 68.2994 83.97L71.8794 78.35L70.1994 77.77Z" fill="#F7B58E"/>
<path d="M82.8009 66.55L84.0809 65.45L83.0809 60.04L81.5409 59.25C81.5995 59.1633 81.686 59.0992 81.786 59.0683C81.886 59.0374 81.9935 59.0415 82.0909 59.08C82.3157 59.1581 82.5572 59.1753 82.7909 59.13C82.7909 59.13 83.0809 58.78 82.5309 58.54C82.2309 58.33 82.0209 58.54 81.1309 58.54C81.1309 58.4 82.3009 58.08 82.3009 58.08C82.6709 57.96 83.6009 58.68 83.6009 58.68C83.6633 58.7658 83.7044 58.8652 83.7209 58.97L83.8709 59.97C83.8709 59.97 85.8709 65.41 85.8709 65.97C85.8709 66.53 84.7609 67.35 84.7609 67.35L82.8009 66.55Z" fill="#F7B58E"/>
<path d="M75.9194 82C75.9194 82 75.1494 82.93 75.6094 85.08C76.1693 86.6503 77.0021 88.1093 78.0694 89.39C78.3498 89.8309 78.5347 90.3256 78.6122 90.8423C78.6898 91.359 78.6581 91.8863 78.5194 92.39C78.1549 95.3262 78.3004 98.3033 78.9494 101.19H79.8694C79.8694 101.19 81.2594 94.1 81.6694 89.12C81.8938 86.4023 81.3425 83.6768 80.0794 81.26L75.9194 82Z" fill="#212B53"/>
<path d="M81.1562 58.2977L81.043 59.0695L83.9419 59.4949L84.0552 58.7232L81.1562 58.2977Z" fill="#F6A505"/>
<path d="M83.9648 58.6986L83.8516 59.4703L84.1187 59.5096L84.232 58.7378L83.9648 58.6986Z" fill="white"/>
<path d="M84.0605 59.5C84.2705 59.5 84.4505 59.5 84.5005 59.17C84.5505 58.84 84.3805 58.76 84.1705 58.72L84.0605 59.5Z" fill="#212B53"/>
<path d="M81.0405 59.06L80.4805 58.72L80.5205 58.44L81.1605 58.29L81.0405 59.06Z" fill="white"/>
<path d="M80.4805 58.72L80.2305 58.54L80.5205 58.44L80.4805 58.72Z" fill="#053C5E"/>
<path d="M81.0867 58.7637L81.0605 58.9418L83.8705 59.3537L83.8966 59.1756L81.0867 58.7637Z" fill="#F08712"/>
<path d="M81.1316 58.3925L81.1055 58.5706L83.9154 58.9831L83.9415 58.805L81.1316 58.3925Z" fill="#F08712"/>
<path d="M73.6508 71.05C72.0008 72.26 70.0508 78.05 70.0508 78.05L71.5008 78.86L73.8608 75.62C73.9839 77.8355 73.8733 80.0577 73.5308 82.25C73.7908 83.32 75.0108 83.25 77.0008 82.83C78.1595 82.6164 79.2705 82.1964 80.2808 81.59C80.2808 81.59 80.3708 76.39 80.6308 73.59C80.8908 70.79 80.3808 70.54 81.0708 70.59C82.5625 69.5481 83.9342 68.3441 85.1608 67L82.8008 66.55L77.7208 69.55C76.3183 69.9156 74.9551 70.418 73.6508 71.05Z" fill="#00666B"/>
<path d="M76.5293 64.15L77.7593 65.36C78.0191 65.6159 78.2088 65.9341 78.3104 66.2843C78.4119 66.6345 78.4219 67.0049 78.3393 67.36L78.1993 68L76.5293 64.15Z" fill="#F7B58E"/>
<path d="M75.05 63.69C72.05 63.69 73.3299 69.41 73.3299 69.41C73.3299 69.41 73.86 73.12 75.05 74.61C76.05 75.9 78.05 75.51 79.05 74.89C79.5175 74.5866 80.0472 74.3918 80.5999 74.32C80.8456 74.3209 81.0887 74.2706 81.3138 74.1725C81.539 74.0743 81.7412 73.9303 81.9077 73.7497C82.0742 73.5691 82.2012 73.3559 82.2808 73.1235C82.3604 72.8911 82.3908 72.6447 82.37 72.4C82.37 71.02 80.7299 69.96 79.6399 69.2C78.941 68.695 78.4448 67.9576 78.2399 67.12C77.8899 65.71 77.05 63.69 75.05 63.69Z" fill="#FFD147"/>
<path d="M79.1109 102.19H81.4209C81.7209 102.19 82.0709 102.35 82.1209 102.71C82.1327 102.866 82.1327 103.024 82.1209 103.18C81.0719 103.245 80.0199 103.245 78.9709 103.18C78.8705 103.026 78.8294 102.841 78.8551 102.659C78.8809 102.477 78.9717 102.31 79.1109 102.19Z" fill="#01888B"/>
<path d="M82.1598 103.17L79.0098 103.15L79.0398 103.31H82.1598V103.17Z" fill="#053C5E"/>
<path d="M80.0209 102.18L80.2309 102.19L80.1709 102.56H79.9609L80.0209 102.18Z" fill="white"/>
<path d="M80.4702 102.18L80.6802 102.19L80.6102 102.56H80.4102L80.4702 102.18Z" fill="white"/>
<path d="M79 101.16L79.16 102.16C79.2536 102.216 79.3607 102.246 79.47 102.246C79.5793 102.246 79.6864 102.216 79.78 102.16L79.89 101.16H79Z" fill="#F7B58E"/>
<path d="M28.1507 136.05C28.1507 136.05 28.4407 136.46 29.8307 136.82C30.1407 136.89 30.4707 136.95 30.4707 137.45H29.1007L27.7007 137.21V137.45H26.9407C26.9407 137.45 26.7307 136.21 27.1707 136.05H28.1507Z" fill="#212B53"/>
<path d="M28.2207 135.17L28.1507 136.05C28.0124 136.14 27.8509 136.188 27.6857 136.188C27.5205 136.188 27.359 136.14 27.2207 136.05V135.17H28.2207Z" fill="#F7B58E"/>
<path d="M21.1195 136.23C21.1195 136.23 21.4195 136.64 22.7995 136.99C23.1095 137.07 23.4395 137.12 23.4395 137.63H22.0695L20.6695 137.39V137.63H19.9095C19.9095 137.63 19.6995 136.39 20.1395 136.23H21.1195Z" fill="#212B53"/>
<path d="M21.1906 135.34L21.1206 136.23C20.9824 136.32 20.8208 136.368 20.6556 136.368C20.4905 136.368 20.3289 136.32 20.1906 136.23H20.1406V135.34H21.1906Z" fill="#F7B58E"/>
<path d="M28.779 113.32L28.439 135.65H26.809C26.809 135.65 24.339 117.65 24.859 113.32C25.379 108.99 28.779 113.32 28.779 113.32Z" fill="#212B53"/>
<path d="M27.0594 113.31C27.0594 113.31 26.4894 120.17 25.1894 123.97C23.8894 127.77 21.5394 135.65 21.5394 135.65H19.8594C19.8594 135.65 22.6694 119.18 22.0294 113.31H27.0294H27.0594Z" fill="#053C5E"/>
<path d="M28.5309 102C28.5309 102 30.5309 106.68 31.0409 106.68C31.5509 106.68 30.8909 102.86 30.8909 102.86H32.5709C32.5709 102.86 34.6809 109.4 33.0009 110.6C31.3209 111.8 27.6309 107.21 27.6309 107.21L28.5309 102Z" fill="#0F3A5D"/>
<path d="M22.5508 113.91L23.1608 115.41C23.4508 116 24.5208 116.02 25.2408 115.83C25.2662 115.823 25.2895 115.81 25.3083 115.792C25.3271 115.774 25.3408 115.75 25.3478 115.725C25.3549 115.7 25.3552 115.673 25.3487 115.648C25.3422 115.622 25.3291 115.599 25.3108 115.58C24.7622 114.953 24.1744 114.362 23.5508 113.81L22.5508 113.91Z" fill="#A87C4F"/>
<path d="M26.8691 101C27.1921 100.999 27.51 101.081 27.792 101.239C28.074 101.397 28.3106 101.624 28.4791 101.9C28.6047 102.09 28.674 102.312 28.6791 102.54V113.34H22.5391V103.24C22.5623 102.64 22.8166 102.071 23.2489 101.654C23.6812 101.236 24.2581 101.002 24.8591 101H26.8691Z" fill="#0F3A5D"/>
<path d="M28.7801 103.62H28.5801V113.32H28.7801V103.62Z" fill="white"/>
<path d="M24.6191 98.9L25.2791 101.37C25.4642 101.504 25.6766 101.597 25.9013 101.64C26.126 101.683 26.3574 101.676 26.5791 101.62C27.3191 101.43 27.1691 100.89 27.1691 100.89L26.7491 99.32H25.5791L24.6191 98.9Z" fill="#A87C4F"/>
<path d="M26.9996 99.76C27.1967 99.7216 27.3758 99.6197 27.5096 99.47C27.8896 98.25 26.3996 95.62 26.3996 95.62L24.0996 96.69L24.5196 98.6C24.5783 98.8494 24.6937 99.0819 24.8567 99.2796C25.0197 99.4773 25.226 99.6348 25.4596 99.74C25.959 99.9027 26.4961 99.9096 26.9996 99.76Z" fill="#A87C4F"/>
<path d="M25.2297 96.44C25.7889 96.3765 26.3352 96.2281 26.8497 96C27.6497 95.63 26.8497 94.85 26.8497 94.85C26.3522 95.1898 25.7712 95.3869 25.1697 95.42C24.3997 95.51 24.1697 95.42 23.7597 95.8C23.3497 96.18 23.6697 97.44 23.6697 97.44L24.6697 99.8H24.7997C24.7997 99.8 24.4497 98.33 24.3197 97.8C24.3897 97.53 24.5497 97.49 24.6797 97.52C24.7481 97.5353 24.8107 97.5698 24.8603 97.6194C24.9098 97.669 24.9443 97.7316 24.9597 97.8L25.6397 100.36C26.3677 100.485 27.1116 100.485 27.8397 100.36C28.2197 100.13 27.4397 98.31 27.4397 98.31C27.2797 98.2913 27.1179 98.3227 26.9764 98.3997C26.835 98.4767 26.7208 98.5955 26.6497 98.74C26.3897 99.25 25.8297 98.94 25.8297 98.94L25.2297 96.44Z" fill="#212B53"/>
<path d="M32.24 102.81L32.19 102.49C32.0956 102.088 31.9105 101.714 31.6487 101.395C31.3869 101.076 31.0556 100.821 30.68 100.65H30L30.22 102.17L31.22 102.81H32.24Z" fill="#A87C4F"/>
<path d="M24.4799 97.52C24.5844 97.4976 24.6935 97.5148 24.7859 97.5685C24.8783 97.6221 24.9475 97.7082 24.9799 97.81C25.0058 97.8528 25.0225 97.9005 25.029 97.9501C25.0354 97.9997 25.0315 98.0501 25.0174 98.0981C25.0032 98.146 24.9793 98.1906 24.947 98.2288C24.9147 98.267 24.8749 98.2981 24.8299 98.32C24.7267 98.3429 24.6187 98.3271 24.5265 98.2754C24.4342 98.2238 24.3643 98.14 24.3299 98.04C24.3053 97.9961 24.2896 97.9477 24.2838 97.8977C24.278 97.8477 24.2822 97.797 24.2961 97.7486C24.3101 97.7002 24.3335 97.6551 24.3651 97.6159C24.3966 97.5766 24.4357 97.544 24.4799 97.52Z" fill="#A87C4F"/>
<path d="M30.4895 102L31.8695 102.81C31.8695 102.81 30.9995 102.81 30.9895 102.81L29.5195 101.58C29.5195 101.58 29.6295 101.36 29.9595 101.58C30.1598 101.687 30.3393 101.83 30.4895 102Z" fill="#A87C4F"/>
<path d="M23.2005 101.64C23.2005 101.64 19.7305 105.5 19.7305 107.8C19.7305 110.1 22.5405 114.18 22.5405 114.18L23.9305 113.78C23.3848 111.681 22.9674 109.55 22.6805 107.4C22.6805 106.06 25.2605 104.1 25.2605 104.1" fill="#0F3A5D"/>
<path d="M22.7791 107.4C23.0538 109.54 23.4612 111.661 23.9991 113.75L23.7991 113.81C23.2435 111.702 22.8227 109.561 22.5391 107.4C22.5391 106.03 25.0491 104.1 25.1491 104.01L25.2791 104.18C25.2791 104.18 22.7791 106.13 22.7791 107.4Z" fill="white"/>
<path d="M29.5808 99.7C29.5621 100.661 29.9211 101.591 30.5808 102.29C30.6178 102.326 30.6617 102.354 30.7097 102.373C30.7578 102.392 30.8091 102.401 30.8608 102.4C31.0252 102.392 31.1858 102.348 31.3308 102.27C31.389 102.249 31.4422 102.215 31.4869 102.172C31.5317 102.129 31.567 102.077 31.5908 102.02C31.5995 101.987 31.5995 101.952 31.5907 101.918C31.582 101.885 31.5648 101.855 31.5408 101.83C31.2882 101.564 31.0917 101.25 30.9629 100.906C30.834 100.563 30.7755 100.197 30.7908 99.83C30.6087 99.7267 30.4074 99.6619 30.1993 99.6395C29.9911 99.6172 29.7806 99.6377 29.5808 99.7Z" fill="#00666B"/>
<path d="M31.4099 102.2C31.4744 102.156 31.5234 102.093 31.5499 102.02C31.5586 101.987 31.5586 101.952 31.5499 101.918C31.5411 101.885 31.5239 101.855 31.4999 101.83C31.2474 101.564 31.0508 101.25 30.922 100.906C30.7932 100.563 30.7347 100.197 30.7499 99.83C30.5749 99.7221 30.3753 99.6602 30.1699 99.65C30.2743 100.618 30.7128 101.52 31.4099 102.2Z" fill="#01888B"/>
<path d="M30.5505 100.82C30.6205 101.03 30.7405 101.17 30.8205 101.14C30.9005 101.11 30.9105 100.93 30.8205 100.72C30.7305 100.51 30.6305 100.37 30.5505 100.4C30.4705 100.43 30.4805 100.61 30.5505 100.82Z" fill="#00666B"/>
<path d="M30.5508 100.41L30.6408 100.37V100.42L30.5808 100.45L30.5508 100.41Z" fill="#F49B42"/>
<path d="M30.7993 101.15L30.9093 101.11H30.7793L30.7993 101.15Z" fill="#E7375E"/>
<path d="M30.6208 100.8C30.6908 101 30.8108 101.15 30.8908 101.12C30.9708 101.09 30.9808 100.9 30.8908 100.7C30.8008 100.5 30.7008 100.35 30.6208 100.37C30.5408 100.39 30.5508 100.59 30.6208 100.8Z" fill="#63C0C4"/>
<path d="M29.0492 98.5H28.8892C28.7423 98.5152 28.6073 98.5878 28.5136 98.702C28.42 98.8163 28.3753 98.9629 28.3892 99.11L28.4392 99.54C28.4502 99.613 28.4755 99.683 28.5137 99.7462C28.5518 99.8094 28.6021 99.8644 28.6615 99.908C28.721 99.9517 28.7885 99.9832 28.8602 100.001C28.9319 100.018 29.0063 100.021 29.0792 100.01H29.2392L29.0492 98.5Z" fill="#00666B"/>
<path d="M34.0903 98.3C34.2403 99.47 34.0903 100.45 33.7603 100.5C33.4303 100.55 33.0403 99.62 32.8903 98.5C32.7403 97.38 32.8903 96.35 33.2203 96.3C33.5503 96.25 33.9403 97.13 34.0903 98.3Z" fill="#212B53"/>
<path d="M32.7604 97.67L33.2804 97.92L33.3604 98.61L32.9304 99.11L32.6504 98.24L32.7604 97.67Z" fill="white"/>
<path d="M32.89 98.45C32.734 97.7472 32.8004 97.0133 33.08 96.35C31.9139 97.3925 30.5148 98.1401 29 98.53L29.18 100.02C29.18 100.02 32.32 99.45 33.63 100.44C33.1809 99.8706 32.922 99.1745 32.89 98.45Z" fill="#053C5E"/>
<path d="M33.3901 98.26C33.3901 98.45 33.3901 98.6 33.3901 98.61C33.3901 98.62 33.3101 98.46 33.2901 98.27C33.2701 98.08 33.2901 97.92 33.2901 97.92C33.2901 97.92 33.3601 98.06 33.3901 98.26Z" fill="#FFD147"/>
<path d="M31.4691 101.7C31.2274 101.807 30.9626 101.852 30.6991 101.83C30.2891 101.83 30.1091 101.33 30.0391 101.06C30.0391 100.97 30.0391 100.83 30.1191 100.77L30.7591 100.68L31.4691 101.7Z" fill="#A87C4F"/>
<path d="M109.48 42.79L113.08 42.48C113.57 42.48 114.08 42.59 114.24 42.99C114.29 43.1695 114.32 43.3539 114.33 43.54C114.22 43.7 109.42 43.93 109.42 43.93C109.341 43.8553 109.279 43.7645 109.239 43.6637C109.199 43.5629 109.181 43.4545 109.187 43.3462C109.192 43.2378 109.221 43.1319 109.272 43.0359C109.323 42.9399 109.394 42.856 109.48 42.79Z" fill="#F08712"/>
<path d="M114.33 43.54L109.42 43.93L109.48 44.11L114.36 43.71L114.33 43.54Z" fill="white"/>
<path d="M110.9 42.66L111.23 42.64L111.16 43.09L110.85 43.12L110.9 42.66Z" fill="white"/>
<path d="M111.601 42.61L111.921 42.58L111.861 43.03L111.551 43.06L111.601 42.61Z" fill="white"/>
<path d="M109.131 41.61L109.481 42.79C109.642 42.854 109.815 42.8818 109.988 42.8714C110.16 42.861 110.329 42.8127 110.481 42.73L110.551 41.52L109.131 41.61Z" fill="#F7B58E"/>
<path d="M108.349 43.61L111.999 43.3C112.479 43.3 112.999 43.4 113.149 43.81C113.205 43.9852 113.238 44.1666 113.249 44.35C113.129 44.51 108.339 44.75 108.339 44.75C108.26 44.6771 108.198 44.5886 108.155 44.49C108.112 44.3915 108.091 44.2851 108.092 44.1778C108.093 44.0704 108.116 43.9645 108.16 43.8667C108.205 43.7689 108.269 43.6815 108.349 43.61Z" fill="#FFD147"/>
<path d="M113.211 44.35L108.301 44.75L108.361 44.94L113.231 44.52L113.211 44.35Z" fill="white"/>
<path d="M109.781 43.49L110.101 43.46L110.041 43.91L109.721 43.94L109.781 43.49Z" fill="white"/>
<path d="M110.47 43.43L110.8 43.4L110.73 43.85L110.42 43.88L110.47 43.43Z" fill="white"/>
<path d="M108 42.43L108.35 43.61C108.51 43.6768 108.684 43.7061 108.857 43.6957C109.03 43.6853 109.199 43.6355 109.35 43.55H109.4L109.47 42.33L108 42.43Z" fill="#F7B58E"/>
<path d="M93.8105 34.43C93.8105 34.43 94.3906 38.99 98.5406 39.18C102.691 39.37 107.611 34.64 107.611 34.64L109.221 41.82H110.811C110.811 41.82 111.811 30.9 109.621 30.34C107.431 29.78 99.0905 33.4 99.0905 33.4L93.8105 34.43Z" fill="#00666B"/>
<path d="M97.0793 21.61L96.2793 23.23L97.6593 23.74L98.2993 22.43L97.0793 21.61Z" fill="#F39F85"/>
<path d="M97.4606 18.71L96.8906 20.92C96.9401 20.9396 96.9847 20.9699 97.021 21.0088C97.0574 21.0476 97.0847 21.0941 97.101 21.1448C97.1172 21.1955 97.122 21.2492 97.1151 21.3019C97.1081 21.3547 97.0895 21.4053 97.0606 21.45C97.0746 21.5058 97.0746 21.5642 97.0606 21.62C97.2732 21.9094 97.5424 22.1526 97.8518 22.3348C98.1612 22.5171 98.5044 22.6345 98.8606 22.68C100.321 22.84 100.321 19.92 100.321 19.92L97.4606 18.71Z" fill="#F7B58E"/>
<path d="M96.2591 20.13C96.2622 19.8829 96.2038 19.6389 96.0891 19.42C95.5291 18.5 96.3791 18.23 96.6691 18.15C96.9591 18.07 97.0991 17.54 97.5491 17.38C98.2191 17.12 98.5491 17.72 98.9691 17.77C99.3891 17.82 99.6991 17.42 100.119 17.82C100.539 18.22 100.369 18.6 100.479 18.82C100.589 19.04 101.029 18.67 101.359 19.35C101.849 20.35 100.279 20.27 100.279 20.27C99.6052 20.2754 98.9518 20.0375 98.4391 19.6C98.3761 19.5513 98.2988 19.525 98.2191 19.525C98.1395 19.525 98.0622 19.5513 97.9991 19.6C97.5894 20.2443 97.2761 20.945 97.0691 21.68L96.8091 21.28C96.598 21.1822 96.4275 21.0139 96.3272 20.804C96.2268 20.5941 96.2027 20.3557 96.2591 20.13Z" fill="#212B53"/>
<path d="M96.9995 20.57C97.0059 20.6392 97.0327 20.7049 97.0766 20.7588C97.1205 20.8127 97.1794 20.8523 97.2459 20.8726C97.3124 20.8929 97.3834 20.893 97.4499 20.8727C97.5164 20.8525 97.5753 20.813 97.6193 20.7591C97.6632 20.7053 97.6901 20.6396 97.6965 20.5704C97.703 20.5012 97.6887 20.4316 97.6555 20.3706C97.6222 20.3095 97.5716 20.2598 97.51 20.2276C97.4484 20.1954 97.3786 20.1824 97.3095 20.19C97.2184 20.2001 97.1348 20.2456 97.0768 20.3166C97.0189 20.3877 96.9911 20.4787 96.9995 20.57Z" fill="#F7B58E"/>
<path d="M92.6309 34C92.6309 34 92.7309 38.6 96.8509 39.21C100.971 39.82 106.331 35.61 106.331 35.61L107.901 42.61L109.521 42.47C109.521 42.47 110.931 32.31 108.771 31.53C106.611 30.75 97.9809 33.53 97.9809 33.53L92.6309 34Z" fill="#01888B"/>
<path d="M92.6301 34L99.5001 33.41C99.2758 32.4018 99.1585 31.3728 99.1501 30.34C99.1737 29.576 99.3505 28.8244 99.6701 28.13C99.4701 25.51 98.6701 22.92 96.3701 23.04C92.3801 23.78 92.6301 34 92.6301 34Z" fill="#AFD8C8"/>
<path d="M112.28 25.62L109.53 31.48L103.57 30.38L103.48 30.85L109.8 32.02L112.72 25.82L112.28 25.62Z" fill="#053C5E"/>
<path d="M97 28.34L99.71 28.11L99.8 31.11L104.59 30L105.69 29.37C105.972 29.2098 106.303 29.1599 106.62 29.23L107.92 29.5C107.985 29.5148 108.043 29.55 108.086 29.6004C108.129 29.6508 108.155 29.7138 108.16 29.78L108.54 31.2C108.54 31.2 108.22 31.4 107.79 30.2C107.47 31.57 105.56 30.52 105.56 30.52L104.87 30.95C104.87 30.95 99.56 34.37 98.33 33.59C97.1 32.81 97 28.34 97 28.34Z" fill="#F7B58E"/>
<path d="M108.16 29.73C108.155 29.6638 108.129 29.6008 108.086 29.5504C108.043 29.5 107.984 29.4648 107.92 29.45L106.62 29.18C106.303 29.1099 105.972 29.1598 105.69 29.32L104.59 29.95H104.43L104.53 31.07L104.87 30.86L105.56 30.43C105.56 30.43 107.47 31.48 107.79 30.11C108.22 31.31 108.54 31.11 108.54 31.11L108.16 29.73Z" fill="#F7B58E"/>
<path d="M158.48 102.47L156.22 106C155.763 106.838 155.017 107.481 154.12 107.81L149.48 108.96V109.64C149.48 109.64 154.12 110.09 156.22 108.95C157.714 107.979 158.955 106.666 159.84 105.12L158.48 102.47Z" fill="#F7B58E"/>
<path d="M164 103.23C164 103.23 162.84 101.05 161.32 100.67C160.779 100.614 160.232 100.679 159.72 100.86C158.859 101.916 158.106 103.055 157.47 104.26C157.358 104.507 157.301 104.774 157.301 105.045C157.301 105.316 157.358 105.583 157.47 105.83C158.47 108.04 158.36 112.29 158.36 112.29H163.48C163.48 112.29 162.58 105.93 162.75 104.67C162.777 104.328 162.914 104.004 163.138 103.745C163.363 103.486 163.665 103.306 164 103.23Z" fill="#00666B"/>
<path d="M154.61 134.64L154.31 135.42C154.237 135.635 154.092 135.818 153.9 135.94C153.591 136.138 153.254 136.29 152.9 136.39C153.5 136.91 154.47 136.39 155.02 136.01C155.289 135.824 155.481 135.547 155.56 135.23L155.68 134.64H154.61Z" fill="#F7B58E"/>
<path d="M155.579 135C155.69 135.087 155.778 135.2 155.836 135.329C155.893 135.458 155.919 135.599 155.909 135.74C155.839 136.15 155.729 137.11 155.729 137.11H155.309V136.21C155.309 136.15 154.409 137.11 154.309 137.11H151.999C151.999 137.11 151.849 136.5 153.159 136.31C154.075 136.116 154.916 135.661 155.579 135Z" fill="#053C5E"/>
<path d="M158.33 112.29L154.48 134.69H155.73C155.73 134.69 158.46 129.98 158.86 126.08C158.839 125.443 159.021 124.816 159.38 124.29C162.59 120.52 161.67 114.58 161.67 114.58L159.94 112.27L158.33 112.29Z" fill="#01888B"/>
<path d="M164.261 134.64L163.961 135.42C163.887 135.635 163.743 135.818 163.551 135.94C163.241 136.138 162.904 136.29 162.551 136.39C163.151 136.91 164.121 136.39 164.671 136.01C164.939 135.824 165.131 135.547 165.211 135.23L165.331 134.64H164.261Z" fill="#F7B58E"/>
<path d="M165.23 135C165.339 135.089 165.426 135.202 165.483 135.331C165.54 135.459 165.567 135.599 165.56 135.74C165.48 136.15 165.38 137.11 165.38 137.11H165V136.21C165 136.15 164.1 137.11 163.95 137.11H161.72C161.72 137.11 161.57 136.5 162.88 136.31C163.771 136.103 164.586 135.649 165.23 135Z" fill="#053C5E"/>
<path d="M159.48 99.78V102.27L160.98 100.64L160.81 98.32L159.48 99.78Z" fill="#F39F85"/>
<path d="M159.23 96.14C160.23 96.28 160.79 97.61 160.79 97.61V101.54L162.59 99.98C162.652 98.7384 162.547 97.4941 162.28 96.28C162.164 96.0037 161.991 95.7554 161.771 95.5517C161.552 95.348 161.291 95.1936 161.007 95.0989C160.723 95.0042 160.422 94.9713 160.124 95.0026C159.826 95.0338 159.538 95.1284 159.28 95.28C158.785 95.6153 158.429 96.1204 158.28 96.7C158.037 97.4603 158.003 98.2718 158.18 99.05L158.79 101.93L159.56 101.17C159.677 100.697 159.677 100.203 159.56 99.73C159.09 98.33 158.54 96 159.23 96.14Z" fill="#212B53"/>
<path d="M161.09 97.66C161.024 97.601 160.939 97.5683 160.85 97.5683C160.762 97.5683 160.676 97.601 160.61 97.66C160.45 97.8 160.42 98 160.54 98.11C160.608 98.1698 160.695 98.2027 160.785 98.2027C160.875 98.2027 160.963 98.1698 161.03 98.11C161.064 98.0845 161.092 98.0526 161.113 98.0161C161.134 97.9796 161.148 97.9393 161.154 97.8975C161.159 97.8557 161.157 97.8131 161.146 97.7724C161.135 97.7316 161.116 97.6934 161.09 97.66Z" fill="#F7B58E"/>
<path d="M159.051 99.81C158.882 99.8224 158.714 99.7804 158.571 99.69C157.991 98.76 158.651 96.28 158.651 96.28L159.571 95.85L160.751 96.65L160.811 98.32C160.821 98.5391 160.779 98.7575 160.689 98.9574C160.598 99.1573 160.462 99.3329 160.291 99.47C159.919 99.7015 159.488 99.8197 159.051 99.81Z" fill="#F7B58E"/>
<path d="M159 96C158.78 96.74 160.75 97.61 160.75 97.61L161.24 96.68L160.34 95.57L159.19 95.75C159.109 95.819 159.045 95.9042 159 96Z" fill="#212B53"/>
<path d="M158.999 96.16C158.949 96.45 158.499 96.81 158.499 96.81L158.449 96.45L158.559 96.21L158.789 96.08C158.789 96.08 159.069 95.86 158.999 96.16Z" fill="#212B53"/>
<path d="M163.141 112.29C163.141 112.29 166.761 113.84 164.871 123.61C164.766 124.184 164.807 124.776 164.991 125.33C165.791 128.06 165.341 134.71 165.341 134.71H164.091C164.091 134.71 159.901 117.34 159.631 112.29H163.141Z" fill="#63C0C4"/>
<path d="M148.85 108.87C148.575 108.946 148.285 108.946 148.01 108.87C147.54 108.76 146.66 108.21 146.67 108.75C147.02 109.15 147.37 109.66 147.37 109.66C147.696 109.869 148.088 109.951 148.47 109.89L149.47 109.63C149.47 109.63 149.72 109.16 149.73 109.13L149.57 108.98C149.326 108.98 149.083 108.943 148.85 108.87Z" fill="#F7B58E"/>
<path d="M148.63 109H148.56L148.7 109.15L149.39 109.43C149.39 109.28 149.48 109.07 149.49 109.05L148.1 108.13C148.1 108.13 147.91 108.25 148.1 108.54C148.239 108.732 148.42 108.89 148.63 109Z" fill="#F7B58E"/>
<path d="M161.879 100.88L161.969 101.01C161.375 101.415 160.881 101.949 160.524 102.573C160.168 103.196 159.957 103.893 159.909 104.61V113.69H163.629L163.509 106.69L163.669 106.81L163.789 113.81H159.789V104.58C159.844 103.848 160.06 103.136 160.421 102.497C160.783 101.857 161.28 101.305 161.879 100.88Z" fill="#63C0C4"/>
<path d="M164.001 103.23C164.001 103.23 166.541 109.82 164.801 110.42C163.061 111.02 159.881 106.28 159.881 106.28L160.491 105.8L163.391 108.28C162.849 107.362 162.508 106.34 162.391 105.28C162.326 105.036 162.318 104.78 162.369 104.532C162.42 104.284 162.528 104.052 162.684 103.853C162.84 103.654 163.04 103.494 163.269 103.386C163.497 103.278 163.748 103.225 164.001 103.23Z" fill="#F7B58E"/>
<path d="M160.529 105.91L160.339 104.54C160.11 104.279 159.827 104.071 159.509 103.93C159.456 103.915 159.4 103.917 159.349 103.935C159.297 103.953 159.252 103.986 159.219 104.03C159.016 104.296 158.851 104.589 158.729 104.9C158.726 104.94 158.733 104.979 158.749 105.016C158.764 105.052 158.789 105.085 158.819 105.11L159.259 105.49L159.839 106.28L160.529 105.91Z" fill="#F7B58E"/>
<path d="M159.95 115.66H163.55C163.898 115.66 164.18 115.378 164.18 115.03V112.67C164.18 112.322 163.898 112.04 163.55 112.04H159.95C159.602 112.04 159.32 112.322 159.32 112.67V115.03C159.32 115.378 159.602 115.66 159.95 115.66Z" fill="#FFD147"/>
<path d="M159.321 113.77V112.66C159.318 112.571 159.333 112.482 159.367 112.399C159.4 112.316 159.451 112.242 159.515 112.179C159.579 112.117 159.655 112.069 159.739 112.038C159.822 112.007 159.912 111.994 160.001 112H163.601C163.767 112.003 163.926 112.07 164.043 112.187C164.161 112.305 164.228 112.464 164.231 112.63V113.74L159.321 113.77Z" fill="#F6A505"/>
<path d="M159.849 115.66C160.149 115.66 160.399 115.53 160.399 115.22V112.46C160.399 112.16 160.149 112.03 159.849 112.03C159.722 112.027 159.597 112.068 159.497 112.147C159.397 112.225 159.327 112.336 159.299 112.46V115.11C159.289 115.185 159.297 115.26 159.321 115.332C159.345 115.403 159.385 115.468 159.438 115.521C159.492 115.574 159.556 115.614 159.628 115.638C159.699 115.662 159.775 115.67 159.849 115.66Z" fill="#00666B"/>
<path d="M162.32 114.36C162.364 114.36 162.406 114.344 162.437 114.314C162.469 114.284 162.488 114.243 162.49 114.2V113.35C162.488 113.307 162.469 113.266 162.437 113.236C162.406 113.206 162.364 113.19 162.32 113.19C162.277 113.19 162.235 113.206 162.204 113.236C162.172 113.266 162.153 113.307 162.15 113.35V114.2C162.153 114.243 162.172 114.284 162.204 114.314C162.235 114.344 162.277 114.36 162.32 114.36Z" fill="#053C5E"/>
</svg>
