<svg width="230" height="150" viewBox="0 0 230 150" fill="none" xmlns="http://www.w3.org/2000/svg">
<path d="M208.121 29.61H162.411C162.411 29.61 159.931 26.47 162.411 24.36C162.986 23.9 163.669 23.5944 164.395 23.4719C165.121 23.3494 165.867 23.4141 166.561 23.66C166.743 23.7087 166.933 23.7192 167.12 23.691C167.306 23.6628 167.485 23.5963 167.644 23.4959C167.804 23.3955 167.941 23.2632 168.047 23.1073C168.153 22.9514 168.226 22.7753 168.261 22.59C168.465 21.6711 168.903 20.8203 169.532 20.1196C170.161 19.419 170.959 18.8922 171.851 18.59C174.281 17.59 175.851 19.11 176.691 20.65C176.758 20.7644 176.856 20.8571 176.975 20.917C177.093 20.9769 177.226 21.0015 177.358 20.9878C177.49 20.9741 177.615 20.9227 177.718 20.8397C177.822 20.7567 177.899 20.6458 177.941 20.52C178.701 18.09 181.381 14.87 190.171 14.87C201.341 14.87 200.101 20.81 199.101 23.28C199.06 23.3766 199.046 23.4827 199.061 23.5866C199.076 23.6906 199.12 23.7883 199.187 23.869C199.254 23.9497 199.343 24.0102 199.442 24.0439C199.541 24.0776 199.648 24.0832 199.751 24.06C201.471 23.69 204.671 23.21 206.111 24.34C208.121 25.94 208.121 29.61 208.121 29.61Z" fill="#E7F2FB"/>
<path d="M34.51 86.31C34.4649 86.9158 34.4649 87.5242 34.51 88.13H40.61C40.5211 87.4381 40.5807 86.7352 40.7848 86.0681C40.9889 85.401 41.3328 84.7851 41.7936 84.2613C42.2544 83.7376 42.8215 83.318 43.4572 83.0306C44.0928 82.7432 44.7824 82.5945 45.48 82.5945C46.1776 82.5945 46.8672 82.7432 47.5029 83.0306C48.1385 83.318 48.7056 83.7376 49.1664 84.2613C49.6272 84.7851 49.9711 85.401 50.1752 86.0681C50.3793 86.7352 50.4389 87.4381 50.35 88.13H56.45C56.493 87.3483 56.4562 86.5642 56.34 85.79C57.26 85.4 58.11 84.92 58.21 84.44C58.44 83.36 56.91 80.78 56.5 80.55C55.7399 80.5044 54.9812 80.6596 54.3 81C53.6019 80.0434 52.7504 79.2088 51.78 78.53C52.13 77.66 52.35 76.79 52.1 76.4C51.5 75.47 48.59 74.72 48.1 74.86C47.5512 75.3301 47.1371 75.9374 46.9 76.62C45.7164 76.4554 44.5138 76.4858 43.34 76.71C42.97 75.85 42.52 75.08 42.06 74.99C40.98 74.76 38.4 76.29 38.17 76.7C38.1249 77.4482 38.2729 78.1955 38.6 78.87C37.686 79.5895 36.8927 80.4504 36.25 81.42C35.38 81 34.44 80.77 34 81C33.08 81.6 32.33 84.51 32.47 85C33.0241 85.6072 33.7273 86.0588 34.51 86.31Z" fill="#5C81A2"/>
<path d="M38.5797 88.13C38.5075 87.1837 38.6315 86.2328 38.944 85.3367C39.2564 84.4406 39.7507 83.6187 40.3957 82.9226C41.0407 82.2265 41.8225 81.6711 42.6922 81.2913C43.5619 80.9115 44.5007 80.7154 45.4497 80.7154C46.3987 80.7154 47.3375 80.9115 48.2072 81.2913C49.0769 81.6711 49.8588 82.2265 50.5038 82.9226C51.1488 83.6187 51.643 84.4406 51.9555 85.3367C52.268 86.2328 52.392 87.1837 52.3197 88.13H52.4197C52.5115 86.9833 52.3156 85.8318 51.8497 84.78C51.1769 83.2802 49.9978 82.0651 48.519 81.3474C47.0402 80.6298 45.356 80.4554 43.7616 80.855C42.1671 81.2545 40.7641 82.2023 39.7984 83.5325C38.8327 84.8626 38.3658 86.4902 38.4797 88.13H38.5797Z" fill="white"/>
<path d="M35.391 88.13C35.2588 86.2428 35.6646 84.3569 36.5614 82.6912C37.4581 81.0254 38.809 79.6482 40.4571 78.7195C42.1052 77.7907 43.9829 77.3485 45.8723 77.4442C47.7617 77.5399 49.5851 78.1695 51.131 79.26L51.241 79.18C49.6756 78.0697 47.8276 77.4259 45.9112 77.3234C43.9948 77.2208 42.0886 77.6637 40.4136 78.6006C38.7387 79.5375 37.3638 80.93 36.4482 82.6167C35.5327 84.3034 35.1141 86.2151 35.241 88.13H35.391Z" fill="white"/>
<path d="M171 115.87C171.609 115.925 172.222 115.925 172.83 115.87V109.77C171.658 109.927 170.469 109.655 169.481 109.005C168.493 108.355 167.773 107.37 167.453 106.231C167.133 105.093 167.235 103.877 167.74 102.808C168.244 101.738 169.118 100.887 170.2 100.41C171.025 100.042 171.936 99.9141 172.83 100.04V94C172.046 93.9484 171.258 93.9819 170.48 94.1C170.09 93.19 169.61 92.33 169.13 92.23C168.05 92 165.47 93.53 165.25 93.94C165.199 94.6876 165.344 95.4356 165.67 96.11C164.716 96.8071 163.882 97.6549 163.2 98.62C162.33 98.27 161.46 98.05 161.07 98.3C160.14 98.91 159.4 101.82 159.53 102.3C160.005 102.841 160.611 103.251 161.29 103.49C161.131 104.674 161.161 105.876 161.38 107.05C160.52 107.42 159.75 107.88 159.66 108.33C159.43 109.41 160.96 112 161.37 112.22C162.119 112.271 162.868 112.122 163.54 111.79C164.26 112.704 165.121 113.498 166.09 114.14C165.72 115.06 165.46 115.99 165.73 116.4C166.33 117.32 169.24 118.07 169.73 117.94C170.329 117.374 170.767 116.66 171 115.87Z" fill="#5C81A2"/>
<path d="M172.86 111.8C171.914 111.872 170.963 111.748 170.067 111.436C169.171 111.123 168.349 110.629 167.653 109.984C166.957 109.339 166.401 108.557 166.022 107.687C165.642 106.818 165.446 105.879 165.446 104.93C165.446 103.981 165.642 103.042 166.022 102.173C166.401 101.303 166.957 100.521 167.653 99.876C168.349 99.231 169.171 98.7367 170.067 98.4242C170.963 98.1118 171.914 97.9877 172.86 98.06V98C171.891 97.9099 170.913 98.0232 169.989 98.3325C169.066 98.6418 168.217 99.1404 167.498 99.7964C166.778 100.452 166.203 101.251 165.809 102.142C165.416 103.033 165.213 103.996 165.213 104.97C165.213 105.944 165.416 106.907 165.809 107.798C166.203 108.689 166.778 109.488 167.498 110.144C168.217 110.8 169.066 111.298 169.989 111.607C170.913 111.917 171.891 112.03 172.86 111.94V111.8Z" fill="white"/>
<path d="M172.86 115C170.974 115.13 169.089 114.723 167.425 113.825C165.761 112.928 164.385 111.577 163.458 109.929C162.53 108.281 162.089 106.404 162.185 104.516C162.281 102.628 162.91 100.805 164 99.26L163.92 99.14C162.81 100.71 162.169 102.562 162.07 104.482C161.971 106.402 162.419 108.31 163.361 109.985C164.304 111.661 165.702 113.035 167.394 113.947C169.086 114.859 171.002 115.273 172.92 115.14L172.86 115Z" fill="white"/>
<path d="M17.6699 92.26C19.741 92.26 21.4199 90.5811 21.4199 88.51C21.4199 86.4389 19.741 84.76 17.6699 84.76C15.5989 84.76 13.9199 86.4389 13.9199 88.51C13.9199 90.5811 15.5989 92.26 17.6699 92.26Z" fill="#01888B"/>
<path d="M102.65 124H105.83C106.26 124 106.73 124.16 106.83 124.53C106.847 124.69 106.847 124.85 106.83 125.01C106.72 125.14 102.5 125.01 102.5 125.01C102.436 124.937 102.389 124.851 102.361 124.758C102.334 124.664 102.327 124.566 102.341 124.47C102.356 124.374 102.391 124.282 102.444 124.201C102.497 124.12 102.567 124.051 102.65 124Z" fill="#12375A"/>
<path d="M106.85 125.05L102.52 125.03L102.56 125.2H106.86L106.85 125.05Z" fill="#212B53"/>
<path d="M103.91 124.04H104.19L104.11 124.43H103.83L103.91 124.04Z" fill="white"/>
<path d="M104.519 124.04H104.809L104.719 124.43H104.439L104.519 124.04Z" fill="white"/>
<path d="M102.43 123L102.65 124.06C102.783 124.122 102.928 124.155 103.075 124.155C103.222 124.155 103.367 124.122 103.5 124.06L103.65 123H102.43Z" fill="#603813"/>
<path d="M95.2006 124H98.3906C98.8106 124 99.2806 124.16 99.3906 124.53C99.4106 124.689 99.4106 124.851 99.3906 125.01C99.2806 125.14 95.0506 125.01 95.0506 125.01C94.9866 124.937 94.9393 124.851 94.9119 124.758C94.8846 124.664 94.8778 124.566 94.892 124.47C94.9063 124.374 94.9413 124.282 94.9946 124.201C95.0478 124.12 95.1181 124.051 95.2006 124Z" fill="#212B53"/>
<path d="M99.4103 125.05L95.0703 125.03L95.1103 125.2H99.4203L99.4103 125.05Z" fill="#212B53"/>
<path d="M96.4709 124.04H96.7509L96.6609 124.43H96.3809L96.4709 124.04Z" fill="white"/>
<path d="M97.08 124.04H97.37L97.28 124.43H97L97.08 124.04Z" fill="white"/>
<path d="M95.3392 123L95.1992 124C95.3335 124.064 95.4804 124.097 95.6292 124.097C95.778 124.097 95.9249 124.064 96.0592 124L96.5692 122.94L95.3392 123Z" fill="#603813"/>
<path d="M100.091 87.3L97.4707 89L98.2807 91.08C98.2807 91.08 98.2807 91.08 98.2807 91.16H98.5107C98.8512 91.1707 99.1833 91.2681 99.4756 91.4431C99.7678 91.6181 100.011 91.8649 100.181 92.16C100.61 92.1294 101.03 92.021 101.421 91.84C101.656 91.7531 101.858 91.596 102.001 91.39C102.321 89.94 100.091 87.3 100.091 87.3Z" fill="#603813"/>
<path d="M103.429 87.84C103.607 89.5127 103.499 91.2035 103.109 92.84C103.409 93.1 104.509 94.28 104.849 92.75C105.189 91.22 104.469 87.32 104.469 87.32L103.429 87.84Z" fill="#603813"/>
<path d="M101.86 87.63L101.24 88.02L101.46 88.48L102.12 88.19L101.86 87.63Z" fill="#212B53"/>
<path d="M101.489 88.18C101.559 88.32 101.559 88.45 101.489 88.48C101.419 88.51 101.339 88.41 101.279 88.27C101.219 88.13 101.209 87.99 101.279 87.97C101.349 87.95 101.429 88 101.489 88.18Z" fill="#212B53"/>
<path d="M109.3 85.38C109.13 85.0073 108.929 84.6494 108.7 84.31C108.474 84.0203 108.282 83.7047 108.13 83.37L101.75 87.55L102.17 88.32L109.29 85.69L109.3 85.38Z" fill="#053C5E"/>
<path d="M99.5191 92.18L99.2891 93.61H101.309L101.459 91.86L99.5191 92.18Z" fill="#603813"/>
<path d="M104.75 95.73C104.75 95.73 107.15 94.97 107.9 93.94C108.65 92.91 107.38 87.3 107.38 87.3L107.54 86.3C107.562 86.1663 107.554 86.0295 107.518 85.8989C107.482 85.7684 107.418 85.6472 107.33 85.5437C107.243 85.4402 107.134 85.3567 107.012 85.2992C106.889 85.2416 106.755 85.2111 106.62 85.21H106C105.939 85.2095 105.88 85.2244 105.826 85.2531C105.773 85.2818 105.728 85.3236 105.695 85.3744C105.662 85.4253 105.643 85.4836 105.638 85.544C105.634 85.6044 105.645 85.6649 105.67 85.72L106.51 87.62C106.51 87.62 107.14 91.87 106.25 92.19C105.521 92.4346 104.766 92.5923 104 92.66L104.75 95.73Z" fill="#603813"/>
<path d="M100.249 92.18L99.6395 90.81L100.039 90.56C100.182 90.4686 100.289 90.3325 100.345 90.1732C100.402 90.0138 100.403 89.8403 100.349 89.68L99.9095 88.39C99.9095 88.39 101.159 88.24 101.119 87.08C101.119 86.48 100.299 86.48 100.299 86.48C100.196 86.6549 100.05 86.8008 99.8756 86.904C99.7007 87.0072 99.5025 87.0643 99.2995 87.07C98.9157 87.0634 98.5382 87.1674 98.2119 87.3696C97.8857 87.5717 97.6245 87.8635 97.4595 88.21C97.2912 88.639 97.2158 89.0987 97.2382 89.5589C97.2606 90.0192 97.3804 90.4694 97.5895 90.88C97.7762 91.2433 98.0522 91.5533 98.3915 91.7807C98.7309 92.0081 99.1224 92.1455 99.5295 92.18H100.249Z" fill="#231F20"/>
<path d="M97.82 103.66C97.9365 105.698 98.1904 107.726 98.58 109.73C98.7576 110.661 98.6922 111.622 98.39 112.52C97 116.77 95 123.16 95 123.16H96.79C96.79 123.16 100.79 115.61 101.87 111.86C102.95 108.11 103.09 106.93 103.09 106.93L101.85 103.66H97.82Z" fill="#212B53"/>
<path d="M99.3106 90.18C99.2841 90.307 99.3026 90.4392 99.3628 90.5541C99.423 90.669 99.5212 90.7595 99.6406 90.81C99.6866 90.8455 99.74 90.8703 99.7968 90.8826C99.8536 90.8948 99.9125 90.8942 99.969 90.8808C100.026 90.8674 100.078 90.8415 100.124 90.805C100.169 90.7685 100.205 90.7224 100.231 90.67C100.265 90.5373 100.251 90.3965 100.191 90.2734C100.13 90.1503 100.027 90.0533 99.9006 90C99.6506 89.9 99.3806 90 99.3106 90.18Z" fill="#603813"/>
<path d="M103.631 103.66H97.8206V96.2C97.8095 95.4036 98.0986 94.6322 98.6304 94.0393C99.1622 93.4463 99.8977 93.0753 100.691 93L104.691 92.52C104.691 92.52 105.171 93.24 106.491 94.93C105.42 95.5668 104.265 96.0514 103.061 96.37L103.631 103.66Z" fill="#63C0C4"/>
<path d="M97.8203 103.66C98.6359 106.012 99.9491 108.161 101.67 109.96C102.061 110.351 102.364 110.821 102.559 111.338C102.754 111.855 102.836 112.408 102.8 112.96L102.18 123.13H104C104 123.13 106.21 114.69 105.73 110.52C105.484 108.111 104.778 105.773 103.65 103.63L97.8203 103.66Z" fill="#053C5E"/>
<path d="M108.33 84.69C108.64 85.34 109.06 85.78 109.27 85.69C109.48 85.6 109.4 84.98 109.09 84.33C108.78 83.68 108.35 83.24 108.09 83.33C107.83 83.42 108 84 108.33 84.69Z" fill="#63C0C4"/>
<path d="M103.18 86.6C103.375 86.6795 103.594 86.6795 103.79 86.6C103.95 86.5435 104.096 86.451 104.216 86.3297C104.335 86.2084 104.425 86.0615 104.48 85.9C104.489 85.8659 104.489 85.8301 104.48 85.7959C104.472 85.7617 104.455 85.7302 104.431 85.7043C104.407 85.6784 104.377 85.6589 104.343 85.6477C104.31 85.6365 104.274 85.6338 104.24 85.64L103.84 85.73C103.762 85.7445 103.688 85.7752 103.622 85.8199C103.557 85.8647 103.501 85.9226 103.46 85.99L103.18 86.6Z" fill="#603813"/>
<path d="M170.819 24.26L171.359 23.81C171.383 23.791 171.4 23.7662 171.411 23.7381C171.421 23.71 171.424 23.6796 171.419 23.65V23.5C171.416 23.4778 171.408 23.4565 171.396 23.4375C171.384 23.4186 171.368 23.4024 171.349 23.39L170.789 22.98C170.759 22.9539 170.72 22.9396 170.679 22.9396C170.639 22.9396 170.6 22.9539 170.569 22.98L170.499 23.03C170.47 23.0643 170.449 23.1056 170.439 23.15L170.359 24.02L170.819 24.26Z" fill="#F7B58E"/>
<path d="M170.339 24L170.239 23.39C170.234 23.3644 170.236 23.3381 170.243 23.3131C170.25 23.2882 170.263 23.2651 170.28 23.2458C170.297 23.2265 170.319 23.2114 170.343 23.2017C170.367 23.1921 170.393 23.1881 170.419 23.19H170.689C170.759 23.19 170.929 23.55 170.929 23.55C170.929 23.55 170.709 23.73 170.589 23.4C170.547 23.4125 170.502 23.4125 170.459 23.4C170.557 23.4917 170.629 23.607 170.67 23.7349C170.71 23.8627 170.717 23.9988 170.689 24.13L170.339 24Z" fill="#F39F85"/>
<path d="M170.929 24.27C170.342 25.8565 169.675 27.4118 168.929 28.93C168.088 30.1161 167.119 31.206 166.039 32.18L165.039 29.42C166.104 28.8937 167.091 28.2205 167.969 27.42C168.845 26.3188 169.609 25.1329 170.249 23.88L170.929 24.27Z" fill="#00666B"/>
<path d="M159.521 22.25L159.201 21.63C159.188 21.6017 159.182 21.571 159.182 21.54C159.182 21.509 159.188 21.4783 159.201 21.45L159.281 21.33C159.308 21.2919 159.346 21.2637 159.391 21.25L160.071 21.1C160.111 21.0934 160.151 21.0995 160.187 21.1175C160.223 21.1354 160.252 21.1643 160.271 21.2V21.28C160.281 21.3003 160.286 21.3225 160.286 21.345C160.286 21.3675 160.281 21.3897 160.271 21.41L160.001 22.24L159.521 22.25Z" fill="#F7B58E"/>
<path d="M160.05 22.24L160.39 21.72C160.404 21.6975 160.412 21.6723 160.415 21.6462C160.417 21.6202 160.414 21.5939 160.406 21.5691C160.397 21.5443 160.383 21.5217 160.365 21.5029C160.347 21.4841 160.325 21.4694 160.3 21.46L160.05 21.37C159.98 21.37 159.69 21.6 159.69 21.6C159.69 21.6 159.81 21.86 160.05 21.6C160.082 21.6329 160.119 21.66 160.16 21.68C160.034 21.7229 159.922 21.7982 159.834 21.8982C159.746 21.9982 159.686 22.1195 159.66 22.25L160.05 22.24Z" fill="#F7B58E"/>
<path d="M155.889 44.21C155.557 44.6441 155.325 45.146 155.209 45.68C155.159 45.91 155.209 46.15 154.859 46.15V44.91L155.039 43.91H154.859V43.35C154.859 43.35 155.769 43.2 155.859 43.52L155.889 44.21Z" fill="#212B53"/>
<path d="M156.551 44.15L155.891 44.21C155.824 44.109 155.789 43.9908 155.789 43.87C155.789 43.7492 155.824 43.631 155.891 43.53L156.551 43.3V44.15Z" fill="#F7B58E"/>
<path d="M162.379 35.2C161.904 36.7425 161.717 38.3597 161.829 39.97C161.855 40.293 161.759 40.6138 161.561 40.8705C161.364 41.1272 161.078 41.3016 160.759 41.36C159.231 41.7446 157.773 42.369 156.439 43.21V44.21C156.439 44.21 162.669 43.65 163.969 42.76C165.269 41.87 165.879 36.08 165.879 36.08L162.379 35.2Z" fill="#212B53"/>
<path d="M165.31 29C166.73 29.93 166.08 35.69 166.08 35.69L161.77 35.17L162.24 30.92C161.214 29.6903 160.421 28.284 159.9 26.77C159.626 25.2788 159.439 23.7729 159.34 22.26H160.13C160.488 23.8008 160.973 25.3093 161.58 26.77C162.278 27.6032 163.093 28.3308 164 28.93L165.31 29Z" fill="#00666B"/>
<path d="M166.049 35.55C166.109 34.93 166.459 31.04 165.699 29.55C165.714 29.5157 165.731 29.4823 165.749 29.45C166.599 31.05 166.179 35.22 166.129 35.66L166.049 35.55Z" fill="#01888B"/>
<path d="M164.369 28.86L164.559 28.06L165.479 28.16L165.549 29.16C165.185 28.9684 164.781 28.8656 164.369 28.86Z" fill="#F39F85"/>
<path d="M164.051 26.49L164.291 27.75C164.421 27.75 164.511 27.85 164.511 27.98C164.512 28.01 164.512 28.04 164.511 28.07C164.688 28.1667 164.884 28.2256 165.085 28.2428C165.287 28.26 165.489 28.2352 165.681 28.17C166.471 27.91 165.761 26.42 165.761 26.42L164.051 26.49Z" fill="#F7B58E"/>
<path d="M163.78 27.5C163.723 27.3751 163.637 27.2654 163.53 27.18C163.01 26.84 163.38 26.5 163.53 26.39C163.68 26.28 163.61 25.97 163.79 25.78C163.97 25.59 164.42 25.71 164.61 25.64C164.8 25.57 164.9 25.29 165.21 25.39C165.52 25.49 165.53 25.73 165.64 25.81C165.75 25.89 165.88 25.6 166.21 25.87C166.72 26.28 165.88 26.6 165.88 26.6C165.541 26.7657 165.153 26.8013 164.79 26.7C164.746 26.688 164.698 26.6903 164.655 26.7064C164.612 26.7226 164.575 26.7518 164.55 26.79C164.486 27.2176 164.486 27.6524 164.55 28.08L164.32 27.94C164.195 27.932 164.076 27.8853 163.98 27.8064C163.883 27.7275 163.813 27.6204 163.78 27.5Z" fill="#212B53"/>
<path d="M164.28 27.54C164.307 27.5845 164.35 27.6168 164.401 27.6298C164.451 27.6429 164.505 27.6358 164.55 27.61C164.593 27.5814 164.623 27.5381 164.636 27.4883C164.649 27.4385 164.643 27.3858 164.62 27.34C164.608 27.3169 164.591 27.2967 164.57 27.2805C164.549 27.2643 164.526 27.2526 164.5 27.246C164.475 27.2394 164.449 27.2382 164.423 27.2423C164.397 27.2464 164.372 27.2559 164.35 27.27C164.327 27.2824 164.307 27.2994 164.291 27.32C164.274 27.3406 164.263 27.3643 164.256 27.3897C164.25 27.4151 164.248 27.4415 164.252 27.4674C164.257 27.4932 164.266 27.518 164.28 27.54Z" fill="#F7B58E"/>
<path d="M165.529 28.77L165.549 29.21L164.119 28.93L164.419 28.45L165.529 28.77Z" fill="url(#paint0_linear)"/>
<path d="M172.09 45.12C172.521 45.4566 173.024 45.6893 173.56 45.8C173.79 45.86 174.03 45.8 174.03 46.15H172.79L171.79 45.97V46.15H171.23C171.23 46.15 171.07 45.24 171.4 45.15L172.09 45.12Z" fill="#212B53"/>
<path d="M172 44.47L172.06 45.12C171.958 45.1839 171.841 45.2178 171.72 45.2178C171.6 45.2178 171.482 45.1839 171.38 45.12L171.15 44.47H172Z" fill="#F7B58E"/>
<path d="M166.081 35.64C166.081 35.64 170.311 36.27 170.591 36.99C170.871 37.71 172.001 44.52 172.001 44.52H171.111C171.111 44.52 168.111 41.34 168.601 39.17C167.601 39.2439 166.597 39.2272 165.601 39.12C161.161 38.45 161.771 35.12 161.771 35.12L166.081 35.64Z" fill="#053C5E"/>
<path d="M192.729 118.2C193.196 118.61 193.761 118.893 194.369 119.02C194.629 119.09 194.929 119.02 194.869 119.44H193.389L192.189 119.21V119.42H191.529C191.529 119.42 191.529 118.34 191.899 118.21L192.729 118.2Z" fill="#212B53"/>
<path d="M192.911 117.54L192.751 118.28C192.381 118.51 191.891 118.19 191.891 118.19V117.35L192.911 117.54Z" fill="#8A5D3B"/>
<path d="M193.74 102.3C193.74 102.3 194.37 107.78 194.48 108.65C194.59 109.52 192.92 117.58 192.92 117.58L191.85 117.44C191.85 117.44 191.57 112.91 191.62 110.23C191.572 109.218 191.224 108.243 190.62 107.43C188.34 104.07 188.54 101.8 188.54 101.8L193.74 102.3Z" fill="#212B53"/>
<path d="M195.72 90.49L195.45 89.7C195.439 89.6658 195.419 89.6349 195.393 89.6104C195.367 89.5859 195.335 89.5686 195.3 89.56H195.13C195.078 89.5409 195.021 89.5409 194.97 89.56L194.27 90C194.23 90.0264 194.2 90.0655 194.186 90.111C194.171 90.1564 194.173 90.2054 194.19 90.25V90.34C194.197 90.3657 194.21 90.3896 194.227 90.4102C194.245 90.4308 194.266 90.4477 194.29 90.46L195.22 90.94L195.72 90.49Z" fill="#8A5D3B"/>
<path d="M195.25 90.93L194.53 90.77C194.5 90.7642 194.471 90.7513 194.446 90.7323C194.421 90.7132 194.401 90.6886 194.387 90.6604C194.373 90.6322 194.367 90.6011 194.367 90.5698C194.368 90.5385 194.376 90.5077 194.39 90.48L194.53 90.19C194.53 90.12 195.03 90.09 195.03 90.09C195.03 90.09 195.14 90.41 194.71 90.39C194.726 90.4422 194.726 90.4978 194.71 90.55C194.854 90.4791 195.014 90.4472 195.173 90.4578C195.333 90.4683 195.487 90.5208 195.62 90.61L195.25 90.93Z" fill="#8A5D3B"/>
<path d="M195.779 90.38C195.779 90.38 197.779 92.74 196.999 94.23C196.032 95.6815 194.908 97.0229 193.649 98.23L192.369 94.97C192.92 94.9957 193.47 94.9088 193.986 94.7145C194.502 94.5202 194.972 94.2226 195.369 93.84C196.489 92.59 195.119 90.99 195.119 90.99L195.779 90.38Z" fill="#01888B"/>
<path d="M189.41 90L189.76 89.24C189.778 89.2085 189.802 89.1814 189.831 89.1606C189.861 89.1398 189.895 89.126 189.93 89.12H190.1C190.152 89.1017 190.208 89.1017 190.26 89.12L190.9 89.63C190.937 89.6608 190.963 89.7029 190.974 89.7499C190.985 89.7968 190.98 89.8461 190.96 89.89V89.98C190.934 90.029 190.891 90.0677 190.84 90.09L189.84 90.46L189.41 90Z" fill="#8A5D3B"/>
<path d="M189.83 90.48L190.56 90.4C190.59 90.3974 190.62 90.3876 190.647 90.3715C190.673 90.3554 190.695 90.3335 190.712 90.3073C190.728 90.2811 190.738 90.2515 190.741 90.2207C190.745 90.19 190.74 90.1589 190.73 90.13L190.63 89.83C190.63 89.75 190.14 89.66 190.14 89.66C190.14 89.66 189.99 89.97 190.42 90C190.407 90.0526 190.407 90.1074 190.42 90.16C190.283 90.081 190.128 90.0394 189.97 90.0394C189.812 90.0394 189.656 90.081 189.52 90.16L189.83 90.48Z" fill="#8A5D3B"/>
<path d="M192.651 94.36C194.361 95.43 193.741 102.3 193.741 102.3L188.591 101.8L189.041 96.72C189.041 96.72 186.631 93.93 186.141 91.85C185.651 89.77 189.321 89.79 189.321 89.79L189.911 90.53C189.911 90.53 187.451 90.74 188.141 91.81C189.012 92.8004 190.023 93.6593 191.141 94.36H192.651Z" fill="#01888B"/>
<path d="M193.699 102.19C193.759 101.45 194.069 96.82 193.119 95L193.179 94.88C194.239 96.76 193.849 101.74 193.799 102.27L193.699 102.19Z" fill="white"/>
<path d="M187.93 118.19C188.412 118.603 188.99 118.888 189.61 119.02C189.87 119.09 190.16 119.02 190.13 119.45H188.66L187.45 119.23V119.44H186.79C186.79 119.44 186.69 118.35 187.09 118.22L187.93 118.19Z" fill="#212B53"/>
<path d="M188.279 117.45L187.879 118.23C187.604 118.301 187.315 118.301 187.039 118.23L187.309 117.29L188.279 117.45Z" fill="#8A5D3B"/>
<path d="M191.52 94.28L191.72 93.28L192.83 93.37L192.93 94.51C192.483 94.3264 192.001 94.2477 191.52 94.28Z" fill="#8A5D3B"/>
<path d="M191.08 91.46L191.4 92.96C191.435 92.955 191.471 92.9583 191.505 92.9696C191.539 92.9809 191.57 92.9999 191.595 93.0251C191.62 93.0503 191.639 93.081 191.651 93.1149C191.662 93.1487 191.665 93.1847 191.66 93.22C191.67 93.256 191.67 93.294 191.66 93.33C191.875 93.4396 192.11 93.5041 192.351 93.5196C192.592 93.5351 192.833 93.5012 193.06 93.42C193.99 93.08 193.11 91.33 193.11 91.33L191.08 91.46Z" fill="#8A5D3B"/>
<path d="M190.779 92.67C190.715 92.5162 190.607 92.3843 190.469 92.29C189.849 91.91 190.279 91.49 190.469 91.35C190.659 91.21 190.539 90.86 190.759 90.63C190.979 90.4 191.499 90.52 191.759 90.44C192.019 90.36 192.089 90.01 192.469 90.12C192.849 90.23 192.849 90.51 192.989 90.61C193.129 90.71 193.269 90.36 193.669 90.67C194.279 91.14 193.299 91.54 193.299 91.54C192.898 91.7449 192.437 91.7982 191.999 91.69C191.946 91.678 191.89 91.6832 191.84 91.7047C191.79 91.7262 191.747 91.7631 191.719 91.81C191.67 92.3207 191.694 92.8359 191.789 93.34L191.509 93.18C191.348 93.191 191.187 93.1464 191.054 93.0537C190.922 92.9609 190.825 92.8255 190.779 92.67Z" fill="#212B53"/>
<path d="M191.379 92.7C191.395 92.7263 191.416 92.7492 191.44 92.7674C191.465 92.7856 191.493 92.7988 191.522 92.8063C191.552 92.8137 191.583 92.8152 191.613 92.8107C191.644 92.8062 191.673 92.7958 191.699 92.78C191.725 92.7642 191.748 92.7435 191.766 92.7189C191.785 92.6942 191.798 92.6663 191.805 92.6366C191.813 92.6068 191.814 92.576 191.81 92.5457C191.805 92.5154 191.795 92.4863 191.779 92.46C191.763 92.4331 191.741 92.4096 191.716 92.391C191.69 92.3724 191.661 92.359 191.631 92.3516C191.6 92.3442 191.568 92.3429 191.537 92.3477C191.506 92.3526 191.476 92.3636 191.449 92.38C191.423 92.3963 191.401 92.4175 191.383 92.4424C191.366 92.4674 191.354 92.4956 191.347 92.5254C191.341 92.5551 191.34 92.5859 191.346 92.6159C191.351 92.6459 191.362 92.6745 191.379 92.7Z" fill="#8A5D3B"/>
<path d="M192.94 102.22C192.786 104.291 192.492 106.349 192.06 108.38C191.82 109.29 188.25 117.51 188.25 117.51L187.25 117.32C187.349 115.094 187.746 112.891 188.43 110.77C188.7 110.031 188.766 109.233 188.62 108.46C188.458 106.244 188.434 104.019 188.55 101.8L192.94 102.22Z" fill="#053C5E"/>
<path d="M192.9 94.14L192.94 94.66L191.23 94.36L191.57 93.79L192.9 94.14Z" fill="url(#paint1_linear)"/>
<path d="M18 88.51H55.95V125.8H138.4V46.92H173.22V119.53H215.62" stroke="#FF7C44" stroke-width="2.15" stroke-miterlimit="10"/>
<path d="M24.2172 89.0832C24.7451 83.7466 20.8469 78.9924 15.5103 78.4644C10.1737 77.9365 5.41947 81.8347 4.89151 87.1713C4.36355 92.5079 8.26174 97.2621 13.5984 97.7901C18.935 98.318 23.6892 94.4198 24.2172 89.0832Z" fill="#0F3A5D"/>
<path d="M14.1995 84.53L12.5195 85.44L12.2695 84.44L14.3695 83.32H15.4895V93H14.1995V84.53Z" fill="white"/>
<path d="M75.96 135.1C81.3227 135.1 85.67 130.753 85.67 125.39C85.67 120.027 81.3227 115.68 75.96 115.68C70.5973 115.68 66.25 120.027 66.25 125.39C66.25 130.753 70.5973 135.1 75.96 135.1Z" fill="#0F3A5D"/>
<path d="M73 129.7V128.9L74 127.9C76.46 125.56 77.57 124.32 77.59 122.9C77.6181 122.645 77.5889 122.388 77.5047 122.146C77.4204 121.904 77.2832 121.684 77.103 121.502C76.9228 121.32 76.7043 121.18 76.4633 121.093C76.2223 121.007 75.9649 120.975 75.71 121C74.9688 121.035 74.2623 121.324 73.71 121.82L73.29 120.9C74.0524 120.253 75.0201 119.899 76.02 119.9C76.4072 119.858 76.7988 119.9 77.1683 120.023C77.5378 120.146 77.8764 120.347 78.1611 120.613C78.4458 120.879 78.6699 121.203 78.8181 121.563C78.9664 121.923 79.0352 122.311 79.02 122.7C79.02 124.48 77.73 125.92 75.7 127.87L74.93 128.59H79.26V129.68L73 129.7Z" fill="white"/>
<path d="M146.905 50.59C148.932 45.6253 146.551 39.9572 141.586 37.9301C136.621 35.903 130.953 38.2844 128.926 43.2492C126.899 48.214 129.281 53.8821 134.245 55.9092C139.21 57.9363 144.878 55.5548 146.905 50.59Z" fill="#0F3A5D"/>
<path d="M135.37 50.24C136.015 50.625 136.75 50.8353 137.5 50.85C139.18 50.85 139.7 49.78 139.68 48.98C139.68 47.63 138.45 47.06 137.19 47.06H136.47V46.06H137.19C138.14 46.06 139.34 45.57 139.34 44.43C139.34 43.66 138.85 42.97 137.65 42.97C136.961 42.9878 136.293 43.2106 135.73 43.61L135.38 42.61C136.131 42.1247 137.007 41.8677 137.9 41.87C139.8 41.87 140.66 43 140.66 44.17C140.652 44.6906 140.473 45.1941 140.152 45.6038C139.83 46.0136 139.384 46.3072 138.88 46.44C139.487 46.5307 140.039 46.8421 140.43 47.3145C140.821 47.7869 141.024 48.3871 141 49C141 50.54 139.8 51.89 137.49 51.89C136.611 51.8978 135.745 51.6736 134.98 51.24L135.37 50.24Z" fill="white"/>
<path d="M214.15 79.25H213.76V117.64H214.15V79.25Z" fill="#0F3A5D"/>
<path d="M213.76 72.6L225.16 78.33L213.76 85.53V72.6Z" fill="#FF7C44"/>
<path d="M213.76 84.04V85.53L224.98 78.45L213.76 84.04Z" fill="#9C4B2A"/>
<path d="M222.538 123.095C224.565 118.13 222.184 112.462 217.219 110.435C212.254 108.408 206.586 110.789 204.559 115.754C202.532 120.719 204.913 126.387 209.878 128.414C214.843 130.441 220.511 128.06 222.538 123.095Z" fill="#0F3A5D"/>
<path d="M213.659 124V121.38H209.189V120.52L213.479 114.36H214.889V120.36H216.239V121.36H214.889V124H213.659ZM213.659 120.35V117.14C213.659 116.63 213.659 116.14 213.709 115.62H213.659C213.369 116.19 213.129 116.62 212.859 117.05L210.499 120.32L213.659 120.35Z" fill="white"/>
<path d="M156.181 74.79C157.561 80.79 143.841 82.67 138.031 82.73C134.707 82.6503 131.389 82.4 128.091 81.98C123.181 80.98 117.191 77.54 118.701 73.98C120.701 69.39 126.491 72.59 126.491 72.59C126.491 72.59 125.761 69.12 135.701 66.83C145.641 64.54 145.611 72.17 145.611 72.17C145.611 72.17 154.461 67.28 156.181 74.79Z" fill="#E7F2FB"/>
<defs>
<linearGradient id="paint0_linear" x1="164.119" y1="28.83" x2="165.549" y2="28.83" gradientUnits="userSpaceOnUse">
<stop stop-color="#DFEFEA"/>
<stop offset="1" stop-color="#BFE3EE"/>
</linearGradient>
<linearGradient id="paint1_linear" x1="783.539" y1="24.5177" x2="780.707" y2="25.0957" gradientUnits="userSpaceOnUse">
<stop stop-color="#DFEFEA"/>
<stop offset="1" stop-color="#BFE3EE"/>
</linearGradient>
</defs>
</svg>
