<svg width="230" height="150" viewBox="0 0 230 150" fill="none" xmlns="http://www.w3.org/2000/svg">
<path d="M89.4696 119.19V114.82C91.4696 114.51 92.8196 113.93 93.4696 113.09C94.1196 112.25 94.4696 110.57 94.4696 108.09V79.47C94.4696 77.13 94.1196 75.6 93.4096 74.88C92.6996 74.16 91.2696 73.77 89.0996 73.7V69.16C92.2996 69.01 95.6096 68.8 99.0996 68.55C102.59 68.3 106.1 67.98 109.71 67.55V108.02C109.71 110.52 110.043 112.187 110.71 113.02C111.38 113.86 112.71 114.44 114.65 114.75V119.12L89.4696 119.19Z" fill="#0F3A5D"/>
<path d="M95.7305 56.64C95.7305 52.57 98.4805 49.71 102.33 49.71C106.18 49.71 108.82 52.57 108.82 56.64C108.82 60.49 106.29 63.46 102.22 63.46C98.3705 63.46 95.7305 60.49 95.7305 56.64Z" fill="#0F3A5D"/>
<path d="M174 49.71C164.983 49.71 156.335 53.2921 149.958 59.6684C143.582 66.0446 140 74.6926 140 83.71C140 90.71 142.1 94.71 146.09 102.61C151.9 114.13 142.32 119.01 142.32 119.01C142.32 119.01 167.44 119.18 174 119.18C192.79 119.18 208 102.49 208 83.71C208 79.2451 207.121 74.8238 205.412 70.6988C203.703 66.5737 201.199 62.8256 198.042 59.6684C194.884 56.5112 191.136 54.0068 187.011 52.2981C182.886 50.5894 178.465 49.71 174 49.71Z" fill="#FF7C44"/>
<path d="M194.611 29.2L195.911 31.74L193.191 31.12L183.881 28.19L194.611 29.2Z" fill="#AFD8C7"/>
<path d="M195.909 31.74L191.289 31.45L192.419 30.88L195.909 31.74Z" fill="#63C0C4"/>
<path d="M194.611 29.2L195.421 26.71L183.881 28.19L194.611 29.2Z" fill="url(#paint0_linear)"/>
<path d="M183.881 28.19L193.191 31.12L191.801 34.7L183.881 28.19Z" fill="url(#paint1_linear)"/>
<path d="M194.89 34.31C194.912 34.2926 194.932 34.2724 194.95 34.25C194.97 34.2304 194.985 34.2071 194.996 34.1814C195.007 34.1556 195.013 34.1279 195.013 34.1C195.013 34.0721 195.007 34.0444 194.996 34.0186C194.985 33.9929 194.97 33.9696 194.95 33.95C194.668 33.7013 194.363 33.4803 194.04 33.29C194.015 33.2742 193.987 33.2637 193.959 33.2592C193.93 33.2547 193.9 33.2562 193.872 33.2637C193.844 33.2713 193.817 33.2846 193.795 33.3029C193.772 33.3212 193.753 33.3441 193.74 33.37C193.726 33.3942 193.716 33.421 193.713 33.4488C193.709 33.4766 193.711 33.5048 193.718 33.5319C193.726 33.5589 193.739 33.5842 193.756 33.6062C193.773 33.6282 193.795 33.6465 193.82 33.66C194.12 33.8419 194.405 34.0494 194.67 34.28C194.701 34.3032 194.737 34.3181 194.776 34.3233C194.814 34.3286 194.853 34.324 194.89 34.31Z" fill="#63C0C4"/>
<path d="M191.51 58.06C191.493 58.036 191.482 58.009 191.477 57.9805C191.472 57.9521 191.472 57.9229 191.479 57.8947C191.486 57.8666 191.498 57.84 191.515 57.8169C191.532 57.7937 191.554 57.7743 191.58 57.76C192.187 57.3937 192.728 56.9271 193.18 56.38C193.197 56.3583 193.219 56.3404 193.244 56.3271C193.268 56.3139 193.295 56.3057 193.323 56.3029C193.351 56.3001 193.379 56.3028 193.406 56.3109C193.433 56.319 193.458 56.3323 193.48 56.35C193.501 56.3677 193.519 56.3895 193.532 56.4142C193.546 56.4389 193.554 56.4659 193.557 56.4938C193.559 56.5216 193.557 56.5498 193.549 56.5766C193.541 56.6034 193.527 56.6283 193.51 56.65C193.031 57.2403 192.452 57.7414 191.8 58.13C191.776 58.1446 191.75 58.1543 191.722 58.1587C191.695 58.1631 191.667 58.162 191.64 58.1554C191.613 58.1489 191.588 58.1371 191.565 58.1208C191.543 58.1044 191.524 58.0837 191.51 58.06ZM194 55.62C193.949 55.5907 193.913 55.5427 193.898 55.4865C193.883 55.4303 193.89 55.3704 193.92 55.32C194.274 54.6929 194.54 54.0199 194.71 53.32C194.715 53.292 194.727 53.2655 194.743 53.2421C194.76 53.2187 194.781 53.199 194.805 53.184C194.829 53.169 194.857 53.1591 194.885 53.155C194.913 53.1509 194.942 53.1526 194.97 53.16C194.997 53.1658 195.024 53.1773 195.047 53.1937C195.071 53.2102 195.091 53.2312 195.106 53.2555C195.121 53.2799 195.13 53.307 195.134 53.3353C195.139 53.3636 195.137 53.3924 195.13 53.42C194.948 54.1508 194.669 54.8538 194.3 55.51C194.277 55.547 194.247 55.5779 194.21 55.6C194.179 55.6207 194.144 55.6333 194.107 55.6368C194.07 55.6403 194.033 55.6345 194 55.62ZM195.11 52.32C195.081 52.3175 195.052 52.3093 195.027 52.2958C195.001 52.2824 194.978 52.264 194.96 52.2417C194.941 52.2194 194.927 52.1936 194.918 52.1658C194.91 52.1381 194.907 52.1089 194.91 52.08V52C194.945 51.315 194.912 50.6282 194.81 49.95C194.804 49.9222 194.804 49.8935 194.81 49.8658C194.816 49.8381 194.828 49.8121 194.845 49.7894C194.862 49.7667 194.884 49.7479 194.909 49.7342C194.934 49.7205 194.961 49.7122 194.99 49.71C195.046 49.7013 195.105 49.7153 195.151 49.7489C195.198 49.7826 195.23 49.8332 195.24 49.89C195.345 50.5948 195.382 51.3081 195.35 52.02V52.12C195.349 52.1583 195.337 52.1957 195.316 52.2276C195.295 52.2595 195.265 52.2847 195.23 52.3C195.187 52.3235 195.137 52.3306 195.09 52.32H195.11ZM194.81 48.83C194.754 48.8455 194.694 48.8384 194.644 48.8103C194.593 48.7823 194.556 48.7355 194.54 48.68C194.352 47.9982 194.118 47.33 193.84 46.68C193.828 46.6544 193.822 46.6268 193.821 46.5988C193.82 46.5708 193.825 46.5429 193.835 46.5168C193.846 46.4907 193.861 46.4669 193.881 46.4469C193.9 46.4268 193.924 46.4109 193.95 46.4C194.003 46.3763 194.063 46.3746 194.117 46.3952C194.172 46.4158 194.216 46.4571 194.24 46.51C194.527 47.1963 194.767 47.9012 194.96 48.62C194.972 48.668 194.968 48.7188 194.948 48.7641C194.928 48.8095 194.893 48.8468 194.85 48.87L194.81 48.83ZM193.59 45.54C193.563 45.5536 193.535 45.5619 193.505 45.5642C193.476 45.5665 193.446 45.5629 193.418 45.5536C193.39 45.5443 193.365 45.5294 193.342 45.5099C193.32 45.4904 193.302 45.4666 193.29 45.44L193.21 45.28C192.98 45.37 192.75 45.45 192.51 45.52C192.453 45.5325 192.393 45.5229 192.343 45.4932C192.293 45.4635 192.256 45.4159 192.24 45.36C192.227 45.3057 192.235 45.2487 192.263 45.2004C192.291 45.1522 192.336 45.1163 192.39 45.1C192.6 45.0405 192.807 44.9704 193.01 44.89C192.79 44.46 192.54 44.01 192.26 43.53C192.244 43.5054 192.233 43.4778 192.229 43.4489C192.224 43.4201 192.226 43.3906 192.233 43.3623C192.241 43.3341 192.254 43.3077 192.272 43.2849C192.291 43.2622 192.314 43.2434 192.34 43.23C192.364 43.2158 192.391 43.2067 192.418 43.203C192.446 43.1994 192.474 43.2014 192.501 43.2088C192.528 43.2163 192.554 43.2291 192.576 43.2465C192.598 43.2638 192.616 43.2854 192.63 43.31C192.93 43.81 193.18 44.31 193.42 44.72C193.733 44.5791 194.034 44.4119 194.32 44.22C194.367 44.1997 194.42 44.1967 194.469 44.2113C194.518 44.2259 194.561 44.2574 194.589 44.3002C194.618 44.3429 194.63 44.3943 194.625 44.4455C194.62 44.4966 194.596 44.5442 194.56 44.58C194.258 44.7818 193.94 44.9591 193.61 45.11C193.61 45.11 193.61 45.21 193.68 45.25C193.693 45.2748 193.702 45.3021 193.705 45.3304C193.708 45.3586 193.705 45.3871 193.697 45.4142C193.688 45.4413 193.674 45.4665 193.656 45.4881C193.637 45.5097 193.615 45.5274 193.59 45.54ZM195.3 43.72C195.259 43.6788 195.236 43.6231 195.236 43.565C195.236 43.5069 195.259 43.4512 195.3 43.41C195.601 43.1082 195.866 42.7727 196.09 42.41C196.229 42.1769 196.35 41.9327 196.45 41.68C196.474 41.6271 196.517 41.5858 196.572 41.5652C196.626 41.5446 196.686 41.5463 196.74 41.57C196.765 41.5809 196.789 41.5968 196.808 41.6169C196.828 41.6369 196.843 41.6607 196.854 41.6868C196.864 41.7129 196.869 41.7408 196.868 41.7688C196.867 41.7968 196.861 41.8244 196.85 41.85C196.56 42.5529 196.139 43.1943 195.61 43.74H195.55C195.508 43.7656 195.46 43.7775 195.411 43.7739C195.363 43.7703 195.317 43.7515 195.28 43.72H195.3ZM191.18 45.72C190.425 45.7821 189.665 45.7213 188.93 45.54C188.883 45.5188 188.846 45.4822 188.823 45.4364C188.801 45.3906 188.795 45.3385 188.807 45.2889C188.819 45.2393 188.847 45.1953 188.888 45.1645C188.929 45.1337 188.979 45.118 189.03 45.12C189.719 45.2891 190.432 45.3432 191.14 45.28C191.168 45.2773 191.197 45.2803 191.224 45.289C191.251 45.2977 191.276 45.3118 191.297 45.3306C191.319 45.3493 191.337 45.3722 191.349 45.3979C191.361 45.4236 191.368 45.4515 191.37 45.48C191.373 45.5219 191.365 45.5639 191.345 45.6011C191.326 45.6383 191.296 45.6691 191.26 45.69L191.18 45.72ZM196.98 40.65C196.923 40.6402 196.872 40.6085 196.838 40.5618C196.805 40.515 196.791 40.4569 196.8 40.4C196.915 39.698 196.915 38.982 196.8 38.28C196.79 38.2499 196.787 38.2182 196.791 38.187C196.795 38.1557 196.806 38.1257 196.822 38.0989C196.839 38.0721 196.861 38.0492 196.887 38.0317C196.913 38.0142 196.943 38.0025 196.974 37.9974C197.005 37.9924 197.037 37.994 197.067 38.0023C197.098 38.0106 197.126 38.0254 197.15 38.0455C197.175 38.0657 197.194 38.0908 197.208 38.1192C197.221 38.1475 197.229 38.1785 197.23 38.21C197.355 38.9581 197.355 39.7219 197.23 40.47C197.224 40.5043 197.21 40.5366 197.189 40.5644C197.168 40.5922 197.141 40.6147 197.11 40.63C197.081 40.6619 197.042 40.683 197 40.69L196.98 40.65ZM187.65 45.06C187.47 44.97 187.3 44.87 187.14 44.77C186.662 44.4539 186.245 44.0541 185.91 43.59C185.885 43.5679 185.866 43.5407 185.854 43.5103C185.841 43.4799 185.836 43.4471 185.838 43.4143C185.84 43.3815 185.849 43.3496 185.865 43.3209C185.881 43.2921 185.903 43.2673 185.93 43.2482C185.956 43.2292 185.987 43.2163 186.019 43.2106C186.052 43.2049 186.085 43.2065 186.117 43.2153C186.148 43.2241 186.177 43.2399 186.202 43.2615C186.227 43.283 186.246 43.3099 186.26 43.34C186.564 43.7596 186.944 44.119 187.38 44.4C187.53 44.4996 187.687 44.5898 187.85 44.67C187.9 44.6994 187.937 44.7467 187.953 44.8023C187.97 44.858 187.965 44.9179 187.94 44.97C187.92 45.009 187.889 45.0406 187.85 45.06C187.819 45.0848 187.783 45.1015 187.745 45.1085C187.706 45.1155 187.667 45.1126 187.63 45.1L187.65 45.06ZM191.58 42.37C191.208 41.7603 190.757 41.2022 190.24 40.71C190.22 40.6904 190.204 40.6671 190.193 40.6414C190.182 40.6156 190.176 40.5879 190.176 40.56C190.176 40.5321 190.182 40.5044 190.193 40.4786C190.204 40.4529 190.22 40.4296 190.24 40.41C190.281 40.3691 190.336 40.3461 190.395 40.3461C190.453 40.3461 190.508 40.3691 190.55 40.41C191.097 40.9256 191.574 41.5106 191.97 42.15C191.999 42.1992 192.009 42.2582 191.996 42.3143C191.983 42.3704 191.948 42.4191 191.9 42.45C191.876 42.473 191.848 42.4904 191.817 42.501C191.786 42.5116 191.753 42.5151 191.72 42.5112C191.687 42.5074 191.656 42.4963 191.628 42.4788C191.601 42.4613 191.577 42.4378 191.56 42.41L191.58 42.37ZM196.79 37.17C196.763 37.1795 196.735 37.1836 196.708 37.1821C196.68 37.1807 196.652 37.1737 196.627 37.1616C196.602 37.1495 196.58 37.1325 196.561 37.1117C196.543 37.0908 196.528 37.0664 196.52 37.04C196.284 36.3691 195.947 35.7383 195.52 35.17C195.484 35.1236 195.468 35.0648 195.475 35.0067C195.483 34.9486 195.513 34.8958 195.56 34.86C195.606 34.8242 195.665 34.8083 195.723 34.8158C195.781 34.8233 195.834 34.8536 195.87 34.9C196.113 35.2327 196.33 35.5838 196.52 35.95C196.675 36.2569 196.809 36.5743 196.92 36.9C196.937 36.9493 196.935 37.0032 196.915 37.0512C196.894 37.0993 196.857 37.1381 196.81 37.16L196.79 37.17ZM185.57 42.49C185.515 42.5026 185.458 42.4941 185.41 42.4662C185.362 42.4384 185.326 42.3933 185.31 42.34C185.154 41.7575 185.218 41.1384 185.49 40.6C185.589 40.4138 185.713 40.2421 185.86 40.09C185.901 40.0491 185.956 40.0261 186.015 40.0261C186.073 40.0261 186.128 40.0491 186.17 40.09C186.208 40.1324 186.23 40.1876 186.23 40.245C186.23 40.3023 186.208 40.3576 186.17 40.4C186.05 40.5212 185.949 40.6593 185.87 40.81C185.65 41.25 185.6 41.7556 185.73 42.23C185.742 42.278 185.738 42.3288 185.718 42.3741C185.698 42.4195 185.663 42.4568 185.62 42.48L185.57 42.49ZM189.21 40.01C188.582 39.7286 187.879 39.6618 187.21 39.82C187.18 39.833 187.149 39.8395 187.117 39.839C187.085 39.8386 187.053 39.8312 187.025 39.8174C186.996 39.8035 186.971 39.7836 186.95 39.759C186.93 39.7344 186.915 39.7057 186.907 39.6748C186.899 39.6439 186.898 39.6117 186.903 39.5802C186.909 39.5488 186.921 39.519 186.94 39.4929C186.958 39.4667 186.982 39.4449 187.009 39.4288C187.037 39.4128 187.068 39.403 187.1 39.4C187.866 39.2116 188.673 39.2892 189.39 39.62C189.416 39.6317 189.439 39.6487 189.459 39.6699C189.478 39.6911 189.493 39.7161 189.502 39.7433C189.512 39.7705 189.515 39.7993 189.513 39.828C189.511 39.8567 189.503 39.8846 189.49 39.91C189.471 39.9519 189.439 39.9869 189.4 40.01C189.371 40.0349 189.337 40.0517 189.3 40.0587C189.263 40.0658 189.225 40.0627 189.19 40.05L189.21 40.01Z" fill="#63C0C4"/>
<path d="M190.559 58.67C190.605 58.6484 190.642 58.6118 190.664 58.5663C190.685 58.5208 190.691 58.4691 190.679 58.42C190.663 58.3645 190.626 58.3177 190.575 58.2897C190.524 58.2616 190.465 58.2545 190.409 58.27C190.082 58.3594 189.747 58.4164 189.409 58.44C189.353 58.4451 189.3 58.4719 189.263 58.5148C189.226 58.5576 189.206 58.6133 189.209 58.67C189.21 58.6985 189.217 58.7264 189.23 58.7521C189.242 58.7778 189.26 58.8007 189.281 58.8194C189.303 58.8382 189.328 58.8523 189.355 58.861C189.382 58.8697 189.411 58.8727 189.439 58.87C189.818 58.8499 190.193 58.7896 190.559 58.69V58.67Z" fill="#63C0C4"/>
<path d="M68.4905 34.03L60.9705 29.88L57.1305 29.11L54.2305 29.54L68.4905 34.03Z" fill="url(#paint2_linear)"/>
<path d="M68.4905 34.03L54.4105 30.41L54.2305 29.54" fill="#AFD8C7"/>
<path d="M54 32.83L54.02 32.86L54.61 35.04L68.45 34.03L54 32.83Z" fill="#63C0C4"/>
<path d="M51.3105 31.55L53.3205 29.91L68.4005 34.01L55.4205 33.62L51.3105 31.55Z" fill="url(#paint3_linear)"/>
<path d="M19.6299 59.45C20.0987 59.2866 20.5564 59.0929 20.9999 58.87C21.0234 58.856 21.0494 58.847 21.0765 58.8435C21.1035 58.84 21.131 58.842 21.1572 58.8495C21.1835 58.857 21.2079 58.8698 21.229 58.8871C21.2501 58.9044 21.2674 58.9258 21.2799 58.95C21.3046 58.9992 21.309 59.056 21.2922 59.1084C21.2753 59.1607 21.2386 59.2044 21.1899 59.23C20.7357 59.468 20.2644 59.6719 19.78 59.84L19.2599 60.01C19.2323 60.0249 19.2014 60.0327 19.1699 60.0327C19.1385 60.0327 19.1076 60.0249 19.0799 60.01C19.0455 59.9817 19.021 59.9432 19.0099 59.9C19.0007 59.8751 18.9968 59.8486 18.9984 59.8221C19.0001 59.7956 19.0072 59.7697 19.0195 59.7462C19.0317 59.7226 19.0488 59.7019 19.0695 59.6853C19.0903 59.6688 19.1143 59.6567 19.1399 59.65L19.6299 59.45Z" fill="#63C0C4"/>
<path d="M47.1996 30C47.8396 30.08 48.4996 30.19 49.1996 30.32C49.2492 30.3352 49.2915 30.3682 49.3182 30.4127C49.3449 30.4572 49.3542 30.5101 49.3443 30.561C49.3343 30.612 49.3059 30.6575 49.2644 30.6887C49.2229 30.7199 49.1713 30.7346 49.1196 30.73C48.3996 30.59 47.7496 30.49 47.1196 30.41H47.0296C47.0054 30.3813 46.9897 30.3464 46.9844 30.3093C46.9791 30.2722 46.9844 30.2343 46.9996 30.2C47.002 30.1477 47.0239 30.0983 47.0608 30.0613C47.0978 30.0243 47.1473 30.0024 47.1996 30Z" fill="#63C0C4"/>
<path d="M43.7797 30.18C43.7527 30.1588 43.7313 30.1313 43.7173 30.1C43.7034 30.0686 43.6973 30.0343 43.6997 30C43.6997 29.9737 43.7049 29.9477 43.715 29.9235C43.725 29.8992 43.7397 29.8772 43.7583 29.8586C43.7769 29.84 43.7989 29.8253 43.8232 29.8152C43.8475 29.8052 43.8735 29.8 43.8997 29.8C44.5597 29.8 45.2497 29.8 45.9697 29.88C46.0164 29.8904 46.0581 29.9163 46.088 29.9536C46.1179 29.9909 46.1342 30.0372 46.1342 30.085C46.1342 30.1328 46.1179 30.1791 46.088 30.2164C46.0581 30.2537 46.0164 30.2796 45.9697 30.29C45.3048 30.2302 44.6373 30.2035 43.9697 30.21C43.9048 30.2228 43.8375 30.2121 43.7797 30.18Z" fill="#63C0C4"/>
<path d="M23.581 57C23.62 56.9627 23.672 56.9419 23.726 56.9419C23.78 56.9419 23.8319 56.9627 23.871 57C23.9061 57.0401 23.9255 57.0917 23.9255 57.145C23.9255 57.1983 23.9061 57.2499 23.871 57.29C23.3759 57.7754 22.8369 58.2139 22.261 58.6C22.2258 58.6245 22.1839 58.6377 22.141 58.6377C22.0981 58.6377 22.0562 58.6245 22.021 58.6L22.001 58.54C21.9706 58.4935 21.9599 58.437 21.9712 58.3826C21.9824 58.3283 22.0147 58.2806 22.061 58.25C22.6016 57.8765 23.1101 57.4583 23.581 57Z" fill="#63C0C4"/>
<path d="M24.4194 56.39C24.3821 56.3509 24.3613 56.299 24.3613 56.245C24.3613 56.191 24.3821 56.1391 24.4194 56.1C24.5394 55.96 24.6494 55.82 24.7594 55.67C25.0473 55.2783 25.3079 54.8674 25.5394 54.44C25.5519 54.4158 25.5693 54.3944 25.5904 54.3771C25.6115 54.3598 25.6359 54.347 25.6621 54.3395C25.6884 54.332 25.7159 54.33 25.7429 54.3335C25.7699 54.337 25.796 54.346 25.8194 54.36C25.8433 54.3715 25.8646 54.3879 25.8818 54.4081C25.899 54.4283 25.9117 54.4518 25.9193 54.4773C25.9268 54.5027 25.9289 54.5294 25.9255 54.5557C25.9221 54.582 25.9132 54.6073 25.8994 54.63C25.6579 55.074 25.3873 55.5016 25.0894 55.91L24.7394 56.36C24.702 56.3966 24.6518 56.4172 24.5994 56.4172C24.5471 56.4172 24.4968 56.3966 24.4594 56.36L24.4194 56.39Z" fill="#63C0C4"/>
<path d="M26.1404 53.62C26.1016 53.5952 26.0732 53.5573 26.0603 53.5131C26.0475 53.469 26.051 53.4217 26.0704 53.38C26.3246 52.7563 26.5318 52.1145 26.6904 51.46C26.7066 51.4093 26.7414 51.3667 26.7878 51.3407C26.8342 51.3148 26.8887 51.3073 26.9404 51.32C26.966 51.3259 26.9902 51.3368 27.0116 51.352C27.033 51.3673 27.0512 51.3866 27.0651 51.4089C27.079 51.4312 27.0884 51.456 27.0928 51.4819C27.0971 51.5079 27.0963 51.5344 27.0904 51.56C26.9261 52.2414 26.7122 52.9098 26.4504 53.56C26.4353 53.5858 26.4149 53.6081 26.3905 53.6254C26.3661 53.6427 26.3383 53.6545 26.309 53.6602C26.2796 53.6659 26.2494 53.6653 26.2203 53.6583C26.1912 53.6514 26.164 53.6383 26.1404 53.62Z" fill="#63C0C4"/>
<path d="M31.5693 36.16C31.3993 36.36 31.2293 36.58 31.0693 36.79C30.9093 37 30.5993 37.45 30.3893 37.79C30.376 37.8134 30.358 37.8338 30.3365 37.8501C30.315 37.8664 30.2904 37.8782 30.2643 37.8847C30.2381 37.8912 30.2109 37.8924 30.1843 37.8882C30.1577 37.8839 30.1322 37.8743 30.1093 37.86C30.0681 37.8299 30.04 37.7851 30.0307 37.7349C30.0214 37.6847 30.0316 37.6329 30.0593 37.59C30.2793 37.24 30.5193 36.89 30.7593 36.59L31.2693 35.94C31.2872 35.9189 31.3094 35.902 31.3344 35.8904C31.3595 35.8788 31.3867 35.8728 31.4143 35.8728C31.4419 35.8728 31.4692 35.8788 31.4943 35.8904C31.5193 35.902 31.5415 35.9189 31.5593 35.94C31.5812 35.9721 31.5937 36.0097 31.5955 36.0486C31.5973 36.0874 31.5882 36.126 31.5693 36.16Z" fill="#63C0C4"/>
<path d="M29.7906 38.84C29.4865 39.4384 29.2226 40.0565 29.0006 40.69C28.993 40.716 28.9798 40.7401 28.9621 40.7607C28.9444 40.7812 28.9225 40.7977 28.8979 40.8091C28.8732 40.8205 28.8464 40.8264 28.8193 40.8266C28.7922 40.8267 28.7653 40.8211 28.7406 40.81H28.6906C28.6559 40.7818 28.6307 40.7438 28.6182 40.7009C28.6057 40.658 28.6065 40.6124 28.6206 40.57C28.8555 39.9192 29.1327 39.2845 29.4506 38.67C29.4779 38.6231 29.5223 38.5885 29.5745 38.5736C29.6267 38.5587 29.6826 38.5646 29.7306 38.59C29.7684 38.618 29.7951 38.6584 29.8061 38.7041C29.817 38.7498 29.8116 38.7979 29.7906 38.84Z" fill="#63C0C4"/>
<path d="M33.8506 33.87C33.3288 34.2985 32.8345 34.7594 32.3706 35.25C32.3328 35.2817 32.285 35.2991 32.2356 35.2991C32.1862 35.2991 32.1384 35.2817 32.1006 35.25C32.0812 35.2322 32.0657 35.2106 32.0551 35.1865C32.0445 35.1624 32.0391 35.1363 32.0391 35.11C32.0391 35.0837 32.0445 35.0576 32.0551 35.0335C32.0657 35.0094 32.0812 34.9878 32.1006 34.97C32.5745 34.4695 33.0788 33.9986 33.6106 33.56C33.6497 33.5227 33.7016 33.5019 33.7556 33.5019C33.8096 33.5019 33.8615 33.5227 33.9006 33.56C33.9211 33.5823 33.9362 33.6089 33.9449 33.6378C33.9535 33.6667 33.9556 33.6973 33.9507 33.7271C33.9459 33.757 33.9344 33.7853 33.9171 33.8101C33.8997 33.8348 33.877 33.8553 33.8506 33.87Z" fill="#63C0C4"/>
<path d="M37.6297 31.54C37.5981 31.5595 37.5617 31.5698 37.5247 31.5698C37.4876 31.5698 37.4512 31.5595 37.4197 31.54C37.3916 31.5204 37.3706 31.4924 37.3597 31.46C37.348 31.4358 37.3413 31.4095 37.3401 31.3826C37.3388 31.3558 37.343 31.329 37.3523 31.3038C37.3616 31.2786 37.3759 31.2555 37.3944 31.2359C37.4128 31.2164 37.435 31.2008 37.4597 31.19C38.0933 30.9106 38.7447 30.6735 39.4097 30.48C39.46 30.4643 39.5146 30.4691 39.5614 30.4935C39.6083 30.5178 39.6436 30.5597 39.6597 30.61C39.6752 30.663 39.6693 30.7201 39.6431 30.7688C39.6169 30.8174 39.5725 30.8538 39.5197 30.87C38.8766 31.0547 38.2455 31.2785 37.6297 31.54Z" fill="#63C0C4"/>
<path d="M27.5396 47.25H27.4396C27.413 47.2263 27.392 47.1969 27.3782 47.164C27.3643 47.1312 27.358 47.0956 27.3596 47.06V46.8C27.4296 46.21 27.4996 45.61 27.5796 45.02C27.577 44.9643 27.5966 44.9098 27.6341 44.8686C27.6716 44.8273 27.7239 44.8027 27.7796 44.8C27.8353 44.7973 27.8898 44.8169 27.931 44.8544C27.9723 44.8919 27.997 44.9443 27.9996 45C27.9196 45.59 27.8596 46.18 27.7896 46.77V47.02C27.7934 47.0529 27.7894 47.0863 27.7778 47.1173C27.7663 47.1484 27.7476 47.1762 27.7232 47.1987C27.6988 47.2211 27.6695 47.2374 27.6376 47.2464C27.6057 47.2553 27.5721 47.2565 27.5396 47.25Z" fill="#63C0C4"/>
<path d="M34.8199 33.14C34.7847 33.1645 34.7428 33.1777 34.6999 33.1777C34.657 33.1777 34.6151 33.1645 34.5799 33.14C34.5448 33.0999 34.5254 33.0483 34.5254 32.995C34.5254 32.9417 34.5448 32.8901 34.5799 32.85C35.1465 32.4582 35.734 32.0976 36.3399 31.77C36.3634 31.756 36.3894 31.747 36.4165 31.7435C36.4435 31.74 36.471 31.742 36.4972 31.7495C36.5234 31.757 36.5479 31.7698 36.569 31.7871C36.5901 31.8044 36.6074 31.8258 36.6199 31.85C36.6454 31.898 36.6513 31.9539 36.6363 32.0061C36.6214 32.0583 36.5869 32.1027 36.5399 32.13C35.9452 32.4289 35.3707 32.7663 34.8199 33.14Z" fill="#63C0C4"/>
<path d="M27.4501 48.06C27.4771 48.0622 27.5033 48.0702 27.527 48.0834C27.5506 48.0966 27.5712 48.1146 27.5873 48.1364C27.6034 48.1582 27.6146 48.1832 27.6203 48.2097C27.626 48.2361 27.6259 48.2635 27.6201 48.29C27.5201 49.08 27.4301 49.73 27.3101 50.29C27.3064 50.3164 27.2975 50.3418 27.2839 50.3647C27.2703 50.3876 27.2523 50.4076 27.2309 50.4234C27.2094 50.4392 27.1851 50.4506 27.1592 50.4569C27.1333 50.4632 27.1064 50.4642 27.0801 50.46H26.9901C26.9607 50.4363 26.9379 50.4055 26.9239 50.3705C26.9099 50.3354 26.9052 50.2974 26.9101 50.26C27.0201 49.67 27.1201 49.03 27.2201 48.26C27.2198 48.231 27.2257 48.2023 27.2376 48.1758C27.2495 48.1494 27.267 48.1258 27.2888 48.1068C27.3107 48.0878 27.3365 48.0737 27.3643 48.0657C27.3922 48.0576 27.4214 48.0556 27.4501 48.06Z" fill="#63C0C4"/>
<path d="M17.9996 59.91C18.0259 59.9047 18.053 59.9047 18.0792 59.9099C18.1055 59.9151 18.1305 59.9254 18.1528 59.9403C18.1751 59.9552 18.1942 59.9743 18.2091 59.9965C18.224 60.0188 18.2344 60.0437 18.2396 60.07C18.2449 60.0963 18.2449 60.1233 18.2397 60.1496C18.2345 60.1759 18.2242 60.2009 18.2094 60.2231C18.1945 60.2454 18.1754 60.2646 18.1531 60.2795C18.1309 60.2944 18.1059 60.3047 18.0796 60.31C17.4029 60.4422 16.718 60.5291 16.0297 60.57C16.0075 60.5794 15.9837 60.5842 15.9596 60.5842C15.9356 60.5842 15.9118 60.5794 15.8896 60.57C15.8636 60.555 15.8422 60.533 15.8281 60.5065C15.8139 60.48 15.8075 60.45 15.8096 60.42C15.8068 60.3934 15.8097 60.3666 15.8179 60.3411C15.8262 60.3157 15.8398 60.2923 15.8577 60.2725C15.8756 60.2527 15.8975 60.2369 15.922 60.2261C15.9465 60.2153 15.9729 60.2099 15.9996 60.21C16.6712 60.1461 17.3389 60.046 17.9996 59.91Z" fill="#63C0C4"/>
<path d="M28.4697 41.6C28.4955 41.6069 28.5196 41.6189 28.5407 41.6353C28.5618 41.6517 28.5794 41.6722 28.5924 41.6955C28.6055 41.7188 28.6137 41.7444 28.6167 41.771C28.6197 41.7975 28.6173 41.8244 28.6097 41.85C28.4497 42.45 28.3097 43.1 28.1897 43.85C28.1788 43.8923 28.1543 43.9299 28.12 43.957C28.0857 43.9841 28.0434 43.9992 27.9997 44C27.9701 44.0072 27.9393 44.0072 27.9097 44C27.8787 43.9778 27.8547 43.9471 27.8405 43.9117C27.8263 43.8762 27.8226 43.8375 27.8297 43.8C27.9374 43.1262 28.081 42.4586 28.2597 41.8C28.2597 41.7729 28.2652 41.746 28.2758 41.7211C28.2865 41.6961 28.3021 41.6736 28.3218 41.6549C28.3414 41.6362 28.3647 41.6217 28.3901 41.6123C28.4155 41.6028 28.4426 41.5986 28.4697 41.6Z" fill="#63C0C4"/>
<path d="M41.9998 29.93L42.7098 29.86C42.7405 29.8532 42.7723 29.8533 42.803 29.8605C42.8336 29.8676 42.8622 29.8815 42.8867 29.9012C42.9113 29.9209 42.9311 29.9458 42.9447 29.9742C42.9583 30.0025 42.9653 30.0335 42.9653 30.065C42.9653 30.0964 42.9583 30.1275 42.9447 30.1558C42.9311 30.1842 42.9113 30.2091 42.8867 30.2288C42.8622 30.2485 42.8336 30.2624 42.803 30.2695C42.7723 30.2767 42.7405 30.2768 42.7098 30.27L42.0098 30.34C41.5798 30.39 41.1398 30.46 40.7198 30.55C40.693 30.5618 40.6641 30.568 40.6348 30.568C40.6055 30.568 40.5766 30.5618 40.5498 30.55C40.5285 30.5371 40.5103 30.5196 40.4964 30.4989C40.4826 30.4782 40.4735 30.4546 40.4698 30.43C40.4608 30.3771 40.4723 30.3228 40.5021 30.2782C40.5318 30.2336 40.5775 30.202 40.6298 30.19C41.0498 30.06 41.4998 30 41.9998 29.93Z" fill="#63C0C4"/>
<path d="M124.09 79.55L121.65 84.16L124.34 84.03L124.53 79.41L124.09 79.55Z" fill="#F7B58E"/>
<path d="M127.94 77.51H125.68L124.74 92.12H128.79L127.94 77.51Z" fill="white"/>
<path d="M132.09 120.42C132.243 120.536 132.365 120.688 132.445 120.863C132.525 121.037 132.561 121.228 132.55 121.42C132.45 121.98 132.3 123.3 132.3 123.3H131.73V122.07C131.73 121.99 130.5 123.3 130.29 123.3H127.29C127.29 123.3 127.09 122.47 128.88 122.21C130.097 121.928 131.21 121.307 132.09 120.42Z" fill="#053C5E"/>
<path d="M130.771 119.86L130.361 120.93C130.264 121.225 130.065 121.477 129.801 121.64C129.363 121.927 128.884 122.146 128.381 122.29C129.211 122.99 130.521 122.29 131.271 121.74C131.638 121.483 131.9 121.104 132.011 120.67L132.181 119.86H130.771Z" fill="#F7B58E"/>
<path d="M126.299 120.42C126.452 120.535 126.574 120.688 126.652 120.862C126.731 121.037 126.764 121.229 126.749 121.42C126.649 121.98 126.509 123.3 126.509 123.3H125.929V122.07C125.929 121.99 124.699 123.3 124.489 123.3H121.489C121.489 123.3 121.289 122.47 123.069 122.21C124.294 121.932 125.414 121.311 126.299 120.42Z" fill="#053C5E"/>
<path d="M124.999 119.86L124.589 120.93C124.492 121.225 124.294 121.477 124.029 121.64C123.591 121.925 123.112 122.144 122.609 122.29C123.429 122.99 124.749 122.29 125.499 121.74C125.866 121.483 126.129 121.104 126.239 120.67L126.409 119.86H124.999Z" fill="#F7B58E"/>
<path d="M129.67 92.12C129.67 92.12 130.05 94.31 127.87 105.04C129.64 110.64 126.81 120.04 126.81 120.04H124.74L123.34 92.16L129.67 92.12Z" fill="#212B53"/>
<path d="M125.93 77.51L125.19 95.24L122.76 94.24C123.509 91.6419 123.846 88.9425 123.76 86.24C124.14 82.9 122.24 84.66 124.56 78.24C124.929 77.8591 125.408 77.6038 125.93 77.51Z" fill="#63C0C4"/>
<path d="M125.609 75.68L125.889 77.17C125.927 77.3165 125.998 77.4524 126.096 77.5675C126.195 77.6826 126.318 77.774 126.456 77.8346C126.595 77.8953 126.746 77.9237 126.897 77.9177C127.048 77.9117 127.196 77.8715 127.329 77.8L128.329 77.18L126.549 73.18L125.609 75.68Z" fill="#F39F85"/>
<path d="M131.66 92.12C131.66 92.12 134.37 94.31 132.18 105.04C133.95 110.64 132.39 120.04 132.39 120.04H130.54L125.32 92.16L131.66 92.12Z" fill="#053C5E"/>
<path d="M127.941 76C129.082 76.6184 130.099 77.4422 130.941 78.43C131.621 79.52 131.851 82 131.941 84.22C132.031 87.22 133.491 95.22 133.491 95.22H127.371L127.221 77.85L127.941 76Z" fill="#63C0C4"/>
<path d="M123.431 71.19C124.821 70.84 126.151 72.26 126.151 72.26L127.151 77.87L128.751 75.4C128.781 73.4462 128.28 71.5209 127.301 69.83C126.191 68.48 124.061 68.83 122.981 70.18C122.505 70.854 122.298 71.6814 122.401 72.5C122.471 73.58 122.781 79.81 122.781 79.81L126.001 77.46C125.908 76.8598 125.781 76.2655 125.621 75.68C125.091 73.7 122.501 71.43 123.431 71.19Z" fill="#212B53"/>
<path d="M126.56 72.18C126.442 72.1495 126.317 72.1632 126.208 72.2184C126.1 72.2736 126.015 72.3667 125.97 72.48C125.938 72.5293 125.916 72.5848 125.906 72.6428C125.897 72.7009 125.899 72.7604 125.913 72.8176C125.927 72.8747 125.953 72.9284 125.988 72.9753C126.024 73.0222 126.069 73.0612 126.12 73.09C126.24 73.1248 126.368 73.1119 126.478 73.0541C126.588 72.9963 126.671 72.898 126.71 72.78C126.744 72.7319 126.767 72.6772 126.777 72.6196C126.788 72.562 126.786 72.5027 126.772 72.4459C126.758 72.389 126.731 72.3358 126.695 72.29C126.658 72.2441 126.612 72.2066 126.56 72.18Z" fill="#F7B58E"/>
<path d="M125.08 75.94C124.869 76.0431 124.63 76.0747 124.4 76.03C123.2 75.16 122.76 71.67 122.76 71.67L123.76 70.67L125.66 71.09L126.59 73.16C126.713 73.4327 126.77 73.7307 126.756 74.0296C126.742 74.3285 126.658 74.6199 126.51 74.88C126.149 75.3672 125.651 75.7362 125.08 75.94Z" fill="#F7B58E"/>
<path d="M123.12 71.12C123.22 72.18 126.12 72.26 126.12 72.26L126.27 70.83L124.56 69.89L123.21 70.71C123.144 70.8364 123.113 70.9778 123.12 71.12Z" fill="#212B53"/>
<path d="M123.18 71.33C123.183 71.7078 123.079 72.0788 122.88 72.4L122.65 71.98V71.61L122.88 71.33C122.88 71.33 123.08 70.93 123.18 71.33Z" fill="#212B53"/>
<path d="M130.309 78.44C133.309 78.78 131.869 86.44 131.229 89.56C131.194 89.7424 131.121 89.9152 131.014 90.0671C130.907 90.219 130.77 90.3465 130.61 90.4411C130.45 90.5356 130.272 90.5951 130.087 90.6156C129.903 90.6361 129.716 90.6172 129.539 90.56C126.959 89.75 123.199 86.38 123.199 86.38L123.789 85.63L128.789 86.79C128.789 86.79 126.879 78 130.309 78.44Z" fill="#F7B58E"/>
<path d="M124.38 83.83L125.38 89.83C125.386 89.8705 125.383 89.9117 125.371 89.9509C125.36 89.9902 125.34 90.0266 125.314 90.0577C125.287 90.0889 125.255 90.1141 125.218 90.1317C125.181 90.1493 125.141 90.159 125.1 90.16H121.27C121.202 90.1607 121.136 90.1367 121.085 90.0926C121.033 90.0485 121 89.9871 120.99 89.92L120.04 83.92C120.034 83.8795 120.037 83.8383 120.049 83.7991C120.06 83.7598 120.08 83.7234 120.106 83.6923C120.132 83.6611 120.165 83.6359 120.202 83.6183C120.239 83.6007 120.279 83.591 120.32 83.59H124.13C124.192 83.5961 124.251 83.6231 124.296 83.6667C124.342 83.7102 124.371 83.7677 124.38 83.83Z" fill="#01888B"/>
<path d="M120.131 86.48C120.118 86.218 120.141 85.9555 120.201 85.7C120.291 85.14 120.271 84.25 120.851 84.7C121.174 85.1119 121.385 85.6015 121.461 86.12C121.486 86.3441 121.467 86.571 121.403 86.7874C121.339 87.0038 121.233 87.2053 121.091 87.38L120.691 88.25C120.288 87.7513 120.088 87.1194 120.131 86.48Z" fill="#F7B58E"/>
<path d="M122.641 85.92C122.641 85.9581 122.633 85.9958 122.618 86.031C122.604 86.0662 122.583 86.0981 122.556 86.1251C122.529 86.152 122.497 86.1734 122.462 86.1879C122.426 86.2025 122.389 86.21 122.351 86.21C122.274 86.21 122.2 86.1794 122.145 86.1251C122.091 86.0707 122.061 85.9969 122.061 85.92C122.061 85.8431 122.091 85.7693 122.145 85.7149C122.2 85.6605 122.274 85.63 122.351 85.63C122.427 85.63 122.501 85.6605 122.556 85.7149C122.61 85.7693 122.641 85.8431 122.641 85.92Z" fill="url(#paint4_linear)"/>
<path d="M175.099 111.69L174.179 111.11L177.049 109.83L175.859 107.12C175.538 106.511 175.061 105.998 174.479 105.631C173.896 105.264 173.227 105.057 172.539 105.03H166.629C165.94 105.055 165.269 105.262 164.684 105.629C164.1 105.996 163.622 106.51 163.299 107.12L162.109 109.83L164.979 111.11L164.059 111.69L163.549 116.09L169.549 115.99L175.549 116.09L175.099 111.69Z" fill="#01888B"/>
<path d="M177.051 109.83L177.641 111.83C177.858 112.54 177.861 113.298 177.65 114.01C177.438 114.721 177.021 115.355 176.451 115.83L173.761 117.93L172.891 115.58L174.381 114.19C174.616 113.977 174.779 113.695 174.846 113.385C174.912 113.074 174.879 112.751 174.751 112.46L174.181 111.18L177.051 109.83Z" fill="#F7B58E"/>
<path d="M165.309 122.44L162.909 122.76L162.449 122.25L162.689 121.34L164.989 121L165.309 122.44Z" fill="#F7B58E"/>
<path d="M162.91 122.76L159.91 123.13C159.91 123.13 156.91 123.52 157.37 121.88C157.83 120.24 160.44 121.01 160.44 121.01L162.92 121.3C162.778 121.508 162.702 121.753 162.702 122.005C162.702 122.257 162.778 122.502 162.92 122.71L162.91 122.76Z" fill="#01888B"/>
<path d="M157.361 121.88C157.442 121.602 157.608 121.356 157.835 121.176C158.063 120.997 158.341 120.893 158.631 120.88V123.13C157.881 123.06 157.131 122.77 157.361 121.88Z" fill="#63C0C4"/>
<path d="M161.699 121.47H161.449V122.44H161.699V121.47Z" fill="white"/>
<path d="M161.09 121.47H160.84V122.44H161.09V121.47Z" fill="white"/>
<path d="M162.139 109.83L161.549 111.83C161.334 112.54 161.333 113.298 161.544 114.009C161.756 114.72 162.171 115.353 162.739 115.83L165.429 117.93L166.299 115.58L164.809 114.19C164.573 113.977 164.411 113.695 164.344 113.385C164.278 113.074 164.311 112.751 164.439 112.46L165.009 111.18L162.139 109.83Z" fill="#F7B58E"/>
<path d="M174.109 122.62L176.549 122.76L177.009 122.25L176.769 121.34L174.469 121L174.109 122.62Z" fill="#F7B58E"/>
<path d="M176.55 122.76L179.55 123.13C179.55 123.13 182.55 123.52 182.09 121.88C181.63 120.24 179 121 179 121L176.52 121.29C176.661 121.498 176.737 121.743 176.737 121.995C176.737 122.247 176.661 122.492 176.52 122.7L176.55 122.76Z" fill="#01888B"/>
<path d="M182.1 121.88C182.018 121.602 181.851 121.357 181.624 121.178C181.397 120.999 181.119 120.895 180.83 120.88V123.13C181.58 123.06 182.33 122.77 182.1 121.88Z" fill="#63C0C4"/>
<path d="M178.01 121.47H177.76V122.44H178.01V121.47Z" fill="white"/>
<path d="M178.619 121.47H178.369V122.44H178.619V121.47Z" fill="white"/>
<path d="M174.96 112.7H165.02V118.65H174.96V112.7Z" fill="url(#paint5_linear)"/>
<path d="M174.96 118.39H165.02V118.89H174.96V118.39Z" fill="#CAB7CC"/>
<path d="M169.6 115.12C169.598 115.172 169.608 115.224 169.627 115.272C169.646 115.321 169.674 115.365 169.71 115.402C169.747 115.44 169.79 115.469 169.838 115.489C169.886 115.51 169.938 115.52 169.99 115.52C170.096 115.52 170.198 115.478 170.273 115.403C170.348 115.328 170.39 115.226 170.39 115.12C170.39 115.014 170.348 114.912 170.273 114.837C170.198 114.762 170.096 114.72 169.99 114.72C169.938 114.72 169.886 114.73 169.838 114.751C169.79 114.771 169.747 114.8 169.71 114.838C169.674 114.875 169.646 114.919 169.627 114.968C169.608 115.016 169.598 115.068 169.6 115.12Z" fill="white"/>
<path d="M182.08 117.06C184.08 120.59 164.08 122.76 164.08 122.76L163.74 121.19C163.74 121.19 179.63 112.7 182.08 117.06Z" fill="#212B53"/>
<path d="M157.38 117.06C155.7 120.74 175.56 122.96 175.56 122.96L175.71 121.18C175.71 121.18 159.38 112.7 157.38 117.06Z" fill="#053C5E"/>
<path d="M170.63 105C170.44 104.44 170.11 102.79 170.11 102.79L167.98 103.2V105C168.365 105.272 168.812 105.444 169.28 105.5C169.775 105.494 170.252 105.318 170.63 105Z" fill="#F39F85"/>
<path d="M170.631 99.88L170.231 97.52L166.141 98L166.391 100.72C166.391 100.72 166.701 104.09 168.881 103.72C171.231 103.26 170.731 99.85 170.631 99.88Z" fill="#F7B58E"/>
<path d="M171.58 99.56C171.536 99.2161 171.599 98.867 171.76 98.56C172.46 97.41 171.4 97.07 171.02 96.97C170.64 96.87 170.48 96.22 169.93 95.97C169.08 95.65 168.6 96.41 168.15 96.47C167.7 96.53 167.23 96.04 166.7 96.54C166.17 97.04 166.4 97.54 166.26 97.79C166.12 98.04 165.57 97.61 165.17 98.46C165.105 98.5691 165.065 98.6913 165.053 98.8178C165.041 98.9442 165.057 99.0718 165.1 99.1913C165.143 99.3108 165.212 99.4193 165.302 99.509C165.392 99.5987 165.5 99.6673 165.62 99.71C165.863 99.8284 166.13 99.89 166.4 99.89C166.67 99.89 166.937 99.8284 167.18 99.71C167.768 99.4494 168.319 99.1133 168.82 98.71C168.98 98.58 170.23 98.49 170.33 98.71C170.589 99.5522 170.717 100.429 170.71 101.31L171.08 100.8C171.269 100.659 171.415 100.468 171.503 100.25C171.591 100.031 171.618 99.7926 171.58 99.56Z" fill="#212B53"/>
<path d="M170.24 100.17C170.13 100.46 170.24 100.75 170.39 100.82C170.54 100.89 170.82 100.72 170.93 100.44C171.04 100.16 170.93 99.86 170.79 99.79C170.65 99.72 170.35 99.89 170.24 100.17Z" fill="#F7B58E"/>
<path d="M81.8496 75.53C81.6737 75.9165 81.6453 76.354 81.7696 76.76L81.9996 78.34L82.2696 78.53L83.2696 78.95C83.2056 78.7415 83.2056 78.5185 83.2696 78.31L83.7096 76.67C83.7096 76.67 84.3996 73.9 82.5196 74.02C82.5196 71.76 81.8996 72.13 81.8996 72.13V74.13L81.8496 75.53Z" fill="#F7B58E"/>
<path d="M77.1707 81C77.1707 81 78.4807 86 79.6007 86.11C80.7207 86.22 81.8907 78.16 81.8907 78.16L83.4207 78.34C83.4207 78.34 84.0007 89.93 80.5907 90.14C77.1807 90.35 76.7207 87.79 76.7207 87.79L77.1707 81Z" fill="#FFDA70"/>
<path d="M77 94.74H68V81.15C70.56 77.25 73.75 78.31 73.75 78.31C73.75 78.31 76.65 78.31 77.1 81.02C77.17 82.94 77 94.74 77 94.74Z" fill="#F6A505"/>
<path d="M72.7706 76.5L72.6406 78.43L72.7006 78.49C73.0104 78.7739 73.4154 78.9314 73.8356 78.9314C74.2558 78.9314 74.6608 78.7739 74.9706 78.49V77.04L72.7706 76.5Z" fill="#F39F85"/>
<path d="M72.0703 72.49L72.2303 75.67C72.3037 75.6729 72.3754 75.6926 72.44 75.7276C72.5046 75.7626 72.5602 75.8119 72.6027 75.8718C72.6452 75.9317 72.6734 76.0006 72.6852 76.0731C72.6969 76.1456 72.6918 76.2198 72.6703 76.29C72.7054 76.3619 72.7259 76.4401 72.7303 76.52C73.1297 76.8217 73.5879 77.0364 74.0753 77.1501C74.5628 77.2637 75.0687 77.2739 75.5603 77.18C77.5603 76.8 76.3503 72.91 76.3503 72.91L72.0703 72.49Z" fill="#F7B58E"/>
<path d="M71.0599 74.88C70.9726 74.546 70.7964 74.2418 70.5499 74C69.4099 73 70.4299 72.29 70.7899 72.06C71.1499 71.83 71.1099 71.06 71.6299 70.67C72.4199 70.06 73.1799 70.67 73.6899 70.6C74.1999 70.53 74.4999 69.84 75.2399 70.19C75.9799 70.54 75.8899 71.13 76.1299 71.37C76.3699 71.61 76.7999 70.94 77.5199 71.71C78.6099 72.88 76.5199 73.38 76.5199 73.38C75.6289 73.6726 74.6617 73.63 73.7999 73.26C73.6987 73.213 73.5846 73.2012 73.4758 73.2266C73.3671 73.252 73.27 73.313 73.1999 73.4C72.8299 73.91 72.8199 76.56 72.8199 76.56L72.2999 76.13C71.9841 76.0882 71.691 75.9428 71.4666 75.7166C71.2423 75.4904 71.0992 75.1962 71.0599 74.88Z" fill="#212B53"/>
<path d="M72.2608 75.14C72.3135 75.2574 72.4095 75.3499 72.5287 75.3983C72.6479 75.4467 72.7811 75.4473 72.9008 75.4C72.9603 75.3769 73.0145 75.3421 73.0604 75.2978C73.1063 75.2534 73.1429 75.2004 73.1681 75.1417C73.1932 75.083 73.2064 75.0199 73.2069 74.9561C73.2073 74.8923 73.1951 74.829 73.1708 74.77C73.1465 74.7102 73.1107 74.6559 73.0653 74.61C73.02 74.5641 72.9661 74.5275 72.9067 74.5025C72.8473 74.4774 72.7835 74.4643 72.719 74.4638C72.6545 74.4634 72.5905 74.4757 72.5308 74.5C72.471 74.5243 72.4167 74.5601 72.3707 74.6054C72.3248 74.6507 72.2883 74.7047 72.2632 74.7641C72.2382 74.8235 72.225 74.8873 72.2246 74.9518C72.2242 75.0163 72.2365 75.0803 72.2608 75.14Z" fill="#F7B58E"/>
<path d="M74.9992 120.38C74.9992 120.38 75.4992 121.07 77.8792 121.68C78.3992 121.81 78.9692 121.9 78.9692 122.77H76.6192L74.2192 122.35V122.77H72.9192C72.9192 122.77 72.5592 120.65 73.3192 120.38H74.9992Z" fill="#212B53"/>
<path d="M75.1203 118.85L75.0003 120.38C74.7666 120.537 74.4936 120.624 74.2125 120.633C73.9313 120.642 73.6534 120.572 73.4103 120.43L73.3203 120.38V118.85H75.1203Z" fill="#F7B58E"/>
<path d="M68.33 120.38C68.33 120.38 68.83 121.07 71.21 121.68C71.73 121.81 72.3 121.9 72.3 122.77H70L67.6 122.35V122.77H66.3C66.3 122.77 65.94 120.65 66.7 120.38H68.33Z" fill="#212B53"/>
<path d="M68.4504 118.85L68.3304 120.38C68.0967 120.537 67.8237 120.624 67.5426 120.633C67.2614 120.642 66.9834 120.572 66.7404 120.43L66.6504 120.38V118.85H68.4504Z" fill="#F7B58E"/>
<path d="M68.0808 81.15C68.0808 81.15 65.4008 87.34 68.8208 90.5C69.9247 91.451 71.2066 92.1732 72.5919 92.6247C73.9773 93.0762 75.4385 93.2479 76.8908 93.13V91.35C76.8908 91.35 72.6908 90.99 71.3408 88.18C70.9652 87.3355 70.8175 86.4074 70.9122 85.488C71.0069 84.5686 71.3409 83.6901 71.8808 82.94" fill="#F6A505"/>
<path d="M76.6191 92.88L78.7591 92.93C79.6291 92.88 80.2091 91.58 80.3491 90.62C80.3542 90.5862 80.3506 90.5517 80.3386 90.5198C80.3266 90.4878 80.3066 90.4594 80.2806 90.4374C80.2545 90.4153 80.2232 90.4003 80.1897 90.3938C80.1562 90.3872 80.1216 90.3894 80.0891 90.4C79.0374 90.7493 78.0058 91.1566 76.9991 91.62L76.6191 92.88Z" fill="#F7B58E"/>
<path d="M77.0006 94.74C79.6706 102.28 75.5006 118.97 75.5006 118.97H73.1406C73.1406 118.97 74.2706 95.3 71.1406 94.74H77.0006Z" fill="#00666B"/>
<path d="M70.8703 86.31C70.8957 86.9592 71.0558 87.5959 71.3403 88.18C72.6903 90.99 77.1103 91.36 77.1103 91.36V93.16C77.1103 93.16 72.2403 93.67 68.8203 90.5C68.264 89.9546 67.8239 89.3021 67.5266 88.582C67.2292 87.8619 67.0808 87.089 67.0903 86.31H70.8703Z" fill="#FFDA70"/>
<path d="M70.8902 86.58L70.6102 86.45C70.5388 85.1452 70.9126 83.8548 71.6702 82.79L71.8802 82.96C71.1328 84.0118 70.7821 85.2943 70.8902 86.58Z" fill="#F08712"/>
<path d="M82.2595 75.77C82.2595 75.77 81.7695 75.62 81.6895 74.77C81.6095 73.92 81.1895 74.15 81.1895 74.15C81.1895 74.15 81.4095 77.7 81.9695 77.83C82.5295 77.96 82.2595 75.77 82.2595 75.77Z" fill="#F7B58E"/>
<path d="M74.3906 94.74C75.1206 104 69.2206 119 69.2206 119H66.3906C67.5721 112.876 68.2411 106.665 68.3906 100.43C68.4112 98.5394 68.3177 96.6493 68.1106 94.77L74.3906 94.74Z" fill="#01888B"/>
<path d="M27.0095 75.48L26.0595 77.61L24.5195 76.21L25.6095 73.12L27.0095 75.48Z" fill="#F39F85"/>
<path d="M27.5607 75.62C27.7785 75.6662 28.0051 75.6453 28.2107 75.56C29.1507 74.49 28.8307 71.35 28.8307 71.35L27.7307 70.4L26.0507 71.19L25.6107 72.92C25.4894 73.6172 25.6436 74.3343 26.0407 74.92C26.4686 75.2961 26.9968 75.5394 27.5607 75.62Z" fill="#F7B58E"/>
<path d="M27.8205 86.87C28.1106 87.2504 28.5075 87.5359 28.9605 87.69C29.7205 87.95 35.3805 86.76 35.3805 86.76L36.5205 86.88C37.1149 87.0412 37.7451 87.0097 38.3205 86.79L40.0005 86.14L30.2305 85.94L26.4805 81.29L27.8205 86.87Z" fill="#F7B58E"/>
<path d="M24.52 76.21C23.3657 77.665 22.4262 79.2781 21.73 81C21.312 83.3623 21.068 85.752 21 88.15H25.75C25.75 88.15 27.12 85.68 28.18 83.43C28.3329 83.0958 28.412 82.7325 28.412 82.365C28.412 81.9975 28.3329 81.6342 28.18 81.3C27.4 79.55 26.24 77.13 26.24 77.13L24.52 76.21Z" fill="#FFD049"/>
<path d="M26.9306 119.8L27.3106 120.8C27.3999 121.069 27.5802 121.299 27.8206 121.45C28.2217 121.711 28.66 121.91 29.1206 122.04C28.3606 122.68 27.1206 122.04 26.4706 121.53C26.1307 121.292 25.8919 120.935 25.8006 120.53L25.6406 119.79L26.9306 119.8Z" fill="#F7B58E"/>
<path d="M25.721 120.31C25.5832 120.416 25.4737 120.555 25.4022 120.714C25.3306 120.872 25.2993 121.046 25.311 121.22C25.401 121.73 25.531 122.93 25.531 122.93H26.061V121.81C26.061 121.74 27.191 122.93 27.381 122.93H30.161C30.161 122.93 30.341 122.18 28.711 121.93C27.5789 121.69 26.5405 121.127 25.721 120.31Z" fill="#053C5E"/>
<path d="M21.5202 119.8L21.9002 120.8C21.9935 121.07 22.1772 121.3 22.4202 121.45C22.8186 121.709 23.2534 121.908 23.7102 122.04C22.9602 122.68 21.7602 122.04 21.0702 121.53C20.7275 121.294 20.4878 120.937 20.4002 120.53L20.2402 119.79L21.5202 119.8Z" fill="#F7B58E"/>
<path d="M20.3196 120.31C20.1819 120.417 20.0718 120.556 19.9988 120.714C19.9257 120.872 19.8917 121.046 19.8996 121.22C19.9996 121.73 20.1296 122.93 20.1296 122.93H20.6496V121.81C20.6496 121.74 21.7696 122.93 21.9696 122.93H24.7496C24.7496 122.93 24.9296 122.18 23.2996 121.93C22.1711 121.688 21.1364 121.125 20.3196 120.31Z" fill="#053C5E"/>
<path d="M25.7594 88.24C25.7594 88.24 28.1194 91.77 26.0994 105.86C26.4194 111.19 26.9994 120 26.9994 120H25.6694C25.6694 120 21.9594 110.67 23.2094 106C23.5094 101.39 22.3594 88.18 22.3594 88.18L25.7594 88.24Z" fill="#01888B"/>
<path d="M20.9993 88.15C20.2741 88.7629 19.6811 89.5168 19.2565 90.3661C18.8319 91.2153 18.5844 92.1421 18.5293 93.09C18.5293 95.4 19.6493 100.19 20.2893 103.33C20.4589 104.483 20.3457 105.66 19.9593 106.76C18.6593 111.3 20.2493 119.95 20.2493 119.95H21.5793C21.8624 115.104 22.4941 110.285 23.4693 105.53C24.6123 99.7934 25.374 93.9873 25.7493 88.15H20.9993Z" fill="#63C0C4"/>
<path d="M40.2602 86.14H32.4902V85.57H39.9102L43.2102 79.31L43.7102 79.57L40.2602 86.14Z" fill="#63C0C4"/>
<path d="M22.3594 81.51C22.3594 81.51 24.8394 87.29 26.0394 87.29C27.2394 87.29 33.8294 84.47 33.8294 84.47L33.6494 83.47L26.9094 84.61C26.5107 83.4901 26.1769 82.3482 25.9094 81.19C25.834 80.8339 25.6569 80.5073 25.3995 80.2499C25.1421 79.9925 24.8155 79.8154 24.4594 79.74C22.8594 79.45 22.3594 81.51 22.3594 81.51Z" fill="#F7B58E"/>
<path d="M25.6494 72.35C25.6494 72.35 26.3894 72.8 28.6494 71.35C28.9994 71.44 28.4494 68.2 25.5294 69.15C23.5294 69.82 23.5894 71.79 23.6894 72.89C23.6947 73.4299 23.5778 73.964 23.3475 74.4524C23.1172 74.9407 22.7794 75.3707 22.3594 75.71C21.6794 76.43 21.6894 77.76 21.2394 78.48C20.6794 79.36 20.0894 79.31 19.6494 80.2C19.3974 80.6489 19.2726 81.158 19.2885 81.6725C19.3043 82.187 19.4602 82.6875 19.7394 83.12C20.0894 83.59 20.9194 84.75 22.2194 84.34C22.9394 84.11 23.1394 82.83 23.1694 81.76C23.1862 81.2876 23.3058 80.8245 23.52 80.4031C23.7341 79.9817 24.0377 79.6121 24.4094 79.32C25.1663 78.7971 25.7483 78.0584 26.0794 77.2C26.4694 75.64 25.6494 72.35 25.6494 72.35Z" fill="#212B53"/>
<path d="M25.3906 72.42C25.4955 72.3657 25.6168 72.352 25.7311 72.3815C25.8455 72.411 25.945 72.4817 26.0106 72.58C26.0518 72.6184 26.0846 72.6648 26.1071 72.7164C26.1295 72.768 26.1411 72.8237 26.1411 72.88C26.1411 72.9363 26.1295 72.992 26.1071 73.0436C26.0846 73.0952 26.0518 73.1416 26.0106 73.18C25.9065 73.2352 25.7852 73.2483 25.6717 73.2167C25.5582 73.185 25.4611 73.1111 25.4006 73.01C25.359 72.9732 25.3255 72.9282 25.3023 72.8778C25.2791 72.8274 25.2666 72.7727 25.2657 72.7172C25.2647 72.6617 25.2754 72.6066 25.2969 72.5555C25.3184 72.5043 25.3503 72.4582 25.3906 72.42Z" fill="#F7B58E"/>
<path d="M37.3403 84C37.3505 83.9303 37.3373 83.8592 37.303 83.7978C37.2686 83.7363 37.215 83.6879 37.1503 83.66L35.8803 83.11C35.5582 82.9878 35.2025 82.9878 34.8803 83.11L33.6203 83.52H33.4503L33.3203 84.69L33.7203 84.54L34.5103 84.25C34.5103 84.25 36.2503 85.72 36.8703 84.39C37.0503 85.71 37.4303 85.56 37.4303 85.56L37.3403 84Z" fill="#F7B58E"/>
<path d="M24.5394 71.22C24.7894 72.12 26.0694 72.55 27.3994 72.22C27.9517 72.1368 28.4564 71.8597 28.8229 71.4382C29.1894 71.0167 29.3938 70.4785 29.3994 69.92C29.2694 68.7 27.8594 68.59 26.5294 68.92C25.1994 69.25 24.2894 70.31 24.5394 71.22Z" fill="#212B53"/>
<path d="M203.48 121.15C203.48 121.15 203.11 121.67 201.34 122.15C200.95 122.25 200.52 122.32 200.52 122.96H202.27L204.06 122.65V122.96H205.06C205.06 122.96 205.33 121.38 204.77 121.18L203.48 121.15Z" fill="#212B53"/>
<path d="M203.391 120L203.481 121.14C203.659 121.253 203.865 121.313 204.076 121.313C204.286 121.313 204.493 121.253 204.671 121.14H204.741V120H203.391Z" fill="#F7B58E"/>
<path d="M212.46 121.37C212.46 121.37 212.09 121.89 210.31 122.37C209.92 122.46 209.5 122.53 209.5 123.18H211.25L213.04 122.87V123.18H214.04C214.04 123.18 214.31 121.6 213.74 121.39L212.46 121.37Z" fill="#212B53"/>
<path d="M212.369 120.24L212.459 121.37C212.636 121.485 212.843 121.547 213.054 121.547C213.265 121.547 213.472 121.485 213.649 121.37H213.709V120.24H212.369Z" fill="#F7B58E"/>
<path d="M202.68 92.11L203.12 120.63H205.19C205.19 120.63 208.36 97.63 207.68 92.11C207 86.59 202.68 92.11 202.68 92.11Z" fill="#212B53"/>
<path d="M204.881 92.1C204.881 92.1 205.601 100.86 207.261 105.71C208.921 110.56 211.921 120.63 211.921 120.63H214.071C214.071 120.63 210.481 99.63 211.301 92.1H204.881Z" fill="#12375A"/>
<path d="M203 77.59C203 77.59 200.44 83.59 199.79 83.59C199.14 83.59 199.99 78.71 199.99 78.71H197.84C197.84 78.71 195.15 87.07 197.29 88.6C199.43 90.13 204.15 84.27 204.15 84.27L203 77.59Z" fill="url(#paint6_linear)"/>
<path d="M210.639 92.86L209.859 94.78C209.489 95.53 208.119 95.55 207.199 95.31C207.168 95.3013 207.14 95.2848 207.117 95.262C207.094 95.2393 207.077 95.2111 207.068 95.18C207.059 95.149 207.058 95.1162 207.065 95.0847C207.073 95.0532 207.088 95.024 207.109 95C207.814 94.1967 208.569 93.4386 209.369 92.73L210.639 92.86Z" fill="#F7B58E"/>
<path d="M204.151 76.35C204.151 76.35 202.811 77.26 202.811 78.35V92.1H210.651V79.2C210.617 78.4271 210.286 77.697 209.727 77.1622C209.168 76.6274 208.424 76.3293 207.651 76.33C204.881 76.33 204.151 76.35 204.151 76.35Z" fill="url(#paint7_linear)"/>
<path d="M202.94 92.11V79.71L202.68 79.72V92.11H202.94Z" fill="#92CEC6"/>
<path d="M207 73.27V76.53C206.817 76.7568 206.585 76.9407 206.323 77.0685C206.06 77.1963 205.772 77.2651 205.48 77.27C204.48 77.27 204.48 76.56 204.48 76.56V74.48L205.93 74.1L207 73.27Z" fill="#F39F85"/>
<path d="M204.369 75.1C204.112 75.1133 203.857 75.047 203.639 74.91C202.769 73.52 203.759 69.79 203.759 69.79L206.909 70.36L207.009 72.86C207.03 73.1896 206.968 73.5192 206.83 73.8194C206.693 74.1195 206.483 74.3808 206.219 74.58C205.668 74.9341 205.024 75.1153 204.369 75.1Z" fill="#F7B58E"/>
<path d="M205.429 70.42C204.718 70.5371 203.991 70.5371 203.28 70.42C202.18 70.23 202.89 69.02 202.89 69.02C203.616 69.2715 204.396 69.3234 205.149 69.17C206.149 69.03 206.389 68.84 207.009 69.17C207.859 69.63 207.66 71.17 207.66 71.17L207.19 74.42H207C207 74.42 207 72.48 207 71.83C206.82 71.53 206.62 71.53 206.46 71.6C206.379 71.644 206.312 71.7092 206.266 71.7886C206.221 71.8679 206.197 71.9584 206.2 72.05V75.43C206.2 75.43 204.05 76.35 203.5 76.19C202.95 76.03 203.32 73.51 203.32 73.51C203.512 73.4352 203.723 73.4219 203.924 73.4721C204.125 73.5222 204.305 73.6333 204.44 73.79C204.93 74.33 205.52 73.79 205.52 73.79L205.429 70.42Z" fill="#212B53"/>
<path d="M198.25 78.68L198.33 78.27C198.449 77.7588 198.684 77.2818 199.017 76.876C199.35 76.4702 199.772 76.1465 200.25 75.93H201.16L200.88 77.87L199.59 78.68H198.25Z" fill="#F7B58E"/>
<path d="M206.711 71.52C206.577 71.527 206.45 71.5827 206.354 71.6766C206.258 71.7705 206.2 71.8962 206.191 72.03C206.171 72.0924 206.165 72.1583 206.173 72.2232C206.181 72.2882 206.203 72.3506 206.237 72.4065C206.271 72.4623 206.317 72.5102 206.371 72.5471C206.425 72.5839 206.486 72.6087 206.551 72.62C206.684 72.6128 206.809 72.5568 206.903 72.4626C206.998 72.3685 207.054 72.2429 207.061 72.11C207.079 72.0482 207.084 71.9835 207.076 71.9197C207.068 71.8559 207.046 71.7944 207.014 71.7391C206.981 71.6838 206.937 71.6359 206.885 71.5982C206.833 71.5605 206.774 71.5339 206.711 71.52Z" fill="#F7B58E"/>
<path d="M200.5 77.65L198.73 78.65C198.73 78.65 199.84 78.65 199.86 78.65L201.74 77.08C201.74 77.08 201.6 76.81 201.17 77.08C200.911 77.2232 200.683 77.417 200.5 77.65Z" fill="#F7B58E"/>
<path d="M209.81 77.19C209.81 77.19 214.24 82.11 214.24 85.06C214.24 88.01 210.65 93.21 210.65 93.21L208.87 92.69C208.87 92.69 210.47 86.26 210.47 84.55C210.47 82.84 207.18 80.33 207.18 80.33" fill="url(#paint8_linear)"/>
<path d="M210.34 84.55C209.974 87.2844 209.436 89.9931 208.73 92.66L209 92.73C209.701 90.039 210.236 87.3071 210.6 84.55C210.6 82.79 207.4 80.33 207.26 80.22L207.1 80.43C207.1 80.43 210.34 82.92 210.34 84.55Z" fill="#92CEC6"/>
<path d="M201.69 74.43C201.873 75.6382 201.583 76.8706 200.88 77.87C200.839 77.9218 200.787 77.9646 200.729 77.9955C200.67 78.0265 200.606 78.0451 200.54 78.05C200.331 78.0715 200.121 78.0369 199.93 77.95C199.854 77.9348 199.781 77.9038 199.717 77.859C199.654 77.8142 199.6 77.7567 199.56 77.69C199.536 77.6508 199.523 77.6059 199.523 77.56C199.523 77.5141 199.536 77.4692 199.56 77.43C199.839 77.052 200.04 76.6218 200.15 76.1649C200.26 75.708 200.277 75.2336 200.2 74.77C200.412 74.6143 200.653 74.5038 200.91 74.4454C201.166 74.3869 201.431 74.3816 201.69 74.43Z" fill="#F49B42"/>
<path d="M199.77 77.89C199.678 77.8511 199.603 77.78 199.56 77.69C199.536 77.6508 199.523 77.6059 199.523 77.56C199.523 77.5141 199.536 77.4692 199.56 77.43C199.839 77.052 200.04 76.6219 200.15 76.1649C200.26 75.708 200.277 75.2336 200.2 74.77C200.402 74.6111 200.638 74.5015 200.89 74.45C200.932 75.6927 200.536 76.9106 199.77 77.89Z" fill="#F9B646"/>
<path d="M200.641 76C200.581 76.27 200.451 76.47 200.341 76.45C200.231 76.43 200.191 76.19 200.251 75.92C200.311 75.65 200.441 75.44 200.541 75.46C200.641 75.48 200.691 75.73 200.641 76Z" fill="#F49B42"/>
<path d="M200.559 75.48L200.449 75.45L200.459 75.51L200.529 75.54L200.559 75.48Z" fill="#F49B42"/>
<path d="M200.37 76.46L200.23 76.43L200.38 76.41L200.37 76.46Z" fill="#E7375E"/>
<path d="M200.541 76C200.541 76.27 200.361 76.47 200.251 76.45C200.141 76.43 200.101 76.19 200.161 75.92C200.221 75.65 200.341 75.44 200.451 75.46C200.561 75.48 200.601 75.71 200.541 76Z" fill="#FFD147"/>
<path d="M202.17 72.83H202.38C202.473 72.8273 202.566 72.8431 202.653 72.8763C202.74 72.9096 202.82 72.9596 202.888 73.0237C202.956 73.0878 203.01 73.1646 203.048 73.2498C203.086 73.3349 203.107 73.4267 203.11 73.52V74.07C203.105 74.2592 203.025 74.4387 202.889 74.5698C202.752 74.7008 202.569 74.7727 202.38 74.77H202.17V72.83Z" fill="#FFD147"/>
<path d="M195.75 73.37C195.75 74.88 196.09 76.1 196.52 76.1C196.95 76.1 197.29 74.88 197.29 73.37C197.29 71.86 196.95 70.64 196.52 70.64C196.09 70.64 195.75 71.87 195.75 73.37Z" fill="#212B53"/>
<path d="M197.331 72.37L196.721 72.77V73.65L197.351 74.22L197.561 73.07L197.331 72.37Z" fill="white"/>
<path d="M197.291 73.37C197.378 72.4554 197.179 71.5364 196.721 70.74C198.38 71.884 200.291 72.6112 202.291 72.86V74.78C202.291 74.78 198.221 74.55 196.721 76.02C197.18 75.217 197.38 74.291 197.291 73.37Z" fill="#F6A505"/>
<path d="M196.631 73.2C196.631 73.45 196.631 73.65 196.721 73.65C196.811 73.65 196.801 73.45 196.801 73.2C196.801 72.95 196.801 72.76 196.721 72.76C196.641 72.76 196.631 73 196.631 73.2Z" fill="#FFD147"/>
<path d="M199.24 77.27C199.556 77.4029 199.899 77.4578 200.24 77.43C200.76 77.43 200.99 76.8 201.08 76.43C201.08 76.31 201.14 76.14 200.98 76.06L200.16 75.95L199.24 77.27Z" fill="#F7B58E"/>
<path d="M47.42 98L47.21 95.27C46.58 89.6 48.46 83.41 53.71 77.12C58.43 71.56 61.06 67.46 61.06 62.74C61.06 57.39 57.7 53.82 51.06 53.74C47.2883 53.734 43.6032 54.8706 40.49 57L38 50.36C41.46 47.84 47.45 46.16 53 46.16C65 46.16 70.5 53.61 70.5 61.59C70.5 68.72 66.5 73.86 61.5 79.85C56.88 85.3 55.2 89.92 55.5 95.27L55.6 98H47.42ZM45.11 112.69C45.11 108.81 47.73 106.08 51.4 106.08C55.07 106.08 57.59 108.81 57.59 112.69C57.59 116.36 55.18 119.19 51.3 119.19C50.4587 119.197 49.6249 119.031 48.8503 118.703C48.0757 118.374 47.3766 117.891 46.7964 117.281C46.2162 116.672 45.7672 115.95 45.4771 115.161C45.187 114.371 45.0621 113.53 45.11 112.69Z" fill="#FF7C44"/>
<defs>
<linearGradient id="paint0_linear" x1="183.881" y1="27.95" x2="195.421" y2="27.95" gradientUnits="userSpaceOnUse">
<stop stop-color="#F1F8F7"/>
<stop offset="1" stop-color="#BFE3EE"/>
</linearGradient>
<linearGradient id="paint1_linear" x1="1895.8" y1="232.864" x2="1982.48" y2="232.864" gradientUnits="userSpaceOnUse">
<stop stop-color="#F1F8F7"/>
<stop offset="1" stop-color="#BFE3EE"/>
</linearGradient>
<linearGradient id="paint2_linear" x1="827.55" y1="184.434" x2="1030.9" y2="184.434" gradientUnits="userSpaceOnUse">
<stop stop-color="#F1F8F7"/>
<stop offset="1" stop-color="#BFE3EE"/>
</linearGradient>
<linearGradient id="paint3_linear" x1="928.198" y1="160.946" x2="1220.27" y2="160.946" gradientUnits="userSpaceOnUse">
<stop stop-color="#F1F8F7"/>
<stop offset="1" stop-color="#BFE3EE"/>
</linearGradient>
<linearGradient id="paint4_linear" x1="122.641" y1="85.92" x2="122.061" y2="85.92" gradientUnits="userSpaceOnUse">
<stop stop-color="#DFEFEA"/>
<stop offset="1" stop-color="#BFE3EE"/>
</linearGradient>
<linearGradient id="paint5_linear" x1="1805.32" y1="800.937" x2="1904.12" y2="800.937" gradientUnits="userSpaceOnUse">
<stop stop-color="#DFEFEA"/>
<stop offset="1" stop-color="#BFE3EE"/>
</linearGradient>
<linearGradient id="paint6_linear" x1="-18169.5" y1="1014.82" x2="-18110.4" y2="1014.82" gradientUnits="userSpaceOnUse">
<stop stop-color="#DFEFEA"/>
<stop offset="1" stop-color="#BFE3EE"/>
</linearGradient>
<linearGradient id="paint7_linear" x1="-18538.5" y1="1404.48" x2="-18477.1" y2="1404.48" gradientUnits="userSpaceOnUse">
<stop stop-color="#DFEFEA"/>
<stop offset="1" stop-color="#BFE3EE"/>
</linearGradient>
<linearGradient id="paint8_linear" x1="207.18" y1="85.2" x2="214.24" y2="85.2" gradientUnits="userSpaceOnUse">
<stop stop-color="#BFE3EE"/>
<stop offset="1" stop-color="#DFEFEA"/>
</linearGradient>
</defs>
</svg>
