<svg width="229" height="242" viewBox="0 0 229 242" fill="none" xmlns="http://www.w3.org/2000/svg">
<path d="M22.3107 132.987C31.6741 115.95 47.6727 101.188 48.6413 81.796C49.1095 72.5839 45.9937 63.2427 48.0601 54.2564C53.0163 32.5087 75.1171 19.602 96.314 19.36C111.215 19.1342 123.613 29.6208 130.959 32.2667C145.488 37.5262 160.243 35.574 169.074 50.2715C177.582 64.5334 173.207 81.312 176.904 97.5744C180.811 114.547 198.165 124.791 206.641 140.021C213.164 151.92 216.448 165.322 216.166 178.886C215.81 189.954 213.47 206.749 205.026 214.944C197.988 221.817 187.494 228.835 178.212 228.997C143.965 229.61 109.746 228.636 75.553 226.076C67.0076 225.431 58.4783 224.694 49.9651 223.866C45.843 223.468 41.7264 223.038 37.6151 222.576C36.1727 222.28 34.812 221.675 33.6275 220.801C27.9217 217.003 23.3967 211.682 20.5672 205.442C19.5824 203.345 18.4685 201.263 17.6775 199.085C15.2641 192.424 13.7283 185.476 13.1088 178.419C11.618 162.699 14.82 146.89 22.3107 132.987Z" fill="#F2F8FC"/>
<path d="M130.312 214.735C175.65 214.735 212.403 213.695 212.403 212.412C212.403 211.129 175.65 210.088 130.312 210.088C84.9742 210.088 48.2207 211.129 48.2207 212.412C48.2207 213.695 84.9742 214.735 130.312 214.735Z" fill="#D1E6F7"/>
<path d="M43.879 177.87C41.8764 179.787 39.9743 181.807 38.1802 183.92C37.2439 182.742 36.3398 181.5 35.4681 180.226L24.7324 164.302L39.8269 163.286C58.5537 161.995 74.5522 170.271 85.0296 186.679L95.6845 203.28L74.2616 202.522C67.7145 202.334 61.2798 200.775 55.3733 197.946C49.4668 195.117 44.2201 191.08 39.9722 186.098L43.879 177.87Z" fill="#093C5D"/>
<path d="M88.4851 198.682L28.6561 166.415C28.6365 166.41 28.6183 166.401 28.603 166.388C28.5877 166.374 28.5757 166.358 28.5681 166.339C28.5605 166.32 28.5574 166.3 28.559 166.28C28.5607 166.259 28.5671 166.24 28.5778 166.223C28.5884 166.205 28.6029 166.191 28.6202 166.18C28.6375 166.17 28.657 166.163 28.6772 166.162C28.6974 166.16 28.7177 166.163 28.7365 166.171C28.7553 166.178 28.772 166.19 28.7853 166.206L88.5335 198.44C88.5495 198.464 88.558 198.492 88.558 198.521C88.558 198.549 88.5495 198.577 88.5335 198.601C88.5281 198.633 88.5108 198.662 88.4851 198.682Z" fill="white"/>
<path d="M71.5003 172.385C69.8505 174.623 68.0886 176.777 66.2212 178.838C67.5289 179.612 68.8688 180.338 70.2572 181.032L87.4826 189.534L86.4817 174.45C85.2387 155.719 74.8905 140.989 57.213 132.777L39.3418 124.469L42.9742 145.587C44.038 152.048 46.447 158.214 50.0455 163.686C53.644 169.158 58.3517 173.814 63.8642 177.354L71.5003 172.385Z" fill="#FFBEA2"/>
<path d="M85.0948 186.017C85.0634 186.028 85.0293 186.028 84.9979 186.017L44.9128 131.164C44.9021 131.153 44.8936 131.141 44.8877 131.127C44.8819 131.113 44.8789 131.098 44.8789 131.083C44.8789 131.068 44.8819 131.053 44.8877 131.04C44.8936 131.026 44.9021 131.013 44.9128 131.003C44.9368 130.98 44.9686 130.967 45.0016 130.967C45.0346 130.967 45.0664 130.98 45.0904 131.003L85.1755 185.856C85.1982 185.88 85.2109 185.912 85.2109 185.945C85.2109 185.978 85.1982 186.009 85.1755 186.033L85.0948 186.017Z" fill="white"/>
<path d="M155.916 89.5399C155.642 89.5399 155.379 89.4311 155.186 89.2375C154.992 89.0438 154.883 88.7812 154.883 88.5073V77.9561C154.881 77.8192 154.906 77.6832 154.957 77.5561C155.008 77.4289 155.084 77.3132 155.18 77.2156C155.276 77.118 155.391 77.0405 155.517 76.9876C155.643 76.9347 155.779 76.9075 155.916 76.9075C156.192 76.9117 156.454 77.0241 156.648 77.2203C156.841 77.4165 156.949 77.6808 156.949 77.9561V88.5073C156.949 88.7812 156.841 89.0438 156.647 89.2375C156.453 89.4311 156.19 89.5399 155.916 89.5399Z" fill="#382A73"/>
<path d="M155.916 112.933C155.78 112.936 155.645 112.91 155.518 112.859C155.392 112.808 155.277 112.732 155.181 112.636C155.084 112.539 155.008 112.425 154.957 112.299C154.906 112.172 154.881 112.037 154.883 111.901V94.2026C154.881 94.0664 154.906 93.9311 154.957 93.8049C155.008 93.6786 155.084 93.5639 155.181 93.4676C155.277 93.3713 155.392 93.2953 155.518 93.2442C155.645 93.1931 155.78 93.1679 155.916 93.1701C156.19 93.1701 156.453 93.2788 156.647 93.4725C156.84 93.6661 156.949 93.9287 156.949 94.2026V111.82C156.961 111.962 156.942 112.105 156.895 112.24C156.848 112.375 156.774 112.498 156.677 112.603C156.58 112.708 156.462 112.791 156.331 112.848C156.2 112.905 156.059 112.934 155.916 112.933Z" fill="#382A73"/>
<path d="M149.378 45.3833H75.0685C72.0459 45.3833 69.5957 47.8319 69.5957 50.8525V205.797C69.5957 208.818 72.0459 211.266 75.0685 211.266H149.378C152.401 211.266 154.851 208.818 154.851 205.797V50.8525C154.851 47.8319 152.401 45.3833 149.378 45.3833Z" fill="#E8E8FB"/>
<path d="M149.378 44.3181H75.0519C71.4409 44.3181 68.5137 47.2435 68.5137 50.8521V205.813C68.5137 209.421 71.4409 212.347 75.0519 212.347H149.378C152.989 212.347 155.916 209.421 155.916 205.813V50.8521C155.916 47.2435 152.989 44.3181 149.378 44.3181Z" fill="#EFEFEF"/>
<path d="M149.378 44.4473H75.0517C71.512 44.4473 68.6426 47.3149 68.6426 50.8522V205.813C68.6426 209.35 71.512 212.218 75.0517 212.218H149.378C152.917 212.218 155.787 209.35 155.787 205.813V50.8522C155.787 47.3149 152.917 44.4473 149.378 44.4473Z" fill="#5C81A2"/>
<path d="M149.38 46.335H75.0535C72.557 46.335 70.5332 48.3574 70.5332 50.8523V205.813C70.5332 208.308 72.557 210.33 75.0535 210.33H149.38C151.876 210.33 153.9 208.308 153.9 205.813V50.8523C153.9 48.3574 151.876 46.335 149.38 46.335Z" fill="#EFEFEF"/>
<path d="M149.379 46.4641H75.0694C72.6353 46.4641 70.6621 48.436 70.6621 50.8685V205.813C70.6621 208.246 72.6353 210.217 75.0694 210.217H149.379C151.813 210.217 153.787 208.246 153.787 205.813V50.8685C153.787 48.436 151.813 46.4641 149.379 46.4641Z" fill="#E8E8FB"/>
<path d="M107.049 71.9871L104.66 72.0355V71.9871H107.049Z" fill="#7C6ED8"/>
<path d="M112.846 110.546C127.477 110.546 139.338 98.6924 139.338 84.0707C139.338 69.4491 127.477 57.5959 112.846 57.5959C98.2144 57.5959 86.3535 69.4491 86.3535 84.0707C86.3535 98.6924 98.2144 110.546 112.846 110.546Z" fill="#FF7C44"/>
<path d="M125.179 81.3604H122.693V85.3775C122.689 86.861 122.097 88.2825 121.047 89.3314C119.998 90.3804 118.575 90.9716 117.091 90.9758H109.859L109.762 91.0726V93.3151C109.766 94.0526 110.062 94.7584 110.585 95.2783C111.109 95.7982 111.817 96.0901 112.555 96.0901H118.818L122.919 100.188C123.127 100.431 123.423 100.582 123.742 100.607C123.843 100.629 123.948 100.629 124.049 100.607C124.243 100.516 124.403 100.365 124.505 100.176C124.606 99.9875 124.645 99.771 124.614 99.5587V96.0901H125.179C125.917 96.0901 126.625 95.7982 127.148 95.2783C127.672 94.7584 127.968 94.0526 127.972 93.3151V84.1353C127.968 83.3978 127.672 82.6921 127.148 82.1721C126.625 81.6522 125.917 81.3603 125.179 81.3604Z" fill="white"/>
<path d="M102.659 94.7672C102.531 94.7879 102.4 94.7879 102.272 94.7672C102.021 94.649 101.815 94.4535 101.685 94.2095C101.554 93.9654 101.505 93.6858 101.545 93.412V88.9592H100.803C99.8535 88.9549 98.9443 88.5762 98.2731 87.9054C97.602 87.2347 97.223 86.3262 97.2188 85.3776V73.5357C97.223 72.5871 97.602 71.6786 98.2731 71.0078C98.9443 70.3371 99.8535 69.9583 100.803 69.9541H117.108C117.737 69.9619 118.353 70.1284 118.9 70.4381C119.441 70.7558 119.89 71.2081 120.204 71.7509C120.518 72.2938 120.686 72.9087 120.692 73.5357V85.3776C120.688 86.3262 120.309 87.2347 119.637 87.9054C118.966 88.5762 118.057 88.9549 117.108 88.9592H109.036L103.741 94.2509C103.606 94.4066 103.44 94.5328 103.254 94.6216C103.068 94.7104 102.865 94.76 102.659 94.7672ZM100.803 71.3093C100.51 71.3093 100.22 71.3669 99.9501 71.4788C99.6798 71.5907 99.4342 71.7547 99.2273 71.9614C99.0205 72.1681 98.8564 72.4136 98.7444 72.6837C98.6325 72.9538 98.5748 73.2433 98.5748 73.5357V85.3776C98.5748 85.6699 98.6325 85.9595 98.7444 86.2296C98.8564 86.4997 99.0205 86.7451 99.2273 86.9519C99.4342 87.1586 99.6798 87.3226 99.9501 87.4345C100.22 87.5464 100.51 87.604 100.803 87.604H102.901V93.17L108.471 87.604H117.108C117.699 87.604 118.265 87.3694 118.683 86.9519C119.101 86.5343 119.336 85.968 119.336 85.3776V73.5357C119.336 73.146 119.233 72.7631 119.037 72.4259C118.842 72.0888 118.56 71.8093 118.222 71.6158C117.886 71.4123 117.501 71.3062 117.108 71.3093H100.803Z" fill="white"/>
<path d="M123.71 157.752H101.319C98.1266 157.752 95.5391 160.338 95.5391 163.527V163.544C95.5391 166.733 98.1266 169.319 101.319 169.319H123.71C126.902 169.319 129.49 166.733 129.49 163.544V163.527C129.49 160.338 126.902 157.752 123.71 157.752Z" fill="#FF7C44"/>
<path d="M147.393 122H77.5548C75.9411 122 74.6328 123.308 74.6328 124.921V131.761C74.6328 133.374 75.9411 134.681 77.5548 134.681H147.393C149.007 134.681 150.315 133.374 150.315 131.761V124.921C150.315 123.308 149.007 122 147.393 122Z" fill="white"/>
<path d="M147.393 138.36H77.5548C75.9411 138.36 74.6328 139.667 74.6328 141.28V148.12C74.6328 149.733 75.9411 151.04 77.5548 151.04H147.393C149.007 151.04 150.315 149.733 150.315 148.12V141.28C150.315 139.667 149.007 138.36 147.393 138.36Z" fill="white"/>
<path d="M80.848 146.523C81.7931 146.523 82.5592 145.757 82.5592 144.813C82.5592 143.868 81.7931 143.103 80.848 143.103C79.9029 143.103 79.1367 143.868 79.1367 144.813C79.1367 145.757 79.9029 146.523 80.848 146.523Z" fill="#093C5D"/>
<path d="M87.2093 146.523C88.1544 146.523 88.9205 145.757 88.9205 144.813C88.9205 143.868 88.1544 143.103 87.2093 143.103C86.2642 143.103 85.498 143.868 85.498 144.813C85.498 145.757 86.2642 146.523 87.2093 146.523Z" fill="#093C5D"/>
<path d="M93.553 146.523C94.4981 146.523 95.2643 145.757 95.2643 144.813C95.2643 143.868 94.4981 143.103 93.553 143.103C92.6079 143.103 91.8418 143.868 91.8418 144.813C91.8418 145.757 92.6079 146.523 93.553 146.523Z" fill="#093C5D"/>
<path d="M99.8987 146.523C100.844 146.523 101.61 145.757 101.61 144.813C101.61 143.868 100.844 143.103 99.8987 143.103C98.9537 143.103 98.1875 143.868 98.1875 144.813C98.1875 145.757 98.9537 146.523 99.8987 146.523Z" fill="#093C5D"/>
<path d="M106.242 146.523C107.188 146.523 107.954 145.757 107.954 144.813C107.954 143.868 107.188 143.103 106.242 143.103C105.297 143.103 104.531 143.868 104.531 144.813C104.531 145.757 105.297 146.523 106.242 146.523Z" fill="#093C5D"/>
<path d="M112.604 146.523C113.549 146.523 114.315 145.757 114.315 144.813C114.315 143.868 113.549 143.103 112.604 143.103C111.659 143.103 110.893 143.868 110.893 144.813C110.893 145.757 111.659 146.523 112.604 146.523Z" fill="#093C5D"/>
<path d="M118.948 146.523C119.893 146.523 120.659 145.757 120.659 144.813C120.659 143.868 119.893 143.103 118.948 143.103C118.002 143.103 117.236 143.868 117.236 144.813C117.236 145.757 118.002 146.523 118.948 146.523Z" fill="#093C5D"/>
<path d="M111.747 129.809H80.6054C80.22 129.809 79.8505 129.656 79.578 129.384C79.3055 129.111 79.1524 128.742 79.1524 128.357C79.1503 128.165 79.1863 127.974 79.2584 127.796C79.3304 127.618 79.4371 127.456 79.5722 127.32C79.7074 127.183 79.8683 127.075 80.0456 127.001C80.2229 126.927 80.4132 126.889 80.6054 126.889H111.747C111.939 126.889 112.129 126.927 112.307 127.001C112.484 127.075 112.645 127.183 112.78 127.32C112.915 127.456 113.022 127.618 113.094 127.796C113.166 127.974 113.202 128.165 113.2 128.357C113.2 128.547 113.162 128.736 113.089 128.912C113.016 129.089 112.909 129.249 112.774 129.384C112.639 129.518 112.479 129.625 112.303 129.698C112.127 129.771 111.938 129.809 111.747 129.809Z" fill="#093C5D"/>
<path d="M135.43 129.809H118.205C117.82 129.809 117.45 129.656 117.178 129.384C116.905 129.111 116.752 128.742 116.752 128.357C116.75 128.165 116.786 127.974 116.858 127.796C116.93 127.618 117.037 127.456 117.172 127.32C117.307 127.183 117.468 127.075 117.645 127.001C117.823 126.927 118.013 126.889 118.205 126.889H135.43C135.623 126.889 135.813 126.927 135.99 127.001C136.168 127.075 136.328 127.183 136.464 127.32C136.599 127.456 136.705 127.618 136.777 127.796C136.849 127.974 136.886 128.165 136.883 128.357C136.883 128.742 136.73 129.111 136.458 129.384C136.185 129.656 135.816 129.809 135.43 129.809Z" fill="#093C5D"/>
<path d="M132.799 185.533C135.856 185.587 138.906 185.207 141.856 184.404C143.648 186.469 147.829 189.631 156.837 189.857C170.301 190.196 169.413 189.002 169.413 189.002C171.27 187.953 173.966 182.291 176.42 176.273C178.228 177.886 183.184 182.387 184.895 182.984C186.994 183.743 191.03 183.888 192.531 180.903C194.033 177.918 191.482 172.965 191.482 172.965C189.416 167.861 187.016 162.897 184.298 158.107C183.335 156.313 182.099 154.68 180.633 153.267C180.296 152.883 179.861 152.599 179.374 152.444L168.945 148.911L152.366 150.201C151.764 150.265 151.198 150.52 150.751 150.927C149.718 151.25 147.942 152.299 145.004 155.316C139.321 161.156 131.976 173.708 130.927 178.354C129.877 183 131.153 185.065 132.799 185.533Z" fill="white"/>
<path d="M170.593 187.97C170.574 187.947 170.564 187.918 170.564 187.889C170.564 187.86 170.574 187.831 170.593 187.808C172.985 184.192 174.936 180.303 176.405 176.225V176.079L176.518 176.192C178.789 178.324 181.182 180.323 183.685 182.178C183.702 182.198 183.712 182.224 183.712 182.25C183.712 182.277 183.702 182.303 183.685 182.323C183.676 182.333 183.665 182.341 183.653 182.347C183.64 182.353 183.626 182.356 183.613 182.356C183.599 182.356 183.585 182.353 183.573 182.347C183.56 182.341 183.549 182.333 183.54 182.323C181.064 180.496 178.697 178.524 176.453 176.418C174.985 180.466 173.045 184.327 170.674 187.921L170.593 187.97Z" fill="#212B53"/>
<path d="M192.112 181.629C192.094 181.606 192.084 181.578 192.084 181.549C192.084 181.519 192.094 181.491 192.112 181.468C192.256 181.274 192.386 181.069 192.499 180.855C193.952 177.935 191.482 173.062 191.45 173.014C189.378 167.927 186.979 162.98 184.266 158.204C183.303 156.419 182.079 154.787 180.634 153.364C180.307 152.998 179.889 152.725 179.423 152.573L175.161 151.137C175.14 151.129 175.122 151.114 175.109 151.096C175.097 151.077 175.09 151.055 175.09 151.032C175.09 151.01 175.097 150.988 175.109 150.969C175.122 150.95 175.14 150.936 175.161 150.927L179.407 152.363C179.909 152.531 180.359 152.826 180.714 153.218C182.179 154.636 183.42 156.268 184.395 158.058C187.109 162.84 189.509 167.792 191.579 172.885C191.692 173.079 194.13 177.886 192.629 180.952C192.51 181.181 192.375 181.402 192.225 181.613L192.112 181.629Z" fill="#212B53"/>
<path d="M179.809 203.764C180.261 203.764 181.908 203.329 188.64 202.877C192.244 202.551 195.877 202.752 199.424 203.474C200.055 203.735 200.6 204.169 200.997 204.725C201.394 205.282 201.626 205.938 201.668 206.62C201.736 207.519 201.488 208.415 200.967 209.151C200.445 209.888 199.682 210.419 198.81 210.653C194.792 211.181 190.737 211.381 186.686 211.25C184.297 210.96 179.212 209.75 177.856 208.411C176.499 207.071 179.809 203.764 179.809 203.764Z" fill="#5C81A2"/>
<path d="M173.579 172.159H167.751C167.572 172.176 167.392 172.147 167.228 172.073C167.064 172 166.922 171.885 166.816 171.74C166.71 171.595 166.644 171.425 166.624 171.247C166.604 171.068 166.63 170.888 166.701 170.723L170.802 157.542C170.946 157.138 171.207 156.785 171.552 156.529C171.897 156.274 172.31 156.126 172.739 156.106H178.583C178.761 156.093 178.938 156.126 179.1 156.201C179.261 156.276 179.401 156.39 179.506 156.534C179.611 156.677 179.677 156.845 179.7 157.022C179.722 157.198 179.699 157.377 179.633 157.542L175.532 170.723C175.387 171.13 175.124 171.484 174.776 171.74C174.427 171.996 174.011 172.142 173.579 172.159Z" fill="#FF7C44"/>
<path d="M151.51 188.066L169.478 188.954C169.478 188.954 182.054 183.42 186.235 182.678C190.416 181.936 193.128 182.226 195.082 185.065C197.035 187.905 196.277 193.003 192.838 196.149C189.399 199.295 181.295 203.167 181.295 203.167C181.295 203.167 168.881 208.104 164.393 209.007C162.71 209.4 161.007 209.702 159.291 209.911C159.291 209.911 157.806 210.508 157.192 203.328C156.579 196.149 154.206 198.488 154.206 198.488C154.206 198.488 151.51 187.614 151.51 188.066Z" fill="#212B53"/>
<path d="M149.411 210.201C149.411 210.201 139.983 206.458 136.383 200.328C132.783 194.197 132.654 190.002 133.687 187.018C134.72 184.033 140.581 183.275 140.581 183.275C140.581 183.275 143.422 182.823 149.718 185.663C156.014 188.502 173.934 199.134 173.934 199.134L177.082 201.086C177.082 201.086 177.97 203.167 175.726 206.168C175.217 206.994 174.504 207.676 173.656 208.147C172.808 208.619 171.853 208.865 170.883 208.862L157.548 204.668L154.706 206.168L153.011 209.733L149.411 210.201Z" fill="#212B53"/>
<path d="M155.997 205.426C153.359 204.768 150.644 204.465 147.925 204.522C142.84 204.522 138.352 204.829 137.157 205.878C136.524 206.359 136.065 207.034 135.85 207.799C135.634 208.565 135.674 209.38 135.963 210.121C136.705 211.476 138.175 213.105 142.84 213.138C148.539 213.138 150.621 213.283 154.964 211.621C159.307 209.959 158.419 206.942 158.419 206.942L155.997 205.426Z" fill="#5C81A2"/>
<path d="M157.645 204.377L154.416 205.167C154.238 205.728 154.182 206.321 154.252 206.905C154.321 207.489 154.515 208.052 154.82 208.555C155.304 209.295 155.843 209.996 156.434 210.653L160.922 209.604C159.937 208.849 159.081 207.939 158.388 206.91C157.193 205.119 157.645 204.377 157.645 204.377Z" fill="#C3996B"/>
<path d="M176.517 200.328L183.249 203.925C183.563 204.394 183.766 204.928 183.845 205.487C183.923 206.046 183.874 206.615 183.701 207.152C183.269 208.018 182.658 208.782 181.909 209.395L174.354 207.507C175.403 206.746 176.147 205.636 176.452 204.377C176.742 203.743 176.897 203.056 176.909 202.359C176.92 201.662 176.786 200.971 176.517 200.328Z" fill="#C3996B"/>
<path d="M181.005 168.755L179.908 163.302L176.388 161.688H171.868C171.807 161.687 171.746 161.702 171.692 161.731C171.638 161.76 171.593 161.803 171.56 161.855C171.528 161.907 171.509 161.967 171.507 162.028C171.504 162.089 171.517 162.15 171.545 162.205C171.68 162.457 171.879 162.67 172.123 162.82C172.367 162.97 172.647 163.053 172.933 163.06H174.968L177.179 163.769L173.951 164.221L171.852 165.496C171.627 165.642 171.464 165.867 171.395 166.126C171.327 166.385 171.357 166.661 171.481 166.899L171.981 167.867L172.159 169.481L172.933 170.336C173.133 170.558 173.386 170.726 173.668 170.825C173.95 170.924 174.253 170.95 174.548 170.9L175.097 170.82L176.291 172.578C177.099 173.175 178.745 174.192 179.698 173.917C180.025 173.821 180.33 173.661 180.595 173.447C180.86 173.232 181.08 172.967 181.242 172.667C181.405 172.367 181.506 172.038 181.54 171.699C181.574 171.36 181.54 171.017 181.441 170.691L181.005 168.755Z" fill="#C3996B"/>
<path d="M160.486 169.4L163.166 166.012L165.491 164.028C165.663 163.885 165.853 163.766 166.056 163.673L168.8 162.398C168.844 162.879 168.756 163.363 168.546 163.798C168.335 164.233 168.01 164.602 167.606 164.867L165.862 166.077L169.947 165.286L173.079 163.673C173.318 163.515 173.599 163.431 173.886 163.431C174.173 163.431 174.453 163.515 174.693 163.673C174.938 163.863 175.134 164.108 175.266 164.389C175.397 164.669 175.461 164.976 175.452 165.286V166.609C175.443 167.064 175.337 167.512 175.142 167.924C174.948 168.335 174.668 168.701 174.322 168.997L171.303 171.643C170.971 171.944 170.581 172.174 170.157 172.32L161.826 174.756C161.483 174.857 161.118 174.849 160.779 174.734C160.441 174.618 160.147 174.401 159.937 174.111C159.534 173.566 159.307 172.911 159.287 172.233C159.266 171.555 159.454 170.888 159.824 170.32L160.486 169.4Z" fill="#C3996B"/>
<path d="M167.541 167.787C167.527 167.795 167.51 167.8 167.493 167.8C167.476 167.8 167.459 167.795 167.445 167.787C167.427 167.766 167.418 167.741 167.418 167.714C167.418 167.688 167.427 167.662 167.445 167.642L169.85 167.077C170.372 166.944 170.872 166.738 171.335 166.464L174.483 164.27C174.494 164.255 174.508 164.243 174.525 164.235C174.541 164.227 174.56 164.223 174.578 164.223C174.596 164.224 174.614 164.229 174.63 164.238C174.646 164.247 174.66 164.26 174.67 164.276C174.68 164.291 174.686 164.309 174.687 164.327C174.689 164.346 174.686 164.364 174.678 164.381C174.671 164.398 174.66 164.413 174.645 164.424C174.631 164.436 174.614 164.444 174.596 164.447L171.367 166.641C170.867 166.941 170.322 167.159 169.753 167.287L167.348 167.867L167.541 167.787Z" fill="#1A1A1A"/>
<path d="M168.137 169.626C168.12 169.634 168.1 169.639 168.081 169.639C168.061 169.639 168.042 169.634 168.024 169.626C168.011 169.607 168.004 169.584 168.004 169.561C168.004 169.538 168.011 169.516 168.024 169.497L170.123 168.9C170.561 168.768 170.979 168.578 171.366 168.335L174.837 165.786C174.857 165.769 174.883 165.76 174.91 165.76C174.936 165.76 174.962 165.769 174.982 165.786C174.992 165.795 175.001 165.806 175.006 165.819C175.012 165.831 175.015 165.845 175.015 165.859C175.015 165.873 175.012 165.886 175.006 165.899C175.001 165.911 174.992 165.922 174.982 165.931L171.511 168.48C171.097 168.735 170.652 168.935 170.187 169.077L168.105 169.674L168.137 169.626Z" fill="#1A1A1A"/>
<path d="M168.623 171.384C168.606 171.393 168.586 171.397 168.567 171.397C168.547 171.397 168.528 171.393 168.51 171.384C168.504 171.355 168.509 171.324 168.524 171.297C168.539 171.27 168.563 171.25 168.591 171.239L170.56 170.562C171.112 170.367 171.626 170.077 172.078 169.706L175.145 167.174C175.145 167.174 175.258 167.174 175.291 167.174C175.301 167.183 175.309 167.194 175.315 167.206C175.321 167.219 175.323 167.232 175.323 167.246C175.323 167.26 175.321 167.273 175.315 167.286C175.309 167.299 175.301 167.31 175.291 167.319L172.223 169.868C171.74 170.254 171.194 170.554 170.609 170.755L168.623 171.433V171.384Z" fill="#1A1A1A"/>
<path d="M162.503 145.797L160.76 150.298C160.487 151.001 160.388 151.759 160.469 152.509C160.592 153.678 161.167 154.752 162.072 155.503C162.977 156.254 164.14 156.621 165.312 156.526C165.755 156.485 166.181 156.331 166.548 156.08C166.915 155.829 167.212 155.488 167.411 155.09L170.817 148.024L162.503 145.797Z" fill="#C3996B"/>
<path d="M167.976 207.926C161.002 206.604 142.679 197.537 142.502 197.456C142.491 197.447 142.483 197.436 142.477 197.423C142.472 197.411 142.469 197.397 142.469 197.383C142.469 197.37 142.472 197.356 142.477 197.344C142.483 197.331 142.491 197.32 142.502 197.311C142.502 197.311 142.502 197.23 142.647 197.311C142.792 197.391 161.115 206.442 168.057 207.765C168.086 207.772 168.111 207.789 168.128 207.813C168.146 207.836 168.155 207.865 168.154 207.894C168.132 207.919 168.103 207.935 168.071 207.941C168.039 207.947 168.005 207.942 167.976 207.926Z" fill="white"/>
<path d="M175.758 200.053L155.546 188.986C155.531 188.964 155.523 188.939 155.523 188.913C155.523 188.887 155.531 188.862 155.546 188.841C155.569 188.822 155.597 188.812 155.627 188.812C155.656 188.812 155.684 188.822 155.707 188.841L175.919 199.908C175.938 199.931 175.948 199.959 175.948 199.989C175.948 200.018 175.938 200.046 175.919 200.069C175.909 200.082 175.896 200.092 175.881 200.098C175.866 200.104 175.85 200.107 175.834 200.105C175.818 200.103 175.803 200.098 175.789 200.089C175.776 200.08 175.765 200.068 175.758 200.053Z" fill="white"/>
<path d="M169.769 195.956C169.738 195.968 169.703 195.968 169.672 195.956C169.672 195.956 169.672 195.826 169.672 195.81L181.957 189.97C181.979 189.956 182.004 189.948 182.03 189.948C182.056 189.948 182.081 189.956 182.103 189.97C182.113 189.979 182.121 189.99 182.127 190.003C182.132 190.015 182.135 190.029 182.135 190.043C182.135 190.056 182.132 190.07 182.127 190.083C182.121 190.095 182.113 190.106 182.103 190.115L169.817 195.956H169.769Z" fill="white"/>
<path d="M164.991 191.616C164.973 191.624 164.954 191.629 164.934 191.629C164.915 191.629 164.895 191.624 164.878 191.616C164.864 191.597 164.857 191.574 164.857 191.551C164.857 191.528 164.864 191.506 164.878 191.487C166.662 190.782 168.408 189.985 170.108 189.099C170.121 189.087 170.137 189.078 170.153 189.073C170.17 189.068 170.188 189.067 170.205 189.07C170.223 189.073 170.239 189.08 170.253 189.091C170.267 189.101 170.279 189.115 170.287 189.131C170.295 189.147 170.299 189.164 170.299 189.181C170.299 189.199 170.294 189.216 170.287 189.232C170.279 189.248 170.267 189.261 170.253 189.272C170.239 189.282 170.222 189.289 170.205 189.293C168.5 190.181 166.749 190.978 164.958 191.68L164.991 191.616Z" fill="white"/>
<path d="M137.222 173.208C137.205 173.216 137.186 173.221 137.166 173.221C137.146 173.221 137.127 173.216 137.109 173.208C137.109 173.178 137.118 173.149 137.135 173.126C137.153 173.103 137.178 173.086 137.206 173.078C137.303 173.078 147.894 170.836 153.673 169.852L156.902 169.255H159.146C159.173 169.255 159.2 169.264 159.22 169.282C159.241 169.3 159.255 169.325 159.259 169.352C159.259 169.382 159.247 169.41 159.226 169.432C159.204 169.453 159.176 169.465 159.146 169.465H157.063L153.834 170.062C148.071 171.11 137.481 173.288 137.368 173.288L137.222 173.208Z" fill="#212B53"/>
<path d="M146.425 182.936C146.408 182.945 146.388 182.949 146.369 182.949C146.349 182.949 146.33 182.945 146.312 182.936C146.307 182.908 146.313 182.88 146.328 182.856C146.343 182.832 146.366 182.815 146.393 182.807C150.841 181.508 155.163 179.812 159.308 177.741L160.793 175.515C160.814 175.498 160.839 175.488 160.866 175.488C160.893 175.488 160.918 175.498 160.939 175.515C160.957 175.538 160.967 175.566 160.967 175.595C160.967 175.625 160.957 175.653 160.939 175.676L159.421 177.935C155.225 180.013 150.855 181.719 146.361 183.033L146.425 182.936Z" fill="#212B53"/>
<path d="M145.666 171.417C145.655 171.408 145.647 171.397 145.641 171.384C145.636 171.371 145.633 171.358 145.633 171.344C145.633 171.33 145.636 171.317 145.641 171.304C145.647 171.292 145.655 171.281 145.666 171.272L150.606 164.98C150.63 164.964 150.658 164.955 150.686 164.955C150.715 164.955 150.743 164.964 150.767 164.98C150.783 165.003 150.792 165.031 150.792 165.06C150.792 165.089 150.783 165.117 150.767 165.141L145.827 171.417H145.666Z" fill="#212B53"/>
<path d="M189.979 172.627C188.223 171.487 186.323 170.587 184.329 169.948H181.794C181.767 169.945 181.742 169.931 181.724 169.91C181.707 169.889 181.697 169.863 181.697 169.836C181.697 169.81 181.707 169.785 181.726 169.767C181.744 169.749 181.768 169.739 181.794 169.739H184.377C186.398 170.375 188.321 171.287 190.092 172.449C190.109 172.47 190.118 172.495 190.118 172.522C190.118 172.548 190.109 172.574 190.092 172.594C190.079 172.611 190.061 172.624 190.041 172.63C190.021 172.635 189.999 172.634 189.979 172.627Z" fill="#212B53"/>
<path d="M177.857 176.499C177.834 176.499 177.811 176.491 177.793 176.476C177.776 176.461 177.764 176.441 177.76 176.418L177.308 173.724C177.292 173.706 177.283 173.683 177.283 173.659C177.283 173.635 177.292 173.612 177.308 173.595C177.336 173.59 177.364 173.595 177.388 173.61C177.412 173.625 177.429 173.648 177.437 173.675L177.889 176.37C177.89 176.399 177.881 176.428 177.863 176.451C177.846 176.475 177.821 176.491 177.792 176.499H177.857Z" fill="#212B53"/>
<path d="M176.274 144.49C176.647 143.762 176.934 142.993 177.13 142.199L177.453 141.038C177.61 140.593 177.681 140.122 177.663 139.65C177.642 139.4 177.567 139.157 177.441 138.939C177.316 138.722 177.143 138.535 176.936 138.392C176.721 138.257 176.472 138.186 176.218 138.186C175.964 138.186 175.715 138.257 175.499 138.392C175.176 138.615 174.906 138.907 174.708 139.247L173.804 140.618C173.485 141.065 173.23 141.553 173.045 142.07C172.857 142.954 172.93 143.873 173.255 144.716C173.35 145.068 173.515 145.397 173.74 145.684C174.676 146.636 175.822 145.297 176.274 144.49Z" fill="#231F20"/>
<path d="M176.758 136.762C176.423 136.209 175.973 135.734 175.438 135.369C174.904 135.004 174.297 134.759 173.659 134.649C171.141 134.01 168.48 134.272 166.136 135.391C165.299 135.761 164.555 136.312 163.956 137.004C162.842 138.392 162.697 140.231 161.874 141.844C161.682 141.724 161.468 141.642 161.244 141.602C160.942 141.582 160.64 141.632 160.36 141.746C160.081 141.861 159.831 142.038 159.63 142.264C159.242 142.723 158.99 143.282 158.903 143.877C158.789 144.597 158.963 145.333 159.388 145.926C160.095 146.628 161.039 147.042 162.035 147.088C161.879 147.97 161.902 148.876 162.105 149.749C162.307 150.622 162.685 151.446 163.214 152.17C163.765 153.003 164.477 153.718 165.309 154.272C166.141 154.826 167.075 155.209 168.057 155.396C168.918 155.576 169.814 155.494 170.628 155.16C171.442 154.826 172.138 154.257 172.626 153.525C173.47 152.159 174.055 150.65 174.353 149.072L176.92 138.86C177.094 138.161 177.037 137.426 176.758 136.762Z" fill="#C3996B"/>
<path d="M167.364 142.28C167.155 142.248 166.943 142.248 166.734 142.28C166.541 142.28 166.395 142.377 166.411 142.49C166.428 142.602 166.718 142.796 166.976 142.909C167.645 143.149 168.338 143.317 169.043 143.409C169.346 143.475 169.66 143.475 169.963 143.409C170.141 143.409 170.141 143.167 169.963 143.022C169.822 142.911 169.656 142.839 169.479 142.812C168.793 142.565 168.085 142.386 167.364 142.28Z" fill="#231F20"/>
<path d="M174.66 143.587C174.86 143.652 175.05 143.744 175.225 143.861C175.387 143.974 175.468 144.103 175.403 144.216C175.338 144.329 174.999 144.361 174.709 144.329C174.002 144.256 173.308 144.093 172.642 143.845C172.34 143.769 172.058 143.625 171.819 143.425C171.706 143.264 171.819 143.103 171.981 143.038C172.151 143.007 172.326 143.007 172.497 143.038C173.236 143.14 173.962 143.324 174.66 143.587Z" fill="#231F20"/>
<path d="M167.783 145.2C167.702 145.539 167.476 145.765 167.266 145.716C167.056 145.668 166.975 145.361 167.056 145.023C167.137 144.684 167.363 144.458 167.557 144.506C167.75 144.555 167.896 144.797 167.783 145.2Z" fill="#1A1A1A"/>
<path d="M173.046 146.442C173.046 146.781 172.739 147.007 172.545 146.959C172.352 146.91 172.239 146.604 172.319 146.265C172.4 145.926 172.626 145.684 172.836 145.732C173.046 145.781 173.127 146.104 173.046 146.442Z" fill="#1A1A1A"/>
<path d="M169.51 151.056C168.952 150.941 168.431 150.69 167.994 150.323C167.557 149.957 167.218 149.488 167.008 148.959C166.994 148.934 166.986 148.907 166.986 148.878C166.986 148.85 166.994 148.822 167.008 148.798C167.032 148.782 167.06 148.773 167.089 148.773C167.117 148.773 167.146 148.782 167.169 148.798C167.36 149.303 167.674 149.752 168.083 150.104C168.492 150.456 168.982 150.701 169.51 150.814C169.542 150.822 169.569 150.841 169.587 150.868C169.605 150.895 169.612 150.928 169.607 150.96C169.6 150.982 169.588 151.003 169.571 151.02C169.554 151.037 169.533 151.049 169.51 151.056Z" fill="black"/>
<path d="M167.201 155.251C165.845 154.948 164.605 154.259 163.633 153.267C162.4 151.957 161.713 150.226 161.712 148.427C161.71 148.411 161.711 148.394 161.716 148.378C161.72 148.363 161.728 148.348 161.739 148.336C161.75 148.324 161.763 148.314 161.778 148.307C161.793 148.301 161.809 148.297 161.825 148.298C161.859 148.298 161.892 148.311 161.916 148.335C161.941 148.36 161.954 148.392 161.954 148.427C161.961 150.159 162.625 151.825 163.811 153.089C164.736 154.053 165.918 154.73 167.217 155.041C167.249 155.049 167.276 155.068 167.294 155.095C167.312 155.122 167.319 155.155 167.314 155.187C167.304 155.208 167.288 155.225 167.268 155.237C167.247 155.248 167.224 155.253 167.201 155.251Z" fill="black"/>
<path d="M161.778 143.038C161.836 143.05 161.897 143.05 161.955 143.038C162.564 142.515 163.106 141.919 163.57 141.264C164.119 140.618 164.974 140.57 165.507 139.925C165.781 139.618 165.717 138.715 166.007 138.408C166.298 138.101 166.621 137.585 166.782 137.585C168.848 137.977 170.874 138.555 172.836 139.311C173.886 139.586 175.096 139.57 176.243 139.763C176.759 139.86 177.34 140.183 177.728 139.763C178.058 139.444 178.355 139.093 178.616 138.715C178.898 138.294 179.095 137.823 179.197 137.327C179.281 136.035 178.96 134.749 178.277 133.649C177.766 132.596 176.965 131.712 175.968 131.1C175.129 130.696 174.112 130.841 173.24 130.487C172.658 130.112 172.041 129.794 171.399 129.535C170.64 129.478 169.879 129.634 169.204 129.986C168.06 130.391 166.849 130.577 165.636 130.535C164.948 130.495 164.258 130.495 163.57 130.535C163.229 130.551 162.895 130.635 162.588 130.782C162.28 130.929 162.005 131.136 161.778 131.39C161.394 132.13 161.127 132.924 160.987 133.745C160.565 134.54 160.091 135.306 159.566 136.036C159.049 136.956 159.469 138.15 159.292 139.182C159.187 139.639 159.187 140.113 159.292 140.57C159.551 141.16 159.992 141.652 160.551 141.973C160.922 142.232 160.68 142.345 161.035 142.603C161.39 142.861 161.439 143.054 161.778 143.038Z" fill="#231F20"/>
<path d="M170.979 145.474C171.041 145.642 171.117 145.803 171.205 145.958C171.434 146.386 171.608 146.842 171.722 147.313C171.738 147.42 171.738 147.529 171.722 147.636C171.66 147.776 171.551 147.89 171.415 147.959C171.014 148.174 170.585 148.331 170.14 148.427C170.089 148.451 170.034 148.464 169.978 148.464C169.922 148.464 169.867 148.451 169.817 148.427C169.72 148.427 169.72 148.217 169.817 148.104C169.817 147.572 170.156 147.088 170.253 146.491C170.35 145.894 170.253 145.619 170.382 145.184C170.409 145.045 170.463 144.913 170.543 144.797C170.592 144.74 170.655 144.696 170.726 144.671C170.797 144.646 170.873 144.639 170.947 144.651C171.013 144.667 171.07 144.708 171.107 144.765C171.143 144.822 171.155 144.892 171.141 144.958C171.026 145.105 170.969 145.288 170.979 145.474Z" fill="#C3996B"/>
<path d="M170.09 148.685C170.073 148.695 170.054 148.7 170.034 148.7C170.014 148.7 169.994 148.695 169.977 148.685C169.967 148.674 169.958 148.662 169.952 148.648C169.946 148.634 169.943 148.619 169.943 148.604C169.943 148.589 169.946 148.574 169.952 148.56C169.958 148.547 169.967 148.534 169.977 148.524L171.22 147.959C171.363 147.895 171.475 147.779 171.535 147.635C171.595 147.492 171.598 147.33 171.543 147.184L170.897 145.571C170.845 145.445 170.827 145.307 170.844 145.171C170.861 145.035 170.913 144.906 170.994 144.797C171.003 144.783 171.015 144.772 171.029 144.765C171.043 144.757 171.059 144.753 171.075 144.753C171.091 144.753 171.107 144.757 171.121 144.765C171.135 144.772 171.147 144.783 171.156 144.797C171.167 144.807 171.175 144.82 171.181 144.834C171.187 144.847 171.19 144.862 171.19 144.877C171.19 144.892 171.187 144.907 171.181 144.921C171.175 144.935 171.167 144.948 171.156 144.958C171.108 145.044 171.082 145.142 171.082 145.24C171.082 145.339 171.108 145.436 171.156 145.523L171.802 147.136C171.882 147.34 171.88 147.566 171.796 147.768C171.711 147.97 171.551 148.131 171.35 148.217L170.106 148.782L170.09 148.685Z" fill="black"/>
<path d="M162.084 141.86C162.335 141.942 162.555 142.1 162.713 142.312C162.878 142.571 162.941 142.881 162.891 143.183C162.89 143.49 162.782 143.787 162.584 144.022C162.379 144.221 162.11 144.341 161.825 144.361C161.337 144.423 160.844 144.289 160.453 143.99C160.265 143.856 160.129 143.663 160.066 143.442C160.046 143.208 160.09 142.974 160.195 142.764C160.195 142.538 159.904 142.215 159.985 141.973C160.066 141.731 160.566 141.715 160.744 141.667C161.2 141.61 161.663 141.676 162.084 141.86Z" fill="#C3996B"/>
<path d="M160.485 144.942C160.467 144.919 160.457 144.89 160.457 144.861C160.457 144.832 160.467 144.803 160.485 144.78C160.598 144.412 160.806 144.08 161.09 143.819C161.374 143.558 161.723 143.377 162.1 143.296C162.115 143.291 162.13 143.29 162.146 143.291C162.161 143.292 162.176 143.297 162.19 143.305C162.204 143.312 162.216 143.323 162.225 143.335C162.235 143.347 162.241 143.362 162.245 143.377C162.25 143.409 162.243 143.441 162.225 143.468C162.207 143.495 162.18 143.514 162.148 143.522C161.828 143.608 161.535 143.775 161.297 144.007C161.06 144.238 160.886 144.527 160.792 144.845C160.805 144.886 160.801 144.93 160.781 144.968C160.762 145.005 160.728 145.034 160.687 145.047C160.646 145.06 160.602 145.056 160.565 145.036C160.527 145.016 160.498 144.982 160.485 144.942Z" fill="black"/>
<path d="M164.828 158.849C163.831 158.857 162.848 158.613 161.971 158.139C160.999 157.612 160.186 156.835 159.618 155.887C159.05 154.939 158.748 153.855 158.742 152.75C158.742 152.723 158.752 152.697 158.769 152.676C158.787 152.655 158.812 152.641 158.839 152.637C158.868 152.641 158.895 152.654 158.915 152.674C158.936 152.695 158.949 152.722 158.952 152.75C158.954 153.803 159.241 154.836 159.783 155.739C160.325 156.642 161.103 157.381 162.032 157.878C162.961 158.374 164.007 158.61 165.06 158.559C166.112 158.509 167.132 158.174 168.009 157.59C168.029 157.573 168.055 157.564 168.081 157.564C168.108 157.564 168.134 157.573 168.154 157.59C168.164 157.599 168.173 157.611 168.178 157.623C168.184 157.636 168.187 157.649 168.187 157.663C168.187 157.677 168.184 157.69 168.178 157.703C168.173 157.715 168.164 157.726 168.154 157.736C167.177 158.42 166.021 158.807 164.828 158.849Z" fill="#212B53"/>
<path d="M137.546 189.325C137.531 189.303 137.523 189.278 137.523 189.252C137.523 189.226 137.531 189.201 137.546 189.179C138.215 187.896 138.998 186.676 139.887 185.533C139.896 185.522 139.908 185.512 139.921 185.505C139.934 185.498 139.949 185.493 139.964 185.492C139.979 185.49 139.994 185.492 140.009 185.496C140.023 185.5 140.036 185.508 140.048 185.517C140.06 185.527 140.069 185.538 140.077 185.552C140.084 185.565 140.088 185.579 140.09 185.594C140.091 185.609 140.09 185.625 140.085 185.639C140.081 185.653 140.074 185.667 140.064 185.678C139.147 186.806 138.337 188.016 137.643 189.292C137.633 189.308 137.618 189.32 137.6 189.326C137.582 189.332 137.563 189.331 137.546 189.325Z" fill="white"/>
<path d="M195.34 186.485L192.741 185.55C192.728 185.531 192.721 185.508 192.721 185.485C192.721 185.462 192.728 185.439 192.741 185.42C192.741 185.42 192.838 185.324 192.886 185.42L195.469 186.34C195.486 186.36 195.496 186.386 195.496 186.413C195.496 186.439 195.486 186.465 195.469 186.485C195.462 186.495 195.452 186.503 195.441 186.509C195.43 186.515 195.417 186.518 195.405 186.518C195.392 186.518 195.38 186.515 195.369 186.509C195.357 186.503 195.348 186.495 195.34 186.485Z" fill="white"/>
<path d="M145.698 209.733H145.601C145.589 209.702 145.589 209.668 145.601 209.636V207.249C145.601 207.217 145.612 207.187 145.633 207.163C145.654 207.139 145.683 207.124 145.714 207.12L153.14 206.394C153.157 206.391 153.173 206.393 153.189 206.397C153.204 206.402 153.219 206.41 153.231 206.421C153.243 206.431 153.253 206.444 153.26 206.459C153.266 206.474 153.27 206.49 153.27 206.507C153.27 206.507 153.27 206.636 153.157 206.652L145.86 207.362V209.507L153.157 209.217C153.19 209.221 153.22 209.235 153.244 209.259C153.267 209.282 153.282 209.313 153.286 209.346C153.286 209.38 153.272 209.413 153.248 209.437C153.224 209.462 153.191 209.475 153.157 209.475L145.747 209.766L145.698 209.733Z" fill="white"/>
<path d="M138.61 211.443C138.573 211.454 138.534 211.454 138.497 211.443C138.036 210.637 137.817 209.716 137.866 208.789C137.915 207.863 138.229 206.969 138.771 206.216C138.78 206.199 138.793 206.184 138.808 206.172C138.824 206.161 138.842 206.153 138.86 206.149C138.879 206.145 138.899 206.145 138.918 206.15C138.936 206.155 138.954 206.164 138.969 206.176C138.984 206.189 138.996 206.204 139.004 206.222C139.012 206.239 139.016 206.258 139.015 206.278C139.015 206.297 139.01 206.316 139.002 206.333C138.993 206.351 138.98 206.366 138.965 206.377C138.462 207.093 138.173 207.937 138.13 208.811C138.087 209.685 138.293 210.553 138.723 211.314C138.746 211.338 138.758 211.37 138.758 211.403C138.758 211.436 138.746 211.468 138.723 211.492L138.61 211.443Z" fill="white"/>
<path d="M190.659 207.733C188.835 207.733 186.752 207.733 185.719 207.733C185.688 207.723 185.66 207.704 185.64 207.678C185.62 207.652 185.608 207.62 185.606 207.588C185.608 207.571 185.613 207.554 185.622 207.539C185.63 207.524 185.642 207.511 185.655 207.501C185.669 207.49 185.684 207.483 185.701 207.478C185.717 207.474 185.734 207.472 185.751 207.475C187.592 207.604 192.984 207.475 193.823 207.475V205.039L185.655 204.893C185.619 204.889 185.586 204.872 185.562 204.846C185.538 204.819 185.525 204.784 185.525 204.748C185.529 204.717 185.545 204.688 185.568 204.667C185.592 204.646 185.623 204.635 185.655 204.635L194.017 204.78C194.049 204.78 194.079 204.792 194.103 204.812C194.127 204.833 194.142 204.862 194.146 204.893V207.588C194.153 207.62 194.153 207.653 194.146 207.684H194.049L190.659 207.733Z" fill="white"/>
<path d="M199.313 208.878C199.3 208.87 199.289 208.858 199.281 208.844C199.273 208.829 199.27 208.814 199.27 208.798C199.27 208.782 199.273 208.766 199.281 208.752C199.289 208.738 199.3 208.726 199.313 208.717C199.7 208.133 199.906 207.449 199.906 206.749C199.906 206.049 199.7 205.364 199.313 204.781C199.299 204.77 199.289 204.757 199.281 204.741C199.274 204.726 199.27 204.709 199.27 204.692C199.27 204.675 199.274 204.658 199.281 204.643C199.289 204.627 199.299 204.614 199.313 204.603C199.323 204.59 199.337 204.579 199.352 204.571C199.368 204.564 199.385 204.56 199.402 204.56C199.419 204.56 199.436 204.564 199.451 204.571C199.466 204.579 199.48 204.59 199.49 204.603C199.901 205.229 200.12 205.96 200.12 206.709C200.12 207.457 199.901 208.188 199.49 208.814C199.484 208.83 199.473 208.845 199.46 208.857C199.448 208.869 199.432 208.879 199.416 208.885C199.399 208.891 199.381 208.893 199.364 208.892C199.346 208.891 199.329 208.886 199.313 208.878Z" fill="white"/>
<path opacity="0.5" d="M154.852 98.2036L69.5963 183.404V205.813C69.5856 206.536 69.7188 207.254 69.9883 207.925C70.2577 208.595 70.6579 209.206 71.1657 209.721C71.6734 210.236 72.2786 210.645 72.9459 210.924C73.6133 211.203 74.3295 211.347 75.0529 211.347H97.6542L154.852 154.089V98.2036Z" fill="white"/>
<path opacity="0.5" d="M149.378 45.3833H116.752L69.5957 92.5249V135.246L154.803 50.0942C154.616 48.7885 153.966 47.5935 152.969 46.7283C151.973 45.8631 150.698 45.3856 149.378 45.3833Z" fill="white"/>
<path d="M191.611 69.5346L194.598 74.7134L188.834 73.7132L169.074 68.5828L191.611 69.5346Z" fill="#C9673E"/>
<path d="M194.597 74.7134L184.895 74.6166L187.203 73.2937L194.597 74.7134Z" fill="#9C4B2A"/>
<path d="M191.611 69.5346L193.048 64.259L169.074 68.5828L191.611 69.5346Z" fill="#FFB99C"/>
<path d="M169.074 68.5828L188.834 73.7132L186.332 81.3442L169.074 68.5828Z" fill="#FFB99C"/>
<path d="M192.742 80.1826C192.795 80.1589 192.84 80.1195 192.871 80.0697C192.913 80.029 192.947 79.9802 192.97 79.9261C192.993 79.8721 193.005 79.8139 193.005 79.7551C193.005 79.6963 192.993 79.6381 192.97 79.5841C192.947 79.53 192.913 79.4812 192.871 79.4405C192.252 78.9475 191.587 78.5153 190.885 78.1498C190.777 78.1015 190.655 78.0945 190.541 78.1301C190.428 78.1658 190.332 78.2417 190.272 78.3434C190.219 78.451 190.21 78.5745 190.246 78.6885C190.282 78.8025 190.361 78.8984 190.465 78.9565C191.115 79.2954 191.731 79.6952 192.306 80.1504C192.37 80.1908 192.444 80.2148 192.52 80.2205C192.596 80.2261 192.672 80.2131 192.742 80.1826Z" fill="#FFBEA2"/>
<path d="M188.222 130.196C188.189 130.146 188.166 130.091 188.154 130.032C188.143 129.973 188.143 129.913 188.155 129.854C188.167 129.796 188.19 129.74 188.224 129.691C188.258 129.642 188.301 129.599 188.351 129.567C189.6 128.743 190.693 127.705 191.58 126.501C191.622 126.459 191.672 126.424 191.727 126.401C191.783 126.378 191.842 126.366 191.903 126.366C191.963 126.366 192.022 126.378 192.078 126.401C192.133 126.424 192.183 126.459 192.225 126.501C192.268 126.542 192.302 126.591 192.325 126.645C192.348 126.699 192.36 126.757 192.36 126.816C192.36 126.875 192.348 126.933 192.325 126.987C192.302 127.041 192.268 127.09 192.225 127.131C191.285 128.395 190.133 129.487 188.819 130.357C188.718 130.411 188.599 130.425 188.488 130.395C188.377 130.365 188.282 130.294 188.222 130.196ZM193.065 124.84C193.01 124.814 192.961 124.777 192.921 124.732C192.881 124.687 192.85 124.635 192.83 124.578C192.811 124.52 192.803 124.46 192.807 124.4C192.811 124.339 192.828 124.281 192.855 124.227C193.522 122.895 194.006 121.478 194.292 120.016C194.299 119.955 194.319 119.896 194.35 119.843C194.381 119.789 194.423 119.743 194.472 119.707C194.522 119.67 194.578 119.644 194.639 119.63C194.699 119.616 194.761 119.615 194.821 119.626C194.882 119.637 194.94 119.66 194.991 119.694C195.042 119.728 195.086 119.773 195.12 119.824C195.153 119.876 195.176 119.934 195.186 119.994C195.197 120.055 195.194 120.117 195.18 120.177C194.887 121.726 194.376 123.225 193.662 124.63C193.649 124.673 193.626 124.713 193.595 124.747C193.564 124.78 193.527 124.806 193.485 124.824C193.432 124.849 193.375 124.863 193.317 124.866C193.258 124.869 193.2 124.86 193.146 124.84H193.065ZM195.099 117.773C195.04 117.773 194.981 117.762 194.926 117.739C194.871 117.716 194.821 117.683 194.779 117.641C194.737 117.599 194.704 117.549 194.681 117.494C194.659 117.44 194.647 117.381 194.647 117.322V117.112C194.646 115.708 194.5 114.307 194.211 112.933C194.199 112.875 194.199 112.815 194.211 112.757C194.222 112.698 194.245 112.643 194.278 112.593C194.311 112.544 194.354 112.502 194.403 112.468C194.452 112.435 194.508 112.412 194.566 112.401C194.625 112.389 194.685 112.389 194.743 112.401C194.801 112.412 194.857 112.435 194.906 112.468C194.956 112.501 194.998 112.543 195.031 112.593C195.064 112.642 195.087 112.698 195.099 112.756C195.404 114.215 195.561 115.702 195.567 117.193V117.418C195.557 117.49 195.531 117.559 195.492 117.62C195.453 117.681 195.402 117.733 195.341 117.773C195.261 117.789 195.179 117.789 195.099 117.773ZM194.098 110.529C194.041 110.55 193.98 110.558 193.92 110.554C193.859 110.55 193.8 110.534 193.746 110.507C193.692 110.48 193.643 110.443 193.604 110.396C193.565 110.35 193.535 110.297 193.517 110.239C193.047 108.799 192.481 107.392 191.822 106.028C191.772 105.921 191.765 105.799 191.805 105.687C191.844 105.575 191.925 105.484 192.032 105.431C192.086 105.404 192.144 105.388 192.205 105.383C192.265 105.379 192.326 105.387 192.383 105.407C192.44 105.426 192.493 105.457 192.538 105.497C192.583 105.538 192.619 105.586 192.645 105.641C193.323 107.042 193.905 108.486 194.389 109.965C194.418 110.064 194.413 110.17 194.375 110.267C194.337 110.363 194.268 110.444 194.179 110.497L194.098 110.529ZM191.192 103.786C191.14 103.817 191.081 103.837 191.02 103.845C190.96 103.853 190.898 103.848 190.839 103.832C190.781 103.815 190.726 103.787 190.678 103.748C190.63 103.71 190.591 103.662 190.563 103.608C190.497 103.504 190.438 103.396 190.385 103.286C189.901 103.495 189.416 103.689 188.932 103.85C188.816 103.889 188.69 103.88 188.581 103.825C188.472 103.771 188.389 103.675 188.351 103.56C188.312 103.444 188.321 103.318 188.376 103.209C188.43 103.1 188.526 103.018 188.641 102.979C189.077 102.834 189.497 102.673 189.917 102.495C189.4 101.608 188.835 100.704 188.189 99.7201C188.127 99.6186 188.105 99.4969 188.129 99.3799C188.153 99.2629 188.221 99.1595 188.319 99.0909C188.368 99.0578 188.424 99.0348 188.483 99.0233C188.541 99.0119 188.602 99.0121 188.66 99.0241C188.719 99.0361 188.774 99.0596 188.824 99.0933C188.873 99.1269 188.916 99.1699 188.948 99.22C189.626 100.236 190.207 101.172 190.74 102.092C191.38 101.754 191.995 101.371 192.581 100.946C192.621 100.904 192.67 100.87 192.724 100.847C192.778 100.824 192.837 100.812 192.895 100.812C192.954 100.812 193.012 100.824 193.066 100.847C193.121 100.87 193.169 100.904 193.21 100.946C193.248 100.993 193.277 101.048 193.293 101.106C193.31 101.165 193.315 101.226 193.307 101.286C193.299 101.346 193.28 101.404 193.249 101.457C193.219 101.509 193.178 101.555 193.129 101.592C192.515 102.044 191.868 102.448 191.192 102.802C191.252 102.895 191.306 102.992 191.354 103.092C191.413 103.195 191.429 103.317 191.399 103.432C191.368 103.546 191.294 103.645 191.192 103.705V103.786ZM194.582 99.7847C194.539 99.7426 194.505 99.6924 194.482 99.637C194.459 99.5816 194.447 99.5221 194.447 99.462C194.447 99.4019 194.459 99.3424 194.482 99.287C194.505 99.2316 194.539 99.1814 194.582 99.1393C195.212 98.4618 195.754 97.7085 196.197 96.8968C196.461 96.376 196.688 95.8368 196.875 95.2835C196.918 95.1723 197.003 95.0819 197.111 95.0309C197.219 94.9799 197.342 94.9721 197.456 95.0092C197.512 95.029 197.564 95.0599 197.609 95.0999C197.653 95.1399 197.689 95.1883 197.714 95.2424C197.74 95.2964 197.755 95.3549 197.757 95.4146C197.76 95.4742 197.751 95.5339 197.73 95.59C197.21 97.0942 196.398 98.4812 195.341 99.6717C195.307 99.7139 195.262 99.7471 195.212 99.7685C195.175 99.8143 195.128 99.852 195.076 99.8793C195.024 99.9066 194.966 99.9231 194.908 99.9276C194.849 99.9321 194.79 99.9247 194.734 99.9056C194.678 99.8866 194.626 99.8564 194.582 99.8169V99.7847ZM186.171 104.496C184.598 104.711 183 104.668 181.441 104.367C181.383 104.355 181.327 104.332 181.278 104.299C181.229 104.266 181.186 104.223 181.153 104.174C181.12 104.125 181.097 104.069 181.086 104.011C181.074 103.952 181.074 103.892 181.086 103.834C181.098 103.776 181.121 103.72 181.154 103.671C181.187 103.622 181.229 103.579 181.279 103.546C181.328 103.513 181.384 103.49 181.442 103.479C181.501 103.467 181.561 103.467 181.619 103.479C183.077 103.759 184.572 103.798 186.042 103.592C186.102 103.583 186.162 103.586 186.221 103.6C186.279 103.615 186.334 103.641 186.382 103.677C186.43 103.713 186.471 103.759 186.501 103.81C186.531 103.862 186.551 103.92 186.559 103.979C186.571 104.069 186.555 104.159 186.515 104.24C186.475 104.32 186.411 104.387 186.333 104.431L186.171 104.496ZM197.763 93.2023C197.702 93.1985 197.643 93.1822 197.59 93.1544C197.536 93.1266 197.489 93.088 197.451 93.041C197.413 92.9939 197.385 92.9395 197.369 92.8812C197.354 92.8228 197.35 92.7619 197.359 92.7021C197.533 91.2285 197.473 89.7366 197.182 88.2816C197.157 88.1619 197.181 88.0376 197.247 87.9351C197.314 87.8326 197.418 87.7601 197.537 87.7331C197.596 87.7215 197.657 87.7219 197.717 87.7344C197.776 87.7469 197.832 87.7712 197.882 87.8058C197.931 87.8404 197.974 87.8847 198.006 87.9359C198.038 87.9872 198.06 88.0444 198.069 88.1041C198.39 89.6534 198.456 91.2447 198.263 92.8151C198.257 92.8861 198.234 92.9544 198.194 93.0137C198.155 93.073 198.101 93.1212 198.037 93.1539C198.003 93.195 197.962 93.229 197.914 93.2539C197.867 93.2788 197.816 93.2942 197.763 93.2991V93.2023ZM178.729 103.431C178.345 103.269 177.973 103.08 177.615 102.866C176.582 102.27 175.668 101.487 174.919 100.559C174.85 100.461 174.82 100.34 174.835 100.221C174.85 100.102 174.909 99.9921 175 99.9137C175.041 99.8713 175.089 99.8375 175.144 99.8144C175.198 99.7913 175.256 99.7794 175.315 99.7794C175.374 99.7794 175.432 99.7913 175.486 99.8144C175.54 99.8375 175.589 99.8713 175.63 99.9137C176.305 100.768 177.138 101.486 178.083 102.027C178.406 102.205 178.745 102.382 179.1 102.543C179.21 102.593 179.295 102.683 179.337 102.795C179.379 102.907 179.376 103.031 179.326 103.14C179.284 103.228 179.217 103.301 179.133 103.35C179.087 103.413 179.026 103.462 178.955 103.494C178.884 103.525 178.806 103.537 178.729 103.528V103.431ZM186.656 97.3808C185.813 96.1499 184.808 95.0375 183.669 94.0735C183.575 93.9964 183.515 93.8852 183.503 93.7642C183.491 93.6431 183.528 93.5223 183.605 93.4281C183.682 93.334 183.793 93.2743 183.914 93.2622C184.035 93.2501 184.156 93.2866 184.25 93.3636C185.468 94.3863 186.552 95.557 187.479 96.8484C187.549 96.9493 187.576 97.0735 187.554 97.1941C187.533 97.3148 187.466 97.4223 187.366 97.4937C187.325 97.5494 187.27 97.5944 187.208 97.6249C187.145 97.6553 187.076 97.6704 187.007 97.6688C186.937 97.6672 186.869 97.649 186.808 97.6158C186.747 97.5825 186.695 97.5351 186.656 97.4776V97.3808ZM196.956 86.0713C196.899 86.0947 196.839 86.1066 196.779 86.1062C196.718 86.1058 196.658 86.0932 196.602 86.0691C196.546 86.045 196.496 86.0099 196.454 85.9659C196.412 85.922 196.38 85.87 196.358 85.8132C196.111 85.1828 195.814 84.5732 195.47 83.9901C195.069 83.2915 194.61 82.6277 194.098 82.0057C194.06 81.9602 194.031 81.9076 194.013 81.8509C193.995 81.7942 193.989 81.7346 193.994 81.6754C194 81.6162 194.016 81.5587 194.044 81.506C194.071 81.4533 194.109 81.4066 194.155 81.3685C194.2 81.3303 194.253 81.3015 194.31 81.2837C194.366 81.2659 194.426 81.2595 194.485 81.2647C194.544 81.2699 194.602 81.2868 194.655 81.3143C194.707 81.3418 194.754 81.3794 194.792 81.4249C195.346 82.0831 195.837 82.7905 196.261 83.5384C196.622 84.1593 196.935 84.8064 197.198 85.4744C197.24 85.576 197.243 85.6893 197.207 85.7933C197.172 85.8972 197.099 85.9846 197.004 86.0391L196.956 86.0713ZM174.096 98.4133C173.98 98.444 173.857 98.4293 173.752 98.3723C173.647 98.3153 173.568 98.2203 173.531 98.1068C173.138 96.9098 173.207 95.6093 173.725 94.4607C173.902 94.0596 174.141 93.6893 174.435 93.3636C174.514 93.2716 174.627 93.2148 174.748 93.2057C174.869 93.1967 174.989 93.236 175.081 93.3152C175.173 93.3943 175.23 93.5068 175.239 93.6278C175.248 93.7489 175.208 93.8685 175.129 93.9605C174.888 94.2222 174.691 94.5221 174.548 94.8479C174.126 95.7948 174.074 96.8654 174.403 97.8487C174.43 97.9458 174.425 98.0494 174.387 98.143C174.349 98.2366 174.28 98.3147 174.193 98.3649L174.096 98.4133ZM181.441 92.8312C180.096 92.3025 178.613 92.24 177.228 92.6537C177.112 92.6901 176.987 92.6791 176.879 92.6231C176.772 92.5671 176.691 92.4708 176.655 92.3553C176.618 92.2397 176.629 92.1145 176.685 92.0071C176.741 91.8997 176.838 91.8189 176.953 91.7825C178.544 91.2988 180.253 91.3728 181.796 91.9923C181.851 92.0135 181.901 92.0455 181.943 92.0866C181.986 92.1276 182.019 92.1767 182.042 92.231C182.064 92.2853 182.076 92.3435 182.075 92.4023C182.075 92.4611 182.062 92.5192 182.039 92.5731C182.001 92.668 181.933 92.7477 181.845 92.7989C181.783 92.8315 181.715 92.8499 181.645 92.8527C181.575 92.8555 181.506 92.8426 181.441 92.8151V92.8312Z" fill="#FFBEA2"/>
<path d="M186.316 131.583C186.409 131.53 186.48 131.446 186.518 131.346C186.556 131.246 186.559 131.137 186.526 131.035C186.483 130.924 186.398 130.833 186.29 130.782C186.182 130.731 186.059 130.724 185.945 130.761C185.258 130.987 184.549 131.144 183.83 131.228C183.771 131.234 183.713 131.252 183.661 131.281C183.608 131.309 183.562 131.348 183.524 131.394C183.486 131.441 183.459 131.494 183.442 131.552C183.425 131.609 183.42 131.669 183.427 131.729C183.433 131.788 183.45 131.846 183.479 131.898C183.507 131.951 183.546 131.997 183.593 132.035C183.639 132.072 183.693 132.1 183.75 132.117C183.808 132.134 183.868 132.139 183.927 132.132C184.714 132.048 185.488 131.875 186.236 131.616L186.316 131.583Z" fill="#FFBEA2"/>
</svg>
