<svg width="230" height="150" viewBox="0 0 230 150" fill="none" xmlns="http://www.w3.org/2000/svg">
<path d="M69.8191 15.3L67.2891 18L70.8991 18.21L83.5491 17.93L69.8191 15.3Z" fill="#C9673E"/>
<path d="M67.2891 18L73.1491 19.32L71.9391 18.19L67.2891 18Z" fill="#9C4B2A"/>
<path d="M69.8207 15.3L69.7207 11.91L83.5507 17.93L69.8207 15.3Z" fill="#FFB99C"/>
<path d="M83.5504 17.93L70.9004 18.21L71.3304 23.17L83.5504 17.93Z" fill="#FFB99C"/>
<path d="M67.6294 21.56C67.6014 21.5404 67.5804 21.5124 67.5694 21.48C67.5525 21.4466 67.5424 21.4102 67.5398 21.3728C67.5371 21.3355 67.542 21.298 67.5541 21.2625C67.5663 21.2271 67.5854 21.1945 67.6103 21.1665C67.6353 21.1386 67.6656 21.116 67.6994 21.1C68.1449 20.8983 68.6065 20.7343 69.0794 20.61C69.1524 20.5914 69.2297 20.6026 69.2944 20.641C69.3591 20.6795 69.4059 20.7421 69.4244 20.815C69.443 20.8879 69.4318 20.9653 69.3934 21.03C69.3549 21.0947 69.2924 21.1414 69.2194 21.16C68.7796 21.2694 68.351 21.42 67.9394 21.61C67.889 21.635 67.832 21.6437 67.7764 21.6347C67.7208 21.6257 67.6694 21.5996 67.6294 21.56Z" fill="#FFBEA2"/>
<path d="M62.8502 52.38C62.1825 51.6577 61.6446 50.8254 61.2602 49.92C61.2458 49.8859 61.2382 49.8492 61.2379 49.8121C61.2376 49.7751 61.2447 49.7383 61.2586 49.7039C61.2725 49.6696 61.2931 49.6383 61.3191 49.6119C61.3451 49.5855 61.3761 49.5644 61.4102 49.55C61.4444 49.5355 61.481 49.528 61.5181 49.5277C61.5552 49.5274 61.5919 49.5344 61.6263 49.5484C61.6606 49.5623 61.6919 49.5829 61.7183 49.6089C61.7447 49.6349 61.7658 49.6659 61.7802 49.7C62.1337 50.5435 62.6273 51.3211 63.2402 52C63.2668 52.0261 63.288 52.0572 63.3024 52.0915C63.3168 52.1259 63.3243 52.1627 63.3243 52.2C63.3243 52.2372 63.3168 52.2741 63.3024 52.3085C63.288 52.3428 63.2668 52.3739 63.2402 52.4C63.1854 52.4481 63.114 52.4729 63.0412 52.4692C62.9683 52.4655 62.8998 52.4335 62.8502 52.38ZM60.7702 48.38C60.7268 48.3451 60.6982 48.2951 60.6902 48.24C60.4622 47.2911 60.3679 46.315 60.4102 45.34C60.4102 45.2657 60.4397 45.1945 60.4922 45.142C60.5447 45.0895 60.616 45.06 60.6902 45.06C60.7645 45.06 60.8357 45.0895 60.8882 45.142C60.9407 45.1945 60.9702 45.2657 60.9702 45.34C60.9346 46.2647 61.0254 47.1899 61.2402 48.09C61.2491 48.1261 61.2507 48.1637 61.2449 48.2004C61.2392 48.2372 61.2261 48.2724 61.2066 48.3041C61.187 48.3357 61.1613 48.3632 61.1311 48.3848C61.1008 48.4064 61.0665 48.4218 61.0302 48.43C60.9856 48.4456 60.9376 48.4482 60.8915 48.4376C60.8455 48.427 60.8035 48.4035 60.7702 48.37V48.38ZM60.7202 43.86C60.6841 43.8281 60.6568 43.7874 60.6411 43.7418C60.6253 43.6963 60.6216 43.6474 60.6302 43.6V43.47C60.8449 42.5684 61.1498 41.6906 61.5402 40.85C61.5787 40.7927 61.6362 40.751 61.7026 40.7324C61.7691 40.7138 61.8399 40.7194 61.9025 40.7483C61.9652 40.7772 62.0154 40.8275 62.0443 40.8901C62.0732 40.9527 62.0789 41.0236 62.0602 41.09C61.6831 41.8914 61.3882 42.729 61.1802 43.59V43.72C61.1732 43.7559 61.1589 43.79 61.1383 43.8202C61.1176 43.8504 61.0911 43.8761 61.0602 43.8957C61.0294 43.9154 60.9948 43.9285 60.9587 43.9344C60.9226 43.9403 60.8857 43.9388 60.8502 43.93C60.7984 43.9206 60.752 43.892 60.7202 43.85V43.86ZM62.4402 39.67C62.4021 39.6196 62.3815 39.5582 62.3815 39.495C62.3815 39.4318 62.4021 39.3704 62.4402 39.32C62.9274 38.5111 63.4687 37.736 64.0602 37C64.0854 36.9737 64.1157 36.9527 64.1492 36.9384C64.1827 36.9241 64.2188 36.9167 64.2552 36.9167C64.2917 36.9167 64.3277 36.9241 64.3612 36.9384C64.3947 36.9527 64.425 36.9737 64.4502 37C64.4768 37.0261 64.498 37.0572 64.5124 37.0915C64.5268 37.1259 64.5343 37.1627 64.5343 37.2C64.5343 37.2372 64.5268 37.2741 64.5124 37.3085C64.498 37.3428 64.4768 37.3739 64.4502 37.4C63.8598 38.1264 63.3186 38.8914 62.8302 39.69C62.7927 39.7532 62.7318 39.7991 62.6607 39.8178C62.5896 39.8366 62.514 39.8266 62.4502 39.79L62.4402 39.67ZM65.2002 36C65.1489 35.9461 65.1202 35.8745 65.1202 35.8C65.1202 35.7255 65.1489 35.6539 65.2002 35.6L65.3402 35.45C64.9845 35.1398 64.6504 34.8057 64.3402 34.45C64.3025 34.3907 64.2876 34.3197 64.2983 34.2503C64.309 34.1809 64.3445 34.1177 64.3983 34.0724C64.4521 34.0272 64.5204 34.0031 64.5907 34.0044C64.6609 34.0058 64.7283 34.0327 64.7802 34.08C65.0633 34.4405 65.3779 34.7752 65.7202 35.08C66.1702 34.61 66.6602 34.08 67.2102 33.6C67.2354 33.5737 67.2657 33.5527 67.2992 33.5384C67.3327 33.5241 67.3688 33.5167 67.4052 33.5167C67.4417 33.5167 67.4777 33.5241 67.5112 33.5384C67.5447 33.5527 67.575 33.5737 67.6002 33.6C67.6268 33.6261 67.648 33.6572 67.6624 33.6915C67.6768 33.7259 67.6843 33.7627 67.6843 33.8C67.6843 33.8372 67.6768 33.8741 67.6624 33.9085C67.648 33.9428 67.6268 33.9739 67.6002 34C67.0802 34.5 66.6002 35 66.1702 35.43C66.3902 35.6 66.6302 35.76 66.8702 35.91C66.9318 35.9491 66.9756 36.0108 66.9924 36.0817C67.0092 36.1527 66.9977 36.2274 66.9602 36.29C66.9416 36.3226 66.9167 36.3512 66.8868 36.374C66.857 36.3968 66.8228 36.4134 66.7864 36.4227C66.75 36.432 66.7121 36.4339 66.675 36.4283C66.6379 36.4227 66.6022 36.4097 66.5702 36.39C66.3002 36.22 66.0302 36.03 65.7802 35.84L65.6002 36C65.5741 36.0266 65.543 36.0477 65.5087 36.0622C65.4743 36.0766 65.4375 36.084 65.4002 36.084C65.363 36.084 65.3261 36.0766 65.2917 36.0622C65.2574 36.0477 65.2263 36.0266 65.2002 36ZM63.4002 33.1L63.3402 33C63.0593 32.4589 62.838 31.8889 62.6802 31.3C62.5886 30.9349 62.5217 30.5641 62.4802 30.19C62.4763 30.1532 62.4796 30.116 62.4901 30.0806C62.5005 30.0451 62.5178 30.012 62.541 29.9832C62.5642 29.9544 62.5929 29.9305 62.6254 29.9128C62.6578 29.8951 62.6934 29.8839 62.7302 29.88C62.767 29.8761 62.8042 29.8794 62.8397 29.8898C62.8751 29.9003 62.9082 29.9176 62.937 29.9408C62.9658 29.964 62.9897 29.9927 63.0074 30.0251C63.0251 30.0576 63.0363 30.0932 63.0402 30.13C63.0798 30.4674 63.1433 30.8016 63.2302 31.13C63.3696 31.676 63.5744 32.2031 63.8402 32.7C63.876 32.765 63.8844 32.8415 63.8638 32.9127C63.8432 32.984 63.7951 33.0441 63.7302 33.08C63.6838 33.1166 63.6273 33.1381 63.5684 33.1416C63.5094 33.1452 63.4507 33.1307 63.4002 33.1ZM68.0302 37.1C67.9894 37.0631 67.9607 37.0146 67.9482 36.961C67.9357 36.9073 67.9399 36.8512 67.9602 36.8C67.9872 36.7287 68.0411 36.6709 68.1104 36.6391C68.1796 36.6073 68.2586 36.604 68.3302 36.63C69.1858 36.9659 70.0918 37.1552 71.0102 37.19C71.0767 37.2025 71.1367 37.2378 71.1798 37.2899C71.223 37.3419 71.2466 37.4074 71.2466 37.475C71.2466 37.5426 71.223 37.6081 71.1798 37.6601C71.1367 37.7122 71.0767 37.7475 71.0102 37.76C70.0306 37.7171 69.0645 37.5145 68.1502 37.16C68.0969 37.1663 68.0433 37.152 68.0002 37.12L68.0302 37.1ZM62.5702 28.67C62.5402 28.6382 62.5175 28.6003 62.5037 28.5588C62.4899 28.5174 62.4853 28.4734 62.4902 28.43C62.5978 27.4532 62.8647 26.5006 63.2802 25.61C63.2952 25.5765 63.3168 25.5464 63.3438 25.5215C63.3708 25.4966 63.4026 25.4775 63.4372 25.4654C63.4719 25.4532 63.5086 25.4482 63.5452 25.4507C63.5819 25.4533 63.6176 25.4632 63.6502 25.48C63.7178 25.5106 63.7705 25.5667 63.7967 25.636C63.823 25.7054 63.8206 25.7824 63.7902 25.85C63.4054 26.6853 63.1556 27.5764 63.0502 28.49C63.0465 28.5268 63.0355 28.5626 63.0178 28.5952C63.0002 28.6277 62.9762 28.6565 62.9474 28.6797C62.9186 28.703 62.8854 28.7203 62.8499 28.7306C62.8143 28.741 62.777 28.7442 62.7402 28.74C62.6794 28.7438 62.6193 28.7261 62.5702 28.69V28.67ZM72.5102 37.55C72.4687 37.5095 72.4407 37.4571 72.4302 37.4C72.4229 37.3639 72.4229 37.3267 72.43 37.2905C72.4371 37.2544 72.4513 37.22 72.4717 37.1893C72.4922 37.1587 72.5184 37.1324 72.5491 37.1119C72.5797 37.0914 72.6141 37.0772 72.6502 37.07C72.8802 37.02 73.1102 36.97 73.3402 36.9C73.9796 36.709 74.5792 36.4041 75.1102 36C75.1384 35.9723 75.1722 35.9508 75.2093 35.9371C75.2465 35.9234 75.2861 35.9177 75.3255 35.9204C75.365 35.9231 75.4035 35.9341 75.4384 35.9527C75.4733 35.9714 75.5038 35.9972 75.528 36.0285C75.5522 36.0598 75.5695 36.0959 75.5787 36.1344C75.588 36.1729 75.5889 36.2129 75.5816 36.2517C75.5742 36.2906 75.5587 36.3275 75.5361 36.3599C75.5134 36.3924 75.4842 36.4197 75.4502 36.44C74.8537 36.8982 74.1747 37.2377 73.4502 37.44C73.2102 37.51 72.9602 37.57 72.7102 37.62C72.6396 37.6304 72.5677 37.6125 72.5102 37.57V37.55ZM68.4602 32.84C68.4336 32.8139 68.4125 32.7828 68.398 32.7485C68.3836 32.7141 68.3762 32.6772 68.3762 32.64C68.3762 32.6027 68.3836 32.5659 68.398 32.5315C68.4125 32.4972 68.4336 32.4661 68.4602 32.44C69.1829 31.7825 69.99 31.2243 70.8602 30.78C70.8937 30.7636 70.9301 30.7539 70.9673 30.7516C71.0045 30.7492 71.0419 30.7542 71.0771 30.7663C71.1124 30.7784 71.145 30.7973 71.173 30.8219C71.201 30.8466 71.2238 30.8765 71.2402 30.91C71.2566 30.9435 71.2663 30.9799 71.2686 31.0171C71.271 31.0543 71.266 31.0916 71.2539 31.1269C71.2418 31.1622 71.2229 31.1948 71.1983 31.2228C71.1736 31.2507 71.1437 31.2736 71.1102 31.29C70.2844 31.7106 69.5177 32.2385 68.8302 32.86C68.7791 32.905 68.7133 32.9298 68.6452 32.9298C68.5771 32.9298 68.5113 32.905 68.4602 32.86V32.84ZM64.1902 24.46C64.1471 24.408 64.1235 24.3425 64.1235 24.275C64.1235 24.2074 64.1471 24.142 64.1902 24.09C64.4551 23.7414 64.7389 23.4076 65.0402 23.09C65.3912 22.694 65.776 22.3293 66.1902 22C66.2499 21.9549 66.325 21.9354 66.3991 21.9457C66.4732 21.956 66.5401 21.9953 66.5852 22.055C66.6303 22.1147 66.6498 22.1898 66.6395 22.2639C66.6292 22.338 66.5899 22.4049 66.5302 22.45C66.127 22.7482 65.7521 23.083 65.4102 23.45C65.1191 23.7604 64.8548 24.0949 64.6202 24.45C64.573 24.5081 64.5059 24.5464 64.4319 24.5575C64.3578 24.5686 64.2824 24.5517 64.2202 24.51L64.1902 24.46ZM76.1902 35.14C76.1521 35.0896 76.1315 35.0282 76.1315 34.965C76.1315 34.9018 76.1521 34.8404 76.1902 34.79C76.5178 34.2547 76.632 33.6157 76.5102 33C76.4687 32.7834 76.3945 32.5743 76.2902 32.38C76.2729 32.3472 76.2623 32.3113 76.2589 32.2744C76.2556 32.2375 76.2596 32.2003 76.2708 32.1649C76.282 32.1296 76.3 32.0968 76.324 32.0685C76.3479 32.0402 76.3772 32.0169 76.4102 32C76.4421 31.9809 76.4775 31.9686 76.5143 31.9638C76.5511 31.959 76.5885 31.9619 76.6242 31.9722C76.6599 31.9825 76.693 32.0001 76.7216 32.0238C76.7501 32.0475 76.7735 32.0768 76.7902 32.11C76.9184 32.3516 77.0094 32.6112 77.0602 32.88C77.2042 33.6472 77.0619 34.4406 76.6602 35.11C76.6208 35.1739 76.5581 35.2201 76.4854 35.2387C76.4127 35.2574 76.3355 35.2471 76.2702 35.21L76.1902 35.14ZM72.3802 30.7C72.3341 30.6547 72.3057 30.5944 72.3002 30.53C72.2931 30.4938 72.2934 30.4564 72.3013 30.4203C72.3091 30.3842 72.3243 30.3501 72.3459 30.3202C72.3674 30.2902 72.3949 30.2649 72.4266 30.246C72.4583 30.227 72.4936 30.2148 72.5302 30.21C73.542 30.0652 74.5731 30.2623 75.4602 30.77C75.5252 30.8071 75.5728 30.8685 75.5925 30.9408C75.6122 31.013 75.6024 31.09 75.5652 31.155C75.5281 31.22 75.4667 31.2675 75.3945 31.2872C75.3223 31.3069 75.2452 31.2971 75.1802 31.26C74.4055 30.8154 73.5043 30.6429 72.6202 30.77C72.5466 30.7773 72.4726 30.7597 72.4102 30.72L72.3802 30.7Z" fill="#FFBEA2"/>
<path d="M64.1795 53.48C64.1306 53.432 64.101 53.3677 64.0964 53.2994C64.0917 53.231 64.1123 53.1633 64.1541 53.1091C64.196 53.0549 64.2564 53.0179 64.3237 53.0052C64.391 52.9925 64.4607 53.0049 64.5195 53.04C64.9003 53.2772 65.3061 53.4717 65.7295 53.62C65.8002 53.6451 65.8585 53.6966 65.8921 53.7637C65.9257 53.8309 65.9319 53.9084 65.9095 53.98C65.8984 54.0158 65.88 54.0489 65.8554 54.0771C65.8309 54.1054 65.8007 54.1282 65.7669 54.1442C65.733 54.1602 65.6962 54.169 65.6588 54.17C65.6213 54.171 65.5841 54.1642 65.5495 54.15C65.0845 53.9892 64.6385 53.7779 64.2195 53.52L64.1795 53.48Z" fill="#FFBEA2"/>
<path d="M173.149 66.9297L171.891 66.2928L168.372 73.243L169.63 73.8799L173.149 66.9297Z" fill="#0F3A5D"/>
<path opacity="0.33" d="M169.4 73.75C169.4 73.75 172.88 67.4 172.92 66.75C172.96 66.1 172.56 65.36 172.48 66.53C172.4 67.7 169.4 73.75 169.4 73.75Z" fill="white"/>
<path d="M184.721 55.62C183.646 54.3438 182.494 53.1349 181.271 52C181.071 51.83 180.271 51 180.791 51.57L180.271 51.27C179.531 51.12 178.791 51.09 178.061 50.87C177.403 50.6682 176.777 50.3754 176.201 50C174.372 50.0311 172.595 50.6151 171.104 51.6752C169.614 52.7353 168.479 54.2219 167.849 55.9393C167.219 57.6567 167.124 59.5245 167.576 61.297C168.028 63.0696 169.006 64.6638 170.381 65.87C170.729 65.9678 171.064 66.1054 171.381 66.28C171.503 66.3212 171.62 66.3748 171.731 66.44C172.242 66.5952 172.743 66.7823 173.231 67C173.718 67.2364 174.164 67.5505 174.551 67.93C176.159 68.2558 177.826 68.1386 179.372 67.5911C180.919 67.0436 182.288 66.0863 183.334 64.8214C184.379 63.5564 185.061 62.0314 185.307 60.409C185.553 58.7867 185.354 57.128 184.731 55.61L184.721 55.62Z" fill="#FFBEA2"/>
<path d="M169.701 64.84C170.333 65.0405 170.911 65.3825 171.391 65.84C171.704 66.1648 172.038 66.4688 172.391 66.75H172.451L180.451 50.94C178.601 50.1224 176.53 49.948 174.569 50.4449C172.608 50.9417 170.871 52.0811 169.633 53.6811C168.396 55.2811 167.73 57.2495 167.742 59.2721C167.755 61.2948 168.444 63.255 169.701 64.84Z" fill="#FFBEA2"/>
<path d="M180.44 51C178.841 50.1916 177.038 49.8756 175.259 50.092C173.48 50.3085 171.805 51.0476 170.446 52.2159C169.087 53.3842 168.106 54.9293 167.625 56.6557C167.144 58.3821 167.186 60.2122 167.746 61.9146C168.306 63.6171 169.357 65.1153 170.768 66.2199C172.18 67.3245 173.887 67.9858 175.674 68.1202C177.461 68.2546 179.247 67.856 180.808 66.9748C182.368 66.0937 183.632 64.7696 184.44 63.17C184.978 62.1085 185.301 60.9514 185.391 59.7649C185.48 58.5784 185.335 57.3859 184.964 56.2555C184.592 55.1251 184.002 54.0791 183.225 53.1773C182.449 52.2755 181.503 51.5356 180.44 51ZM172.71 66.25C171.306 65.529 170.146 64.4086 169.377 63.03C168.608 61.6513 168.265 60.076 168.389 58.5024C168.514 56.9288 169.101 55.4271 170.077 54.1865C171.053 52.9459 172.374 52.0218 173.875 51.5306C175.375 51.0393 176.987 51.0028 178.508 51.4257C180.028 51.8486 181.39 52.712 182.421 53.9072C183.453 55.1024 184.107 56.576 184.303 58.1424C184.498 59.7088 184.226 61.298 183.52 62.71C182.553 64.6099 180.872 66.0485 178.845 66.7103C176.818 67.3721 174.612 67.2029 172.71 66.24V66.25Z" fill="#0F3A5D"/>
<path d="M162.55 87.57C162.659 87.6232 162.784 87.6321 162.9 87.5948C163.015 87.5575 163.112 87.477 163.17 87.37L170.79 72.29C170.818 72.2402 170.836 72.1853 170.842 72.1286C170.849 72.0718 170.844 72.0142 170.828 71.9593C170.813 71.9044 170.786 71.8531 170.75 71.8086C170.714 71.7641 170.67 71.7272 170.62 71.7L169.56 71.16C169.455 71.112 169.335 71.1071 169.227 71.1463C169.118 71.1856 169.029 71.2659 168.98 71.37L161.35 86.45C161.297 86.5577 161.288 86.6817 161.326 86.7956C161.363 86.9096 161.443 87.0044 161.55 87.06L162.55 87.57Z" fill="#17578C"/>
<path d="M170.66 71.73C170.36 72.09 162.1 86.03 162.21 86.93C162.32 87.83 163.04 87.61 163.21 87.37L170.83 72.29C170.88 72.1929 170.89 72.0801 170.859 71.9755C170.827 71.8709 170.756 71.7829 170.66 71.73Z" fill="#5C81A2"/>
<path d="M180.16 57.74C180.054 57.9462 180.012 58.179 180.039 58.4091C180.066 58.6392 180.16 58.8561 180.311 59.0325C180.461 59.2088 180.66 59.3365 180.883 59.3996C181.106 59.4626 181.342 59.458 181.563 59.3865C181.783 59.3149 181.977 59.1796 182.12 58.9976C182.264 58.8156 182.35 58.5952 182.368 58.3642C182.386 58.1333 182.335 57.9022 182.221 57.7003C182.108 57.4984 181.937 57.3347 181.73 57.23C181.454 57.0902 181.134 57.0654 180.84 57.1609C180.546 57.2565 180.301 57.4647 180.16 57.74Z" fill="white"/>
<path d="M180.67 60.36C180.604 60.4927 180.593 60.6461 180.64 60.7867C180.687 60.9272 180.788 61.0435 180.92 61.11C181.053 61.1763 181.206 61.1872 181.347 61.1403C181.487 61.0935 181.604 60.9926 181.67 60.86C181.736 60.7274 181.747 60.5739 181.7 60.4332C181.653 60.2926 181.553 60.1763 181.42 60.11C181.287 60.044 181.134 60.0332 180.993 60.0801C180.853 60.1269 180.737 60.2276 180.67 60.36Z" fill="white"/>
<path d="M73.5592 88.16L54.3092 46.81C52.6892 46.01 52.7792 45.49 51.8592 45.92L49.9992 48.27C49.0792 48.7 47.5692 48.85 47.9992 49.77L67.2092 91.13L73.5592 88.16Z" fill="#F6A505"/>
<path d="M72.3418 89.8936L69.3411 91.2909C68.4149 91.7222 68.0137 92.8227 68.445 93.7489L69.9985 97.0849C70.4298 98.0112 71.5303 98.4124 72.4566 97.9811L75.4572 96.5838C76.3834 96.1524 76.7846 95.0519 76.3533 94.1257L74.7998 90.7897C74.3685 89.8635 73.268 89.4623 72.3418 89.8936Z" fill="#F6A505"/>
<path d="M73.5595 88.16L54.3095 46.81C53.8795 45.89 50.5195 46.54 50.5195 46.54L70.5195 89.54L73.5595 88.16Z" fill="#FFD147"/>
<path d="M74.12 97.22L75.45 96.6C75.6705 96.4988 75.8687 96.355 76.0334 96.1769C76.1981 95.9988 76.326 95.7899 76.4096 95.5622C76.4932 95.3345 76.531 95.0925 76.5208 94.8502C76.5106 94.6078 76.4525 94.3699 76.35 94.15L74.79 90.8C74.5817 90.3584 74.2073 90.017 73.7484 89.8502C73.2894 89.6835 72.7832 89.705 72.34 89.91L71 90.53L74.12 97.22Z" fill="#FFD147"/>
<path d="M73.468 87.949L67.1133 90.9082L68.2024 93.247L74.5572 90.2878L73.468 87.949Z" fill="#F1E1EF"/>
<path d="M48.4892 43.83L48.4492 42.23L49.6592 43.36L49.3492 44.03L48.4892 43.83Z" fill="#0F3A5D"/>
<path d="M49.6596 43.36C49.5243 43.4976 49.365 43.6094 49.1896 43.69C48.972 43.7955 48.7311 43.8437 48.4896 43.83L47.8496 49.54L54.1996 46.54L49.6596 43.36Z" fill="#DDEEE9"/>
<path d="M145.75 91.54C145.75 91.54 165.11 70.92 184.35 76C190.35 99.17 165.48 109.75 165.48 109.75L140.75 109.96L145.75 91.54Z" fill="#5C81A2"/>
<path d="M175.039 103.95L154.699 99.42L172.859 85.28L184.849 87.55L184.969 86.94L173.519 84.77L184.769 76.01L184.149 75.69L163.539 91.75L162.489 78.88L161.909 79.42L162.959 92.2L140.029 110.06L140.409 110.55L154.059 99.92L174.299 104.42L175.039 103.95Z" fill="white"/>
<path d="M148.87 106.83C148.87 106.83 172.01 102.16 180.56 115.51C166.56 144.71 128.98 128.51 128.98 128.51L148.87 106.83Z" fill="#63C0C4"/>
<path d="M161.371 132.17L148.661 119.74L180.591 115.82L180.521 115.2L161.141 117.58L169.311 107.23L168.541 107.2L160.261 117.69L133.971 120.92L134.051 121.54L147.871 119.84L160.531 132.22L161.371 132.17Z" fill="white"/>
<path d="M134.32 92.16C134.32 92.16 139.11 64.16 159.41 59.78C179.1 89.62 148.73 107.33 148.73 107.33L134.32 92.16Z" fill="#FFBEA2"/>
<path d="M166.211 83.62L166.201 82.95L146.831 91.41L156.931 59.35L156.331 59.16L149.171 81.9L141.441 72.28L141.301 73.1L148.941 82.62L143.131 101.08L143.591 101.7L146.581 92.2L166.211 83.62Z" fill="white"/>
<path d="M71.6707 78.34C71.6707 78.34 55.4707 56.19 36.3307 58.8C27.8407 80.42 50.5107 93.55 50.5107 93.55L74.3107 96.68L71.6707 78.34Z" fill="#FF7C44"/>
<path d="M41.9895 86.82L62.1195 84.87L46.2995 69.09L34.4795 69.86L34.4395 69.26L45.7295 68.53L35.9295 58.75L36.5595 58.53L54.5095 76.43L57.0495 64.16L57.5395 64.75L55.0195 76.94L74.9795 96.86L74.5595 97.28L62.6695 85.43L42.6495 87.37L41.9895 86.82Z" fill="white"/>
<path d="M68.3391 91C68.3391 91 46.6091 83.76 36.7891 95.6C46.7891 125.38 85.3791 114.76 85.3791 114.76L68.3391 91Z" fill="#5C81A2"/>
<path d="M53.3007 113.97L67.0107 103.5L36.7207 95.94L36.8607 95.35L55.2507 99.94L48.6007 89L49.3507 89.06L56.0807 100.15L81.0207 106.37L80.8707 106.96L67.7607 103.69L54.1007 114.11L53.3007 113.97Z" fill="white"/>
<path d="M80.0008 83.18C80.0008 83.18 92.2608 58.55 78.9008 43.45C46.3308 55.54 63.2708 92.78 63.2708 92.78L80.0008 83.18Z" fill="#E7F2FB"/>
<path d="M59.1191 59.46L59.4491 58.9L71.7691 75.29L78.5591 43.38L79.1491 43.51L74.3391 66.14L85.4591 61.71L85.1891 62.46L74.1891 66.85L70.2791 85.23L69.5991 85.54L71.6091 76.08L59.1191 59.46Z" fill="white"/>
<path d="M71.7695 62L71.8395 91L72.0595 135.08C72.0595 135.876 72.3756 136.639 72.9382 137.201C73.5008 137.764 74.2639 138.08 75.0595 138.08L141.84 137.8C146.75 137.8 150.71 134.08 150.7 129.53L150.6 62H71.7695Z" fill="#0F3A5D"/>
<path d="M95.9199 105.22L147.25 105.58C147.25 105.58 148.56 48.1 143.68 47.17C138.8 46.24 136.8 48.82 136.8 48.82C136.8 48.82 131.8 40.52 123.31 39.36C114.82 38.2 96.3899 37.88 96.3899 37.88L95.9199 105.22Z" fill="#FF7C44"/>
<path d="M124.74 39.63C127.9 40.13 141.74 43.06 144.74 47.94C140.66 46.18 136.74 48.82 136.74 48.82C136.74 48.82 131.77 41.21 124.74 39.63Z" fill="#C9673E"/>
<path d="M136.546 60.4618L107.297 60.2576L107.29 61.2376L136.539 61.4418L136.546 60.4618Z" fill="white"/>
<path d="M136.509 65.7714L107.26 65.5672L107.253 66.5472L136.502 66.7514L136.509 65.7714Z" fill="white"/>
<path d="M136.482 71.091L107.232 70.8868L107.226 71.8668L136.475 72.071L136.482 71.091Z" fill="white"/>
<path d="M62.4301 91L62.6301 132.52H141.46L141.19 76.96C141.19 76.1643 140.874 75.4013 140.311 74.8387C139.749 74.276 138.986 73.96 138.19 73.96L104.49 74.1L98.3601 68.69C96.7972 67.3042 94.7789 66.5424 92.6901 66.55L67.1001 66.65C65.8226 66.6684 64.6044 67.1923 63.7123 68.1069C62.8201 69.0215 62.3267 70.2524 62.3401 71.53V77.33L62.4301 91Z" fill="#17578C"/>
<path d="M62.6309 132.51V133.43C62.6414 134.668 63.1419 135.851 64.0228 136.721C64.9036 137.59 66.0931 138.075 67.3309 138.07L146.011 137.78L141.451 132.51H62.6309Z" fill="#174E7A"/>
<path d="M141.471 125.48V133.15C141.471 134.375 141.957 135.55 142.824 136.417C143.69 137.283 144.865 137.77 146.091 137.77C147.316 137.77 148.491 137.283 149.358 136.417C150.224 135.55 150.711 134.375 150.711 133.15V123.27C148.001 124.93 144.761 125.4 141.471 125.48Z" fill="#093C5D"/>
<path d="M146.949 31.09L156.089 26.04L160.759 25.11L164.289 25.63L146.949 31.09Z" fill="#AFC8DE"/>
<path d="M146.949 31.09L164.069 26.68L164.289 25.63" fill="#0F3A5D"/>
<path d="M164.56 29.62L164.54 29.66L163.82 32.31L147 31.09L164.56 29.62Z" fill="#0F3A5D"/>
<path d="M167.831 28.06L165.391 26.08L147.061 31.06L162.841 30.59L167.831 28.06Z" fill="#AFC8DE"/>
<path d="M206.331 62C205.768 61.7994 205.22 61.5587 204.691 61.28C204.631 61.2514 204.562 61.2469 204.499 61.2673C204.436 61.2878 204.383 61.3317 204.351 61.39C204.335 61.4195 204.326 61.4517 204.323 61.4849C204.32 61.5181 204.324 61.5515 204.334 61.5831C204.345 61.6148 204.361 61.6441 204.383 61.6693C204.405 61.6945 204.431 61.7152 204.461 61.73C205.015 62.0114 205.586 62.2585 206.171 62.47L206.801 62.68C206.836 62.6948 206.873 62.7025 206.911 62.7025C206.949 62.7025 206.986 62.6948 207.021 62.68C207.065 62.6481 207.096 62.6022 207.111 62.55C207.13 62.4877 207.124 62.4204 207.094 62.3625C207.064 62.3046 207.013 62.2606 206.951 62.24L206.331 62Z" fill="#5C81A2"/>
<path d="M172.831 26.21C172.051 26.31 171.251 26.44 170.361 26.6C170.297 26.6144 170.241 26.6522 170.204 26.706C170.167 26.7597 170.152 26.8254 170.161 26.89C170.173 26.9549 170.21 27.0123 170.265 27.0498C170.319 27.0872 170.386 27.1017 170.451 27.09C171.331 26.93 172.131 26.8 172.891 26.7C172.93 26.7117 172.972 26.7117 173.011 26.7C173.046 26.6739 173.074 26.6388 173.092 26.5984C173.109 26.5581 173.116 26.5137 173.111 26.47C173.112 26.4337 173.106 26.3974 173.093 26.3637C173.079 26.33 173.058 26.2997 173.031 26.275C173.004 26.2502 172.973 26.2316 172.938 26.2203C172.904 26.2091 172.867 26.2056 172.831 26.21Z" fill="#5C81A2"/>
<path d="M177 26.4C177.031 26.3767 177.056 26.3465 177.073 26.3118C177.091 26.2771 177.1 26.2388 177.1 26.2C177.1 26.1337 177.073 26.0701 177.026 26.0232C176.979 25.9764 176.916 25.95 176.85 25.95C176.05 25.95 175.21 25.95 174.35 26.05C174.283 26.05 174.22 26.0763 174.173 26.1232C174.126 26.1701 174.1 26.2337 174.1 26.3C174.1 26.3663 174.126 26.4299 174.173 26.4768C174.22 26.5237 174.283 26.55 174.35 26.55C175.2 26.48 176.03 26.44 176.81 26.45C176.877 26.4578 176.945 26.4399 177 26.4Z" fill="#5C81A2"/>
<path d="M201.531 59C201.509 58.9747 201.482 58.9544 201.452 58.9404C201.422 58.9265 201.389 58.9193 201.356 58.9193C201.323 58.9193 201.29 58.9265 201.259 58.9404C201.229 58.9544 201.202 58.9747 201.181 59C201.135 59.0467 201.109 59.1096 201.109 59.175C201.109 59.2404 201.135 59.3033 201.181 59.35C201.796 59.9415 202.466 60.4738 203.181 60.94C203.223 60.9716 203.273 60.9888 203.326 60.9888C203.378 60.9888 203.429 60.9716 203.471 60.94C203.496 60.9254 203.516 60.9048 203.531 60.88C203.565 60.8253 203.578 60.7593 203.564 60.6959C203.551 60.6325 203.514 60.5766 203.461 60.54C202.771 60.0875 202.125 59.5719 201.531 59Z" fill="#5C81A2"/>
<path d="M200.51 58.25C200.534 58.2275 200.553 58.2004 200.566 58.1703C200.579 58.1402 200.586 58.1078 200.586 58.075C200.586 58.0422 200.579 58.0097 200.566 57.9796C200.553 57.9495 200.534 57.9224 200.51 57.9L200.1 57.38C199.75 56.9021 199.433 56.401 199.15 55.88C199.118 55.8216 199.065 55.7783 199.001 55.7596C198.937 55.7408 198.869 55.7482 198.81 55.78C198.752 55.8118 198.709 55.8655 198.69 55.9293C198.671 55.993 198.678 56.0616 198.71 56.12C199.007 56.6594 199.341 57.1774 199.71 57.67C199.85 57.86 199.99 58.04 200.14 58.22C200.187 58.2629 200.247 58.2867 200.31 58.2867C200.373 58.2867 200.434 58.2629 200.48 58.22L200.51 58.25Z" fill="#5C81A2"/>
<path d="M198.42 54.89H198.47C198.515 54.8564 198.547 54.8084 198.562 54.754C198.576 54.6995 198.572 54.6417 198.55 54.59C198.246 53.8308 197.992 53.0524 197.79 52.26C197.773 52.1967 197.733 52.1425 197.676 52.1088C197.62 52.0752 197.553 52.0648 197.49 52.08C197.428 52.0987 197.375 52.1398 197.342 52.1952C197.308 52.2507 197.297 52.3166 197.31 52.38C197.513 53.1975 197.773 53.9995 198.09 54.78C198.12 54.8376 198.171 54.8813 198.232 54.9018C198.294 54.9224 198.361 54.9181 198.42 54.89Z" fill="#5C81A2"/>
<path d="M191.821 33.67C192.031 33.92 192.231 34.18 192.421 34.44C192.721 34.8322 193.001 35.2394 193.261 35.66C193.296 35.7151 193.351 35.7543 193.414 35.7692C193.478 35.7842 193.545 35.7737 193.601 35.74C193.65 35.7022 193.683 35.6475 193.694 35.5866C193.705 35.5256 193.693 35.4627 193.661 35.41C193.391 34.99 193.101 34.57 192.801 34.16C192.501 33.75 192.401 33.63 192.191 33.37C192.169 33.3447 192.142 33.3243 192.112 33.3104C192.082 33.2965 192.049 33.2892 192.016 33.2892C191.982 33.2892 191.95 33.2965 191.919 33.3104C191.889 33.3243 191.862 33.3447 191.841 33.37C191.804 33.4102 191.782 33.4619 191.778 33.5165C191.774 33.571 191.789 33.6252 191.821 33.67Z" fill="#5C81A2"/>
<path d="M194 36.93C194.385 37.656 194.719 38.4078 195 39.18C195.025 39.2407 195.071 39.2899 195.131 39.3177C195.19 39.3456 195.258 39.3499 195.32 39.33H195.39C195.432 39.2986 195.463 39.2541 195.477 39.2035C195.492 39.1529 195.489 39.099 195.47 39.05C195.189 38.2585 194.855 37.4868 194.47 36.74C194.435 36.6895 194.384 36.6535 194.324 36.6387C194.265 36.6239 194.202 36.6313 194.148 36.6597C194.094 36.688 194.052 36.7353 194.03 36.7924C194.008 36.8496 194.008 36.9128 194.03 36.97L194 36.93Z" fill="#5C81A2"/>
<path d="M189.001 30.89C189.636 31.4073 190.237 31.9651 190.801 32.56C190.847 32.5982 190.906 32.6191 190.966 32.6191C191.026 32.6191 191.084 32.5982 191.131 32.56C191.155 32.5376 191.174 32.5104 191.187 32.4803C191.2 32.4503 191.206 32.4178 191.206 32.385C191.206 32.3522 191.2 32.3198 191.187 32.2897C191.174 32.2596 191.155 32.2324 191.131 32.21C190.554 31.6018 189.939 31.0307 189.291 30.5C189.24 30.466 189.178 30.452 189.117 30.4607C189.056 30.4694 189.001 30.5002 188.961 30.5472C188.922 30.5942 188.901 30.654 188.902 30.7154C188.904 30.7768 188.929 30.8354 188.971 30.88L189.001 30.89Z" fill="#5C81A2"/>
<path d="M184.46 28.06C184.498 28.0819 184.542 28.0935 184.585 28.0935C184.629 28.0935 184.672 28.0819 184.71 28.06C184.742 28.0313 184.769 27.9975 184.79 27.96C184.804 27.9298 184.811 27.8973 184.811 27.8643C184.812 27.8314 184.806 27.7986 184.794 27.768C184.782 27.7373 184.764 27.7093 184.741 27.6856C184.718 27.662 184.691 27.643 184.66 27.63C183.894 27.2871 183.106 26.9964 182.3 26.76C182.237 26.7414 182.168 26.7489 182.11 26.7808C182.052 26.8127 182.009 26.8663 181.99 26.93C181.972 26.9937 181.979 27.0621 182.011 27.1202C182.043 27.1783 182.097 27.2214 182.16 27.24C182.943 27.4659 183.711 27.7397 184.46 28.06Z" fill="#5C81A2"/>
<path d="M196.71 47.14C196.749 47.1546 196.792 47.1546 196.83 47.14C196.866 47.1162 196.894 47.0831 196.912 47.0442C196.929 47.0053 196.936 46.9623 196.93 46.92V46.6C196.84 45.88 196.76 45.16 196.67 44.44C196.661 44.3737 196.626 44.3138 196.572 44.2735C196.519 44.2332 196.452 44.2157 196.385 44.225C196.319 44.2343 196.259 44.2695 196.219 44.323C196.179 44.3764 196.161 44.4437 196.17 44.51C196.27 45.22 196.35 45.94 196.43 46.66V46.97C196.447 47.0285 196.485 47.0786 196.537 47.1102C196.589 47.1418 196.651 47.1524 196.71 47.14Z" fill="#5C81A2"/>
<path d="M187.87 30C187.913 30.0288 187.964 30.0442 188.015 30.0442C188.067 30.0442 188.117 30.0288 188.16 30L188.22 29.94C188.239 29.9131 188.253 29.8827 188.261 29.8505C188.268 29.8184 188.269 29.785 188.263 29.7525C188.258 29.7199 188.246 29.6888 188.228 29.6609C188.21 29.6331 188.187 29.6089 188.16 29.59C187.467 29.1082 186.745 28.6674 186 28.27C185.941 28.2406 185.874 28.2345 185.811 28.2531C185.748 28.2716 185.694 28.3134 185.66 28.37C185.631 28.4288 185.625 28.4966 185.643 28.5597C185.662 28.6228 185.704 28.6765 185.76 28.71C186.49 29.0951 187.195 29.5259 187.87 30Z" fill="#5C81A2"/>
<path d="M196.83 48.13C196.765 48.1399 196.706 48.1744 196.665 48.2264C196.624 48.2785 196.605 48.3441 196.61 48.41C196.74 49.41 196.86 50.16 196.99 50.88C197.003 50.9449 197.04 51.0023 197.094 51.0398C197.149 51.0772 197.215 51.0917 197.28 51.08H197.38C197.42 51.0531 197.451 51.0149 197.469 50.9704C197.487 50.9258 197.491 50.8769 197.48 50.83C197.35 50.12 197.23 49.34 197.11 48.39C197.112 48.3537 197.106 48.3174 197.092 48.2837C197.078 48.25 197.057 48.2197 197.031 48.195C197.004 48.1702 196.972 48.1516 196.938 48.1404C196.903 48.1291 196.867 48.1256 196.83 48.13Z" fill="#5C81A2"/>
<path d="M208.37 62.53C208.338 62.5227 208.305 62.5223 208.272 62.5286C208.24 62.5349 208.209 62.5478 208.182 62.5666C208.155 62.5854 208.131 62.6096 208.114 62.6377C208.097 62.6658 208.085 62.6972 208.08 62.73C208.069 62.7935 208.082 62.8592 208.117 62.9133C208.152 62.9673 208.207 63.0056 208.27 63.02C209.096 63.1784 209.931 63.2853 210.77 63.34C210.828 63.3451 210.886 63.3271 210.93 63.29C210.961 63.2704 210.985 63.2438 211.003 63.2124C211.02 63.181 211.03 63.1459 211.03 63.11C211.033 63.0771 211.029 63.0441 211.019 63.0127C211.009 62.9813 210.993 62.9522 210.972 62.9271C210.95 62.902 210.924 62.8814 210.895 62.8665C210.865 62.8515 210.833 62.8425 210.8 62.84C209.985 62.7886 209.173 62.6851 208.37 62.53Z" fill="#5C81A2"/>
<path d="M195.589 40.28C195.526 40.2965 195.472 40.3372 195.438 40.3933C195.404 40.4494 195.394 40.5164 195.409 40.58C195.623 41.3741 195.796 42.1785 195.929 42.99C195.933 43.0223 195.943 43.0536 195.959 43.0817C195.976 43.1098 195.998 43.1341 196.024 43.153C196.051 43.1719 196.081 43.1849 196.113 43.1913C196.145 43.1977 196.177 43.1973 196.209 43.19C196.245 43.1998 196.283 43.1998 196.319 43.19C196.355 43.1617 196.382 43.1248 196.4 43.0828C196.417 43.0409 196.424 42.9952 196.419 42.95C196.269 42.04 196.089 41.24 195.889 40.49C195.886 40.4553 195.875 40.4217 195.858 40.3916C195.84 40.3615 195.816 40.3355 195.788 40.3155C195.759 40.2955 195.727 40.282 195.692 40.2759C195.658 40.2697 195.623 40.2712 195.589 40.28Z" fill="#5C81A2"/>
<path d="M179.211 26.1L178.341 26.02C178.304 26.0126 178.267 26.0134 178.231 26.0223C178.195 26.0312 178.161 26.048 178.133 26.0714C178.104 26.0949 178.081 26.1244 178.065 26.1579C178.049 26.1914 178.041 26.228 178.041 26.265C178.041 26.3021 178.049 26.3387 178.065 26.3721C178.081 26.4056 178.104 26.4351 178.133 26.4586C178.161 26.482 178.195 26.4988 178.231 26.5077C178.267 26.5166 178.304 26.5174 178.341 26.51L179.191 26.59C179.721 26.66 180.251 26.74 180.771 26.85C180.802 26.8644 180.836 26.8718 180.871 26.8718C180.905 26.8718 180.939 26.8644 180.971 26.85C180.996 26.8329 181.017 26.8107 181.032 26.7848C181.048 26.7589 181.057 26.73 181.061 26.7C181.068 26.6685 181.069 26.6357 181.063 26.6038C181.058 26.572 181.045 26.5415 181.028 26.5145C181.01 26.4874 180.987 26.4641 180.96 26.4462C180.933 26.4282 180.903 26.4159 180.871 26.41C180.324 26.2751 179.77 26.1716 179.211 26.1Z" fill="#5C81A2"/>
</svg>
