<svg width="199" height="135" viewBox="0 0 199 135" fill="none" xmlns="http://www.w3.org/2000/svg">
<path d="M111.896 3.87048L109.668 7.62374L113.89 6.92001L128.2 3.16675L111.896 3.87048Z" fill="#C9673E"/>
<path d="M109.668 7.62396L116.705 7.50668L115.063 6.56836L109.668 7.62396Z" fill="#9C4B2A"/>
<path d="M111.895 3.87055L110.84 0L128.199 3.16681L111.895 3.87055Z" fill="#FFB99C"/>
<path d="M128.2 3.16675L113.891 6.92001L115.65 12.4326L128.2 3.16675Z" fill="#FFB99C"/>
<path d="M111.07 11.6112C110.953 11.6112 110.953 11.6112 111.07 11.6112C110.836 11.3766 110.836 11.142 111.07 11.0247C111.54 10.6729 112.009 10.321 112.478 10.0864C112.595 9.96914 112.83 10.0864 112.947 10.2037C113.064 10.321 112.947 10.5556 112.83 10.6729C112.361 10.9074 111.891 11.2593 111.54 11.4939C111.305 11.6112 111.188 11.6112 111.07 11.6112Z" fill="#FFBEA2"/>
<path d="M113.888 48.0888C112.949 47.5023 112.128 46.6813 111.425 45.743C111.307 45.6257 111.307 45.3911 111.542 45.2738C111.659 45.1566 111.894 45.1566 112.011 45.3911C112.715 46.3295 113.418 47.0332 114.357 47.6196C114.474 47.7369 114.591 47.9715 114.474 48.0888C114.24 48.0888 114.005 48.2061 113.888 48.0888ZM110.486 44.101L110.369 43.9837C109.9 42.9281 109.431 41.8725 109.313 40.6996C109.313 40.465 109.431 40.3477 109.548 40.3477C109.783 40.3477 109.9 40.465 109.9 40.5823C110.134 41.6379 110.486 42.6935 110.955 43.6318C111.073 43.7491 110.955 43.9837 110.838 44.101C110.604 44.101 110.486 44.101 110.486 44.101ZM109.196 38.9402C109.079 38.9402 109.079 38.8229 109.079 38.7056V38.5884C109.079 37.5328 109.196 36.4771 109.431 35.3043C109.431 35.0697 109.665 34.9524 109.783 35.0697C110.017 35.0697 110.134 35.3043 110.017 35.4215C109.783 36.4771 109.665 37.5328 109.665 38.4711V38.5884C109.665 38.8229 109.548 38.9402 109.313 38.9402H109.196ZM110.017 33.6622C109.9 33.5449 109.783 33.4276 109.9 33.3103C110.252 32.2547 110.604 31.1991 111.19 30.1435C111.307 30.0262 111.425 29.9089 111.659 30.0262C111.776 30.1435 111.894 30.2608 111.776 30.4954C111.307 31.551 110.838 32.6066 110.486 33.5449C110.369 33.6622 110.252 33.7795 110.017 33.6622ZM112.128 28.7361C112.011 28.6188 111.894 28.5015 112.011 28.2669C112.011 28.1496 112.128 28.1496 112.128 28.0323C111.659 27.7977 111.19 27.4459 110.721 27.094C110.604 26.9767 110.486 26.7421 110.604 26.6248C110.721 26.5076 110.955 26.3903 111.073 26.5076C111.542 26.8594 111.894 27.094 112.363 27.3286C112.715 26.6248 113.184 25.9211 113.653 25.2174C113.77 25.1001 114.005 24.9828 114.122 25.1001C114.24 25.2174 114.357 25.4519 114.239 25.5692C113.77 26.273 113.418 26.9767 112.949 27.5632C113.301 27.6804 113.536 27.7977 113.888 27.915C114.122 28.0323 114.122 28.1496 114.122 28.3842C114.122 28.5015 113.888 28.6188 113.653 28.6188C113.301 28.5015 112.949 28.3842 112.597 28.1496C112.597 28.2669 112.48 28.2669 112.48 28.3842C112.48 28.8533 112.363 28.8533 112.128 28.7361ZM109.313 25.9211C108.727 25.3347 108.375 24.7482 108.023 24.0445C107.789 23.6926 107.671 23.2235 107.437 22.8716C107.319 22.7543 107.437 22.5197 107.671 22.4024C107.789 22.2851 108.023 22.4024 108.14 22.637C108.258 22.9889 108.492 23.458 108.61 23.8099C108.961 24.3963 109.313 24.9828 109.783 25.452C109.9 25.5692 109.9 25.8038 109.783 25.9211C109.548 25.9211 109.431 26.0384 109.313 25.9211ZM115.647 29.2052C115.53 29.0879 115.412 28.9706 115.53 28.8533C115.53 28.6188 115.764 28.5015 115.882 28.6188C116.937 28.7361 118.11 28.736 119.048 28.5015C119.283 28.5015 119.4 28.6188 119.4 28.7361C119.4 28.9706 119.283 29.0879 119.166 29.0879C118.11 29.3225 116.937 29.3225 115.764 29.2052C115.764 29.3225 115.764 29.3225 115.647 29.2052ZM107.202 21.1122C107.085 21.1122 107.085 20.995 107.085 20.8777C106.968 19.7048 106.968 18.6492 107.202 17.4763C107.202 17.2417 107.437 17.1244 107.554 17.2417C107.789 17.2417 107.906 17.4763 107.789 17.5936C107.554 18.6492 107.554 19.7048 107.671 20.7604C107.671 20.995 107.554 21.1122 107.437 21.1122C107.319 21.1122 107.202 21.1122 107.202 21.1122ZM120.925 28.6188L120.808 28.5015C120.69 28.3842 120.808 28.1496 120.925 28.0323C121.16 27.915 121.394 27.7977 121.629 27.6805C122.332 27.3286 122.919 26.7421 123.388 26.1557C123.505 26.0384 123.74 26.0384 123.857 26.1557C123.975 26.273 123.975 26.5076 123.857 26.6248C123.271 27.3286 122.684 27.915 121.863 28.2669C121.629 28.3842 121.394 28.5015 121.042 28.6188C121.16 28.6188 121.042 28.6188 120.925 28.6188ZM115.061 24.2791C114.826 24.1618 114.826 23.9272 114.943 23.8099C115.764 22.7543 116.468 21.9333 117.289 21.2295C117.406 21.1122 117.641 21.1122 117.758 21.2295C117.875 21.3468 117.875 21.5814 117.758 21.6987C117.054 22.2851 116.351 22.9889 115.647 24.1618C115.412 24.2791 115.178 24.3963 115.061 24.2791ZM107.906 15.8342C107.789 15.7169 107.671 15.5996 107.789 15.4824C108.023 15.0132 108.258 14.544 108.492 14.0749C108.844 13.4884 109.196 13.0193 109.548 12.5501C109.665 12.4328 109.9 12.4328 110.017 12.5501C110.134 12.6674 110.134 12.902 110.017 13.0193C109.665 13.4884 109.313 13.9576 108.961 14.4268C108.727 14.8959 108.492 15.2478 108.375 15.7169C108.258 15.8342 108.14 15.9515 107.906 15.8342ZM124.561 24.8655C124.444 24.7482 124.326 24.6309 124.444 24.5136C124.678 23.6926 124.678 22.9889 124.326 22.2851C124.209 22.0506 124.092 21.816 123.857 21.5814C123.74 21.4641 123.74 21.2295 123.857 21.1122C123.975 20.995 124.209 20.995 124.326 21.1122C124.561 21.3468 124.678 21.5814 124.796 21.9333C125.147 22.7543 125.265 23.6926 124.913 24.6309C124.913 24.7482 124.796 24.8655 124.561 24.8655ZM118.931 20.7604C118.814 20.7604 118.814 20.6431 118.814 20.6431C118.696 20.5258 118.814 20.2912 119.048 20.1739C120.104 19.7048 121.394 19.7048 122.567 20.0566C122.684 20.0566 122.802 20.2912 122.802 20.5258C122.802 20.6431 122.567 20.7604 122.332 20.7604C121.394 20.4085 120.221 20.5258 119.283 20.8777C119.166 20.8777 119.048 20.7604 118.931 20.7604Z" fill="#FFBEA2"/>
<path d="M115.642 49.0271C115.525 48.9098 115.408 48.7925 115.525 48.6753C115.642 48.558 115.76 48.4407 115.994 48.4407C116.463 48.558 117.05 48.6753 117.519 48.7925C117.754 48.7925 117.871 49.0271 117.871 49.1444C117.871 49.379 117.636 49.4963 117.519 49.4963C116.815 49.2617 116.346 49.1444 115.642 49.0271C115.76 49.0271 115.76 49.0271 115.642 49.0271Z" fill="#FFBEA2"/>
<path d="M99.4614 135C154.392 135 198.923 131.85 198.923 127.963C198.923 124.077 154.392 120.926 99.4614 120.926C44.5304 120.926 0 124.077 0 127.963C0 131.85 44.5304 135 99.4614 135Z" fill="#E7F2FB"/>
<path d="M71.5481 78.1145C71.5481 78.1145 50.5533 48.323 26.0399 51.4898C15.7184 77.8799 43.3987 93.9486 43.3987 93.9486L72.4864 97.8191L71.5481 78.1145Z" fill="#5C81A2"/>
<path d="M32.84 85.738L57.4707 83.275L38.118 64.0395L23.6914 64.9778V64.2741L37.4143 63.3358L25.4507 51.3723L26.2718 51.1377L48.2049 72.9535L51.2544 58.0578L51.8408 58.7615L48.7913 73.6572L73.1875 97.9361L72.6011 98.5226L58.1745 83.9787L33.661 86.3245L32.84 85.738Z" fill="white"/>
<path d="M65.096 90.8989C65.096 90.8989 38.5886 82.1021 26.5078 96.5287C38.7059 132.888 85.8562 119.987 85.8562 119.987L65.096 90.8989Z" fill="#FF7C44"/>
<path d="M46.6817 118.814L63.4541 106.029L26.3906 96.8805L26.6252 96.0595L49.0275 101.689L40.9345 88.3184L41.8728 88.4356L50.0831 101.924L80.5783 109.548L80.3437 110.251L64.3924 106.264L47.62 119.048L46.6817 118.814Z" fill="white"/>
<path d="M125.392 73.0716C125.392 73.0716 149.085 47.8544 172.542 54.0707C179.814 82.3375 149.436 95.3566 149.436 95.3566L119.176 95.5911L125.392 73.0716Z" fill="#5C81A2"/>
<path d="M161.166 88.2023L136.301 82.6897L158.468 65.4482L173.13 68.1458L173.364 67.4421L159.289 64.7444L173.012 54.0711L172.309 53.7192L147.091 73.3066L145.801 57.5898L145.097 58.2935L146.388 73.893L118.355 95.7088L118.825 96.2953L135.597 83.2762L160.228 88.7887L161.166 88.2023Z" fill="white"/>
<path d="M129.267 91.7205C129.267 91.7205 157.534 85.9733 167.973 102.277C150.848 137.932 104.988 118.111 104.988 118.111L129.267 91.7205Z" fill="#63C0C4"/>
<path d="M144.517 122.685L128.918 107.555L167.975 102.746L167.858 101.925L144.166 104.857L154.135 92.1897H153.197L143.11 104.974L110.973 108.962L111.09 109.666L127.98 107.672L143.462 122.802L144.517 122.685Z" fill="white"/>
<path d="M111.434 73.7758C111.434 73.7758 117.298 39.6446 142.046 34.2493C166.09 70.7262 129.027 92.3075 129.027 92.3075L111.434 73.7758Z" fill="#FFBEA2"/>
<path d="M150.378 63.4539V62.6329L126.685 72.9544L139.001 33.7797L138.297 33.5452L129.618 61.3427L120.117 49.4965L120 50.5521L129.266 62.1638L122.228 84.6833L122.698 85.5043L126.451 73.8927L150.378 63.4539Z" fill="white"/>
<path d="M55.828 36.4771L51.8402 41.0514L57.7047 46.2121L62.0444 41.1687C63.1 41.5205 64.0383 41.8724 65.0939 41.9897L66.2668 48.7925L73.8906 47.5023L72.835 41.0514C73.7733 40.6995 74.5943 40.2303 75.4154 39.6439L80.2242 43.749L85.385 37.8845L80.5761 33.7794C81.0453 32.8411 81.2798 32.0201 81.5144 31.0818L88.0826 31.1991L88.3172 23.458L81.3971 23.3407C81.0453 22.2851 80.6934 21.3468 80.1069 20.4084L84.4466 15.365L78.5822 10.2043L74.7116 14.8958C73.3042 14.0748 71.7794 13.4884 70.1374 13.2538L69.0817 6.92017L61.4579 8.21035L62.3963 13.9575C61.3406 14.3094 60.285 14.8958 59.3467 15.4823L55.1243 11.729L49.9636 17.5935L54.0687 21.2295C53.5996 22.2851 53.2477 23.3407 53.0131 24.5136L47.1486 24.3963L46.9141 32.1374L53.365 32.2547C54.0687 33.7794 54.7724 35.1869 55.828 36.4771ZM61.5752 22.5196C64.3902 19.3528 69.199 19.001 72.3658 21.8159C75.5327 24.6309 75.8845 29.4397 73.0696 32.6065C70.2546 35.7733 65.4458 36.1252 62.279 33.3103C59.2294 30.4953 58.8776 25.6865 61.5752 22.5196Z" fill="#FFBEA2"/>
<path d="M141.92 13.9575H136.877C135.821 13.9575 135 14.7785 135 15.8341V20.8776C135 21.9332 135.821 22.7542 136.877 22.7542H138.167C138.401 22.7542 138.636 22.8715 138.753 23.1061L138.636 25.2173L140.161 23.1061C140.278 22.8715 140.395 22.7542 140.747 22.7542H141.92C142.976 22.7542 143.797 21.9332 143.797 20.8776V15.8341C143.914 14.7785 142.976 13.9575 141.92 13.9575Z" fill="#B2C4D3"/>
<path d="M37.1719 49.0277V57.1207C37.1719 57.9417 37.8756 58.6454 38.6966 58.6454H42.919L44.7957 61.6949V58.6454H46.555C47.376 58.6454 48.1971 57.9417 48.1971 57.0034V49.145C48.1971 48.324 47.4933 47.5029 46.555 47.5029H38.6966C37.8756 47.6202 37.1719 48.2067 37.1719 49.0277Z" fill="white"/>
<path d="M40.8131 54.4228H40.1094V53.6018H41.0477L41.2823 52.1943H40.4612V51.256H41.3996L41.6341 49.9658H42.4552L42.2206 51.256H43.5108L43.7454 49.9658H44.5664L44.4491 51.256H45.1528V52.077H44.3318L44.0972 53.4845H44.9182V54.3055H43.9799L43.7454 55.5957H42.9243L43.1589 54.3055H41.8687L41.6341 55.5957H40.8131V54.4228ZM43.1589 53.4845L43.3935 52.077H42.1033L41.8687 53.4845H43.1589Z" fill="#FF8A59"/>
<path d="M39.9959 128.901C40.2304 128.901 40.5823 128.667 40.5823 128.432L42.9281 118.697C43.0454 118.345 42.8108 117.993 42.4589 117.993C42.1071 117.876 41.7552 118.111 41.7552 118.463L39.4094 128.198C39.2921 128.549 39.5267 128.901 39.8786 128.901C39.9959 128.901 39.9959 128.901 39.9959 128.901Z" fill="#5C81A2"/>
<path d="M62.5135 124.21C62.2789 124.21 61.9271 123.975 61.9271 123.741L59.5813 114.005C59.464 113.654 59.6986 113.302 60.0504 113.302C60.4023 113.184 60.7542 113.419 60.7542 113.771L63.1 123.506C63.2173 123.858 62.9827 124.21 62.6308 124.21C62.6308 124.21 62.6308 124.21 62.5135 124.21Z" fill="#5C81A2"/>
<path d="M47.3885 124.21C47.1539 124.21 46.8021 123.975 46.8021 123.741L44.4563 114.005C44.339 113.654 44.5736 113.302 44.9255 113.302C45.2773 113.184 45.6292 113.419 45.6292 113.771L47.975 123.506C48.0923 123.858 47.8577 124.21 47.5058 124.21H47.3885Z" fill="#5C81A2"/>
<path d="M26.6248 128.901C26.8593 128.901 27.2112 128.667 27.2112 128.432L30.6126 114.357C30.7299 114.005 30.4953 113.654 30.1434 113.654C29.7916 113.536 29.4397 113.771 29.4397 114.123L26.0383 128.197C25.921 128.549 26.1556 128.901 26.5075 128.901C26.6248 128.901 26.6248 128.901 26.6248 128.901Z" fill="#5C81A2"/>
<path d="M32.0184 77.7632C55.7109 77.7632 51.2539 102.159 58.6431 101.807C66.1496 101.338 69.551 119.049 42.3399 119.049C15.1288 119.049 10.2026 77.7632 32.0184 77.7632Z" fill="#0F3A5D"/>
<path d="M60.7483 121.629C60.7483 121.629 60.8656 124.679 62.1558 126.086C62.625 126.555 63.2114 127.024 63.6806 127.494C64.267 127.963 62.625 128.08 61.1002 127.728C59.6927 127.376 58.2853 126.673 58.2853 126.438C58.4025 125.148 58.5198 123.271 58.168 122.098L60.7483 121.629Z" fill="#A87C4F"/>
<path d="M58.4064 126.086C58.2891 126.79 58.2891 127.376 58.2891 127.611C58.2891 128.315 65.2091 130.426 65.6783 129.839C66.0302 129.37 64.74 128.197 63.4498 127.142C62.8633 127.611 61.4559 128.197 58.4064 126.086Z" fill="#212B53"/>
<path d="M54.5296 123.154C54.5296 123.154 54.6469 126.204 55.937 127.611C56.4062 128.08 56.8754 128.549 57.4618 129.019C58.1655 129.605 56.2889 129.605 54.5296 129.136C53.2394 128.784 52.0665 128.08 52.0665 127.846C52.1838 126.555 52.3011 124.796 51.9492 123.623L54.5296 123.154Z" fill="#A87C4F"/>
<path d="M44.4481 70.7259C46.0901 71.6642 47.1457 73.5408 47.1457 75.4175C47.1457 76.9422 46.442 78.467 46.9112 79.9918C47.1457 80.5782 47.4976 81.0474 47.7322 81.5165C48.2013 82.4548 48.3186 83.3932 48.2013 84.4488C48.0841 85.1525 47.8495 85.8562 47.3803 86.3254C47.0285 86.6773 46.5593 86.7945 46.2074 87.0291C45.2691 87.381 44.3308 87.7329 43.2752 87.8501C42.2196 87.9674 41.164 87.7329 40.4603 87.0291C39.9911 86.56 39.5219 85.9735 38.8182 85.8562C38.5836 85.8562 38.349 85.8562 38.1145 85.8562C37.1762 85.9735 36.3551 86.0908 35.5341 86.4427C34.5958 86.7945 33.8921 87.381 32.9537 87.6156C31.6636 87.8501 30.1388 87.1464 29.5523 85.8562C28.9659 84.566 29.4351 83.0413 30.4907 82.2203C31.3117 81.5165 32.6019 81.2819 33.071 80.3436C33.4229 79.5226 33.071 78.467 33.4229 77.646C33.8921 76.1212 35.886 75.6521 36.8243 74.4792C37.7626 73.3063 38.1145 71.7815 39.4046 70.8432C40.8121 69.7876 43.0406 69.9049 44.4481 70.7259Z" fill="#231F20"/>
<path d="M35.0681 101.104C35.0681 101.104 34.8335 108.728 37.4138 109.314C39.9942 109.901 47.8526 110.604 48.5563 112.012C49.2601 113.419 50.433 125.265 50.433 125.265L55.4764 125.148C55.4764 125.148 54.5381 111.425 54.4208 110.135C54.1862 108.259 52.7787 106.734 52.7787 106.734C52.7787 106.734 54.4208 107.32 55.0072 109.314C55.3591 110.487 57.0012 123.389 57.0012 123.389L61.6927 123.272C61.6927 123.272 61.2236 105.209 57.8222 103.332C54.4208 101.573 45.7414 99.5791 45.7414 99.5791L35.0681 101.104Z" fill="#01888B"/>
<path d="M48.4383 88.6712L51.4878 95.4739L48.7901 96.6468C48.7901 96.6468 46.4443 93.8319 45.2714 91.017C44.0986 88.202 48.4383 88.6712 48.4383 88.6712Z" fill="#A87C4F"/>
<path d="M41.0488 82.2202C41.0488 82.2202 44.2156 82.4548 45.975 83.9796C47.617 85.5043 49.2591 89.2576 49.2591 89.2576L46.4441 90.6651C46.4441 90.6651 46.6787 92.8935 45.3885 93.7146C45.3885 93.7146 45.154 97.2333 46.4441 99.9309C46.4441 99.9309 39.5241 103.332 34.7152 102.042L32.7213 92.3071L29.7891 91.6034C29.7891 91.6034 30.1409 85.1525 33.3077 83.5104C36.4746 82.1029 39.0549 81.8684 41.0488 82.2202Z" fill="#FFBEA2"/>
<path d="M30.4909 91.7207L34.4788 92.5417C34.4788 92.5417 34.1269 95.8258 34.7133 97.2333C35.6516 99.6964 39.5222 101.573 41.1642 101.104L41.3988 102.629C41.3988 102.629 32.954 103.567 31.1946 98.9926C29.318 94.6529 30.4909 91.7207 30.4909 91.7207Z" fill="#A87C4F"/>
<path d="M46.4465 90.7821C46.4465 90.7821 46.3292 90.7821 46.4465 90.7821C46.212 89.7265 45.0391 88.5536 45.0391 88.5536C45.0391 88.5536 45.0391 88.5536 45.0391 88.4363C45.0391 88.4363 45.0391 88.4363 45.1564 88.4363C45.1564 88.4363 46.3292 89.6092 46.4465 90.7821C46.4465 90.6648 46.4465 90.7821 46.4465 90.7821Z" fill="white"/>
<path d="M39.2916 93.2452C38.4706 93.3625 37.5323 93.2452 36.3594 92.6588C36.3594 92.6588 36.3594 92.6587 36.3594 92.5415C36.3594 92.5415 36.3594 92.5415 36.4767 92.5415C39.2916 94.1835 41.0509 92.3069 41.0509 92.3069C41.0509 92.3069 41.0509 92.3069 41.1682 92.3069C41.1682 92.3069 41.1682 92.3069 41.1682 92.4242C41.1682 92.3069 40.4645 93.0106 39.2916 93.2452Z" fill="white"/>
<path d="M35.0669 92.7763C35.0669 92.7763 34.9496 92.7763 35.0669 92.7763L34.4805 92.659C34.4805 92.659 34.4805 92.659 34.4805 92.5417C34.4805 92.5417 34.4805 92.5417 34.5978 92.5417L35.0669 92.7763L35.5361 88.9058L35.0669 92.7763C35.0669 92.659 35.0669 92.7763 35.0669 92.7763Z" fill="white"/>
<path d="M45.2657 77.1769C45.2657 77.1769 45.6176 76.7077 45.8522 77.0596C46.4386 77.646 45.6176 78.2325 45.1484 78.2325L45.2657 77.1769Z" fill="#A87C4F"/>
<path d="M42.455 70.7255C40.4611 70.4909 38.5845 71.7811 38.1153 73.6577C37.998 74.2442 37.998 74.9479 38.1153 75.5344C38.3499 76.9418 38.5845 78.1147 39.0536 79.053C39.4055 79.9914 39.5228 80.9297 39.1709 81.9853L39.0536 82.3372C38.9363 82.689 39.0536 83.0409 39.4055 83.2755C40.4611 83.8619 41.1648 83.8619 41.634 83.7446C41.8686 83.6273 42.1031 83.3928 42.2204 83.1582L42.5723 81.2815C45.0354 81.3988 45.6218 76.8246 45.8564 75.5344V75.4171C46.2083 73.0713 44.6835 70.9601 42.455 70.7255Z" fill="#A87C4F"/>
<path d="M41.3998 74.5962C40.8134 74.948 40.3442 75.4172 39.7578 75.8863C39.1713 76.3555 38.7021 76.9419 38.4676 77.5284C37.8811 76.9419 37.6465 76.1209 37.412 75.4172C37.2947 75.0653 37.1774 74.7134 37.2947 74.3616C37.2947 73.7751 37.5293 73.306 37.7638 72.8368C37.9984 72.2504 38.3503 71.5466 38.9367 71.1948C39.2886 70.9602 39.7577 70.7256 40.1096 70.6083C41.1652 70.3737 42.2208 70.3737 43.2764 70.7256C44.332 71.0775 45.1531 71.7812 45.6222 72.7195C46.2087 73.8924 45.9741 75.4172 45.8568 76.7074C45.8568 76.1209 45.5049 75.6518 45.2703 75.0653C45.0358 74.7134 44.9185 74.3616 44.6839 74.127C44.2147 73.6578 44.0975 73.7751 43.2764 72.9541C42.69 73.6578 42.1035 74.127 41.3998 74.5962Z" fill="#231F20"/>
<path d="M39.0496 76.8249C39.0496 76.7076 38.9324 76.5903 38.8151 76.473C38.5805 76.3557 38.1113 76.1212 37.7595 76.3557C37.173 76.7076 37.8767 78.2324 38.9324 77.7632C38.9324 77.7632 39.2842 77.5286 39.0496 76.8249Z" fill="#A87C4F"/>
<path d="M41.2854 102.746C41.2854 102.746 41.6372 102.863 42.1064 102.863C42.5755 102.746 43.8657 102.394 44.1003 102.394C44.3349 102.394 45.5078 102.629 45.7424 102.511C45.9769 102.394 44.5695 101.925 44.5695 101.925C44.5695 101.925 45.8596 102.159 45.9769 102.042C46.0942 101.808 44.804 101.456 44.804 101.456C44.804 101.456 46.0942 101.573 46.0942 101.338C46.0942 101.104 44.9213 100.987 44.9213 100.987C44.9213 100.987 45.9769 100.987 46.0942 100.752C46.0942 100.635 44.4522 100.283 43.7484 100.4C43.0447 100.517 41.0508 101.221 41.0508 101.221L41.2854 102.746Z" fill="#A87C4F"/>
<path d="M52.1915 127.612C52.0742 128.315 52.0742 128.902 52.0742 129.136C52.0742 129.84 58.9943 131.951 59.4634 131.365C59.8153 130.896 58.5251 129.723 57.235 128.667C56.6485 129.136 55.241 129.84 52.1915 127.612Z" fill="#212B53"/>
<path d="M60.6272 92.8936L47.8427 93.9492L44.5586 103.801L57.4604 102.629L60.6272 92.8936Z" fill="white"/>
<path d="M47.0965 102.955L38.4492 103.698L38.4994 104.282L47.1467 103.54L47.0965 102.955Z" fill="white"/>
<path d="M53.4802 98.406C53.3629 98.6406 53.2456 98.8751 53.0111 98.7578C52.7765 98.7578 52.6592 98.406 52.7765 98.1714C52.8938 97.9368 53.0111 97.7022 53.2456 97.8195C53.4802 97.9368 53.5975 98.1714 53.4802 98.406Z" fill="#D8E1E9"/>
<path d="M166.553 39.8788C166.436 39.1751 166.201 38.4713 165.849 37.8849C165.497 37.1811 165.145 36.5947 164.559 36.1255C163.034 34.6008 161.04 33.5452 158.695 33.5452C158.577 33.5452 158.343 33.5452 158.225 33.5452C155.176 33.6625 152.713 35.5391 151.423 38.0022C150.953 39.0578 150.602 40.2307 150.602 41.4035C150.602 44.2185 152.126 46.7989 154.472 48.2063C155.293 48.6755 156.349 49.1446 157.404 49.2619C157.756 49.3792 158.225 49.3792 158.695 49.3792C162.096 49.3792 165.028 47.268 166.201 44.3358C166.318 44.1012 166.318 43.8666 166.436 43.632C166.553 43.0456 166.67 42.4592 166.67 41.7554C166.67 41.6381 166.67 41.5208 166.67 41.4035C166.67 40.9344 166.67 40.3479 166.553 39.8788ZM163.034 41.6381C163.034 41.8727 163.034 42.1073 162.917 42.3419C162.917 42.5764 162.8 42.811 162.682 42.9283C162.096 44.5704 160.454 45.626 158.577 45.626C158.225 45.626 157.991 45.626 157.639 45.5087C157.17 45.3914 156.701 45.1568 156.231 44.9222C155.059 44.2185 154.238 42.811 154.238 41.2863C154.238 40.5825 154.355 39.9961 154.707 39.4096C155.293 38.1194 156.583 37.1811 158.108 37.0638C158.225 37.0638 158.46 37.0638 158.577 37.0638C159.281 37.0638 159.985 37.1811 160.571 37.533C161.392 37.8849 161.979 38.5886 162.448 39.2923C162.682 39.6442 162.8 39.9961 162.917 40.4652C162.917 40.6998 163.034 41.0517 163.034 41.2863C163.034 41.5208 163.034 41.5208 163.034 41.6381Z" fill="#B2C4D3"/>
<path d="M157.756 45.626L157.404 49.262C156.349 49.1447 155.41 48.7928 154.472 48.2064C152.126 46.7989 150.602 44.3358 150.602 41.4036C150.602 40.2307 150.836 39.0578 151.423 38.0022L154.707 39.527C154.472 40.1134 154.238 40.6998 154.238 41.4036C154.238 42.9283 155.059 44.3358 156.231 45.0396C156.818 45.2741 157.287 45.5087 157.756 45.626Z" fill="#839FB8"/>
<path d="M166.432 43.5147C166.315 43.7493 166.315 43.9838 166.198 44.2184C165.025 47.1507 162.092 49.2619 158.691 49.2619C157.166 49.2619 155.759 48.7927 154.586 48.089C155.172 47.1507 155.759 46.0951 156.463 44.9222C157.166 45.3913 157.87 45.6259 158.808 45.6259C160.685 45.6259 162.21 44.453 162.913 42.9282C163.031 42.6937 163.031 42.4591 163.148 42.3418L165.846 43.2801L166.432 43.5147Z" fill="#5C81A2"/>
<path d="M166.671 41.4034C166.671 41.5207 166.671 41.638 166.671 41.7553C166.671 42.6936 166.437 43.5146 166.085 44.2184L162.684 42.9282C162.801 42.459 162.918 41.9899 162.918 41.5207V41.4034C162.918 41.1688 162.918 40.817 162.801 40.5824L166.437 39.8787C166.671 40.3478 166.671 40.9343 166.671 41.4034Z" fill="#F1F1F1"/>
<path d="M166.673 41.4039C166.673 41.5212 166.673 41.6385 166.673 41.7558L163.037 41.6385V41.5212C163.037 40.8174 162.803 40.1137 162.568 39.5273C162.099 38.7062 161.512 38.1198 160.691 37.7679L161.278 36.7123L164.679 36.2432C165.148 36.8296 165.618 37.4161 165.969 38.0025C166.439 38.9408 166.673 40.1137 166.673 41.4039Z" fill="#F4F4F4"/>
<path d="M165.85 37.8849L162.566 39.4096C161.863 38.0022 160.338 37.1811 158.696 37.1811C158.578 37.1811 158.344 37.1811 158.227 37.1811V33.5452C158.344 33.5452 158.578 33.5452 158.696 33.5452C161.863 33.5452 164.56 35.3045 165.85 37.8849Z" fill="#FF7C44"/>
<path d="M162.215 37.2985C162.215 37.0639 162.449 36.8293 162.684 36.8293C162.919 36.8293 163.153 37.0639 163.153 37.2985C163.153 37.5331 162.919 37.7677 162.684 37.7677C162.332 37.7677 162.215 37.5331 162.215 37.2985Z" fill="white"/>
<path d="M174.059 33.0763C174.059 32.8418 174.293 32.6072 174.528 32.6072C174.762 32.6072 174.997 32.8418 174.997 33.0763C174.997 33.3109 174.762 33.5455 174.528 33.5455C174.293 33.5455 174.059 33.3109 174.059 33.0763Z" fill="white"/>
<path d="M162.684 37.2984H162.566L165.147 32.9587H174.53V33.076H165.264L162.684 37.2984Z" fill="#5C81A2"/>
<path d="M173.472 29.9094H165.145V30.3786H173.472V29.9094Z" fill="#839FB8"/>
<path d="M170.071 30.9648H165.145V31.434H170.071V30.9648Z" fill="#839FB8"/>
<path d="M123.272 19.8215H74.0101C70.0223 19.8215 66.8555 22.9883 66.8555 26.9762V117.054C66.8555 121.042 70.0223 124.209 74.0101 124.209H121.278C125.5 124.209 128.902 120.808 128.902 116.585V25.4514C128.902 22.2846 126.321 19.8215 123.272 19.8215Z" fill="#F1F1F2"/>
<path d="M74.8368 31.1991C75.355 31.1991 75.7751 30.779 75.7751 30.2608C75.7751 29.7426 75.355 29.3225 74.8368 29.3225C74.3185 29.3225 73.8984 29.7426 73.8984 30.2608C73.8984 30.779 74.3185 31.1991 74.8368 31.1991Z" fill="#5C81A2"/>
<path d="M76.4778 29.2053C76.3606 29.2053 76.3606 29.2053 76.2433 29.088C75.7741 28.6189 75.1877 28.3843 74.7185 28.3843C73.8975 28.3843 73.311 29.088 73.311 29.088C73.1937 29.2053 72.9592 29.2053 72.8419 29.088C72.7246 28.9707 72.7246 28.7362 72.8419 28.6189C72.8419 28.6189 73.5456 27.7979 74.7185 27.7979C75.4222 27.7979 76.126 28.0324 76.7124 28.6189C76.8297 28.7362 76.8297 28.9707 76.7124 29.088C76.7124 29.2053 76.5951 29.2053 76.4778 29.2053Z" fill="#5C81A2"/>
<path d="M77.5303 27.798C77.4131 27.798 77.4131 27.798 77.2958 27.798C76.4747 26.977 75.6537 26.6251 74.7154 26.6251C73.3079 26.6251 72.3696 27.6807 72.3696 27.6807C72.2523 27.798 72.0178 27.798 71.9005 27.6807C71.7832 27.5634 71.7832 27.3289 71.9005 27.2116C71.9005 27.2116 73.0734 25.9214 74.7154 25.9214C75.771 25.9214 76.8266 26.2733 77.7649 27.2116C77.8822 27.3289 77.8822 27.5634 77.7649 27.6807C77.6476 27.798 77.6476 27.798 77.5303 27.798Z" fill="#5C81A2"/>
<path d="M78.5907 26.5078C78.4734 26.5078 78.4734 26.5078 78.3561 26.3905C77.1832 25.3349 76.0103 24.7484 74.7201 24.7484C72.8435 24.8657 71.436 26.2732 71.436 26.2732C71.3187 26.3905 71.0842 26.3905 70.9669 26.2732C70.8496 26.1559 70.8496 25.9213 70.9669 25.804C71.0842 25.6867 72.4916 24.162 74.7201 24.0447C76.1276 23.9274 77.5351 24.6311 78.8253 25.804C78.9425 25.9213 78.9425 26.1559 78.8253 26.2732C78.708 26.5078 78.5907 26.5078 78.5907 26.5078Z" fill="#5C81A2"/>
<path d="M85.9729 111.894H73.5402C72.8364 111.894 72.25 111.308 72.25 110.604V98.8749C72.25 98.1712 72.8364 97.5847 73.5402 97.5847H85.9729C86.6766 97.5847 87.263 98.1712 87.263 98.8749V110.604C87.263 111.308 86.6766 111.894 85.9729 111.894Z" fill="#A7BBCD"/>
<path d="M74.02 108.962L77.4214 102.863C77.6559 102.511 78.2424 102.394 78.477 102.745L80.7055 105.795C80.9401 106.147 81.4092 106.147 81.6438 105.795L82.2302 105.208C82.4648 104.857 83.0513 104.974 83.1686 105.326L85.5143 108.962C85.7489 109.431 85.5143 109.9 85.0452 109.9H74.6064C74.1373 109.9 73.7854 109.314 74.02 108.962Z" fill="#5C81A2"/>
<path d="M80.0039 100.752C80.0039 100.165 80.4731 99.5789 81.1768 99.5789C81.7632 99.5789 82.3497 100.048 82.3497 100.752C82.3497 101.338 81.8805 101.925 81.1768 101.925C80.4731 101.925 80.0039 101.455 80.0039 100.752Z" fill="#5C81A2"/>
<path d="M104.153 111.894H91.7199C91.0161 111.894 90.4297 111.308 90.4297 110.604V98.8749C90.4297 98.1712 91.0161 97.5847 91.7199 97.5847H104.153C104.856 97.5847 105.443 98.1712 105.443 98.8749V110.604C105.325 111.308 104.739 111.894 104.153 111.894Z" fill="#A7BBCD"/>
<path d="M92.0747 108.962L95.4761 102.863C95.7106 102.511 96.2971 102.394 96.5317 102.745L98.7602 105.795C98.9947 106.147 99.4639 106.147 99.6985 105.795L100.285 105.208C100.519 104.857 101.106 104.974 101.223 105.326L103.569 108.962C103.804 109.431 103.569 109.9 103.1 109.9H92.6611C92.192 109.9 91.8401 109.314 92.0747 108.962Z" fill="#5C81A2"/>
<path d="M98.0586 100.752C98.0586 100.165 98.5278 99.5789 99.2315 99.5789C99.8179 99.5789 100.404 100.048 100.404 100.752C100.404 101.338 99.9352 101.925 99.2315 101.925C98.645 101.925 98.0586 101.455 98.0586 100.752Z" fill="#5C81A2"/>
<path d="M122.106 111.894H109.673C108.969 111.894 108.383 111.308 108.383 110.604V98.8749C108.383 98.1712 108.969 97.5847 109.673 97.5847H122.106C122.809 97.5847 123.396 98.1712 123.396 98.8749V110.604C123.396 111.308 122.809 111.894 122.106 111.894Z" fill="#A7BBCD"/>
<path d="M110.141 108.962L113.542 102.863C113.777 102.511 114.363 102.394 114.598 102.745L116.827 105.795C117.061 106.147 117.53 106.147 117.765 105.795L118.351 105.208C118.586 104.857 119.172 104.974 119.29 105.326L121.635 108.962C121.87 109.431 121.635 109.9 121.166 109.9H110.728C110.258 109.9 109.906 109.314 110.141 108.962Z" fill="#5C81A2"/>
<path d="M116.129 100.752C116.129 100.165 116.598 99.5789 117.302 99.5789C117.888 99.5789 118.475 100.048 118.475 100.752C118.475 101.338 118.006 101.925 117.302 101.925C116.598 101.925 116.129 101.455 116.129 100.752Z" fill="#5C81A2"/>
<path d="M116.234 52.428C116.234 57.5888 114.006 62.2803 110.487 65.5644C107.32 68.4967 103.098 70.256 98.4062 70.256C93.8319 70.256 89.6095 68.4967 86.4427 65.6817C82.8067 62.3976 80.4609 57.7061 80.4609 52.3107C80.4609 42.4584 88.4366 34.3655 98.4062 34.3655C108.141 34.4828 116.234 42.5757 116.234 52.428Z" fill="#FF8A59"/>
<path d="M94.1752 82.4543H72.3594V84.331H94.1752V82.4543Z" fill="#FF8A59"/>
<path d="M88.6626 87.7317H72.3594V89.0219H88.6626V87.7317Z" fill="#A7BBCD"/>
<path d="M93.1196 90.8987H72.3594V92.1889H93.1196V90.8987Z" fill="#A7BBCD"/>
<path d="M106.612 87.7317H90.3086V89.0219H106.612V87.7317Z" fill="#A7BBCD"/>
<path d="M113.76 82.4543H98.043V84.331H113.76V82.4543Z" fill="#FF8A59"/>
<path d="M122.92 125.031H72.8379C69.0847 125.031 66.0352 121.981 66.0352 118.228V25.8038C66.0352 22.0505 69.0847 19.001 72.8379 19.001H122.92C126.674 19.001 129.723 22.0505 129.723 25.8038V118.228C129.723 121.981 126.674 125.031 122.92 125.031ZM72.8379 20.643C70.023 20.643 67.7945 22.8715 67.7945 25.6865V118.11C67.7945 120.925 70.023 123.154 72.8379 123.154H122.92C125.735 123.154 127.964 120.925 127.964 118.11V25.8038C127.964 22.9888 125.735 20.7603 122.92 20.7603H72.8379V20.643Z" fill="#5C81A2"/>
<path d="M123.505 68.145C123.739 68.6142 123.739 69.2006 123.622 69.7871L123.27 71.8983L122.918 72.1329L121.511 72.7193C121.628 72.2502 121.511 71.8983 121.511 71.8983L120.924 69.6698C120.924 69.6698 119.986 65.9165 122.566 66.0338C122.566 62.9843 123.387 63.4535 123.387 63.4535V66.0338L123.505 68.145Z" fill="#F7B58E"/>
<path d="M129.836 75.5344C129.836 75.5344 128.077 82.3371 126.552 82.4544C125.027 82.5717 123.502 71.6638 123.502 71.6638L121.391 71.8984C121.391 71.8984 120.57 87.4979 125.262 87.8497C129.836 88.0843 130.54 84.6829 130.54 84.6829L129.836 75.5344Z" fill="#FFDA70"/>
<path d="M129.953 94.0662H142.034C142.034 94.0662 142.034 85.2695 142.034 75.7691C138.633 70.4911 134.293 71.8986 134.293 71.8986C134.293 71.8986 130.422 72.0158 129.719 75.5345C129.836 78.2322 129.953 94.0662 129.953 94.0662Z" fill="#F6A505"/>
<path d="M135.706 69.4355L135.94 72.0159L135.823 72.1332C135.002 72.9542 133.594 72.9542 132.773 72.1332V70.1393L135.706 69.4355Z" fill="#F39F85"/>
<path d="M136.641 64.0398L136.406 68.3795C135.937 68.3795 135.702 68.8487 135.82 69.2005C135.82 69.3178 135.702 69.4351 135.702 69.5524C134.999 70.1388 133.591 70.7253 131.832 70.4907C129.134 70.0216 130.776 64.7435 130.776 64.7435L136.641 64.0398Z" fill="#F7B58E"/>
<path d="M138.049 67.3242C138.049 66.9723 138.518 66.3859 138.752 66.1513C140.277 64.8611 138.87 63.8055 138.401 63.5709C137.814 63.219 137.931 62.2807 137.228 61.6943C136.172 60.8733 135.116 61.6943 134.413 61.577C133.709 61.4597 133.357 60.5214 132.302 60.9906C131.363 61.4597 131.363 62.2807 131.129 62.6326C130.777 62.9845 130.19 62.0461 129.252 63.1018C127.727 64.6265 130.659 65.3303 130.659 65.3303C130.659 65.3303 132.184 66.034 134.295 65.213C134.53 65.0957 134.882 65.213 135.116 65.4475C135.586 66.1513 135.586 69.67 135.586 69.67L136.289 69.0835C136.407 68.9662 137.931 68.7316 138.049 67.3242Z" fill="#212B53"/>
<path d="M136.404 67.676C136.287 68.0279 135.935 68.1452 135.583 68.0279C135.231 67.9106 135.114 67.5588 135.231 67.2069C135.349 66.855 135.701 66.7377 136.053 66.855C136.404 66.9723 136.522 67.3242 136.404 67.676Z" fill="#F7B58E"/>
<path d="M132.77 128.667C132.77 128.667 132.067 129.605 128.9 130.426C128.196 130.661 127.375 130.778 127.375 131.951C128.9 131.951 130.542 131.951 130.542 131.951L133.826 131.364V131.951H135.585C135.585 131.951 136.054 129.136 134.999 128.667C134.06 128.667 132.77 128.667 132.77 128.667Z" fill="#212B53"/>
<path d="M132.535 126.673L132.652 128.784C133.239 129.253 134.177 129.253 134.764 128.901L134.881 128.784V126.673H132.535Z" fill="#F7B58E"/>
<path d="M141.684 128.667C141.684 128.667 140.981 129.605 137.814 130.426C137.11 130.661 136.289 130.778 136.289 131.951C137.814 131.951 139.456 131.951 139.456 131.951L142.74 131.364V131.951H144.499C144.499 131.951 144.968 129.136 143.913 128.667C143.092 128.667 141.684 128.667 141.684 128.667Z" fill="#212B53"/>
<path d="M141.566 126.673L141.684 128.784C142.27 129.253 143.208 129.253 143.795 128.901L143.912 128.784V126.673H141.566Z" fill="#F7B58E"/>
<path d="M142.038 75.7688C142.038 75.7688 145.674 84.0963 140.982 88.436C136.408 92.6585 130.074 91.9547 130.074 91.9547V89.4916C130.074 89.4916 135.704 89.0225 137.581 85.2692C139.34 81.516 136.877 78.2319 136.877 78.2319" fill="#F6A505"/>
<path d="M130.543 91.6031L127.611 91.7204C126.438 91.6031 125.617 89.8437 125.5 88.5535C125.5 88.319 125.617 88.2017 125.852 88.319C126.79 88.6708 129.371 89.6091 129.957 89.961L130.543 91.6031Z" fill="#F7B58E"/>
<path d="M129.957 94.0662C126.321 104.27 131.951 126.79 131.951 126.79H135.118C135.118 126.79 133.593 94.8872 137.816 94.0662C131.482 94.0662 132.772 94.0662 129.957 94.0662Z" fill="#00666B"/>
<path d="M138.285 82.689C138.285 83.51 138.05 84.331 137.581 85.2693C135.822 89.0226 129.84 89.609 129.84 89.609V92.0721C129.84 92.0721 136.408 92.7758 140.982 88.4361C142.624 86.9114 143.211 84.8002 143.328 82.8063H138.285V82.689Z" fill="#FFDA70"/>
<path d="M138.282 83.041C138.4 83.041 138.517 82.9237 138.634 82.9237C138.869 80.1088 137.227 77.9976 137.227 77.9976L136.992 78.2321C136.992 78.2321 138.517 80.3433 138.282 83.041Z" fill="#F08712"/>
<path d="M122.919 68.4972C122.919 68.4972 123.622 68.2626 123.74 67.0897C123.857 65.9168 124.443 66.2687 124.443 66.2687C124.443 66.2687 124.092 71.0776 123.388 71.1949C122.567 71.4294 122.919 68.4972 122.919 68.4972Z" fill="#F7B58E"/>
<path d="M133.592 94.0662C132.654 106.499 140.63 126.79 140.63 126.79H144.5C144.5 126.79 141.92 113.888 141.803 101.69C141.803 99.1096 141.92 96.5292 142.154 94.0662C139.457 94.0662 135.938 94.0662 133.592 94.0662Z" fill="#01888B"/>
<path d="M97.5859 51.2554C100.87 51.7245 103.685 48.9096 103.216 45.6255C102.864 43.5143 101.222 41.8722 99.2279 41.6376C95.8265 41.0512 93.0116 43.8661 93.4807 47.1502C93.8326 49.1442 95.5919 50.9035 97.5859 51.2554ZM98.4069 53.6012C95.1228 53.6012 88.6719 55.1259 88.6719 58.41V59.7002C88.6719 60.2866 89.141 60.7558 89.7275 60.7558H106.969C107.555 60.7558 108.025 60.2866 108.025 59.7002V58.41C108.142 55.2432 101.691 53.6012 98.4069 53.6012Z" fill="white"/>
<path d="M183.553 93.9646H185.781V84.9333H183.553V93.9646Z" fill="#A7BBCD"/>
<path d="M180.049 93.9292H182.277V81.3792H180.049V93.9292Z" fill="#A7BBCD"/>
<path d="M176.221 93.9429H178.449V83.1522H176.221V93.9429Z" fill="#A7BBCD"/>
<path d="M172.42 94.0293H174.648V86.1709H172.42V94.0293Z" fill="#A7BBCD"/>
<path d="M168.752 93.9873H170.98V88.592H168.752V93.9873Z" fill="#A7BBCD"/>
<path opacity="0.5" d="M127.963 43.0452L67.6758 103.332V118.228C67.6758 120.339 69.3178 123.271 72.6019 123.271H87.2631L127.963 82.5717V43.0452Z" fill="white"/>
<path opacity="0.5" d="M120.573 20.76H98.992L67.6758 51.959V80.2257L126.32 21.9329C124.327 20.2909 122.333 20.76 120.573 20.76Z" fill="white"/>
</svg>
